<?xml version="1.0" standalone="no"?>
<!DOCTYPE svg PUBLIC "-//W3C//DTD SVG 1.1//EN" "http://www.w3.org/Graphics/SVG/1.1/DTD/svg11.dtd" >
<svg xmlns="http://www.w3.org/2000/svg">
<metadata></metadata>
<defs>
<font id="mysteryland_fontregular" horiz-adv-x="1024" >
<font-face units-per-em="2048" ascent="1536" descent="-512" />
<missing-glyph horiz-adv-x="321" />
<glyph />
<glyph />
<glyph unicode="&#xd;" horiz-adv-x="514" />
<glyph unicode=" "  horiz-adv-x="321" />
<glyph unicode="&#x09;" horiz-adv-x="321" />
<glyph unicode="&#xa0;" horiz-adv-x="321" />
<glyph unicode="!" horiz-adv-x="339" d="M16 1221v86v102q12 18 42 22.5t51 6.5q18 0 35.5 -1t33.5 -3q8 0 15.5 -1t17.5 -1q6 -4 10 -11q2 -4 2 -14q-2 -70 6 -137v-15q-2 -59 -2 -121.5t6 -115.5q4 -57 5.5 -109.5t-0.5 -109.5v-97v-247q-2 -35 -2 -66v-55v-15h-5q-8 -4 -10 -4q-4 0 -8 1t-8 1h-4 q-10 -2 -23.5 -3t-27.5 -1h-29t-29 4h-8h-2q-12 0 -21 2q-23 0 -30 3q-8 6 -8 20h-3v16q0 6 -1 13.5t1 15.5q0 31 1.5 70t1.5 78.5v76.5v62v166v47q4 51 0 82q-6 61 -6.5 125.5t-0.5 126.5zM17 101.5q1 50.5 6 103.5q2 4 4 9t4 11q2 0 2 1t2 1q49 10 98 8t98 -6q4 -2 9 -10 v-39q-2 -4 -2 -10v-20v-44.5t2 -44.5v-6q2 -10 2 -22.5t-11 -22.5v-2q-4 -2 -8 -3t-8 -3h-2q-16 -4 -30.5 -5t-30.5 -1h-27h-16h-27.5t-32.5 2h-29q-4 53 -3 103.5z" />
<glyph unicode="&#x22;" horiz-adv-x="651" d="M16 1274q-2 49 2 98q2 27 12.5 40t25 18.5t34 5.5t39.5 2q8 0 14.5 1t16.5 1q14 -2 31.5 -2t32 -4t22.5 -15.5t8 -36.5q-2 -29 4 -65v-2v-64.5t2 -64.5q-4 -31 -10 -59.5t-17.5 -52t-31 -41t-47.5 -23.5q-2 4 -11 8q-29 33 -65 59q29 12 48 32.5t17 55.5q0 10 -6 13.5 t-12 -0.5q-2 0 -10 4q-12 0 -21 -2q-6 -2 -18 -2q-33 4 -58 -2q0 49 -2 98zM318 1288q-1 37 1 76v33q0 18 10.5 25.5t26.5 9.5h2q6 0 9 2h32q27 0 58.5 -3.5t60.5 3.5q12 -4 23 -9q8 -4 6 -4q2 -29 6 -49q2 -18 3 -37t5 -35q-2 -4 -2 -12v-52.5t2 -49.5q-4 -47 -23.5 -98.5 t-54.5 -75.5q-12 4 -25.5 9t-23.5 11l-8 4l-8 4q-6 6 -15 11q-10 10 3.5 28.5t17.5 28.5q23 23 20 57q0 10 -6 13.5t-12 -0.5q-2 0 -10 4q-12 0 -21 -2q-4 -2 -18 -2h-27q-23 6 -31 34q0 39 -1 76z" />
<glyph unicode="#" horiz-adv-x="1249" d="M-13 552q1 21 3 44q0 10 2 20.5t2 20.5q8 14 10 14q8 2 21 2l2 2q41 -4 79.5 -1t79.5 8h17h41l2 16q2 12 4 27.5t6 31.5t7 31.5t7 30.5h-77q-39 0 -76 1t-66 1h-14l2 6q-6 2 -6 12q0 6 1 11.5t1 9.5v2q-4 14 -5 32.5t-1 34.5v38t4 38q0 4 1 5t1 5v4v27q2 8 2 17.5t2 17.5 q6 14 18 14v2h23q6 0 16 1t21 -3q47 0 93 -1t91 -1q4 23 8 44.5t8 43.5l19 111l18 129q23 23 62 29t65 8h44.5t45.5 -4q10 0 18.5 -1t18.5 -3q12 -8 15 -13v-20v-2q-10 -43 -15.5 -86t-7.5 -84q0 -4 -1 -10.5t-1 -10.5q-6 -33 -12 -64.5t-11 -66.5l21 2q12 0 26.5 -1 t28.5 -1q23 -2 42.5 -2h35.5q8 47 15.5 94t15.5 95q6 41 14 81.5t12 69.5l2 16h9q6 6 12 7q8 0 20 -4q2 0 2 1t3 1q12 4 31.5 5t35.5 1t38 -1t36 -3q4 -2 10 -2q2 -2 4 -2q6 2 12.5 1t12.5 -1q20 0 37 -7q8 -2 8 -18l-2 -23q0 -8 -2 -19t-6 -22q-8 -51 -21.5 -121.5 t-23.5 -136.5h45q12 0 16 -1t6 -1h5h16l120 2q20 -16 26.5 -54.5t8.5 -65.5q2 -41 -4 -86q0 -12 -1 -22.5t-3 -20.5q-2 -4 -4 -8.5t-6 -8.5q-12 0 -21 -2h-2q-80 4 -157 -6h-19h-69l-7 -43q-4 -29 -12 -57q0 -10 -1 -17.5t-3 -17.5h102h144h14l-2 -10q6 -4 6 -13 q0 -6 -4 -18q2 0 2 -4q6 -29 6 -70q0 -14 -1 -35.5t-3 -36.5q-2 -4 -2 -10v-4q0 -8 -1 -14t-1 -13v-19t-4 -19t-16 -11h-23q-6 -2 -16.5 -3t-22.5 3h-106.5t-106.5 2q-4 -29 -9 -58.5t-9 -57.5q-4 -29 -9.5 -55.5t-11.5 -55.5l-18 -127q-23 -25 -62 -31t-63 -6 q-23 -2 -45.5 -1t-44.5 3q-10 2 -20.5 3t-20.5 1q-8 8 -10 13v20v2q8 43 13 85t7 85q0 14 2 21q6 39 14.5 77.5t14.5 79.5h-23.5t-21.5 2q-29 0 -54.5 1t-44.5 -3h-10q-8 -49 -17 -104t-20 -107q-6 -41 -13 -82t-13 -69l-2 -19l-9 2q-4 -6 -12 -6q-4 -2 -9 0t-9 2h-4 q-16 -4 -35 -6t-35 -2t-37.5 1t-36.5 5q-2 0 -4 1t-4 1h-6h-25q-10 2 -19 2t-17 4q-8 2 -9 21h-2l4 20q0 8 2 19.5t7 21.5q10 59 23 138t24 149h-13h-45h-121q-10 8 -17 22.5t-10 32t-4 35t-1 29.5q-2 23 -1 44zM524 676q35 2 69 2h69q4 29 9 57.5t11 59.5h-135h-4 q-7 -64 -19 -119z" />
<glyph unicode="$" horiz-adv-x="671" d="M4 1222.5q4 96.5 37 182.5t94 133q4 6 11.5 10t13.5 8v5v6q0 2 2 4v24v33q2 29 4 57.5t-2 57.5l6 6v2q4 4 9 5t9 3h2q16 4 34 5t34 1h29h18h4h2q18 0 39 -3t33 -19q12 -10 15 -27.5t3 -34.5q-2 0 -2 -2v-8v-6v-2q0 -2 2 -2q0 -10 1 -21.5t4 -25.5q-2 -18 -3.5 -35.5 t-1.5 -34.5q8 -4 15 -10q31 -23 52 -59.5t36.5 -81.5t24 -92.5t12.5 -92.5q2 -41 -11 -78q-4 -8 -10 -14l-10 -10l-6 2l-4 -2q-12 -12 -31 -12q-16 -2 -31.5 -3t-31.5 -1h-19q-20 4 -29 6q-10 2 -26 6q-6 0 -8 4l-2 2h-3l-2 2q-2 8 -2 34.5t-2 61.5v8q-2 8 -2 13.5v7.5v8 q0 25 -4 37q0 2 -4 10q-4 6 -8 15l-2 4h-2q-6 2 -13.5 3t-13.5 3h-6l-2 -6q-35 -51 -12 -207q4 -29 35.5 -85t87.5 -134q16 -23 30.5 -42.5t28.5 -37.5q35 -41 63.5 -81t51.5 -89q72 -147 71 -271q0 -139 -62.5 -232t-148.5 -132v-2v-33q-2 -29 -3 -58.5t1 -58.5l-4 -4v-2 q-6 -4 -18 -8h-2q-16 -4 -33.5 -5t-34.5 -1h-14t-14 -2h-21h-2q-2 0 -2 2q-20 -2 -38.5 1t-35.5 19q-10 12 -13 28.5t-3 33.5v4v8v4v6q0 10 -2 21.5t-2 25.5v21.5t2 21.5q-16 10 -28.5 25.5t-27.5 32.5q-57 78 -79.5 186.5t-3.5 206.5l2 4q8 25 16 48.5t18 45.5q12 6 29 6 h17.5t19.5 -4q20 -4 31 -4h6h6l2 2q10 -4 20.5 -6t20.5 -4q10 -4 21.5 -7t21.5 -7q2 -6 1 -12.5t-1 -10.5l-2 -6q-2 -10 -3 -19.5t-3 -19.5v-37q0 -27 -1 -39t-1 -16v-14q0 -12 1 -28.5t5 -27.5q4 -4 4 -14v-2q2 -18 8 -34.5t25 -24.5q6 -4 14 -6.5t14 -4.5q18 0 34 11.5 t25 30t12 39t-3 38.5q0 14 -1 26.5t-5 24.5q-6 27 -15.5 52.5t-17.5 44.5q-16 33 -36.5 67.5t-43.5 63.5q-35 43 -80 103.5t-96 137.5q-45 68 -66.5 163t-17.5 191.5z" />
<glyph unicode="%" horiz-adv-x="1521" d="M19 240q6 47 8 92q0 25 -1 38t-2 23t-1 23.5v40.5q0 33 1 46t1 15t0 -3v-7v61v222v49t4 53v88q-4 47 -6.5 94t-2.5 94q0 33 1.5 67t1.5 69q0 4 1 9t1 9v8q6 31 17 58.5t32 50.5q25 25 56.5 26.5t59.5 -6.5v4q-2 0 -10 4h180h7q23 4 47 7.5t47 3.5q106 -2 210.5 -1 t211.5 1q104 0 213 6q45 2 73.5 -2t75.5 -8q10 0 21.5 -2.5t23.5 -4.5h23q23 4 39 0h18l-2 2q12 0 19.5 -1t3.5 -1h-11q23 0 43.5 -13t30.5 -36q4 -14 6 -29.5t4 -29.5q4 -20 4 -35v-20q16 -109 10.5 -216.5t-10.5 -218.5v-20v-393v-8q9 -80 7 -164q0 -18 1 -38t1 -40 q-6 -43 -27 -84q-4 -10 -11 -17.5t-14 -15.5q-4 -8 -10 -14q-4 -4 -8 -6t-8 -7q-10 -4 -17.5 -8t-15.5 -6q-2 0 -2 -2h-12h-58.5t-58.5 4q-12 0 -18 2q-23 -23 -42.5 -45t-37.5 -45q-6 -10 -14.5 -21.5t-18.5 -21.5h84q20 2 38.5 3t37.5 3q2 0 8 -6h2v-8l-2 -4v-2 q-6 -4 -12.5 -7t-14.5 -5l-53 -35q-12 -8 -29 -21q-29 -14 -53.5 -34.5t-54.5 -30.5l-170 -105q-4 -4 -6 -4t-7 -2q-10 -6 -19 -11t-19 -13v2q10 10 18 19t16 19l115 158l-100 12h-52h-2q0 4 -4 9q0 6 4 10q2 12 9 22h2l32 60q12 29 24.5 56.5t29.5 53.5h-504 q-18 -6 -36.5 -10t-35.5 -4q-31 0 -61.5 2t-59.5 2q-2 2 -6 2q-20 0 -42.5 1t-45.5 7h-18q-31 0 -54.5 21.5t-31.5 56.5q0 4 -6 15q-12 41 -6 88zM242 342q-4 -20 2 -37v-8q-2 -27 6 -39q0 -4 1 -5t1 -3t4 -2h2h2q4 -2 9 -4t12 -2q6 -2 18 -2h16h13h4h8h12q4 0 11.5 1 t13.5 7h2q8 10 13 20.5t1 26.5q0 6 4 10q0 47 -1 97.5t-1 101.5q-2 61 -2 122.5t-2 114.5q23 -53 35 -97t23 -89q4 -20 15 -59t24.5 -82t27.5 -81t23 -54l4 -5l53 5l2 6q8 20 21.5 62t26.5 90t24.5 92t17.5 69q2 10 4 18.5t6 18.5t7.5 20.5t5.5 22.5q2 10 3 17t3 16v-108.5 t-1 -119t-2 -118t-1 -107.5q4 -8 12 -20q8 -8 33 -9h4q4 0 10 1t12 1q4 0 10.5 1t10.5 1q2 0 3 -1t3 -1h4h10q14 0 23 9h2q8 12 10 24q0 63 2 138t3 151t2 148.5t1 132.5q0 23 -1 48t-3 50q0 39 -1 75.5t1 71.5v29q2 16 3 34.5t-1 35.5q0 12 1 24t1 27v31q-8 27 -34 32 q-2 2 -7 2l-4 2q-6 0 -8 -2q-6 -4 -20 -4h-17q-4 0 -6 1t-6 1h-4h-7t-12 -2q-10 -4 -17 -7t-13 -11v-2q-4 -8 -7.5 -15.5t-3.5 -17.5q-16 -47 -30 -111q-12 -61 -28.5 -121.5t-29.5 -101.5q-4 -14 -9 -28.5t-9 -28.5q-6 -27 -13.5 -51.5t-15.5 -51.5q-6 27 -18 52 q-16 39 -27.5 72.5t-21.5 66.5q-4 12 -7.5 24.5t-7.5 22.5q-8 27 -15 51.5t-13 48.5q-2 2 -6 11v6q-16 63 -27 86l-2 4q-4 20 -8 31q-2 4 -2 10q-4 10 -8.5 24.5t-12.5 26.5v2q-14 18 -41 29q-4 0 -7 1t-7 1h-10h-4h-13h-18q-12 0 -29 -4q-4 -4 -8 -8.5t-10 -8.5q0 -6 2 -6 q-2 -2 -2 -4q-2 -14 -2 -27.5v-25.5q2 -6 2 -15v-16t2 -18q0 -8 1 -15.5t1 -13.5v-14v-21v-43q-2 -74 -3 -147.5t-1 -132.5q0 -61 1 -136t3 -151v-41v-25.5t-2 -21.5q-2 -12 -2 -24.5v-24.5zM944 416l2 -4v-4q0 -2 2 -2q-2 -10 -1 -19.5t1 -17.5v-9l2 -14v-32.5t-2 -32.5v-5 q-2 -6 -2 -15t6 -15q6 -4 11.5 -5t11.5 -5q10 -2 19.5 -2.5t19.5 -0.5h10h12h39q10 2 19.5 2.5t19.5 0.5h4h10h5h77h17h14h4h15q12 0 16 2h4v-2q4 4 5 4t3 4v2q4 4 6 8v92v6v8q0 8 1 16.5t-3 16.5q0 2 -4 2q-2 8 -6 12.5t-8 8.5q-10 6 -27 6q-6 0 -12 -1t-14 -1h-7 q-2 0 -13 -1t-23.5 -1h-22.5h-12q-10 0 -22.5 1t-24.5 3v84v36.5t-2 39.5v84t4 84t4 82.5v85.5q-2 16 -2 33.5v33.5v223v74q-8 12 -15 18h-4q0 4 -6 5q-20 4 -37 4h-16t-18 -4h-7q-10 -2 -21 -4.5t-18 -10.5l-6 -12v-2q-4 -8 0 -23q0 -23 1 -56.5t1 -69v-68.5v-51v-121v-35 v-59q-6 -47 -6 -93.5v-93.5v-61v-127zM1294 1475q8 4 29 8q10 -4 33 -4q4 0 12 -9q-12 0 -26.5 1.5t-25.5 2.5t-18.5 1t-3.5 0zM1354 46q2 1 10 1q-2 0 -2 -2h-6q-4 0 -2 1zM1364 47h12h-12zM1376 47q10 2 20.5 2t20.5 2q10 0 -6.5 -1t-34.5 -3z" />
<glyph unicode="&#x26;" horiz-adv-x="1118" d="M-2 313q-8 72 2 141.5t31 135.5q8 14 13 28.5t13 26.5q10 20 25.5 40t28.5 40q4 4 6 8t6 8q6 6 11 14.5t13 12.5h3q0 4 2 4q2 6 0 8l-2 4v2q-45 88 -78 194.5t-34 209t39 189.5t142 139q27 10 51.5 15t53.5 -1q12 -2 24 -5t23 -3q59 -25 101 -92.5t42 -155.5 q2 -135 -30.5 -270.5t-98.5 -247.5q41 -78 89 -153t95 -148q27 84 35 164q-25 2 -48.5 4t-45.5 6l-12 4q-20 23 -18.5 65.5t3.5 71.5q0 14 1 32.5t12 31.5q27 8 65.5 7t80.5 -4t84 -3t75 10q18 4 36.5 9t34.5 11h2q2 0 11 -8q4 -4 6 -11t6 -11q4 -23 8 -42.5t8 -37.5 q4 -8 4.5 -14.5t2.5 -14.5q0 -8 3 -14.5t3 -14.5q2 -4 -2 -12q-16 -23 -43 -39q-4 -4 -8.5 -4t-8.5 -2q-10 -4 -22.5 -5t-24.5 -5q-8 -2 -22 -2q-6 -74 -20.5 -145.5t-39.5 -141.5q-6 -18 -14 -36.5t-19 -37.5q4 -6 19.5 -22.5t35 -37t38 -41t28.5 -30.5q10 -16 16.5 -34.5 t-3.5 -51.5q-8 -23 -22.5 -48.5t-32 -42.5t-37 -20t-37.5 19h-2q-8 8 -11 14q0 4 -6 4q-6 6 -21.5 22.5t-33 35t-32.5 34t-19 21.5q-41 -43 -85 -75.5t-94 -43.5q-66 -16 -131 -5t-118 52q-35 27 -65 65t-46 85v2q-16 33 -28.5 68.5t-16.5 74.5zM213 371q0 -25 10 -52 q2 -27 10.5 -50t24.5 -33q18 -25 37 -35q23 -12 50.5 -11.5t49.5 17.5q14 10 22.5 18t20.5 21q11 10 15 16l4 2q-49 72 -95.5 147.5t-93.5 151.5q-20 -25 -32 -61q-16 -29 -20.5 -65t-2.5 -66zM245.5 1241.5q2.5 -47.5 14.5 -90.5q4 -35 13.5 -67.5t19.5 -65.5q27 37 35 90 t10 100v6q2 12 1 23.5t-1 22.5q0 10 -2 14v16q0 6 -8 15q-4 14 -18 17t-34 -13q-33 -20 -30.5 -67.5z" />
<glyph unicode="'" horiz-adv-x="337" d="M16 1274q-2 49 2 98q2 27 12.5 40t25 18.5t34 5.5t39.5 2q8 0 14.5 1t16.5 1q14 -2 31.5 -2t32 -4t22.5 -15.5t8 -36.5q-2 -29 4 -65v-2v-64.5t2 -64.5q-4 -31 -10 -59.5t-17.5 -52t-31 -41t-47.5 -23.5q-2 4 -11 8q-29 33 -65 59q29 12 48 32.5t17 55.5q0 10 -6 13.5 t-12 -0.5q-2 0 -10 4q-12 0 -21 -2q-6 -2 -18 -2q-33 4 -58 -2q0 49 -2 98z" />
<glyph unicode="(" horiz-adv-x="425" d="M2 1050.5q-2 61.5 0 110.5q4 53 5 107.5t9 107.5q4 23 12.5 44.5t16.5 41.5q12 23 40 43.5t63.5 35.5t76.5 24.5t80 11.5l2 -18l-4 -74l2 -103l-6 -12q-27 0 -46.5 -16.5t-31.5 -38.5l-8 -4q-2 -2 -4 -2q-2 -10 -2 -31q-4 -16 -5 -30.5t-1 -24.5q-4 -53 1 -104.5 t5 -104.5v-202.5t-2 -205.5q-2 -59 1 -121.5t7 -126.5q-4 -31 0 -67.5t16.5 -69.5t32 -58.5t43.5 -33.5l2 -12l-6 -33l2 -141l2 -35l-10 -8q-45 -4 -82 3t-70 31q-53 41 -77.5 85t-35 92.5t-12.5 100.5t-10 112v20v81t-4 81q4 35 6 69.5t-2 69.5v16.5v6.5t-1 6t-3 16 q4 49 3 110.5t-2 125t-3 125z" />
<glyph unicode=")" horiz-adv-x="425" d="M14 -10l4 49l5 31q25 10 44 37.5t31.5 64.5t17.5 76t1 74q4 68 7 135t3 133q-4 104 -5 217t-1 217q2 55 7 112.5t3 112.5q-2 12 -3 27.5t-5 32.5q0 14 -4 30q0 4 -10 9q-31 49 -82 53q-4 0 -3 15.5t-1 15.5v26l4 84l-9 55v25l5 8q43 -2 86 -11t79.5 -25.5t66.5 -37 t44 -45.5q10 -25 17.5 -48t11.5 -48q10 -59 11 -116.5t3 -116.5q2 -53 1 -118t-3 -133.5t-3 -134t3 -118.5q0 -14 -1 -18.5t-1 -6.5v-6v-18q-4 -37 -1 -75t5 -75q-4 -45 -5 -89t3 -85q0 -4 -1 -10t-1 -10q-8 -63 -10 -121t-13.5 -110t-38 -100t-83.5 -93q-35 -23 -77 -32 t-89 -7q-4 0 -4 3t-5 3v16l2 109z" />
<glyph unicode="*" horiz-adv-x="724" d="M14 1313v8q-2 12 4.5 26.5t12.5 24.5q6 16 12 30.5t14 31.5q12 27 30.5 20.5t37.5 -14.5h4q25 -12 44.5 -21.5t35.5 -19.5q-2 27 -2 55.5v67.5q0 4 1 8t1 8q4 4 6 4q10 8 26.5 8t26.5 2q16 0 33.5 1t34.5 1q31 2 33 -18t4 -41v-2v-62.5t2 -52.5q29 10 61.5 20.5 t79.5 22.5q4 0 8 1t8 1q2 -2 3.5 -2t3.5 -2q10 -10 14 -24.5t8 -24.5q4 -16 10.5 -31.5t12.5 -31.5q8 -29 -10.5 -37t-38.5 -15l-3 -2q-35 -10 -60.5 -17t-47.5 -15q16 -27 34.5 -55.5t45.5 -69.5q4 -8 6 -15q0 -2 -1 -3t-1 -3q-6 -12 -19.5 -20t-23.5 -15 q-14 -10 -27.5 -19t-27.5 -20q-25 -16 -37.5 -0.5t-24.5 31.5q0 2 -2 2q-18 31 -32.5 53.5t-28.5 42.5q-20 -23 -43 -49t-56 -61q-4 -2 -6 -4t-6 -4h-6q-12 2 -24.5 12t-22.5 16q-12 10 -24.5 21.5t-26.5 21.5q-23 20 -10.5 36t24.5 32v4q25 27 43 47.5t35 38.5 q-29 12 -60.5 26.5t-72.5 37.5q-4 2 -7.5 4t-7.5 4z" />
<glyph unicode="+" d="M2 629v2q0 4 8 10q6 0 11.5 1t9.5 1h43.5t44.5 8q35 -4 71.5 -5t75.5 1q-2 10 -3 20.5t-1 20.5q-2 55 0 109.5t4 111.5h101q31 -2 61.5 -2t58.5 6q4 -8 5 -12h4v-6q-6 -25 -5 -49.5t3 -50.5q0 -37 1 -73t1 -71h32q59 4 113.5 2t112.5 -6v-100q-2 -29 -2 -60.5t6 -60.5 q-4 0 -13 -4v-2h-6q-25 4 -49 3t-51 -1q-37 -2 -73 -2h-70q-4 -59 -5.5 -115.5t3.5 -111.5q-4 -6 -7.5 -12.5t-9.5 -12.5q-20 0 -39.5 -1t-38.5 -3q-29 -2 -56.5 -3t-55.5 -3h-4q-4 0 -11 8v20q-2 20 -2 44t-6 44q4 35 4 72t-2 74q-59 2 -115.5 4t-113.5 -2q-16 8 -25 14 q0 20 -1 40t-3 40q-2 29 -3 56.5t-3 56.5z" />
<glyph unicode="," horiz-adv-x="319" d="M-2 8q2 53 0 107.5t2 109.5q2 31 13.5 45.5t27.5 20.5t37.5 6t44.5 2h33q18 -2 36.5 -2t34 -5t24.5 -17.5t9 -36.5q-2 -18 0 -37t4 -37v-2q0 -35 1 -72t1 -74q-8 -66 -30.5 -122t-85.5 -70q-4 2 -6.5 5t-4.5 5q-18 18 -35.5 33.5t-37.5 32.5q31 12 53 34.5t20 61.5 q-2 10 -9 13t-13 1q-2 0 -4 1t-7 1q-8 2 -22 -2h-21q-16 0 -32.5 1t-32.5 -3z" />
<glyph unicode="-" horiz-adv-x="966" d="M90 887q4 0 6 1l6 3v2h4q25 -4 50.5 -3t52.5 1q63 2 125.5 3t126.5 1q88 2 178 -5t180 1q8 -4 25 -17q0 -20 1 -39.5t3 -37.5q2 -29 3 -57.5t3 -57.5v-2q0 -10 -10 -12q-4 0 -9.5 -1t-9.5 -1h-44.5t-45.5 -9q-47 6 -95 5.5t-97 -5.5q-53 10 -111.5 6t-112.5 -6 q-57 -4 -113 -2t-112 7q-4 49 0 102q2 31 1 61.5t-5 61.5z" />
<glyph unicode="." horiz-adv-x="253" d="M-8 18v23.5t2 21.5v13v24v35q2 31 4 60.5t0 62.5q0 4 4 4v4q12 4 21 8q18 4 36.5 5.5t34.5 1.5h31q6 0 11 1t9 1h5q0 -2 2 -2q23 0 42 -3.5t35 -19.5q20 -27 17 -65q0 -2 -1 -2.5t-1 -2.5t1 -4t1 -4t-2 -6q0 -2 1 -3t1 -3q2 -18 6 -49q-2 -20 -3 -41t-3 -41 q-4 -16 -8 -25q-8 -4 -7 -4q-18 -4 -35.5 -4t-35.5 -2q-41 6 -82 6q-6 0 -22.5 -2t-35.5 -2h-16q-2 0 -2 2q-8 8 -10 12z" />
<glyph unicode="/" horiz-adv-x="894" d="M16 10l7 17l5 15t9 15q12 29 30.5 74t38 93t37 91t27.5 68l61 160q4 10 9.5 21t9.5 24q10 23 17 42t12 36q8 31 26.5 83t39 108t41 108.5t32.5 83.5q10 20 17 40.5t18 40.5l77 191l-2 2l2 8q4 0 5 4l2 4q4 12 10 23.5t10 21.5q4 8 4 11l8 18q4 6 8.5 11.5t10.5 11.5l2 2 l2 2q10 0 22.5 1t22.5 3q41 0 82 7t80 1q8 -8 16 -20q-4 -10 -5 -17.5t-5 -17.5q-23 -53 -49.5 -107.5t-50.5 -109.5q-23 -41 -40.5 -84t-29.5 -90q0 -4 -2 -6.5t-2 -6.5q-12 -29 -31.5 -79t-40 -105t-37 -105.5t-24.5 -76.5q-16 -57 -36 -108.5t-44 -106.5 q-10 -23 -18.5 -44.5t-18.5 -43.5q-10 -23 -24.5 -60t-31 -78l-33 -82t-30.5 -73q-8 -16 -12 -27q-16 -14 -34.5 -17t-41.5 -3q-41 2 -78 4t-78 6q-6 6 -2 16z" />
<glyph unicode="0" horiz-adv-x="641" d="M-3 518q5 146 9 287q2 61 -1 128.5t-1 135.5t11.5 132.5t33.5 123.5q18 43 59.5 76t90.5 50t102 18t98 -17q80 -35 121 -98q8 -18 15.5 -38t11.5 -38q10 -53 14 -108.5t8 -110.5q4 -117 1 -233.5t-9 -233.5q0 -2 2 -4q-2 -23 -1 -46.5t5 -45.5v-25v-2q-2 -96 -9 -194.5 t-52 -180.5q-53 -68 -134 -94.5t-158 -10t-136.5 76t-69.5 165.5q-16 141 -11 287zM194 485.5q-1 -0.5 1 -12.5v-47q0 -39 2 -79t6 -77q-10 -98 102 -92q41 10 55 47q10 35 9.5 71t-0.5 73v227v55v13q-2 2 -7 2q-4 0 -4 -7q-6 0 -6 -8q-37 -41 -74.5 -77.5t-76.5 -77.5 q-6 -10 -7 -10.5zM205 750q4 4 8 14q4 0 6 2q0 6 2 6l8 4q16 29 39 52.5t45 50.5q23 25 41.5 52t30.5 58v8v20.5v32t-1 32t-3 20.5v2q0 18 -2 39.5t-6 42.5v6q-4 8 -4 16.5v16.5q-4 14 -14.5 26.5t-28.5 20.5q-23 10 -41.5 6t-31.5 -16.5t-21.5 -28.5t-12.5 -33 q-6 -37 -8 -85t-3 -97t0 -96.5t1 -83.5q-2 -23 -2 -44.5t-2 -43.5z" />
<glyph unicode="1" horiz-adv-x="649" d="M2 86v27v16v27.5t2 29.5q4 10 10 18.5t17 12.5q10 4 16 5t14 1q74 0 148 -6q2 23 2 46.5t2 45.5q4 47 11 91t-3 92v14q2 57 2 120.5t-6 116.5q-6 59 -1 112.5t5 113.5q2 25 2 47v45v45q-66 -41 -155 -57q-16 2 -33 12q-4 0 -4 4v8q-2 8 -3 14.5t-1 14.5v14v6q0 16 1 29.5 t3 24.5v45v2v14q0 16 7 25.5t13 19.5q53 12 94 50t58 91q2 2 6 15q8 14 39 12t45 -4h34.5t37.5 2q29 4 49 0t30 -25v-8q4 -14 -2 -33v-69.5v-78.5v-78v-62v-170v-45q-2 -23 -3 -44.5t3 -37.5q8 -66 2 -130.5t-6 -125.5q0 -23 -5 -44.5t-5 -43.5l2 -199l2 -2l-2 -8v-4v-4v-25 q16 0 30.5 1t31.5 3h16h63q25 -20 21 -60t-6 -67q0 -31 -7.5 -57.5t-27.5 -32.5h-8h-31h-6q0 2 -2 0h-49h-185q-39 4 -75 0h-5h-12l-22 2h-44.5t-43.5 -2h-7q-10 -2 -22 -3t-23 9h-2q-4 12 -6 16v3q-4 16 -5 31.5t-1 31.5z" />
<glyph unicode="2" horiz-adv-x="704" d="M13 1128.5q1 49.5 12.5 97.5t31 92t45.5 81q29 39 63 62.5t73 27.5q10 4 19 4h19q86 0 166 -63q72 -29 102.5 -101t26.5 -176v-25v-2q-2 -16 -5 -32.5t-7 -32.5q-8 -29 -14 -54.5t-15 -52.5q-16 -63 -34.5 -123.5t-38.5 -121.5q-18 -61 -41 -119t-45 -117 q-23 -59 -41.5 -116.5t-40.5 -112.5v-8q4 -4 10 0q14 2 26.5 3t28.5 1h2h4q10 0 15 2h2h2q6 -8 12 -2h2h-2q4 0 4 1t4 3q20 0 58.5 1t60.5 3q12 -2 23.5 -3t21.5 -7q12 -8 16.5 -30t3.5 -47.5t-4.5 -49t-3.5 -35.5v-20.5t-2 -20.5q-2 -12 -14 -21q-8 -6 -19.5 -7t-19.5 -3 q-23 -4 -44 -4t-44 -2q-51 -2 -104.5 0t-106.5 4q-27 2 -53.5 0t-52.5 -6q-18 0 -46 -1t-46 11q-2 0 -3 2q-2 10 -1 20.5t1 20.5q2 33 2.5 64.5t0.5 64.5q0 23 5 39t13 35q59 135 111.5 275.5t105.5 279.5q23 57 43.5 110.5t31.5 104.5t10 101.5t-19 103.5q-8 4 -7 4 q-12 8 -25 11t-28 -3h-2h-4l-4 -4q-4 -6 -8 -19.5t-8 -27.5q0 -4 -1 -7t-1 -7q-4 -10 -6.5 -25.5t-2.5 -26.5v-12v-51l2 -33q2 -10 2 -18.5t2 -18.5q-12 -18 -34.5 -28.5t-50 -12.5t-56.5 3t-49 16q-6 16 -12 30.5t-11 30.5v6q-8 45 -7 94.5z" />
<glyph unicode="3" horiz-adv-x="618" d="M14 256v6q2 6 2 13.5t2 17.5q2 0 2 2v6q0 6 -1 28.5t-3 49.5t-2 50.5v29.5q16 37 72 49q18 6 36.5 7t37.5 1q41 0 49 -18q0 -10 -1 -19.5t-1 -17.5q0 -27 -1 -74t4 -92t19.5 -78t42.5 -29q37 4 53.5 46t20.5 96.5t-2 105.5t-14 76q-29 74 -67 107.5t-109 44.5 q-8 12 -9 14q-4 18 -6 39.5t-6 40.5q-2 25 -1 47t7 45q8 20 31 33q49 8 81 32.5t49 61.5t22.5 83t3.5 97q0 20 -10.5 46t-26 41.5t-32.5 13t-32 -38.5q-6 -16 -8 -39t-1 -47.5t4 -49t3 -43.5q-6 -35 -29.5 -47t-54.5 -14q-23 -2 -45 -2t-45 4q-6 0 -18 8q-10 25 -11 49 q0 61 1.5 117.5t13.5 107t43 92.5t90 77q49 29 97 31.5t91 -14.5t79 -52t59 -80q27 -49 37 -111.5t7 -127t-20.5 -125t-46.5 -105.5q-14 -23 -30.5 -42.5t-37.5 -35.5q70 -60 109 -166q20 -53 30.5 -121.5t8.5 -139.5t-19.5 -137.5t-50.5 -115.5q-27 -37 -76 -65.5t-104 -40 t-109.5 -2t-91.5 48.5q-4 4 -10 11t-12 15q-23 45 -41.5 95.5t-22.5 103.5z" />
<glyph unicode="4" horiz-adv-x="704" d="M-4 678q12 37 22 78q33 92 53.5 191.5t43.5 193.5q10 49 24.5 97t22.5 95q4 23 12 48.5t14 48.5q14 16 34 16h42q16 -2 33.5 -1t34.5 3q10 0 20 -1t21 -1q16 -2 16 -25q-2 0 -2 -2v-4q-2 -2 -6 -10q0 -4 2 -6q-8 -23 -16.5 -45.5t-12.5 -44.5q-8 -57 -23.5 -111.5 t-29.5 -112.5q-10 -57 -22.5 -118.5t-26.5 -120.5l121 -2v2h8h-1t2 0h19q4 137 10.5 293.5t10.5 294.5v12q18 6 39.5 6h38.5q27 2 54.5 1t49.5 -13q8 -2 14 -13q-2 -98 -7 -203.5t-8 -212t-4 -213t5 -204.5q2 -43 1 -122t-3 -167t-3 -167t-1 -122q-16 -14 -44 -16t-50 -2 q-27 0 -51.5 2t-49.5 6l7 371q2 66 0 134.5t-7 133.5h-18q-8 2 1 2t1 0t-15 -1t-14 -1v2q-35 2 -69.5 2h-69.5q-10 0 -26 4q0 -2 -3 -4q-20 2 -40.5 1t-43.5 1q-37 6 -65 4q-10 0 -16 -2q-29 4 -29 25z" />
<glyph unicode="5" horiz-adv-x="661" d="M1 1031q-3 147 3 288h-2q2 14 2 27.5v25.5q2 16 2 31.5v32.5q4 4 9 6t10 6h159h31q16 0 30.5 1t30.5 1h40t50.5 -1t51 -3t41.5 -4q8 -2 15 -1t18 1q23 -16 21.5 -48t-3.5 -61q0 -37 -8 -63q-2 -10 -15 -23h-64.5h-73.5h-74.5h-63.5q-2 -82 -1 -164t5 -165q10 0 31 4 q66 0 120 -24t93 -75q39 -53 56 -122.5t22.5 -143.5t2.5 -148.5t-5 -136.5q-4 -76 -34 -139t-80 -104t-117.5 -53.5t-147.5 16.5q-57 18 -88 76.5t-43.5 132t-12.5 149.5t2 131q2 0 2 2q0 14 2 31.5t17 28.5q12 8 30.5 9t32.5 3q25 4 51.5 6t53.5 -6q12 -4 16 -12t6 -21 q0 -31 -3 -78t-4 -97t2 -96t13 -73q2 -8 11 -8q47 -18 68.5 10.5t28.5 76.5t4 100.5t-7 82.5q0 57 -5 114.5t-24 109.5q-8 23 -18 33t-21 14q-25 14 -55.5 14t-63 -4t-64.5 -9t-58 -1l-6 6q-6 12 -7 26q-12 141 -15 288z" />
<glyph unicode="6" horiz-adv-x="638" d="M0 581.5q-2 28.5 0 65.5q2 131 0 266.5t29 264.5q0 8 4 24q12 41 26.5 89t38.5 83q37 47 80 68.5t103 27.5q18 2 45 -8q8 -6 24 -12q57 -25 89 -68t47.5 -94t17.5 -108.5t0 -112.5q-10 -23 -35 -19.5t-53 -0.5q-18 -4 -47 -3.5t-52 11.5v47t-2 47q-2 16 -1 33.5t-1 34.5 q-4 16 -15 32.5t-32 -0.5q0 -4 -6 -6q-10 -23 -16 -47.5t-15 -46.5v-4q-2 -2 -2 -4t-2 -4q-14 -76 -18 -158q-2 -23 -3 -46.5t-1 -45.5q39 20 71.5 27.5t79.5 -9.5q70 -25 103 -67q8 -10 14 -22.5t12 -22.5q16 -35 19.5 -73t7.5 -75q2 -20 3 -32.5t1 -23.5t1 -25t3 -34 q-4 -61 -2 -134.5t-4 -145.5t-28.5 -135.5t-75.5 -104.5q-43 -33 -96.5 -39t-103.5 8.5t-92 49t-61 84.5q-27 68 -39 145.5t-8 149.5q2 37 0 65.5t-4 54t-4 54zM210 381q-3 -53 5 -94q0 -4 6 -29t16.5 -49.5t26 -36.5t35.5 10q12 14 17.5 46t6.5 69t1 71t2 52q2 31 2 54.5 t-1 46t-2 46t-1 54.5q0 12 -4.5 29.5t-13.5 32.5t-23.5 21.5t-36.5 -6.5q-23 -10 -24 -24.5t-5 -34.5q0 -20 -1 -40.5t-3 -37.5q2 -18 2 -36.5v-49.5q-2 -41 -5 -94z" />
<glyph unicode="7" horiz-adv-x="727" d="M4 1063q2 4 2 9t2 11q4 16 1 39t-3 39q2 31 4 61.5t4 61.5q0 31 -4 63.5t-2 67.5q10 18 36 22.5t55.5 4.5t59 -1t50.5 5q27 -10 56.5 -12t58 0t58.5 6t56 4q37 0 74 -1t72 1q20 2 42.5 0t26.5 -21q-18 -88 -39.5 -174t-46.5 -172q-23 -92 -44 -183t-48 -181 q25 -14 50.5 -20.5t64.5 -6.5q4 -8 4 -14q2 -6 2 -13.5v-13.5q-2 -41 -2 -81t-2 -81q-18 -6 -34.5 -10t-33.5 -2q-59 14 -110 49q-43 -137 -83 -272t-83 -271q-27 2 -54.5 6.5t-56.5 8.5q-6 0 -18.5 1t-26.5 4t-25.5 8t-15.5 13q47 154 93 307.5t94 307.5q-16 10 -35 17 t-37 14q-16 4 -40 5t-44 3h-16l-5 -2q-12 10 -12 30.5t2 36.5q0 6 -1 16.5t-1 22.5q2 16 2 30.5v31.5q2 16 4 29.5t11 21.5q53 4 107 -4t101 -25q16 -8 27 -12q23 82 42 163t40 160q4 16 8 35t8 35q-20 0 -40.5 1t-36.5 1q-27 0 -51.5 1t-53.5 1q2 -47 2 -98t-8 -98 q-16 -8 -36.5 -9.5t-39.5 -1.5h-72h-20t-23 4q-14 2 -16 21z" />
<glyph unicode="8" horiz-adv-x="598" d="M-4 375q2 61 0 132t2 140.5t22.5 133t63.5 108.5q-35 47 -53.5 106.5t-16.5 118.5q2 61 8.5 119.5t26 109t58 88t106.5 56.5q35 10 59 0q57 2 100.5 -27.5t72 -78t43 -104.5t14.5 -106q0 -84 -15.5 -163.5t-68.5 -135.5q31 -31 43 -69q23 -61 35 -133t14 -138 q4 -35 3 -68.5t-5 -68.5q0 -16 -1 -32.5t-3 -32.5q-4 -47 -10.5 -92t-20.5 -91q-10 -31 -35.5 -63.5t-59.5 -57t-72 -38t-73 -6.5q-29 -2 -73 10q-35 10 -60.5 28.5t-44.5 40.5q-6 10 -14 22.5t-12 25.5q-16 35 -20.5 72.5t-6.5 76.5q0 20 -1 33.5t-2 25t-2 24.5t-1 34z M186 386.5q0 -21.5 2 -45.5t2 -56q0 -12 4.5 -30.5t12.5 -34t22.5 -23t36.5 5.5q18 20 23.5 64t9.5 71v15t2 18v59q2 37 4 84t-2 88q0 29 -1 55.5t-11 55.5q-8 18 -20.5 33.5t-34.5 13.5q-29 -4 -36 -36t-5 -65q-4 -45 -4.5 -94t-2.5 -76q-2 -33 -2 -57v-45.5zM211 1191.5 q0 -26.5 2 -50.5q2 -23 3 -46.5t5 -45.5q6 -29 27 -35q14 -10 24 0v2q20 10 26.5 30.5t4.5 40.5q6 31 6 56q0 23 -3 43t-5 43q-2 12 -4 26.5t-10 22.5q-25 23 -41.5 5.5t-26.5 -40.5q-8 -25 -8 -51.5z" />
<glyph unicode="9" horiz-adv-x="575" d="M-8 922q4 63 2 138t4 147.5t27.5 136t76.5 106.5q45 33 99.5 39t104.5 -8.5t92 -49t63 -85.5q25 -68 37 -148t10 -154q-2 -37 0 -65.5t4 -55t3 -54t1 -64.5v-39q-2 -20 -2 -39.5v-38.5q0 -29 1 -54.5t3 -51.5v-19q0 -66 -7 -130t-11 -130v-26.5t-2 -26.5 q-4 -80 -35 -138.5t-94 -101.5q-4 -4 -9 -6q-4 -4 -9 -7t-11 -7q-25 -12 -45 -13q-14 -4 -27.5 -4h-27.5q-27 0 -45 11q-16 4 -25 10q-57 25 -91 66.5t-51.5 94t-21.5 110t-2 114.5q10 25 36 19.5t56 0.5q18 4 47 3t52 -11v-47.5t2 -46.5v-35.5t2 -36.5q4 -12 21.5 -27.5 t35.5 -9.5h4h2q29 31 36 72t9 88v75t4 75q2 8 -1 26.5t1 26.5v12q-41 -23 -73.5 -30t-79.5 10q-68 25 -107 69q-6 10 -12 21.5t-12 23.5q-16 35 -20.5 73t-8.5 77q-2 20 -3 32.5t-1 23.5t-1 23.5t-1 35.5zM182 977.5q0 -23.5 2 -45t3 -45t1 -56.5q0 -12 4.5 -30.5 t13.5 -33.5t23.5 -21.5t36.5 6.5q23 12 25 26.5t6 32.5v42t2 40q0 16 -1 34.5t1 49.5q0 41 3 95t-5 95q0 4 -5 30t-15.5 50.5t-25.5 36.5t-36 -10q-14 -14 -19.5 -46t-7.5 -69t-1 -71.5t-1 -53.5q-4 -33 -4 -56.5z" />
<glyph unicode=":" horiz-adv-x="397" d="M8 119q0 45 4 88v2l11 10q10 0 19 -1t15 -1q4 -2 11 -2h20h39.5t40.5 2q4 0 6 2h20.5t20.5 -10h2q2 -2 6 -14v-2q4 -14 4 -27.5v-28.5v-24v-15v-26.5t-2 -28.5v-27q-47 -4 -94 -2t-94 6q-8 0 -21 7v4q-8 43 -8 88zM10 592v24v15v53q0 8 1 15.5t1 13.5q47 4 94.5 2 t94.5 -6q4 0 9 -2t9 -2q4 -8 4 -7q6 -43 5 -88t-5 -90v-2q0 -2 -8 -6h-35h-10l-20 2h-41.5t-38.5 -2h-7q-10 -2 -20 -3t-20 9h-3q-4 12 -4 17v2q-4 14 -5 27.5t-1 27.5z" />
<glyph unicode=";" horiz-adv-x="362" d="M10 592v24v15v53q0 8 1 15.5t1 13.5q47 4 94.5 2t94.5 -6q4 0 9 -2t9 -2q4 -8 4 -7q6 -43 5 -88t-5 -90v-2q0 -2 -8 -6h-35h-10l-20 2h-41.5t-38.5 -2h-7q-10 -2 -20 -3t-20 9h-3q-4 12 -4 17v2q-4 14 -5 27.5t-1 27.5zM12 -2q2 41 0 81t2 81q2 23 9.5 33t19.5 15t27.5 5 h33.5q6 0 11.5 1t13.5 1q12 -2 26.5 -2t26 -4t18.5 -13.5t7 -27.5q-2 -14 -1 -26.5t3 -26.5v-2q0 -27 1 -53.5t1 -55.5q-6 -47 -22.5 -90t-63.5 -53l-8 8q-25 25 -56 49q23 10 39.5 26.5t16.5 45.5q0 8 -6.5 10t-10.5 0q-2 0 -3 1t-5 1q-10 0 -16 -2h-15q-12 0 -24 1t-25 -3 z" />
<glyph unicode="&#x3c;" horiz-adv-x="1556" d="M18.5 893.5q-6.5 28.5 4.5 56.5q10 29 31.5 41.5t45.5 22.5q57 2 105.5 2h94.5h91t96 2q98 4 197.5 11t198.5 3q8 2 26 2q51 -2 69.5 25.5t18.5 67.5t-7 86.5t-7 82.5q0 45 13.5 87t38 76t60 55.5t83.5 25.5q49 4 77.5 -31.5t32.5 -76.5q4 -39 -8 -69t-27 -65 q-12 -31 -15 -54t1 -45.5t14.5 -46.5t24.5 -52q45 -94 91 -189.5t83 -193.5q2 -55 12.5 -112.5t14.5 -112.5q2 -66 -7.5 -131.5t-33.5 -129.5q-41 -102 -129 -172q-8 -6 -16.5 -12t-18.5 -12q-31 -6 -62.5 -13.5t-64.5 -13.5h-31q-57 0 -93 -4t-93 -4q-49 -2 -80 -1t-80 5 q-29 2 -76 5t-80 16q-4 4 -8 6t-8 6q-16 25 -25.5 54.5t-5.5 57t22.5 46t55.5 18.5h17.5t4.5 1t4 2t15 1q-4 10 -5 14.5t-5 16.5q-35 0 -60.5 -4t-58.5 4q-37 6 -55.5 28.5t-22.5 51.5q-14 37 -0.5 75.5t47.5 57.5q23 12 39.5 16t38.5 2h17h10q4 0 9 1t9 -1v15.5t2 17.5h-94 q-53 0 -80.5 37t-27.5 80t27.5 79.5t80.5 36.5h139q2 8 4 7.5t5 5.5q4 6 5 15t3 13q-41 2 -79 0t-77 0q-53 4 -115.5 0t-119.5 -4q-51 2 -90 3t-91 -3q-35 -4 -62.5 12.5t-45.5 41.5q-8 29 -14.5 57.5z" />
<glyph unicode="=" horiz-adv-x="927" d="M10 532q4 0 6 1.5t7 3.5v2h4q25 -4 50 -3t52 1q63 2 125.5 3t126.5 1q88 2 178 -5.5t180 1.5q8 -4 25 -17q0 -20 1 -39.5t3 -38.5q2 -29 3 -57.5t3 -56.5v-2q0 -10 -10 -13q-4 0 -9 -1t-10 -1h-44.5t-45.5 -8q-47 6 -95 5t-97 -5q-53 10 -111.5 6t-111.5 -6 q-57 -4 -113.5 -2t-112.5 6q-4 49 0 103q2 31 1 61.5t-5 60.5zM10 887q4 0 6 1t7 3v2h4q25 -4 50 -3t52 1q63 2 125.5 3t126.5 1q88 2 178 -5t180 1q8 -4 25 -17q0 -20 1 -39.5t3 -37.5q2 -29 3 -57.5t3 -57.5v-2q0 -10 -10 -12q-4 0 -9 -1t-10 -1h-44.5t-45.5 -9 q-47 6 -95 5.5t-97 -5.5q-53 10 -111.5 6t-111.5 -6q-57 -4 -113.5 -2t-112.5 7q-4 49 0 102q2 31 1 61.5t-5 61.5z" />
<glyph unicode="&#x3e;" horiz-adv-x="1529" d="M-2 498q2 53 12 109.5t15 109.5q35 98 80 190t92 185q12 29 22 51t13.5 44.5t0 46t-15.5 54.5q-10 35 -23.5 63.5t-9.5 65.5q4 43 33 78t76 31q92 -8 140 -79t50 -161q0 -35 -7 -80t-6 -85t18.5 -66.5t68.5 -26.5h25q98 4 194 -4t195 -12q49 0 94 -1t89 -1h92h104 q25 -10 46 -22.5t31 -41.5t3 -56.5t-15 -55.5q-16 -23 -42.5 -39.5t-61.5 -12.5q-51 4 -89 3t-87 -3q-57 0 -119 4.5t-115 -0.5q-37 -2 -73.5 -1t-77.5 1q2 -4 3 -14t5 -14q2 -8 3 -7t3 -6h139q51 0 78 -35.5t27 -78.5t-27 -79t-78 -36h-94q2 -14 2 -15v-18q4 2 9 1t9 -1h9 h18q23 2 38 -2t38 -14q35 -18 47 -57t-2 -76q-4 -27 -22.5 -48.5t-53.5 -29.5q-31 -6 -57.5 -2t-57.5 4q-2 -12 -5 -16t-7 -17h41q37 0 55.5 -18.5t22.5 -45t-5 -57t-26 -53.5q-12 -8 -18 -10q-31 -14 -76 -17.5t-74 -5.5q-49 -4 -78.5 -5t-78.5 1q-55 0 -92 5.5t-91 3.5 h-30q-33 6 -64 13t-61 13q-10 4 -17.5 10.5t-17.5 12.5q-41 35 -74 78t-51 92q-23 59 -33 124.5t-8 131.5z" />
<glyph unicode="?" horiz-adv-x="561" d="M-37 1051v4q-18 96 3.5 199.5t76.5 177.5q61 84 137 96q10 2 20.5 2h20.5q35 0 79 -9.5t75 -27.5q25 -19 43 -39q66 -98 84 -216t-4 -234q-14 -66 -34 -130.5t-42 -130.5q-20 -43 -38.5 -86t-25.5 -92l-4 -217q-14 -8 -35 -12q-20 -4 -40.5 -6t-42.5 -2q-18 0 -39 1 t-39 11q-10 4 -13.5 15.5t-5.5 21.5q-2 47 -4 93t0 93q8 49 20.5 98.5t30.5 96.5q29 74 55.5 140.5t41.5 139.5q12 41 13 84t-7 84q-2 10 -6 24.5t-13 24.5l-2 5l-4 2q-4 4 -7 5t-7 5h-2q-6 0 -8 2h-2h-7q-12 0 -20 -6h-2h-6l-2 -2q-4 -6 -8.5 -19.5t-8.5 -27.5q0 -6 -4 -15 q-6 -25 -6 -53v-14v-15.5t2 -36.5l2 -34q0 -10 1 -18.5t3 -18.5q-12 -18 -35.5 -28.5t-52 -13.5t-57.5 2t-51 17q-6 16 -12.5 29.5t-10.5 30.5zM126 207.5q-1 13.5 9 23.5q4 4 10.5 5.5t10.5 5.5q33 6 65 6h27h20h29.5t30.5 -2h34q4 -55 1 -109.5t-7 -109.5q0 -14 -6 -23 q-4 -4 -6 -4q-51 -8 -102.5 -7t-102.5 5h-4q-6 6 -8 12v20.5t2 18.5v12v23v94q-2 2 -2 6q0 10 -1 23.5z" />
<glyph unicode="@" d="M-18 759q0 167 10 331q6 76 31.5 148.5t67.5 133t100.5 105.5t132.5 67q63 20 140 13t148.5 -35.5t129.5 -77t89 -109.5q33 -63 51.5 -126.5t27 -128t10.5 -132t0 -141.5q-2 -66 -1 -137.5t-8.5 -139t-37 -128t-89.5 -99.5q-37 -27 -66.5 -28t-66.5 16q-25 -43 -67.5 -73 t-108.5 -36q-41 -4 -77 9.5t-65.5 38t-52 57t-36.5 69.5q-16 41 -23.5 91.5t-7.5 101.5q0 53 -1 103t-1 98q0 53 1 105t1 106q0 86 25 184q14 37 40.5 66.5t60.5 49t73 27.5t77 2q88 -14 143.5 -83.5t55.5 -164.5q0 -31 4 -71.5t8 -87.5q0 -27 -1 -51.5t-1 -51.5 q0 -16 -2 -22q2 -59 5.5 -124t-1.5 -128q-4 -10 2 -17q0 -6 9 -6q14 -4 22 9q14 20 18.5 41.5t4.5 44.5q0 43 -2 88t-6 88q-2 41 -3.5 84t-5.5 86v77q0 45 -8 96.5t-26.5 97.5t-50 82t-81.5 50q-49 12 -91 20.5t-81 4.5t-75.5 -23.5t-71.5 -62.5q-35 -41 -54.5 -86 t-27.5 -92.5t-9 -97.5t1 -101q4 -98 7 -203.5t-5 -204.5q-4 -80 23.5 -162.5t84.5 -138.5q25 -29 69 -43t92 -16t94 12t75 45q12 6 24.5 15.5t24 14.5t23.5 1t26 -23q10 -16 21.5 -31.5t24.5 -29.5q8 -8 15 -15.5t11 -15.5q4 -6 4 -16q-4 -6 -10 -11.5t-10 -9.5 q-45 -47 -107.5 -80.5t-133.5 -48t-141.5 -7.5t-129.5 38q-63 35 -109.5 86t-77 112.5t-48 132t-21.5 142.5q-8 160 -8 327zM418 785.5q2 -80.5 6 -156.5q-4 -47 -1 -92t7 -93q0 -20 5 -36.5t13.5 -23.5t19.5 -1t24 33q10 25 14 53v10q4 12 5 28t1 32v26.5t-2 28.5l4 4 q-2 23 -2 43.5t-2 38.5q0 16 -2 27.5t-2 21.5q0 57 1 111.5t-7 105.5q0 16 -2 29.5t-2 30.5q-2 10 -2 19t-2 19q0 37 -27 54q-8 4 -12 4q0 6 -9 6q-8 0 -10 -4h-2q-10 0 -4 -6q-8 -10 -8 -21q-10 -33 0 -61v-72q-4 -78 -2 -158.5z" />
<glyph unicode="A" horiz-adv-x="747" d="M2 23q4 20 7 40.5t5 40.5q14 72 22.5 141.5t18.5 141.5q10 86 21.5 172t21.5 174q8 84 12.5 166t14.5 166q4 10 5 21.5t3 21.5q2 16 3 29.5t3 29.5q6 39 11.5 78t9.5 78q2 14 6 30.5t7 31t6 22.5t3 4v6q20 16 54 17q29 2 57.5 1t56.5 1h6q69 0 97 -43 q16 -154 44.5 -309.5t47.5 -307.5q16 -123 39.5 -241.5t36.5 -241.5q6 -43 9 -86t13 -86q0 -20 3 -38t7 -36q3 -16 3 -27q0 -16 -17 -24q-20 -1 -40.5 -1t-40.5 1h-20q-29 0 -57 -4q-4 4 -7 3t-7 3q-4 6 -6 10l-4 8q-4 16 -5 24.5t-6 25.5q-12 47 -15 95t-9 95 q-23 -2 -45.5 -1t-40.5 -1h-51.5t-55.5 -2q-6 -45 -9 -90t-7 -90q-6 -16 -6 -29q-2 -8 -4 -16.5t-6 -14.5q-2 -10 -13 -14q-31 0 -61.5 -2t-61.5 2q-10 2 -21 2t-24 2l-6 6l-6 6q0 2 -1 4t-1 5zM258 457h61q16 2 35 3t37 3l-12 74q-12 -2 -22.5 -2h-20.5q-18 0 -34.5 -1.5 t-35.5 -3.5q-2 -20 -4 -37.5t-4 -35.5zM291 735q20 4 28 4h27v2q-12 102 -31 205q-6 -53 -12 -105.5t-12 -105.5z" />
<glyph unicode="B" horiz-adv-x="598" d="M6 12q-2 79 -2 156.5t2 153.5q2 109 5 215t3 215q0 160 -2 320.5t-4 320.5q0 4 1 7t1 7q4 12 10 16q4 2 6.5 2t6.5 2q9 -1 21 1q4 0 8 1q8 0 16 -2q4 3 8 3q2 0 5 -1q7 -2 18 -2q23 -1 42 1q6 0 13 1q14 0 29 -2h14q45 -2 89 -11t81 -36q49 -35 84 -86t39 -110 q2 -20 2 -39q0 -50 -16 -88q-22 -53 -62 -88q33 -35 53.5 -78t30.5 -84q15 -81 15 -179v-12q-1 -106 -5 -194q-2 -43 -3 -85t-8 -82t-23.5 -78t-47.5 -71q-51 -53 -108.5 -77.5t-122.5 -28.5l-170 -2h-10q-8 4 -11 4q-4 2 -8 10zM201 207q41 4 71.5 20.5t38.5 69.5 t10.5 109.5t2.5 109.5q0 25 1 56.5t1 66.5t-4.5 69.5t-12.5 65.5q-6 33 -27.5 64.5t-58.5 35.5h-10v-86q0 -109 -3 -215t-5 -215q-2 -35 -2 -72.5t-2 -78.5zM209 1231q2 -37 2 -75v-73q23 2 43 6.5t37 16.5q14 10 17 30q1 5 1 10q0 15 -8 25q-16 31 -39.5 43.5t-52.5 16.5z " />
<glyph unicode="C" horiz-adv-x="704" d="M12 1067q2 49 3 99.5t12 99.5q4 20 10 39.5t12 40.5q16 27 56 50t87.5 36.5t97.5 15.5h14q41 0 73 -10q88 -29 135 -77t63 -122q2 -47 5.5 -111.5t7.5 -111.5q-2 -10 -2 -37v-37q-2 -35 -2 -57.5t-2 -57.5q-2 -4 -4.5 -6t-4.5 -6q-6 -2 -13 -4t-13 -2h-58h-19t-19 -2h-31 q-4 0 -6 2q-11 11 -17 25q-2 29 -3 47t-1 45v41.5v54.5t-1 58.5t-3 54.5q6 25 -2 45q0 12 -12 24q-12 14 -31 25q-4 4 -9 8t-11 8q-18 9 -36 9q-14 0 -28 -5q-33 -12 -49 -41q-6 -2 -10 -6q-4 -16 -4 -26q-2 -16 -3 -28.5t-1 -23.5q-1 -19 -1 -38q0 -28 2 -57q3 -48 5 -95 v-81v-69.5t-1 -69.5t-1 -81q-1 -23 -1 -46q0 -33 2 -67q3 -56 5 -114q-1 -12 -1 -25q0 -22 4 -47q7 -39 22.5 -72t37 -53.5t49.5 -15.5q43 6 61 54q13 36 13 72q0 12 -2 25v31q4 25 5 51.5t-1 50.5q2 27 1 51.5t-3 53.5q0 4 1 10t1 10q2 10 3 19.5t1 19.5q2 2 4 2 q10 4 17.5 6t15.5 4h21q27 2 53 3t51 1h6v-2q2 0 4 -2l4 -4q4 -6 4 -12t3 -12q4 -59 5 -101v-31q0 -32 -1 -73q0 -70 -8.5 -139.5t-28.5 -135.5q-14 -45 -63 -83q-48 -36 -108 -58q-58 -21 -119 -21h-5q-64 1 -109 35q-49 37 -72.5 77t-32.5 84t-10 92t-8 102q0 4 -1 9t-1 9 q2 39 2 76t-4 72q2 35 4 65.5t0 63.5h-2v15v5t-1 5t-1 16q3 45 3 89.5t-3 88.5q-4 53 -4 107q0 36 2 73z" />
<glyph unicode="D" horiz-adv-x="724" d="M-29 1274v33q0 12 1 26.5t1 26.5v38.5t17 33.5q76 4 152 7q18 1 37 1q58 0 113 -8q73 -10 140.5 -36t126.5 -81q53 -49 73.5 -117t20.5 -135q0 -100 2 -195.5t4 -195.5q0 -41 1.5 -64.5t1.5 -43t1 -44t1 -63.5q0 -86 -12.5 -162t-53.5 -154q-43 -84 -122 -113.5 t-165 -31.5q-18 2 -35 0q-41 2 -97 2h-95h-6q-58 0 -76 41q0 6 -1 13t-1 16v37.5t-2 39.5q6 20 25 37h38h48v55.5t-3 55.5q0 100 -4 182t-6 178q-2 82 -2 154v140.5t1 140t1 151.5q-23 0 -45 -1t-47 -1q-14 6 -22.5 13t-10.5 24zM297 724q0 -38 4 -83q6 -92 6 -175v-41 q-1 -34 -1 -69q0 -70 3 -147v-21q16 2 32.5 5.5t35.5 3.5q37 0 54.5 32.5t23.5 74.5q5 36 5 73v12q-1 43 -1 66v58.5t1 49t2 49t1 58.5v65.5v50v50v63.5v120.5t-19 117.5q-23 53 -61.5 75.5t-85.5 28.5q-2 -70 -2 -141t2 -142v-85.5v-74.5v-74z" />
<glyph unicode="E" horiz-adv-x="577" d="M23 391v21q0 72 18 125t44 92t51.5 62.5t41.5 35.5q-55 41 -83.5 95.5t-43 107.5t-16.5 98t-2 70q0 78 30.5 140t73.5 108.5t87 73t71 32.5q14 2 28.5 3t28.5 1q12 0 24.5 -1t26.5 -3q8 0 14.5 -1t14.5 -1h14q8 4 17 4q2 0 2 -1t2 -1q16 -2 16 -78q0 -10 1 -18t3 -17 q4 -18 5.5 -34.5t3.5 -30.5q0 -20 -19 -23q-6 -2 -20 -2q-10 0 -21.5 -1t-21.5 -1q-43 -4 -80 -14q-10 -6 -22.5 -14.5t-22.5 -18.5q-14 -6 -22.5 -15t-12.5 -20q-18 -27 -21 -47q-1 -12 -1 -23q0 -57 18 -93q20 -42 51 -68q33 -31 77 -49.5t89 -18.5v-8q0 -8 2 -15t2 -14 q2 -6 2 -22l6 -33l-6 -6q2 -27 10 -55v-6l-4 -2q4 -8 4 -21v-2q2 -8 2 -29v-4l-2 -4q0 -6 1 -13t1 -11v-5l-2 -2q0 -6 -2 -6h-14q-59 0 -116 -28q-64 -32 -93 -86q-27 -33 -29 -58q-1 -20 -1 -39q0 -85 30 -123q14 -25 43 -39t62.5 -23t68.5 -12t62 -5v-17q0 -14 6 -26 q2 -14 3 -26.5t1 -29.5q0 -34 6 -61q1 -5 1 -10q1 -17 -11 -27q-14 -14 -33 -18q-10 -2 -22.5 -3.5t-26.5 -1.5q-55 0 -116.5 15.5t-102.5 32.5q-66 35 -102 84t-53 101t-19 101t-2 82z" />
<glyph unicode="F" horiz-adv-x="684" d="M-20 873.5v64.5v39h77h2h27h14q2 6 -2 11t0 11v2v31q-4 25 -4 45.5t2 55.5v8q2 37 6 67.5t11 57.5q10 59 41 110h2q37 39 83 62.5t99 25.5q18 0 43 -6q10 -2 17.5 -4t17.5 -4h2q2 0 4 -2l4 -2h2l2 -2q2 0 4 -2q4 -4 6 -4q2 -2 6 -2q10 -2 21.5 -11.5t21.5 -17.5 q10 -10 19.5 -20.5t17.5 -22.5q20 -18 34.5 -41t19.5 -47q2 -10 4 -19.5t6 -19.5q6 -29 10 -57q3 -19 3 -40q0 -10 -1 -20q-2 -16 -4 -32.5t-6 -32.5q-2 -10 -4 -19.5t-6 -19.5q-18 -55 -59.5 -104.5t-94.5 -82.5q-57 -29 -127 -38q4 -16 3 -24.5l-3 -25.5v-45v-28 q8 0 15.5 -1t15.5 -1h20h137h7q4 2 16 2t25 -4q4 0 4 2h12v-11q6 -6 6 -12q2 -29 2 -61.5v-61.5l2 -8v6q0 -12 -1 -26.5t-9 -26.5l-2 -10h-10q-2 0 -4 -2q-14 -8 -39 -9h-28t-49.5 1t-48 1h-26.5q-4 2 -10 3h-23v-3q0 -2 -1 -3t-1 -3q-2 -35 -2 -92v-92q-2 -10 -2 -18.5 v-18.5v-77t-4 -76v-50q-14 -10 -31.5 -13t-35.5 -3q-10 0 -17.5 1t-11.5 -1q-9 0 -17 -1h-4q-6 0 -14 3q-12 6 -23.5 3t-25.5 -3q-4 0 -12 4h-2l-3 2v8q0 2 -2 2q-2 8 -2 16.5t-2 16.5q4 80 4 161t-2 159q0 6 1 11t1 11q0 90 -1 160t-1 88q-1 19 -1 44v26q1 41 1 65 q-2 4 -4 2t-4 -2h-22h-17.5h-29h-28.5h-15q0 6 -1 35t-1 62.5zM293 1079q0 -12 2 -32q0 -8 1 -17.5t3 -21.5v-13l2 -2q14 2 29 11q16 8 24 14q18 16 28.5 37.5t14.5 46.5q6 20 6 41q0 34 -16 69q-2 6 -4 11.5t-4 11.5h-2q-9 11 -21 21q-10 8 -20 8h-4h-4q-6 -2 -17.5 -27 t-15.5 -104v-13q-2 -29 -2 -41z" />
<glyph unicode="G" horiz-adv-x="667" d="M0 938v2q4 92 14.5 183t38.5 184l2 2q2 4 11 16q10 14 19 28.5t19 22.5q106 86 234 86h2l68 -4q96 0 147 -57q23 -29 37 -58q10 -29 13 -53t7 -51q4 -31 8.5 -63.5t4.5 -67.5q1 -12 1 -25q0 -18 -2 -37q-3 -30 -1 -61q-4 -20 -9 -35q0 -2 -2 -4v-14q-4 0 -9 -2t-9 -4h-12 h-54q-16 2 -28.5 2h-28.5h-16.5t-18.5 -2q-10 16 -10 37q4 35 6 69q1 12 1 23q0 23 -3 45q-2 27 -6 52.5t-21 47.5q-2 4 -2 10.5t-2 10.5q-4 4 -24.5 8t-24.5 8h-4h-6h-4q-8 4 -21 4q-10 0 -26 -4q-45 -16 -62 -61q-12 -16 -13 -45t1 -58q2 -10 2 -26v-113v-45 q2 -23 2 -41.5v-36.5v-43t-2 -59v-2v-9q-2 -10 -3 -30.5t-2 -44t-1 -45v-33.5q0 -10 1 -19.5t1 -17.5q4 -10 4 -20.5v-30.5q4 -41 10 -84t21 -97q6 -29 29.5 -44t58.5 -15q10 0 20.5 1t20.5 5q12 12 18 32.5t8 39.5l3 6q2 4 2 13.5v17.5q0 18 1 37.5t7 33.5v66h-77t-54 2 q-4 10 -5 19.5t-6 17.5q8 37 8 74q0 35 -3 84q16 2 40.5 2t40.5 -4q8 -4 38 -3t66 2t71.5 3t54.5 2q18 -12 22 -35q4 -33 5 -79v-13q0 -36 -5 -56v-108v-10q4 -12 5 -25.5t-1 -26.5q-4 -16 -5 -30.5t-3 -28.5q-4 -31 -9 -61.5t-16.5 -58t-33 -52.5t-55.5 -43 q-70 -41 -156 -41q-82 0 -166 39q-43 18 -70.5 49t-45 70t-28 83t-16.5 89v16v2q1 31 1 56v23q-1 32 -3 73l-2 108q-2 23 -2 53.5t-2 57.5v84v16q0 29 2 31q-2 4 -2 9t-2 30v22.5t-2 26.5z" />
<glyph unicode="H" horiz-adv-x="851" d="M72 1397.5q0 11.5 8 19.5q4 4 9 7t11 6q16 4 30.5 5t31.5 1h24q6 2 19 2q12 0 29.5 -1t31.5 -1h33q2 -34 2 -68q0 -26 -1 -51q-3 -60 -7 -119v-28.5t2 -30.5q0 -2 1 -33t2 -76t2 -98t2 -100.5t1 -81v-41.5q2 -8 8 -17q2 0 3 1t3 1h28t49.5 1t49 1h27.5q2 0 2 -1t4 -1 q6 -2 25 -2q12 0 16 2q4 4 4 8v41v102v167t1 172t1 114v119v13l6 -3q2 6 11 7q6 0 14 -4l2 2q12 4 28.5 5t30.5 1q12 0 30 -1t28 -3q2 0 3 -1t5 -1h2q6 0 12 -1t11 -1h14t14 -5q10 -4 10 -12v-18q2 -12 0 -31v-70t-1 -78.5t-1 -76.5v-64l2 -164q0 -10 -1 -22t-1 -23 q-2 -24 -2 -45t2 -37q6 -61 6.5 -124.5t0.5 -127.5v-86v-194h4l-2 -10v-4v-7q0 -14 -1 -25t-1 -22v-10v-22v-89v-6q2 -8 3 -20t-10 -21v-2l-8 -4l-8 -4h-4q-14 -4 -28.5 -5t-30.5 -1h-27h-16h-32t-32 2h-12q-14 27 -17 55q-4 16 -3 31.5t-1 32.5q4 35 5 68.5t3 68.5 q4 6 3 10v19v10q0 8 -1.5 15t-1.5 18v8q0 4 -2 10q0 4 1 5t1 5v15q0 8 -2 12v2v8v2v4q-2 6 -2 27q-2 6 -6 18.5t-8 14.5q0 2 -4 2q-20 0 -31 2h-14h-139l-4 -2h-17q-2 0 -6 -10v-84v-17q0 4 1 3t1 -11v-98t-2 -107v-121v-10h-6q-4 -4 -10 -4q-4 0 -7.5 1t-7.5 1h-2 q-12 -4 -28.5 -5t-30.5 -1q-10 0 -27.5 1t-29.5 3q-2 0 -3.5 1t-5.5 1h-2h-20q-8 2 -15.5 2t-15.5 4q-8 0 -8 13v18q-4 12 0 31q0 31 1 68.5t1 77.5v77v63v164q-2 10 -1 22.5t1 24.5q2 24 2 44.5t-2 35.5q-8 63 -8 127v127v84v158l2 4q-2 23 -2 45.5v44.5v10v11v22 q1 22 1 44t-1 44v6q-2 8 -2 19.5z" />
<glyph unicode="I" horiz-adv-x="585" d="M4 1350q-1 11 -1 22q0 28 7 55q4 0 7 1.5t8 1.5q4 2 9 2t9 4q16 0 38.5 -1t43.5 -3q23 -2 47 -2q23 4 44.5 2t43.5 0q14 2 42 3t59.5 2t63.5 1h54q2 -2 4 -3t6 -5q2 -2 3.5 -7.5t5.5 -9.5q2 -16 2 -32.5v-32.5v-21v-63q0 -6 -6 -15q-2 -4 -9 -10q-14 0 -33.5 -1t-38 -1 h-32.5h-19v-166v-164v-45q0 -12 -2 -18q0 -2 1 -5t1 -5v-7v-149q1 -39 1 -76t-1 -72v-86l3 -194v-6v-11v-2v-36h118h6q8 -4 13 -19v-6v-22.5t2 -24.5v-23v-86q-4 -10 -19 -12q-4 -2 -9 -4t-9 -2q-39 0 -88 3t-72 3h-28h-27h-19h-22q-12 0 -36.5 -2t-52.5 -3t-54.5 -2 t-44.5 -1q-6 0 -9 8q-6 2 -6 12q2 29 0 56.5t-2 58.5q0 10 1 21.5t1 23.5q0 2 1 2t1 2q6 6 19 15h32.5t36 1t31.5 1h18q6 55 7 110q5 43 5 83q0 48 -7 93v15q1 33 1 67v35q-1 53 -6 102v107q0 29 2.5 59.5t-2.5 59.5v22v94v189h-20h-36.5t-41 1t-31.5 3l-4 4q0 4 -6 10v25 q0 37 -4 76z" />
<glyph unicode="J" horiz-adv-x="704" d="M2 458q0 48 2 64q0 16 2 33.5t6 36.5q2 20 13 37q18 57 60 105t95 81q29 18 62.5 27.5t64.5 15.5q-4 18 -2 25.5t2 23.5q2 16 2 24.5v24.5v261h-30h-25h-135h-8h-19h-12t-10 4q-2 -2 -4 -2h-5q-2 0 -2 2q-2 2 -4 3t-4 3v4q-4 4 -4 6t-2 6q-2 29 -2 60.5v62.5v10v-8 q0 10 1 23.5t7 23.5q8 4 17 19h2q8 8 39 8h27.5h50t49 -1t28.5 -1q2 -2 6 -2h58q16 0 26.5 3t18.5 3q10 0 18 -1t15 1q8 0 16 1h3q6 0 11 -3q16 -6 25.5 -3t25.5 3l13 -4h2q2 -2 4 -2v-9q2 -10 3 -18t3 -18q-4 -80 -4 -161v-163q0 -14 -2 -20q0 -45 1 -53.5t1 -1.5v16.5 t0 1.5q3 -22 3 -53v-17q-1 -43 -1 -66q2 -4 3 -2t5 2h23h16h29.5h29h17.5q0 -6 1 -35.5t1 -64.5v-65.5v-40.5h-82h-31h-10q-2 -6 1 -11.5t1 -9.5l-2 -2q2 -10 2 -18.5v-12.5q4 -27 4 -46t-2 -56l-2 -223q0 -37 -4 -68t-12 -59q-6 -29 -15.5 -56.5t-25.5 -54.5h-4 q-35 -41 -82 -64.5t-101 -25.5q-25 0 -45 6q-10 2 -18 4t-19 4q-2 2 -4 2t-2 1.5t-2 1.5q-4 0 -6 2l-4 2l-6 4q0 2 -6 2q-6 2 -19.5 11t-19.5 17q-12 10 -21.5 21.5t-19.5 21.5q-18 20 -32.5 41t-18.5 45v3q-4 10 -7.5 20t-5.5 20q-4 14 -6 61.5t-4 103t-2 103.5zM203 378 q2 -54 6 -101.5t10 -61.5q2 -6 4 -11t6 -11l2 -3q4 -12 19 -20q11 -6 20 -6h4h7q8 2 18 25.5t14 107.5v225q2 29 2 42.5t-2 35.5q-2 10 -2 41q0 6 -2 8v2q-18 -2 -28 -6q-16 -6 -29 -18q-16 -14 -27.5 -38t-15.5 -48q-4 -14 -6 -61q-1 -24 -1 -49.5t1 -52.5z" />
<glyph unicode="K" horiz-adv-x="960" d="M-27 838q6 6 23 18l6 2q10 8 22.5 15.5t20.5 17.5q23 10 44.5 23.5t43.5 27.5q10 8 18.5 14.5t18.5 12.5l6 4v4q-4 57 -5 113v13q0 50 7 98q8 54 27.5 103.5t54.5 90.5q58 65 151 65h3q66 0 120 -30.5t82 -81.5q35 -68 35 -128.5t-22.5 -113.5t-60.5 -98t-81 -78 q-23 -16 -44 -32.5t-48 -33.5l-6 -2v-84l27 21q10 8 19 14l18 12q12 10 25.5 16.5t23.5 16.5q49 27 86 57q6 6 12 11.5t12 13.5q16 14 30.5 27.5t31.5 25.5q16 2 27.5 0t25.5 -14q23 -16 37 -37.5t29 -44.5q6 -12 15 -24.5t5 -24.5q-6 -6 -13 -12.5t-16 -14.5 q-12 -6 -22 -15t-21 -20q-14 -12 -27.5 -23t-25.5 -22q-23 -16 -45 -29.5t-45 -29.5q-25 -14 -48.5 -30.5t-45.5 -33.5l-21 -14l23 -6q121 -37 145 -213q-2 -14 -1 -33.5t1 -34.5v-10v-29.5t4 -29.5v-2q0 -12 -2 -19v-2v-2q2 -4 2 -14v-12v-7l2 -2q14 -18 27 -20h4 q16 0 20.5 17.5t6.5 27.5v6l2 10v19q4 29 6 65.5t2 72.5t-1 67.5t-1 54.5v18q6 10 0 21v4v2v4q4 4 13 8t44 4h17l10 -2l4 2h27h51q10 0 18 -4q2 -10 2 -26v-80q1 -35 1 -71q0 -62 -4 -130q-7 -106 -54 -188q-27 -43 -73 -66.5t-103 -23.5q-61 0 -115 32q-8 6 -24 23 q-23 33 -34 67.5t-20 75.5q-4 8 -4 12q-2 8 -3 14.5t-1 14.5q-2 8 -3 15.5t-1 17.5q-2 6 -2 15v20v37v20v2v21v2v2v2q0 4 -1 5t-1 3l-2 4q-4 10 -6 10q-14 23 -49 23h-7l-10 -2v-10q0 -63 1 -108.5t1 -84.5q0 -41 1 -92t1 -115l-6 -12h-2q-14 0 -28.5 -1t-28.5 -1l-15 -2 q-8 0 -17 1t-19 3q-14 2 -26.5 2h-25.5q-16 4 -20 4v4q0 70 -1 147.5t-1 153.5q-2 104 -2 214t-2 220v23l-19 -12q-14 -8 -26 -17q-25 -14 -48.5 -27.5t-52.5 -23.5q-10 6 -16 17.5t-14 21.5q-4 6 -7.5 11t-5.5 9l-4 7q-16 20 -30 44q-9 16 -9 32q0 7 2 14zM365 1073l28 33 q2 4 13 14q4 4 7 8.5t7 8.5q16 16 24.5 32.5t12.5 38.5v2q0 10 -4 25.5t-17 19.5l-2 2q-7 2 -12.5 2t-9.5 -2q-8 -4 -13.5 -11t-9.5 -13l-4 -8l-4 -8q0 -4 -4 -9q-2 -10 -2 -18v-16l-2 -7q-2 -6 -2 -16v-2v-21v-2q0 -4 -2 -6z" />
<glyph unicode="L" horiz-adv-x="681" d="M12 875.5v63.5v40h78h29h12q4 4 0 10t-2 10q0 2 2 2q0 10 -1 17.5t-1 13.5q-2 25 -2 44.5t2 56.5v8q2 37 6 67.5t10 57.5q10 63 41 108q37 41 83 63.5t100 24.5q10 0 21 -1t22 -5q20 -4 34 -8h3q2 0 4 -2h2q4 0 4 -2q4 0 4 -2l2 -2q2 -2 3 -2t3 -2h6q10 -4 21.5 -13.5 t21.5 -15.5q10 -10 19.5 -21.5t17.5 -21.5q18 -18 33.5 -41t19.5 -47v-2q2 -8 4 -18.5t4 -20.5q8 -29 12 -57q2 -15 3 -30q0 -14 -2 -28q0 -16 -2 -32.5t-6 -32.5q-8 -23 -11 -39q-18 -53 -59 -102.5t-94 -82.5q-31 -16 -62.5 -25t-62.5 -15q4 -16 2 -24.5t-2 -25.5v-21 t-2 -24q0 -2 1 -35.5t1 -85v-110.5v-111.5v-88.5v-38h28h21h137h6h17q18 0 24 -2h4l13 2v-12q6 -4 6 -10q2 -29 2 -61.5v-61.5v-10q0 -2 1 5t1 3q0 -12 -1 -26.5t-11 -26.5v-11h-11q-2 0 -2 -1t-2 -1q-14 -8 -39 -8h-26.5h-49t-49 1t-26.5 1q-6 0 -10 2h-56q-14 -2 -24.5 -4 t-18.5 -2q-10 0 -17 1t-13 -1q-8 0 -16 -1h-3q-6 0 -14 3q-14 6 -25.5 3t-23.5 -3q-4 0 -13 4h-4q0 2 -2 2v8v3q-2 8 -2 16t-2 16q4 80 4 160t-2 160q0 4 1 9t1 11q0 90 -1 160t-1 88q-1 18 -1 42v26q1 41 1 67q-4 4 -5 1t-3 -3q-6 0 -11 1t-12 1h-17t-28.5 -1t-29 -1 t-15.5 2q0 6 -1 35t-1 62.5zM325 1079q1 -12 1 -32q2 -10 2 -39q2 -4 2 -13q2 0 2 -1t2 -1q12 2 26 11q16 8 25 14q18 16 28.5 37.5t14.5 46.5q6 20 6 41q0 34 -16 69q-2 4 -3 10.5t-5 10.5q-2 0 -2 2q-6 11 -20 21q-11 8 -19 8h-4h-7q-4 -2 -8 -7.5t-9 -19.5t-9 -40t-6 -64 v-13q-1 -19 -1 -31v-10z" />
<glyph unicode="M" horiz-adv-x="1130" d="M10 115q10 102 10 203.5t-4 203.5q0 48 -1 96v32q0 32 1 65v39q2 16 0 29.5t-2 27.5q2 33 8 67q2 13 2 27q0 22 -6 43q0 47 1 93t4 94q2 29 2 57q1 39 -3 79q-2 30 -3 59q0 38 4 75q0 4 -3 4q2 6 4.5 11t4.5 10q2 2 4 3t4 3l2 2q23 4 45 3t45 -1q14 0 23 4q20 -4 36 -4 q4 0 17 -4q16 -8 24 -15q63 -72 116.5 -143.5t107.5 -149.5q16 -29 36.5 -56.5t38.5 -55.5q33 41 61.5 77.5t57.5 77.5q41 53 88 123t86 121q4 8 8 10q4 6 15 17q4 0 10 1t16 1q33 0 68 -6q21 -4 41 -4q14 0 27 2h2q4 -6 8 -11.5t8 -11.5q0 -4 2 -6q0 -189 9 -377 q7 -154 7 -310v-69q-1 -57 -1 -113v-56v-56q0 -56 -1 -113q-2 -43 -4 -85q-1 -14 -1 -28q0 -28 3 -57q-4 -35 -5 -63v-12q0 -24 3 -54l-12 -6q-16 -6 -31.5 -7t-31.5 -1q-13 -1 -25 -1q-31 0 -59 7q-20 6 -27 17q-4 87 -6 167q-1 40 -1 82.5t1 87.5q1 57 1 114v56v56 q0 56 1 114v104.5t-2 97.5t-4 97.5t-4 104.5q-16 -25 -28.5 -41t-24 -31.5t-23.5 -32t-27 -41.5q-18 -31 -40.5 -60.5t-45.5 -59.5q23 -37 45.5 -77t38.5 -83q31 -76 53 -176q17 -74 17 -145q0 -25 -2 -49q-8 -93 -55.5 -163.5t-153.5 -87.5q-32 -6 -61 -6q-49 -1 -89 17 q-62 28 -102 84t-56 130q-16 70 -15 144v9q1 79 18.5 156t48.5 136q31 61 69 113q-47 76 -89 149.5t-97 138.5v2v-49q-2 -52 -2 -104q0 -51 2 -103q1 -30 1 -60q0 -74 -7 -150q-5 -82 -5 -160q0 -26 1 -52q2 -102 4 -210l4 -108q1 -18 1 -36q0 -38 -3 -78q-35 -12 -61 -19 q-20 -5 -45 -5h-15q-20 4 -43.5 9t-34.5 15q4 23 2 46.5t-6 48.5zM457 423q-1 -13 -1 -25q0 -42 11 -80q14 -48 61 -54q9 -1 17 -1q33 -1 45 19q16 24 17 64v8q0 35 -8 71q-9 40 -17 64q-25 90 -64 162q-4 -10 -7 -16t-7 -12q-12 -29 -27.5 -85.5t-19.5 -114.5z" />
<glyph unicode="N" horiz-adv-x="622" d="M2 27q0 33 2 79l4 92t3 86t1 58q0 14 -1 74.5t-1 206.5q0 184 -1 386.5t-1 387.5q-2 23 4 47q23 4 38.5 8t37.5 4q8 1 15 1q15 0 31 -3q24 -4 46 0q8 -4 10 -8t7 -16q33 -96 64.5 -201t64.5 -217q0 109 1 212t1 199v15l6 6q4 4 12 8h47q29 2 55.5 1t55.5 -1q4 -4 9 -6 t9 -6l4 -8q2 -3 2 -9v-120.5v-133v-132v-119.5q-2 -74 -6 -146q-2 -36 -2 -72t2 -73q0 -86 -2 -170q-1 -28 -1 -56q0 -56 3 -114q0 -14 -1 -47t-1 -72v-77v-60q-8 -12 -18 -15q-6 -2 -13.5 -2h-13.5t-8 -2h-24.5t-24.5 -2h-26.5t-26.5 -2q-6 4 -12.5 4t-14.5 4q-14 6 -23 21 q-4 78 -14 173t-25.5 191.5t-34 186.5t-38.5 160v-82v-285q0 -23 1 -64t1 -88v-94v-78q0 -4 -1 -9t-1 -9q-3 -31 -23 -35q-13 -3 -30 -3q-8 0 -17 1q-29 0 -55.5 1t-52.5 7q-14 2 -23 17z" />
<glyph unicode="O" horiz-adv-x="811" d="M-4 502v4q2 12 2 24.5v22.5q2 25 2 32t2 9q-2 4 -2 10v25v12v86q2 29 3 60.5t1 54.5l2 112q4 41 4 74t-4 80v2l4 18q12 92 44 173t118 122q92 41 172 41h13.5t13.5 -2q2 0 2 -1t2 -1q12 0 28 -8q4 0 9.5 -1t9.5 -1q18 -6 34.5 -14.5t32.5 -18.5q51 -33 80 -80 q16 -16 33 -43q6 -23 9 -46t7 -46q2 -10 3.5 -20.5t3.5 -20.5q0 -4 1 -9t1 -9q2 -8 2 -23h-2v-8q6 -31 6 -53q0 -10 -1 -39t-7 -64v-12q18 6 38.5 22.5t30.5 28.5q20 -39 42 -75.5t44 -83.5q-14 -12 -26.5 -23.5t-28.5 -21.5q-8 -8 -18.5 -14.5t-20.5 -10.5 q-14 -6 -29.5 -14.5t-31.5 -8.5v-178t-2 -186q2 -10 2 -20.5t2 -18.5q-2 -16 -2 -31.5v-32.5q0 -25 -4.5 -48t-8.5 -46q0 -25 -10 -41q-10 -18 -21.5 -37.5t-23.5 -37.5q-49 -72 -131 -89q-24 -8 -46 -11q-10 -1 -18 -1q-12 0 -22 2q-12 0 -24.5 1t-24.5 1q-76 10 -150 45 q-66 31 -90 94.5t-28 131.5q-12 66 -17.5 131t-9.5 131zM215 365q0 -29 1 -57.5t13 -49.5q18 -47 64 -61q16 -4 24 -4q10 0 23 4l22 2l5 -2h4l2 4q25 -7 39 32q1 60 1 121.5t-1 122.5q-2 123 -2 238q-16 -2 -45 2t-58 10q-25 4 -50.5 12.5t-41.5 26.5q-1 2 -1 1t2 -6 q3 -9 1 -9v-4v-9q2 -37 3 -61.5t1 -44v-37.5v-41l-2 -47q-2 -29 -2 -55.5v-59.5v-13t-2 -15zM217 1049q0 -23 7 -43.5t14 -36.5q6 -10 13 -16.5t15 -14.5q12 -12 34 -19.5t46 -9.5q16 0 32 -2q6 -1 11 -1q11 0 21 3q2 6 3 24.5t2 41t2 46t1 42.5v63q-2 27 -9.5 51.5 t-27.5 43.5q-14 8 -43 8q-8 -2 -29 -6q-51 -29 -78 -93q-8 -31 -8 -73q-4 -6 -6 -8z" />
<glyph unicode="P" horiz-adv-x="647" d="M-6 1298q-1 12 -1 23q0 24 3 48t3 48q0 12 -1 23q4 0 19.5 1t31.5 1q28 -6 54 -6q9 0 18 1q33 3 74 7h12q4 -2 14 -2q12 -4 25 0q16 -2 41.5 -3t42.5 3q55 -8 103 -32t77 -73q45 -76 58.5 -161.5t13.5 -171.5q0 -53 4 -116t4 -126.5t-7.5 -125t-29.5 -110.5 q-18 -39 -43 -75.5t-57.5 -64.5t-70.5 -44t-83 -16q2 -47 3 -89t1 -90q-2 -29 -6 -62.5t-4 -66.5q-4 -4 -7 -9t-10 -9l-12 -6h-37h-56.5t-53.5 -2l-19 6q0 8 -2 12q0 12 -2 19q-3 49 -3 98q0 25 1 49q2 74 2 141q-1 47 -1 95t1 98q2 98 2 221q0 127 1 252t1 254h-24 q4 0 5 -1t-7 1h-12.5h-22.5h-22.5h-12.5h-6v31.5t-2 29.5zM299 545q27 4 41 24.5t21.5 50t10.5 63.5t7 65q5 47 5 95q0 15 -1 31q-2 64 -2 130q0 51 -4 104t-25 100q-4 12 -21.5 20.5t-31.5 12.5v-473v-223z" />
<glyph unicode="Q" horiz-adv-x="845" d="M18 383q0 10 2.5 40t8.5 66q0 98 1 258t1 334q-2 10 -2 19.5v19.5v64q4 51 12 94q0 27 10 43q10 18 21.5 39.5t25.5 38.5q23 35 57.5 59.5t75.5 30.5q23 8 45 11q10 1 19 1q13 0 24 -2q8 1 17 1h8q14 -1 25 -3q41 -4 79.5 -16.5t73.5 -28.5q68 -33 92.5 -97.5 t28.5 -133.5q14 -66 20.5 -133.5t10.5 -133.5v-2q-2 -16 -3 -27.5t-1 -25.5q-2 -12 -2 -20.5v-12.5q0 -6 -2 -6q0 -4 1 -10t1 -25l2 -14l-4 -90v-56.5t-2 -54.5q4 -16 3 -32.5t-1 -34.5q0 -33 2 -63.5t0 -63.5q-2 -20 -3 -40t-6 -36v-6v-4l-2 -17q-2 -8 -2 -24 q4 -4 9.5 -10.5t9.5 -10.5q35 -41 68.5 -76t66.5 -49q2 -12 2 -38.5v-56.5t-2 -56.5t-4 -40.5q-70 10 -128.5 54t-92.5 104q-16 -29 -40 -55.5t-55 -43.5q-45 -20 -88 -31.5t-84 -11.5q-8 0 -15 1t-15 1l-2 2q-10 2 -31 11q-12 0 -18 2q-16 6 -34 14t-34 18q-53 33 -84 82 q-10 10 -17.5 21.5t-15.5 23.5q-6 23 -10 46.5t-6 48.5q-2 10 -3 20t-1 21q-2 4 -2 10t-2 10q-2 8 -2 23h4q0 2 -1 4t-1 4q-4 16 -6.5 29.5t-2.5 23.5zM236 433q-1 -17 -1 -33q0 -33 3 -66q0 -10 1 -16.5t3 -14.5q4 -23 11 -46.5t23 -39.5q15 -5 32 -5q5 0 11 1h16.5t16.5 2 q4 2 13 10q23 6 41 25q8 4 18 18q-27 20 -54.5 33.5t-56.5 15.5v181q43 -2 81 -14.5t73 -28.5q0 35 -2 68.5t-4 60.5v6q3 52 3 103q0 25 -1 51q-2 75 -4 153q4 59 5 132v7q0 69 -18 125q-4 27 -14 43q-10 25 -25.5 38t-37.5 24q-12 6 -27 6q-16 0 -23 -6l-22 -2h-4 q-2 2 -4 2q-2 -2 -4 -2q-25 4 -39 -35q0 -123 1 -247t1 -237q-2 -23 -2 -41t-2 -38q-2 -4 -2 -6.5t-2 -4.5q-4 -6 4 -6q-2 -29 -2 -58.5t-2 -58.5q-2 -49 -4 -99z" />
<glyph unicode="R" horiz-adv-x="747" d="M14 33q-1 2 -1 5q0 5 3 13v41v148q-2 23 -1 43t3 41q0 16 1 30.5t1 30.5q0 20 1.5 40.5t1.5 43.5q2 20 2 40.5v41.5v33.5t-2 33.5q-2 12 -3.5 26.5t-1.5 29.5v203q2 31 2 62.5v59.5v64q-4 20 0 43v12q2 16 2.5 34.5t0.5 37.5v14v60v118v20.5t3 25t11 21.5t24 9q6 2 23 2 q23 0 43 -1t43 -3l12 -2q2 0 3 1t3 1h13h16q47 0 103.5 -17.5t109.5 -84.5q31 -43 54.5 -96.5t37.5 -116.5q16 -63 19.5 -123t3.5 -127q0 -68 -11.5 -132.5t-29.5 -109.5q-8 -14 -13.5 -29.5t-11.5 -31.5l-12 -31l-2 -6h-2q-2 -4 -3 -8t-5 -8q-2 -6 -5.5 -11.5t-7.5 -11.5 q-6 0 -2 -6q0 -2 1 -3t1 -3q-2 -6 -2 -17q-2 -10 -1 -19t1 -20q-2 -35 -2 -81t2 -68q0 -23 3 -50.5t18 -49.5q4 -2 16 -2h6l2 2q17 17 17 51v10v4q0 2 1 3t1 3q3 20 3 53v18q-1 46 -5 87q-2 23 -3 44t-1 36q0 20 6 33l2 4l2 2q16 10 36.5 13t43.5 3h22h6q45 0 74 -18l4 -2 v-4q6 -12 6 -31v-48t2 -63q2 -31 3.5 -59.5t1.5 -48.5q0 -41 -9.5 -76t-19.5 -70q-10 -29 -28.5 -55.5t-45 -47t-58.5 -33.5t-69 -13t-67 14q-66 29 -103 84t-37 131q0 23 -1 65t-1 74q-12 -8 -16 -10q-10 -8 -17.5 -11t-11.5 -7q-4 -59 -5 -135t-1 -142v-12v-21v-6l-6 -4 q-35 -12 -68 -12q-18 -6 -45 -6q-16 0 -31.5 2t-25.5 6q-27 6 -27 33zM218 692v-27q0 -51 3 -81q0 -2 1 -4t1 -5v-2q14 8 27.5 25t19.5 27q12 20 24.5 53t24 69.5t17.5 74.5t6 69q0 33 -1 73t-5 79.5t-14.5 73.5t-28.5 52q-10 10 -23.5 22.5t-29.5 20.5h-4q-10 0 -15 -2 q2 -14 2 -29.5v-25.5v-209q0 -23 -1 -51.5t-1 -60.5q-2 -72 -3 -142z" />
<glyph unicode="S" horiz-adv-x="641" d="M-30 303q3 74 34 146.5t80 125.5q8 6 20 19q10 8 18.5 14t18.5 15q-18 -12 -10 -6t12 10q14 8 27 20q10 4 16.5 8t16.5 9q-70 94 -123 196.5t-60 222.5q-1 14 -1 29q-1 60 13 120q16 75 54 133t98 89q41 21 94 21q26 0 54 -5q55 -10 95 -50t64.5 -93t34.5 -115 q9 -52 9 -95v-17q-4 -12 -15 -19q-8 -4 -15 -6t-11 -6q-14 -4 -31 -2t-31 0t-47 -3t-55 7q-6 8 -11 25v20t-2 21q0 18 -2 26q-4 39 -22 64v2q0 2 -2 4q-12 18 -22.5 4t-16.5 -40t-9 -52.5t-3 -30.5q0 -14 1 -31.5t5 -33.5q20 -66 50 -123.5t64 -110.5q0 -4 5 -8 q12 -29 33.5 -59.5t35.5 -51.5q14 -29 30.5 -54.5t29.5 -53.5q25 -49 42 -96.5t33 -100.5q7 -42 7 -84q0 -17 -1 -33q-4 -58 -26 -114q-29 -80 -80 -125t-113 -59q-28 -6 -58 -6q-36 0 -74 10q-68 16 -132 63q-68 47 -96 117q-26 63 -26 129v14zM190 312q-2 -11 -1 -22 q1 -17 5 -33q8 -26 33 -40q39 -25 73 -27h2q33 0 46 58q7 33 7 66q0 26 -4 50q-9 58 -32 115q-6 -4 -10 -6t10 6q-2 -2 -4 -2t-4 -2l-14 -7t-10 -7q-4 -2 -8 -6q-4 -2 -11 -9q0 -4 -4 -4l-6 -3l-6 -3q2 0 3 1t3 1t2 2q-6 -6 -10 -8l-4 -8h-2q-4 -4 -6 -5t-5 -5 q-14 -18 -26.5 -46t-16.5 -56z" />
<glyph unicode="T" horiz-adv-x="874" d="M-6 745q2 23 1 43.5t1 42.5q0 20 3 39t3 39q0 4 1 7.5t1 7.5q2 4 2 7t4 7q2 0 4 1t4 1h70q39 0 95.5 20.5t113.5 55.5q-6 8 -13.5 17t-11.5 20q-39 66 -39 151.5t33 155.5q32 70 98 106q32 17 71 17q41 0 89 -19q76 -31 108 -83q32 -51 33 -113v-6q1 -58 -21 -120 q-22 -64 -56 -118q41 -29 80 -46t84 -20h67q8 -4 15.5 -4t11.5 -6q4 -4 4 -6q0 -16 1 -34t1 -34q1 -14 1 -28t-1 -26q-2 -25 -2 -54h-2q-2 -4 -14 -8h-74q-115 2 -230 57q0 -25 1 -47.5t4 -44.5q6 -59 7 -113v-36q0 -37 -1 -76v-95v-117.5t-2 -138.5v-118q-4 -4 -5.5 -6.5 t-5.5 -4.5q-4 -4 -9 -4t-9 -4q0 2 -4 2l-2 -2q-10 -2 -24.5 -3t-28.5 -1q-12 0 -30 1t-30 3h-8l-2 2q-4 -2 -10 -1t-11 1q-8 2 -15 2t-15 2q-6 2 -11 15v18q0 6 -1 14.5t1 18.5q0 31 1.5 69.5t1.5 79.5v78v64v168v47q0 23 1 45t-1 39q-4 31 -5.5 61.5t-3.5 61.5 q-57 -27 -116.5 -41.5t-118.5 -14.5h-76q-4 2 -8 6zM436 1193q2 -24 13 -40q22 33 22 67q0 14 -4 29q-4 11 -10 11q-3 0 -5 -2q-8 -7 -13 -24q-4 -13 -4 -30q1 -5 1 -11z" />
<glyph unicode="U" horiz-adv-x="704" d="M18 520q6 102 5 187q0 100 -1.5 199.5t-1.5 199.5q0 72 4 150q2 41 3 80q0 35 -2 69q6 16 18 20q39 0 76 -1t76 -1q20 -8 26 -22q3 -44 3 -88v-21q-1 -54 -1 -108q0 -80 2 -163q1 -28 1 -55q0 -54 -3 -106q-2 -52 -4 -114q-1 -21 -1 -40q0 -40 3 -75q-4 -53 -6 -109 q-1 -19 -1 -38q0 -36 3 -70v-56.5t4 -54.5q2 -70 43 -119q25 -27 47 -26h27q10 0 19.5 10t17.5 41q12 45 12 86v86q0 90 -5 181t-5 179q0 166 -2 333t-4 331l2 2q2 8 8 13l12 10q37 2 73 4t71 6h4q12 -4 21 -9.5t13 -19.5q0 -4 1.5 -5t1.5 -3q0 -229 6 -462t6 -462 q0 -53 1 -107v-21q0 -42 -3 -83q-4 -51 -16.5 -102t-39.5 -100q-27 -47 -69.5 -76t-92.5 -38q-27 -5 -54 -5q-24 0 -48 4q-51 8 -92 37q-78 55 -112 143q-32 87 -42 187q-6 63 -7 127q1 38 3 75z" />
<glyph unicode="V" horiz-adv-x="684" d="M-45 1386q0 8 2 13q0 18 18 33q23 4 44.5 7t46.5 3q14 2 28.5 1t30.5 -1q10 0 14 -4t8 -15q0 -2 1.5 -3t1.5 -5q10 -49 18 -101t18 -104q23 -92 38.5 -183t33.5 -183q16 -86 27.5 -171t25.5 -171q12 70 23.5 140.5t15.5 139.5q12 160 34 316.5t42 310.5q0 4 1 5t1 5 q2 4 5 11.5t9 11.5q8 4 11 6q27 -2 54.5 0t51.5 4q20 -2 37.5 -6t28.5 -21q2 0 6 -10q-4 -23 -6.5 -47t-6.5 -51q-4 -10 -6 -22.5t-2 -22.5q-2 -4 2 -10q-16 -147 -30.5 -296t-36.5 -292q-16 -104 -30.5 -205.5t-31.5 -204.5q-10 -63 -21 -130.5t-36 -127.5q-4 -4 -6 -5 t-6 -5q-41 -2 -83 -4t-81 -6q-6 2 -12.5 1t-10.5 1q-10 0 -12 6q-10 8 -12 18q-4 2 -4 4t-2 4q-16 80 -29.5 163t-30.5 167q-18 98 -36.5 195.5t-30.5 195.5q-10 92 -30 188.5t-38 188.5q-16 61 -23.5 132t-23.5 136z" />
<glyph unicode="W" horiz-adv-x="1130" d="M-16 1378q4 20 6 29l4 8q10 12 41 25q10 2 28.5 6t38.5 6q10 1 19 1t17 -1q18 -2 28 -10h2q12 -10 20 -33q4 -10 6.5 -18.5t4.5 -16.5q18 -96 32.5 -190t28.5 -187q18 -127 37.5 -255t46.5 -257q4 -29 11 -59.5t16 -60.5q16 47 30.5 90t28.5 84q-18 70 -36.5 139.5 t-34 130.5t-26.5 112.5t-16 86.5q-7 42 -7 82q0 51 12 100q20 86 73 145q31 33 60.5 47.5t55.5 17.5t46.5 -1t32.5 -8q45 -18 76.5 -59.5t50 -88.5t27 -91t8.5 -67q0 -37 -9.5 -96t-28 -132t-42 -156t-49.5 -166q4 -16 6 -23q10 -35 17 -66.5t16 -62.5q2 10 3 18.5t3 18.5 l6 41q10 47 22.5 90t26.5 86t22.5 84t12.5 82q8 43 16 88t12 92q8 59 14.5 116.5t16.5 117.5q4 23 7 41t7 36q6 31 11.5 60.5t7.5 54.5v2q2 4 2 8t2 8q8 10 17.5 14.5t19.5 8.5l41 -4q10 -2 31.5 -3t27.5 -1h29.5t26.5 -6q6 0 8 -2t4 -2h2v-2q6 -2 22 -11l2 -4 q-23 -92 -38 -187t-31 -192q-2 -6 -2 -12t-2 -12q-4 -20 -4 -35q-2 -12 -3 -24.5t-6 -24.5q-10 -68 -26.5 -134.5t-36.5 -131.5q-12 -45 -21.5 -89.5t-13.5 -91.5v-2q-10 -45 -15 -91t-16 -93q-8 -31 -16 -62.5t-14 -62.5v-12q0 -4 2 -6q-2 -10 -2 -19.5t-2 -19.5 q-4 -14 -7.5 -27.5t-9.5 -26.5v-4q-4 -10 -14 -20q-6 -10 -6 -17q-2 -4 -3 -4t-3 -2h-21.5t-21.5 2q-28 3 -62 3h-17q-44 -1 -79 -5q-6 6 -10 8q-4 12 -9 35q-23 43 -38 89t-25 96l-2 -2q0 -10 -6 -17v-6v-2v-23q0 -6 -2 -8q0 -2 -1 -3t-1 -3v-2q-6 -10 -10.5 -20.5 t-8.5 -20.5q-4 -16 -9 -30.5t-11 -30.5q-16 -43 -55 -62q-27 -4 -66 -4t-61 2q-4 0 -9 2q-33 8 -46 42t-17 63q-10 53 -19.5 106t-23.5 107q-10 29 -16.5 60.5t-10.5 64.5q-27 129 -47 259t-37 259q-6 41 -13 81t-13 81q-2 0 -2 4v2q-4 16 -7.5 33.5t-7.5 33.5q0 8 -2 13 q-4 35 -7 67.5t-11 65.5q-4 10 -4 15t-2 11zM500 1036q4 -25 12 -63.5t18 -83.5q37 137 37 194q0 23 -11 61t-26 60q-35 -43 -35 -111q0 -27 5 -57z" />
<glyph unicode="X" horiz-adv-x="876" d="M16 1427q25 14 60 23q20 2 40 2t41 -2q42 -4 66 -8q57 -129 108.5 -259t106.5 -259q53 129 103.5 258t107.5 260h2q8 2 18.5 2t20.5 4q22 1 44 1t44 -1q16 -2 41 -6t35 -21q-2 -6 -3 -14t-5 -18q-45 -94 -79 -191.5t-77 -193.5q-35 -80 -72.5 -160t-74.5 -160 q80 -166 147.5 -337t140.5 -337q0 -12 -2 -14q-10 -2 -18 -3t-20 -3q-26 5 -53 5q-40 0 -81 -11q-10 0 -14 2q-16 6 -25 12q-47 106 -92 210.5t-88 211.5q-45 -106 -91 -212t-93 -210q-16 -6 -30.5 -9t-33.5 -7h-33.5t-33.5 -2q-23 0 -47 6q-20 8 -25.5 16t-5.5 18 q72 164 139.5 333t145.5 331l-148 320q-41 96 -75.5 193t-79.5 192q-4 10 -6.5 19t-4.5 19z" />
<glyph unicode="Y" horiz-adv-x="768" d="M13 268v10q0 20 3 41q4 10 7.5 22.5t5.5 23.5v2q20 57 63 107t96 85q27 14 52.5 22.5t54.5 14.5q8 2 14 4t13 2q-4 16 -5 21q0 4 -4 12q-6 27 -22 61q-16 53 -39 105.5t-41 105.5q-4 10 -11 36t-18 48q-10 29 -20 62.5t-23 68.5q-14 41 -28.5 84t-24.5 78 q-4 29 -17.5 55.5t-19.5 55.5q-10 35 12.5 42t51.5 7q10 0 21 -1t22 -1q14 0 22 2h15q35 0 63 -17h2q8 -8 14 -12q4 -6 8.5 -14t8.5 -15q4 -12 10 -23t10 -22q-2 -6 0 -8q6 -20 14.5 -40.5t12.5 -43.5q0 -4 2 -6q4 -10 5 -17t3 -12q6 -23 13.5 -46t15.5 -48 q10 -33 20.5 -64.5t18.5 -60.5q0 -8 2 -12v4q10 41 18 79t19 77q4 16 7 30.5t7 30.5q6 25 12 56q4 27 10.5 54t14.5 52q-2 2 -2 4q4 10 8 23q8 18 10 32q16 16 53 17h17q29 -4 49 -8q6 -2 14 -7q18 0 32.5 -1t29.5 -3h2l2 -2q4 0 4 -2q2 0 4 -2l8 -4l-2 -8q-2 -8 -7 -26.5 t-10 -41t-11.5 -48t-12.5 -46.5q-4 -16 -7 -27.5t-3 -15.5q-33 -123 -61 -256q-4 -23 -10.5 -41t-10.5 -43q-8 -29 -15 -52.5t-14 -53.5q-4 -12 -5 -18.5t-5 -18.5q-4 -16 -6 -27.5t-6 -27.5q-4 -10 -5 -19.5t-5 -19.5v-7h20h18.5h30h29.5h18q2 -6 3 -36.5t1 -65.5v-67.5 v-40.5h-84h-30h-13v-7l-2 -2q0 -4 1 -8t1 -8q0 -10 1.5 -17.5t1.5 -15.5q0 -12 1 -17t1 -10.5v-13.5v-26v-9q-2 -18 -3.5 -30.5t-3.5 -22.5t-5 -19.5t-7 -23.5q-10 -63 -43 -115h-2q-39 -41 -87 -65.5t-101 -26.5q-23 0 -47 6q-10 2 -18.5 4.5t-18.5 6.5q-6 4 -13.5 7 t-13.5 7q-16 10 -31.5 21.5t-29.5 25.5q-18 18 -32.5 37.5t-31.5 42.5l-6 12q-4 4 -5 10.5t-5 12.5q-2 0 -2 4q-4 10 -6 20.5t-5 20.5q0 6 -4 10q-2 27 -3 51zM217 264q0 -25 11.5 -45t33.5 -31q14 -10 27 -8l4 -2q4 2 9 2t10 8.5t9.5 29t6.5 63.5v10q0 14 1 19t1 6t-1 4.5 t-1 13.5t-1 19t-1 22q-2 4 -2 12q0 2 -2 2q-10 -2 -16.5 -4t-12.5 -4q-4 -4 -6 -4q-18 -6 -31 -19l-6 -6l-17.5 -14t-11.5 -27q-5 -22 -5 -36q0 -6 1 -11z" />
<glyph unicode="Z" horiz-adv-x="641" d="M8 25.5v13.5v2v65q2 2 2 9q2 29 4 59.5t-2 61.5q2 27 4 53t7 55q6 39 11 77t11 79q4 10 6 22.5t6 22.5q18 53 41 103t56 97q29 39 62.5 76t49.5 82q12 35 24.5 71t26.5 68q6 16 13.5 38t13.5 46l-18 -6q0 -2 -2 -2q-29 -6 -58.5 0t-48.5 29q-2 -2 -2 -4v-2v-23v-4 q-2 -23 -3 -53.5t-2 -62t-2 -60.5t-1 -49q-6 -16 -14 -25q-4 -2 -8.5 -3t-8.5 -5q-23 4 -49.5 0t-48.5 -2q-33 0 -60 12q-6 4 -10 11q0 35 2 79.5t3 93t2 93.5t1 80q0 39 -3 78.5t-3 78.5q4 23 13.5 37.5t31.5 20.5q19 5 40 5q16 0 34 -3q20 -3 38.5 -3t35.5 3h2 q10 -2 14 -17q2 -2 2 -10q-4 -10 -2 -23.5t4 -23.5q4 -23 20.5 -42t39.5 -26q25 -8 47 8.5t30 39.5q6 31 5 55v8q0 4 1 7t1 7q8 8 16 11q16 4 27.5 1t27.5 -1q6 -2 19 -2h8h49h6q14 0 31 -5q8 -4 8 -11v-13v-2v-135q1 -15 1 -31q0 -47 -9 -100q-12 -70 -31 -115 q-33 -80 -59.5 -161t-81.5 -148q-53 -66 -92 -131.5t-62 -147.5q-8 -29 -10 -60.5t-6 -66.5q8 6 16 9t17 8h2h2q29 6 57.5 -0.5t46.5 -26.5q2 2 2 6v21v2q2 2 2 4q0 23 1 53.5t2 62t2 60t3 49.5q2 8 5.5 13t7.5 9q8 6 16 9q23 -2 49.5 1t48.5 3q16 -2 31 -4.5t29 -8.5 q4 -4 6 -5t4 -5q0 -35 -1 -80t-3 -93t-3 -93t-1 -80q0 -39 3 -79t3 -79q-6 -47 -45 -57q-20 -5 -44 -5q-15 0 -30 2q-23 3 -43 3q-16 0 -30 -2q-12 4 -17 14v13q2 10 1 23.5t-3 23.5q-6 23 -22.5 42t-38.5 25q-25 8 -47.5 -8t-28.5 -41q-10 -27 -6 -53q0 -2 1 -3t1 -5 q-4 -8 -4 -15q-6 -10 -17 -12q-16 -4 -27.5 -1t-27.5 3h-18h-9q-29 2 -49 0h-6q-8 2 -15 2t-16 4q-8 4 -8 11.5z" />
<glyph unicode="[" horiz-adv-x="1173" d="M10 665.5q-8 65.5 6 131.5q8 37 16.5 61.5t18.5 44t22.5 40t28.5 46.5q-39 78 -42 165t38 177q37 74 82 126t125 81q29 10 55.5 13t55.5 8q4 0 16 1t27 3q6 -4 13 -4t13 -3q-6 0 -8 -2q2 2 8 2q2 0 16.5 -2t31 -4t31 -4t16.5 -2q18 -6 22 -14q4 -16 8 -31.5t4 -36.5 q-2 -20 -8 -54t-22 -56q-12 -8 -17 -13h-26q-27 16 -66 17.5t-67 -2.5q-33 -4 -66 -23l-2 -2q-4 -2 -8 -6h-2q-14 -14 -21 -29q-6 -8 -10 -18t-8 -23q-4 -14 -6 -26.5t-6 -24.5q-2 -4 -5.5 -7t-7.5 -7q-12 -16 -27.5 -30.5t-25.5 -31.5l2 -2q14 8 25.5 19.5t21.5 23.5 q4 2 7 5.5t7 5.5q12 12 29 22q63 43 127 59.5t127.5 12.5t126 -27.5t121.5 -58.5q61 -37 84.5 -99.5t13.5 -129t-51 -123t-106 -78.5q-55 -18 -120 -24.5t-130.5 0.5t-128 27.5t-113.5 55.5q14 29 32.5 55.5t28.5 57.5q0 2 -2 2q-25 -23 -45 -52.5t-35.5 -62.5t-21.5 -66.5 t0 -66.5q-2 -35 9 -64.5t46 -56.5q70 -49 142.5 -78.5t160.5 -33.5q14 -2 28.5 -1t29.5 1q-27 47 -44.5 98t-21.5 104q18 23 55 30t64 15q37 12 61 0q10 -25 16.5 -49t18.5 -47q10 -23 25.5 -45.5t25.5 -34.5l27 -26l35 -35q4 -2 7 -4t7 -6q0 -4 4 -5h2q29 -23 62 -37 t65 -26q8 -4 15.5 -7.5t13.5 -11.5q14 -16 12 -40.5t-6 -42.5h-4q-2 -2 -10 -7q-82 -6 -154 -34q-31 -14 -67.5 -35t-53.5 -51q-10 -12 -25.5 -31t-30.5 -39.5t-28.5 -41t-19.5 -34.5q-6 -6 -10 -11t-11 -13q-4 -6 -12 -8.5t-14 -4.5q-12 10 -23.5 21.5l-21.5 21.5 q-16 14 -32.5 29.5t-37.5 28.5q-12 12 -18 32v7q8 14 19 32.5t24.5 37t27 35.5t23.5 30h-42.5t-39.5 4q-86 10 -152.5 34.5t-144.5 65.5q-57 31 -100 81t-70 110.5t-35 126zM365 991q4 -2 8 -6q20 -16 62 -30.5t88 -22.5t87 -5t64 23q25 23 21.5 43.5t-20 35.5t-40 24.5 t-37.5 11.5q-43 6 -80 0.5t-74 -25.5q-23 -10 -42 -22t-37 -27z" />
<glyph unicode="\" horiz-adv-x="1601" d="M-3 636q1 142 49 275t147 226q55 51 122.5 79.5t139 37t145.5 -2t143 -34.5q4 31 -9 52t-33.5 38.5t-42 35t-33.5 39.5q-10 14 -5 26.5t17 21t27.5 12.5t27.5 6q23 0 40.5 -12.5t31.5 -28.5q25 51 67.5 88t95 54.5t108 12t106.5 -35.5q4 -4 4 -6q-31 -59 -58.5 -116.5 t-89.5 -90.5q-45 -27 -94 -21t-94 25q4 -23 8 -54.5t19 -45.5q109 49 225.5 46t226.5 -51q70 -29 119 -75.5t81 -105t50.5 -127t26.5 -138.5q10 -86 9 -167t-18.5 -157.5t-53.5 -147.5t-97 -136q-41 -45 -101.5 -81t-129 -56.5t-138 -22.5t-129.5 20q-14 4 -24.5 11.5 t-19.5 10.5t-17 0t-17 -17q-14 -20 -43 -21q-14 0 -27.5 6t-23.5 15q-10 6 -15 7t-10 -2t-13.5 -7.5t-22.5 -6.5q-63 -8 -130 -9t-132.5 10.5t-125 39t-106.5 76.5q-92 94 -138 228.5t-45 276.5zM293.5 561.5q13.5 -108.5 73.5 -188.5q57 -82 142 -122t179 -49t186.5 5 t165.5 43q104 39 173 132.5t81 240.5q6 78 -20 143q-10 31 -25.5 57.5t-34.5 48.5q-8 10 -14 19.5t-16 17.5q-47 47 -98.5 76t-104.5 49q-94 35 -194.5 32t-194.5 -32q-84 -27 -161 -88t-116 -172q-35 -104 -21.5 -212.5zM395 645q4 25 8.5 50.5t12.5 47.5q4 -6 12 -22 q33 -49 88 -82t117 -29q66 4 110.5 49.5t61.5 104.5q16 66 -17.5 119t-85.5 86q-35 20 -73 30q16 6 30.5 12.5t30.5 10.5q4 10 12 10q90 8 159 -14.5t145 -71.5q63 -41 116.5 -100.5t63.5 -136.5q12 -84 0 -161t-68 -147q-20 -25 -49 -53.5t-61.5 -51t-68.5 -36.5t-73 -10 h-4q-23 -6 -51.5 -8t-50.5 2q-78 8 -146.5 40.5t-119 86t-78 123t-21.5 151.5z" />
<glyph unicode="]" horiz-adv-x="1165" d="M10.5 1229.5q1.5 25.5 5.5 44.5q0 2 2 2q4 2 7.5 2t5.5 2q41 4 80 12t73 25q31 12 69 33.5t56 52.5q8 12 23.5 30.5t31 39t30 40t20.5 35.5q4 4 9 11.5l9 13.5q8 12 29 12l21.5 -21.5t23.5 -21.5q16 -14 33.5 -28.5t33.5 -28.5q6 -8 11.5 -15.5t7.5 -17.5v-6 q-14 -29 -43 -71t-49 -66h43t37 -4q88 -10 155.5 -36t143.5 -67q57 -31 102 -81t71.5 -110.5t35 -127t-6.5 -129.5q-8 -37 -17 -61.5t-19.5 -46t-22.5 -42t-29 -47.5q41 -78 43 -164t-39 -178q-37 -76 -82 -128t-124 -81q-29 -10 -55.5 -13t-55.5 -7q-4 0 -17.5 -1t-27.5 -3 q-16 4 -27 4q2 2 4 2t4 2q-4 -2 -5 -2t-5 -2q-2 0 -16.5 2t-30.5 5t-30.5 5t-16.5 2q-16 8 -23 14q-4 16 -8 30.5t-2 37.5q2 20 8.5 55t22.5 58q4 4 8 5t8 5q4 2 10.5 1t16.5 -1q25 -16 64.5 -16.5t66.5 4.5q16 2 34.5 7t35.5 15q4 2 10 8h2q6 6 12 12.5t10 16.5 q10 16 17 39q4 16 5 28.5t5 24.5q8 8 12 14q14 16 28.5 30.5t27.5 31.5l-2 2q-14 -6 -26.5 -17.5t-23.5 -23.5l-12 -12q-8 -4 -14 -10.5t-17 -12.5q-63 -45 -126.5 -61.5t-128 -11t-127 29t-121.5 59.5q-61 37 -85 99.5t-13.5 129t51.5 123t106 79.5q55 20 120.5 26 t131.5 -1t128 -28.5t114 -56.5q-12 -29 -31 -55.5t-29 -56.5h2q23 20 44.5 49.5t37 62.5t21.5 68t0 69q2 33 -10.5 63t-47.5 56q-70 49 -143.5 80t-159.5 35h-29.5t-31.5 -2q29 -47 48 -98.5t21 -104.5q-18 -23 -57 -30t-61 -15q-41 -12 -64 2q-10 25 -17 47.5t-20 46.5 q-8 25 -23.5 47.5t-27.5 34.5l-27 27l-17 17t-17 16l-11 10l-6 6h-2q-29 23 -61.5 36t-67.5 25q-8 4 -15 8.5t-13 12.5q-14 14 -12.5 39.5zM398 555q3 -20 19.5 -35.5t39 -25t39.5 -11.5q43 -8 78.5 -1.5t76.5 26.5q20 10 40 22.5t36 26.5q-2 0 -3 2t-3 2q-23 14 -64 29.5 t-87 24t-88 6t-62 -22.5q-25 -23 -22 -43z" />
<glyph unicode="^" horiz-adv-x="1314" d="M-17 135q1 19 3 35q0 14 4 35q2 6 10 14h14h4h50.5t52.5 2q-4 8 -4 10q0 4 1 8.5t1 8.5v2q-2 12 -4 27.5t-2 27.5q0 14 1 32.5t3 29.5q2 4 2 10v2v20q2 8 2 16.5t2 16.5t12 8v2h15q12 2 26 0q16 -2 33.5 -2h40.5q-6 18 -8 41t-2 39v36.5t2 35.5q2 10 2 18v17q2 6 6 14h8 h2q20 0 39.5 1t40.5 7q6 0 10 -2h21q0 6 -2 8q0 4 1 9.5t1 9.5v2q-2 10 -3 25.5t-1 29.5t1 31.5t3 32.5v6v4v22q0 20 2 31q0 6 4 10h6q6 2 12 0q23 0 55.5 -2t53.5 0h22q-2 37 -2 75v75v71v82q6 16 19.5 20.5t23.5 4.5q23 0 33 -2q4 0 16 -4q0 -2 2.5 -3t2.5 -3q0 -8 2 -13 v-2q-2 -29 -1 -55.5t3 -54.5v-13v-87t2 -87q18 4 38.5 4h41.5h30h39q6 -14 7 -44.5t3 -53.5q0 -18 -1 -36.5t-1 -37.5v-34q-2 -4 -2 -6.5t-2 -4.5q12 -2 24.5 -2h24.5h72h8v-6q0 -2 1 -4t1 -6q0 -10 -2 -16q0 -2 2 -2q0 -12 1 -26.5t1 -31.5q0 -12 -1 -29.5t-1 -31.5 q0 -4 -2 -8v-2v-23v-20q4 0 10.5 -1.5t12.5 1.5h84q16 -14 19 -46t3 -55q2 -16 1 -34.5t-1 -37.5q-2 -8 -2 -16t-2 -18q-4 -4 -4 -9h121h12v-6q4 -4 4 -10q0 -4 -1 -8t-1 -8v-2q6 -23 6 -58q0 -12 -1 -30.5t-3 -30.5q-2 -2 -2 -8v-2v-23q-2 -8 -2 -16t-4 -15q0 -10 -14 -10 h-19q-12 -4 -32 0h-74t-83 1t-82 1h-67l-174 -2q-10 0 -23 1t-26 1q-25 0 -48 1t-40 -1q-66 -8 -132 -8h-134h-90h-109q-18 14 -23 45t-5 53q-2 18 -1 37zM445.5 1423.5q-11.5 32.5 0.5 73.5q4 18 23.5 28.5t38.5 4.5q23 -8 39 -19.5t26 -31.5q23 37 66 51q20 6 39.5 -4 t23.5 -29q12 -41 1 -73.5t-32.5 -62.5t-44 -59.5t-34.5 -62.5q-13 -4 -21 -4t-14 6q-12 33 -35.5 61.5t-44 58.5t-32 62.5z" />
<glyph unicode="_" horiz-adv-x="1134" d="M24.5 355q-4.5 44 0.5 89q14 43 40.5 84t63.5 69t83 39t95 -3q35 -10 69 -32.5t60 -53.5v22v576v72q4 20 5 49.5t3 50.5q2 4 2 8v8q0 2 1.5 4t1.5 6q0 16 -2.5 37t8.5 35q10 23 33.5 28t46.5 1h2h6q8 6 16 0q37 4 79 0t77 -4q10 0 34.5 1t56.5 3t67.5 1t66.5 -3h25 q16 0 32.5 -1t28.5 -11q6 -6 6 -17v-84v-215v-232.5t-1 -233.5t-1 -216q0 -72 1 -161t-15 -169q-10 -25 -21.5 -48t-33.5 -46q-35 -35 -83.5 -44t-97.5 -5q-92 8 -150.5 66.5t-74.5 142.5q0 100 47 180q27 45 68 68.5t86 29t92 -6t88 -33.5v88v110.5v125t1 124.5t1 111 q-111 -10 -204 -21.5t-202 -17.5v-107v-127.5t-1 -139.5t-7 -138.5t-18 -124.5q-14 -39 -33.5 -73t-60.5 -58q-53 -29 -118 -24t-118 24q-49 16 -81 45.5t-49 68.5t-21.5 83zM82 473q-10 -35 14 -59q4 -6 6 -10.5t7 -8.5q20 -23 48.5 -28.5t57.5 0.5q41 10 64.5 47t13.5 78 q-10 35 -38 57t-62 24q-39 0 -65 -23.5t-38 -55.5l-2 -2q-2 -4 -2 -6.5t-2 -6.5t-2 -6zM629 274q4 -47 42 -75.5t85 -18.5q37 8 57.5 42t17.5 67q-2 47 -35.5 82t-80.5 24q-6 -4 -11.5 -5t-9.5 -5q-27 -12 -45 -41q-25 -27 -20 -70z" />
<glyph unicode="a" horiz-adv-x="729" d="M12 100q8 40 17 68q2 10 4 18.5t2 12.5t2 6l4 18q4 37 12 70t13 53q6 35 12 72t12 78q6 47 12.5 93t10.5 93q4 35 8 68.5t8 68.5q2 27 9 83t15.5 126t15.5 144.5t13 140.5q-4 14 -4 29.5t2 31.5q2 4 2 15q0 8 6.5 26.5t30.5 24.5q4 0 23.5 2t44 3l49 2t37.5 1 q41 0 65 -12h4q8 0 13 -4q16 -10 21 -25.5t5 -30.5q2 -6 2 -10t2 -8q4 -23 7.5 -43.5t7.5 -40.5q2 -10 3 -20.5t3 -20.5q4 -29 7 -56.5t7 -54.5q2 -20 4 -40.5t6 -41.5q31 -137 56 -280q6 -41 11 -80t11 -80q6 -45 12.5 -90t14.5 -90q2 -10 3 -20.5t3 -20.5q4 -23 8 -44.5 t8 -41.5q4 -10 11.5 -59.5t17.5 -108.5q6 -31 11 -58.5t10 -43.5q-4 -20 -29 -29h-17.5t-17.5 -2h-2h-12h-27.5t-26.5 -2q-10 2 -16 2h-14q-12 0 -17 -2v2q-14 4 -21 14t-13 23q-4 12 -5 24q-6 29 -12 60.5t-10 42.5q-4 14 -6 42.5t-4 60.5t-4 61.5t-4 46.5q-2 4 -2.5 10 t-2.5 12q-8 0 -10 2h-4q-2 2 -4 2l-2 -2h-2q-8 0 -12 -2q-4 0 -9.5 -1t-11.5 -1q-8 0 -12 2h-12h-89l-4 -2h-2l-2 -8q-2 -6 -4 -27.5t-4 -44t-4 -43t-4 -26.5q-2 -16 -4 -37t-6 -45q-6 -70 -17 -119v-2q-8 -14 -24 -29h-11q-16 -8 -36 -8q-14 0 -23 2h-2h-8q-14 0 -25 -2 h-24q-16 0 -25 2h-2q-10 2 -18.5 9t-12.5 16v6q-6 16 -6 35q0 16 4 34zM307 606h16.5h32h24.5h21l-3 29t-7 62.5t-8 64.5t-4 35q-2 8 -6 39.5t-9.5 66.5t-10.5 63l-5 27l-5 -41q-5 -41 -11 -93t-10.5 -98t-4.5 -56q0 -4 -2 -20.5t-4 -33.5z" />
<glyph unicode="b" horiz-adv-x="585" d="M4 31q0 8 4 16v43v146q-2 23 -1 42t1 39q2 16 3 30.5t1 31.5q0 23 1 43t1 41q2 20 2 39.5v42.5q0 16 -1 32.5t-1 32.5q-2 14 -3 26.5t-1 29.5q-1 33 -1 66v34q1 51 1 100q0 31 1 61.5t1 61.5v30.5t-2 31.5v21t2 22v10q2 18 2 36.5v35.5v16v57v117v21.5t3 25.5t11.5 21.5 t24.5 9.5h21q23 0 43 -1t41 -3l14 -2q2 2 4 2q16 -4 35 0q45 0 99.5 -17.5t105.5 -83.5q66 -84 94 -211q2 -6 6 -21t6 -30q0 -11 1 -39v-13q0 -28 -3 -79q-4 -63 -27.5 -121.5t-52.5 -99.5q-14 -14 -22 -18q44 -13 71 -64q25 -57 33 -105.5t8 -70.5q0 -53 -3 -105.5 t-11 -100.5t-24.5 -88t-40.5 -71q-59 -68 -140 -90q-6 -2 -12 -2t-10 -4q-10 -2 -18.5 -2h-18.5q-31 -3 -64 -3q-16 0 -32.5 1t-32.5 1q-33 0 -66 -3q-10 2 -19 2t-20 4h-2q-10 8 -12 25zM209 203q4 0 4 2v2q0 -4 2 -4h2q10 6 21.5 12t21.5 16q23 16 45.5 36.5t28.5 49.5 q2 12 4 42t2 63v61.5t-2 40.5q-4 18 -14.5 34.5t-20.5 37.5q-2 2 -10 8t-10 8q-16 16 -34 23.5t-36 15.5q-2 -2 -2 -4v-12q-2 -2 -2 -4t2 -4v-4v-91v-50v-90t-1 -102t-1 -87zM209 826.5q0 -11.5 2 -25.5h2q25 6 41 20q12 12 16 19q25 31 47.5 67.5t22.5 93.5q0 31 -2 52.5 t-8 38t-18.5 32t-30.5 33.5q-10 10 -23.5 22.5t-28.5 18.5h-4q-10 0 -14 -2q2 -14 2 -28.5v-24.5v-207q0 -10 0 -6t-1 10t-1 8t0 -14q0 -31 -1 -50.5t-1 -32.5v-24.5z" />
<glyph unicode="c" horiz-adv-x="669" d="M-8 510v2q2 16 2 27.5t2 23.5q0 23 1 30t1 9q0 4 -1 10t-1 25v12l2 88q0 27 1 57.5t1 53.5l2 113q2 41 3 73v13q0 28 -3 65v2l4 19q6 45 16.5 90t29 84t47 70.5t71.5 49.5q82 41 168 41q80 0 156 -41q37 -20 58 -44.5t33.5 -53.5t17.5 -59.5t9 -61.5q0 -14 2 -29.5 t7 -31.5q1 -10 1 -18q0 -20 -6 -35q0 -49 -36 -62q-12 -4 -26.5 -6t-25.5 -2h-22q-4 2 -8 2q-6 0 -11 -2h-12q-20 0 -35 6q-25 10 -28.5 40t-3.5 58v19.5t-2 13.5l-3 8q-4 16 -10 38t-16 34q-23 6 -41 6q-78 0 -94 -61q-12 -53 -19.5 -98t-9.5 -84q0 -23 -1 -33t-1 -23 q-2 -8 -3 -15t-1 -20v-51q-9 -64 -9 -129v-13q1 -72 3 -140q0 -47 2 -94.5t2 -94.5q0 -16 1 -32.5t5 -32.5q0 -37 14 -58q14 -43 60 -61q8 -2 14 -3t14 -1h4h9h4h4q34 -1 54 33q20 36 27 88q5 40 5 82v25q-2 56 -8 93q6 0 12 -1t12 -1q14 0 27.5 1t28.5 1q16 0 29.5 1 t27.5 1h29l4 -22q2 0 2 -4q20 -104 20 -189q0 -172 -82 -270q-59 -59 -149 -59l-33 -2q-70 0 -128 20t-112 68q-10 6 -20 21t-21 30q-8 12 -10 16l-2 2l-2 2q-29 92 -39 184.5t-14 186.5z" />
<glyph unicode="d" horiz-adv-x="661" d="M2 1245v2q-1 16 -1 31q0 30 3 55.5t3 51.5q0 13 -1 26q4 10 9 19.5t16 13.5q2 2 4 2q4 -2 12 -2q25 2 51 2q38 0 77 -5q65 -9 125 -33t111.5 -62.5t88.5 -94.5q49 -74 59 -153.5t10 -165.5q0 -68 2 -122t2 -126t-5 -146q-4 -52 -4 -104q0 -21 1 -41l2 -38q0 -49 -8 -99 q-10 -70 -57 -121q-49 -51 -102.5 -80.5t-111 -45t-120 -20.5t-125.5 -5q-18 4 -25.5 17t-11.5 30q1 26 1 53.5t-1 54.5q0 16 2 29.5t-2 28.5q0 272 -1 523t-1 523q-2 0 -2 2zM205 1231q0 -270 2 -521t2 -522q53 6 94 30t55 75q20 66 20 134q0 19 -2 39q-5 69 -5 139v40v166 q0 55 3 115q1 16 1 32q0 43 -6 84q-10 68 -56.5 117t-107.5 72z" />
<glyph unicode="e" horiz-adv-x="544" d="M1 1374q-2 9 -2 17q0 16 7 30q10 20 29.5 19.5t36.5 -0.5q16 0 40.5 -1t41.5 -1q4 2 13 1t13 -1q2 0 3 1t3 1v-2h78h40h50.5t51 1t43.5 3q2 0 4 -1t6 -1q10 -2 18 -6v-4q8 -10 9 -27t1 -27q2 -25 4.5 -53.5t0.5 -52.5q0 -18 -7 -31l-2 -2l-12 -18h-2q-14 -8 -35 -9h-26.5 t-38 1t-37 1h-25.5h-57h-41v-391h2v-4h43q25 0 50.5 1t49.5 1h21.5t32 -1t31 -3t18.5 -6q10 -10 8 -26.5t-2 -26.5q0 -23 4 -60t0 -59q0 -12 -12 -19q-2 -4 -15.5 -8t-29 -7t-29.5 -4t-21 -1q-23 0 -44 2t-46 4q-12 -2 -25.5 -2h-25.5v-14q0 -2 -1 -2t-1 -2v-6q0 -2 -1 -3.5 t-1 -3.5q2 -41 2 -80.5v-78.5h-2v-187h72q12 0 32.5 -1t44 -1h44t32.5 2q6 2 19 0h4q18 0 22 -12t7 -27v-4q2 -31 5 -52t7 -67v-30q0 -18 -12 -31h-3q-6 -2 -12 0t-12 0q-8 2 -13.5 1t-11.5 -1h-45.5h-58.5h-59.5h-47.5q-23 2 -47 2h-45q-29 -6 -65 -8h-12q-28 0 -44 8h-2 q-2 0 -2 2t-4 2v2q-8 12 -6 25q2 31 2 60.5t2 58.5q0 31 3 60.5t7 57.5q-2 18 -2 38t-2 38q0 94 -3 189.5t-3 189.5v440q2 35 2 69t4 67v8q0 10 -2 16q-4 20 -9 47z" />
<glyph unicode="f" horiz-adv-x="552" d="M6 1178v6v6v4q0 14 1 25.5t1 21.5v10v21q1 22 1 44t-1 42v8q-2 6 -2 15.5t4 19.5q6 4 10.5 8t10.5 8h2q16 4 31.5 5t29.5 3h17h16q12 0 32.5 -1t35.5 -1q12 -2 24 -2h25h6h16h4q23 0 33 -2h25h16h31.5t32 1t16.5 1h6h19q16 0 22 -2h4h2q6 -10 12 -12v-2q4 -4 5 -10 q2 -31 2 -61.5v-61.5v-10v8q2 -10 2 -19q0 -14 -4 -26q-4 -6 -9.5 -12.5t-11.5 -12.5q-12 -10 -41 -10h-20.5t-36 1t-35.5 1h-21q-2 2 -10 2q-6 0 -12 1t-12 1q-31 0 -64 -6v-160v-50.5t-2 -51.5q0 -29 -1 -33l-1 -4l1 -4t5 -31q2 -10 2 -21.5t2 -23.5v2q4 0 8.5 -1t8.5 -1 h4h35h20h119h6q4 0 8 1t8 1q12 0 25 -4h4h4q2 -2 4 -3t4 -5v-4q6 -4 7 -11q2 -29 2 -60.5v-59.5v-9v7q2 -12 1 -24.5t-10 -23.5q-8 -8 -24 -20q-8 -4 -31 -4h-24.5h-43t-42 1t-23.5 1q-4 2 -10 2q-4 0 -11.5 1t-13.5 1q-8 0 -16 -1t-19 -1v-37v-424q0 -29 -1 -59.5t-1 -52.5 q-6 -14 -28 -19h-2q-2 -2 -11 -2q-10 -2 -26.5 -3t-26.5 -1q-12 0 -24.5 1t-22.5 3h-6q-2 2 -4 2q-4 -2 -10.5 -1t-12.5 1q-12 0 -28 4q-8 4 -9 15h-2v16q0 6 -1 15t3 20v66.5t1 76.5t1 76v63l-2 162q0 10 1 21.5t1 25.5q0 23 1 43.5t-1 36.5q-8 61 -8 125v125v84v197z" />
<glyph unicode="g" horiz-adv-x="724" d="M-2 936q4 94 14.5 186t40.5 187l2 4q2 4 13 18q10 14 19 27.5t19 23.5q109 88 242 88h2l68 -4q96 0 151 -59q23 -27 41 -59q6 -27 11.5 -52.5t9.5 -54.5q4 -35 7 -67.5t3 -67.5q0 -31 -2 -62.5t-2 -64.5q0 -10 -1 -17.5t-3 -17.5v-4l-4 -12q-4 -2 -9.5 -4t-9.5 -4h-12 h-27.5t-29.5 2h-56h-36q-12 12 -13 34q4 35 6 72q1 12 1 24q0 25 -3 48q-2 27 -7 53.5t-19 44.5q-4 16 -8 25q-2 4 -23 8t-25 8h-4l-4 -2l-4 4q-16 4 -24 4q-10 0 -27 -4q-39 -16 -62 -61q-14 -20 -14 -50v-59q0 -6 1 -13t1 -14v-114l2 -49q0 -23 1 -41.5t1 -38t-1 -44 t-3 -61.5v-2v-6q0 -10 -1 -32.5t-2 -47t-2 -47t-1 -35.5q2 -12 2 -20t2 -17q0 -10 1 -20t1 -31q6 -84 33 -184q12 -63 90 -64q10 0 21.5 1.5t21.5 5.5q2 2 3 4t5 6q16 16 23 41q10 29 10 61.5t-4 63.5q0 2 4 10v209q-41 0 -75 1t-56 3q-2 8 -3 16.5t-3 18.5q2 16 3 39.5 t-1 40.5q2 23 2 48v50q16 2 38.5 2t35.5 -4q8 -4 38.5 -4t68.5 2t74 3t56 1q12 -10 18.5 -25.5t10.5 -31.5q0 -31 -1 -78t-5 -66v-252q0 -2 1 -5t1 -7q2 -4 2 -9t2 -9q-2 -16 -4 -34t-2 -34q-4 -16 -4 -27q-4 -33 -9.5 -63.5t-17.5 -59t-33.5 -54t-58.5 -44.5 q-74 -43 -160 -43q-78 0 -170 41q-43 20 -71.5 52t-47 71t-29 83t-16.5 91l-2 19v2q3 38 3 67v13q-1 34 -3 75l-4 113q0 20 -1 53t-1 60l-2 88v12q2 18 2 24.5v8.5q0 4 -1 10t-1 31q-2 12 -2 24.5v26.5z" />
<glyph unicode="h" horiz-adv-x="745" d="M-10 1396.5q0 12.5 10 22.5q8 6 16 8h2q16 4 30.5 4.5t31.5 0.5h12t12 2h17q14 0 31.5 -1t31.5 -1h17q4 -16 8 -28.5t6 -29.5q2 -14 1 -30.5t1 -32.5q-2 -16 -2 -33.5t-2 -36.5q4 -53 4 -106.5t2 -106.5q4 -18 8 -18q6 -6 6 -4h29h17h137h4q4 0 8 1t8 1q4 2 7 20.5 t3 24.5q0 8 -1 13t-1 11q0 4 -1 9.5t-1 48.5v65.5t-2 67.5q0 23 0 19.5v-9.5t1 -7t1 23v117q2 14 25 19q2 0 3 -1.5t3 -1.5h2q10 4 26.5 5.5t30.5 1.5q12 0 30 -1t30 -3q2 0 3 -1.5t3 -1.5h4h19q8 -2 15 -2t13 -2q8 -2 13 -16v-16q2 -16 0 -31q0 -31 -1.5 -70t-1.5 -79 v-75.5v-62.5v-162v-49q0 -20 -1 -41.5t1 -38.5q5 -60 7 -124q1 -28 1 -54q0 -36 -1 -72v-83l2 -158q-2 -2 -2 -4q2 -23 2 -45.5v-44.5q-2 -2 -2 -11v-10v-22q0 -23 -1 -44.5t1 -43.5q2 -1 2 -5l1 -23q0 -10 -7 -18q-6 -4 -11.5 -6t-9.5 -6q-16 -4 -30.5 -5t-30.5 -1h-27h-16 h-33t-29 2h-33q-2 34 -2 67q0 25 1 51q3 58 8 116q0 16 -1.5 31.5t-3.5 29.5v37t-1 82t-2 105.5t-2 107.5t-1 87v44q-4 12 -6 16h-8q-4 0 -27.5 -1t-49 -1h-48.5h-27h-4q-10 2 -26 2h-19q-4 -4 -4 -8v-43v-59v-101.5v-123v-125t-1 -107.5t-1 -70v-118v-13h-6q-4 -4 -8 -4 q-12 0 -17 2q-2 0 -2 -2q-10 -2 -27.5 -3t-31.5 -1q-10 0 -27.5 1t-29.5 3h-9l-2 2q-4 -2 -9 -1t-9 1q-14 0 -31 4q-6 0 -8 5.5t-2 9.5v16q-2 14 0 33v68.5t1 77.5t1 76v62l-2 164v22.5t2 24.5v44.5t-2 37.5q-4 61 -5 124t-1 126v84v193q2 10 2 22v23q0 4 -1 6t-1 6v12 q2 4 2 11v20v44.5t-2 43.5v6q-2 10 -2 22.5z" />
<glyph unicode="i" horiz-adv-x="303" d="M4 1180l2 6v6v4v26.5t2 22.5v10v21q0 23 1 44t-1 44q0 2 -1 4t-1 4q0 10 -1 21.5t9 21.5v2q4 2 9.5 4t9.5 2h2q14 4 29.5 5.5t31.5 1.5h12.5t12.5 2h18q12 0 27.5 -1t30.5 -1q10 -2 32 -3q2 -31 2 -62q0 -47 -4 -91q-6 -74 -8 -152q-3 -36 -3 -72v-18q1 -45 7 -88 q0 -12 -2 -16v-121t6 -117q6 -57 6 -109.5t-2 -111.5v-92v-117t-2 -135v-121q-6 -6 -10 -8q-4 -4 -18 -8q0 2 -2 2l-2 -2q-10 -2 -25.5 -3t-28.5 -1q-12 0 -29.5 1t-29.5 3h-8l-2 2q-4 -2 -10.5 -1t-10.5 1q-10 0 -30 4q-8 2 -9 14h-2l2 19q-4 14 0 30v70v79v76.5v63.5v166 v47q2 24 2 44.5t-2 37.5q-6 61 -7 125v42q0 43 1 87v84l-2 199z" />
<glyph unicode="j" horiz-adv-x="638" d="M0 57q0 4 4 25q4 8 11.5 16t11.5 17q14 23 25 51.5t22 50.5q6 2 6 12q12 -6 18 -12q20 -16 45 -27h11q4 -2 9 -4t9 -2h2q4 -2 12 -2q17 -5 32 -5q18 0 34 7q25 2 39 21.5t21 46.5t8.5 57.5t-1.5 57.5v38.5t-2 38.5v76v47q0 23 1 44.5t-1 37.5q-8 63 -8 127v127v86v199 l-4 2l2 6v6q0 2 1 2t1 2q-2 14 -1 25.5t1 21.5v13l2 20v45.5t-2 44.5v6q0 4 -1 5.5t-1 5.5q6 27 25 34q8 4 14 5.5t12 5.5q10 2 19.5 2h19.5h27q4 2 16 2q14 0 29.5 -1t30.5 -1h4q16 0 26 -10q2 -32 2 -64q0 -41 -3 -82q-5 -74 -9 -145v-6v-21v-10v-2q4 -14 4 -27.5t2 -25.5 v-5q0 -25 -1 -51t-1 -53q-2 -57 -2 -120.5t6 -119.5q6 -49 7 -98v-121q0 -23 -1.5 -29t-1.5 -28v67q0 -82 -1 -131t-1 -86q-2 -4 -2 -8q0 -39 -9 -90t-34 -86q-41 -59 -110 -94q-35 -16 -78 -17q-31 -4 -62.5 -4t-60.5 2t-56.5 9.5t-54.5 17.5q-20 10 -30 21v2q-4 2 -6 4 q-8 6 -14.5 13t-12.5 15z" />
<glyph unicode="k" horiz-adv-x="768" d="M4 1401q4 10 9 17t12 14h2h6q14 4 26.5 5t28.5 1h25h16h57q8 -2 16.5 -2h16.5q2 -36 2 -71t-2 -69q-4 -68 -8 -141q-2 -2 -2 -6v-19v-30q0 -2 2 -2q2 -14 2 -28.5v-31.5v2v-33.5v-52v-56.5v-42l25 43q10 23 25.5 49.5t29.5 52.5q6 14 13 27.5t13 28.5q16 39 37 75.5 t41 77.5q2 4 3 9.5t6 9.5q6 20 13 39.5t7 21.5l6 17q10 14 15.5 29.5t11.5 29.5q4 8 6 14t6 13q4 4 5 10t5 10q2 2 4 3t7 5q4 -4 14 -4q14 -4 26.5 -3t26.5 1q14 -4 30.5 -4t31.5 -2h21t22 2q8 -4 14 -8t8 -14q0 -8 -4 -25q-4 -10 -7 -18.5t-7 -18.5q-12 -23 -23.5 -44 t-21.5 -44q-20 -47 -43 -93t-41 -95q-20 -35 -33 -62q-33 -72 -71 -140.5t-77 -135.5q25 -31 43.5 -69t36 -78t33.5 -78.5t37 -71.5q29 -49 49.5 -104.5t42.5 -108.5q16 -35 36.5 -68t33.5 -72q4 -10 5 -19t1 -19q-8 -4 -14 -5h-9q-25 0 -49 -2t-47 -2q-18 -2 -36.5 -1 t-39.5 3q-6 6 -10 9l-8 8q-6 12 -14.5 28.5t-17.5 34t-16 29.5t-7 16t-7 15q0 4 -4 8q-23 43 -38 88t-37 86q-18 33 -34 65.5t-32 67.5q-6 10 -11 19.5t-9 17.5q-6 8 -9 16v-19t-1 -33.5t-1 -37v-28.5q-4 0 -4 -7q-4 -16 -3 -31.5t3 -31.5v-197q-2 -20 -2 -40.5v-39.5 q-4 -18 -12 -31.5t-29 -23.5q-10 -2 -22.5 -3t-22.5 -1q-12 0 -29.5 1t-27.5 3h-8q-2 0 -2 2q-6 -2 -8.5 -1t-6.5 1q-12 0 -28 4q-8 2 -9 15h-2v18q-4 14 0 31q0 31 1 68.5t1 77.5v77v63v164v47q2 22 2 42.5t-2 39.5q-6 61 -7 124t-1 128v84v172q4 20 5 43t-5 45v2q2 4 2 11 v20v44.5t-2 43.5v8q0 4 -1 9.5t-1 11.5z" />
<glyph unicode="l" horiz-adv-x="471" d="M8 38.5q0 10.5 2 20.5v7q2 23 2 45v45l-2 22v10q0 10 -1 21.5t1 26.5q0 2 -2 4v6v8h2v174v86v130.5t8 125.5q2 16 1 38.5t-1 45.5v47v168v67v84t-1 86t-1 72q-2 10 -1 18.5t1 14.5v2q2 4 4.5 8t4.5 9q10 10 25.5 14t29.5 6h8q12 2 24.5 4t22.5 2q14 0 26.5 -2t22.5 -4 q10 -4 11 -6h4q6 -6 11 -12.5t9 -14.5v-98q0 -35 1 -74t1 -77v-72.5v-59.5v-92q1 -39 1 -78v-40q-1 -58 -7 -115q-4 -53 -5 -111v-24q0 -47 3 -95v-106v-51t2 -64q16 -2 32.5 -4t31.5 -2q8 0 14 1t12 1q4 2 10 2q8 2 17.5 2h19.5q27 0 37 -8q12 -8 21 -27l4 -4 q4 -10 4 -21.5v-21.5v-12v-10q0 -31 -1 -63t-3 -62q0 -8 -4 -13v-2q-8 -8 -13 -10h-2h-4q-12 -4 -24 -4t-19 2h-4h-22h-21q-10 0 -18.5 -1t-16.5 -1h-6h-16h-6h-52q-14 -2 -27.5 -2h-25.5h-18h-17q-12 0 -25.5 1t-25.5 3q-8 4 -15 7t-16 7q-8 10 -8 20.5z" />
<glyph unicode="m" horiz-adv-x="919" d="M6 72q2 2 2 10q-4 15 -4 31q0 11 2 22l2 35q0 16 1 32.5t3 33.5q2 14 2 29.5v33.5v53q-4 104 -5 204.5t-1 184.5q0 78 1 177.5t5 201.5v60v28v17q0 10 -1 20t-3 21q-2 10 -2 22t-2 23v18v35.5t2 36.5q2 2 2 4v10q10 12 27 23q12 6 37 6h22h19h6h10q4 0 9 -1t12 -1 q16 -6 30.5 -15.5t24.5 -25.5q10 -18 16 -36.5t13 -35.5q0 -4 1 -6t1 -6l12 -43l2 -2q8 -23 17.5 -51.5t19.5 -69.5v-6q2 -4 6 -17q12 -33 21.5 -65.5t19.5 -65.5q4 -16 8 -31.5t8 -31.5q29 -86 70 -191q6 -16 13 -32.5t11 -34.5q10 35 19.5 69.5t19.5 69.5q6 18 12.5 35.5 t10.5 38.5q16 59 38.5 139t41.5 164q10 45 19 82t20 69q6 25 14 41l2 5q14 18 41 24q10 2 16.5 2h10.5h6q8 0 14 -2h19q10 0 16 1t14 3q4 2 11 2h6q4 0 5 -1t3 -1q39 -10 49 -43v-45q-4 -18 -4 -35.5v-33.5q2 -23 1 -46.5t-3 -46.5v-39q-1 -30 -1 -63v-33q1 -51 1 -102 q2 -35 2 -68v-63q0 -82 -1 -180.5t-2 -202t-2 -203.5t-3 -184q-2 -10 -6.5 -18.5t-8.5 -16.5h-2q-8 -8 -16 -9t-14 -1h-17l-4 2h-8q-8 0 -14.5 -1t-14.5 -1q-16 -4 -28 -4l-4 2q-33 0 -48 10q-4 6 -8 13t-8 15q2 66 3 151t2 173t2 174t1 154q-4 -10 -11 -42t-11 -44 q-2 -27 -13 -58q-4 -12 -6 -24t-6 -27q-6 -31 -20.5 -89t-32 -122.5t-34.5 -123t-28 -89.5l-4 -8l-71 -2l-4 2q-12 23 -31 74t-37 109.5t-33.5 111.5t-19.5 80q-12 61 -31.5 120.5t-48.5 131.5q0 -72 2 -155t4 -167q0 -68 1 -135.5t1 -132.5q-4 -4 -4 -12q4 -18 -2 -34 t-16 -30h-5q-8 -8 -17 -10t-15 -2q-4 0 -9.5 1t-9.5 1q-2 0 -4 1t-4 1h-6q-14 0 -19 -2h-20q-8 0 -13 1t-14 1q-16 0 -24 8h-4q-4 0 -6 2h-5v2v10q-12 14 -12 52z" />
<glyph unicode="n" horiz-adv-x="616" d="M8 1370q0 8 1 20.5t11 22.5q12 14 31 14h15q29 0 55 -1t55 -9q18 -8 35 -31q23 -59 40 -139t34 -151q2 -16 4 -28.5t6 -25.5q8 -39 18.5 -76.5t22.5 -76.5q-2 31 -1 61.5t3 59.5v26v79t-4 85v18.5t-2 16.5q-2 31 -3 62.5t3 60.5q2 6 2 14q4 20 11 40t42 20q10 2 18.5 2 h18.5q10 2 21.5 3t23.5 1q27 0 49 -6q4 -2 5 -3.5t5 -3.5h2h2q4 -2 11 -8v-10q6 -20 2 -49v-103.5t2 -126.5v-108v-291v-2q-1 -16 -1 -32.5t1 -32.5v-9v-2v-10q0 -16 1 -29.5t1 -29.5q-2 -6 -2 -13.5v-13.5v-10v-166v-17v-26v-172v-30.5t-2 -33.5l2 -2v-8q5 -25 5 -44 q0 -20 -13 -34q-12 -14 -37 -14h-4h-9q-18 2 -36.5 2t-38.5 4h-4h-13h-10h-10q-2 0 -3 -1t-5 -1h-2l-19 6h-2h-4q-6 6 -11 13.5t-12 13.5q0 4 -1 8t-1 8q-2 4 -2 9.5t-2 9.5q-4 8 -4 14q-10 29 -14 55.5t-8 53.5v4l-4 14q-4 8 -4 18q-8 33 -15.5 74t-15.5 86 q-6 33 -12.5 65.5t-12.5 63.5v-59.5t-2 -59.5q-4 -23 -4 -59.5v-77.5v-84t-2 -65q-2 -8 -2 -22.5v-31.5l-2 -2q2 -23 -16 -41q-10 -8 -23.5 -9t-26.5 -1h-10q-6 0 -12 -1t-12 -1h-29q-12 0 -21.5 1t-17.5 3q-4 2 -6 2t-6 2h-2q-6 12 -9.5 24.5t-7.5 26.5v28.5t2 25.5v90v97 t4 79q4 37 6.5 76t2.5 76q0 16 -1 31.5t-1 31.5q-2 16 -2 33.5v34.5v137q-4 63 -4.5 125.5t-0.5 124.5v34v35t-2 35q0 16 -1 34.5t-1 37.5v16t2 15q2 10 2 20v20q-2 8 -3 16.5t-3 16.5q-2 10 -2 18.5t-2 18.5z" />
<glyph unicode="o" horiz-adv-x="679" d="M12 510l2 6v26.5t2 22.5q0 25 1 31t1 8q0 4 -1 10.5t-1 24.5v12l2 86v60.5t2 54.5l3 111q2 41 3 73v22q0 24 -1 56v2l2 19q6 45 16 90t28.5 84t47 69.5t71.5 51.5q78 38 164 38h4h27q0 -2 4 -2q6 -2 14.5 -4t14.5 -4q10 0 18 -4q16 -6 33.5 -14t34.5 -17q49 -33 76 -73 q41 -96 46 -203t11 -213v-545v-19.5t2 -19.5v-31.5t-2 -31.5q0 -23 -3 -45.5t-7 -44.5q-4 -27 -13 -41q-10 -20 -19 -40t-26 -36q-49 -72 -127 -88q-23 -8 -46 -12q-9 -1 -18 -1q-13 0 -24 3h-23.5t-23.5 2q-39 4 -76.5 15t-72.5 28q-66 35 -89.5 96t-27.5 131 q-14 63 -19.5 126.5t-9.5 129.5zM226 926q3 -76 7 -152l-4 4q0 2 2 -8t0 -8q0 -2 2 -4v-8v-2q2 -37 2.5 -61.5t0.5 -43v-36v-42.5l-3 -47v-112q0 -8 -1 -14.5t-1 -14.5q-2 -29 -1 -57.5t14 -49.5q25 -45 63 -61q2 -2 3 -1t5 -1q16 -9 31 -9l35 11h2q2 0 2 4q6 -4 10 0 q29 29 29 74q0 10 1 18t1 19v323q6 31 6 61q0 18 -2 38q-4 30 -4 58q0 19 2 38l8 90t4 92v56t-10 71q-4 23 -11 41t-24 35q-14 8 -33 8q-2 0 -2 1t-2 1q-33 -2 -55 -16.5t-36.5 -37t-22.5 -50t-11 -54.5q-8 -60 -8 -119q0 -17 1 -34z" />
<glyph unicode="p" horiz-adv-x="575" d="M2 39q0 8 4 16v43v76t-2 68q0 23 1 43t1 39q2 16 3 31.5t1 31.5q0 20 1 41t1 41t1 39.5t1 42.5q0 16 -1 31.5t-1 31.5q-2 16 -2 29.5t-2 28.5q-1 33 -1 66v34q1 51 3 100v123v60v45v10q2 16 2 34.5v37.5v14v57v58.5t-2 58.5v20.5t4 24.5t11.5 21.5t23.5 9.5h23 q23 0 43 -1t41 -3h12q4 0 6 2h2q2 0 5 -1t7 -1h2h3h12q23 0 51.5 -3t58 -13.5t58 -31t53.5 -53.5q35 -41 56.5 -93t37.5 -115t19.5 -121.5t3.5 -124.5q0 -27 -2 -54.5t-6 -54.5v-12q0 -62 -19 -126q-22 -71 -53 -124q-18 -29 -46 -58.5t-59 -49.5q-31 -16 -69.5 -31 t-75.5 -19q-4 0 -4 -4q-4 -4 -4 -6t2 -4q0 -4 1 -6t1 -6v-4q-2 -8 -2 -23v-2q-2 -57 -2 -122.5v-123.5v-12v-16v-9l-8 -2q-31 -12 -66 -12q-14 -8 -43 -8q-18 0 -32.5 2t-24.5 6q-25 6 -29 33zM206 690v-26q0 -50 3 -78v-6q12 4 18 8h2q41 23 67 64.5t34 88.5q4 25 5 51.5 t5 55.5q2 10 2 19.5v19.5v31v4q0 10 -1 20t-1 21q0 35 -4 76.5t-16.5 76.5t-35 59.5t-55.5 26.5l-2 2h-6q-2 0 -5 -1t-7 -1q0 -16 1 -31.5t1 -23.5v-205q0 -23 -1 -52.5t-3 -60.5q0 -70 -1 -139z" />
<glyph unicode="q" horiz-adv-x="768" d="M2 387q0 10 2 39t8 63v112t1 139.5t1 156.5v164q-2 10 -2 19.5v19.5v61q4 51 13 90q0 27 10 43q10 18 20.5 39t24.5 37q23 35 55.5 57.5t73.5 28.5q23 8 43 11q9 1 17 1q12 0 24 -2q8 1 16 1h9q12 -1 22 -3q41 -4 78 -15t71 -28q66 -31 89.5 -94t27.5 -129 q12 -66 18.5 -129t10.5 -129v-2q-2 -16 -3 -27.5t-1 -23.5q-2 -12 -2 -19.5v-11.5q0 -6 -2 -6q0 -4 1 -10t1 -25l2 -14l-4 -86v-55.5t-2 -53.5q4 -16 3 -31.5t-1 -31.5q0 -33 2 -62.5t0 -62.5q-2 -20 -3 -38t-5 -34v-6v-4l-3 -17q-2 -8 -2 -22q4 -4 9.5 -10t9.5 -11 q35 -41 67.5 -73.5t63.5 -46.5q2 -12 2 -38v-53.5t-2 -54t-4 -41.5q-66 10 -123 53.5t-90 98.5q-16 -27 -39 -52.5t-53 -41.5q-41 -18 -84 -29.5t-82 -11.5q-8 0 -15.5 1t-15.5 1l-2 2q-12 2 -27 10q-12 0 -18 2q-16 6 -33.5 13.5t-34.5 17.5q-27 16 -45 35.5t-34 42.5 q-10 10 -16.5 21t-14.5 24q-6 23 -10.5 45t-6.5 45q-2 10 -3 20t-1 21q-2 4 -2 9t-2 9q-2 8 -2 23h4q0 2 -1 4t-1 4q-4 16 -6 28.5t-2 22.5zM213 436q-1 -16 -1 -32q0 -33 3 -64q0 -10 1 -16.5t3 -14.5q4 -23 10.5 -45t22.5 -39q14 -5 30 -5q5 0 11 1h16t17 2q4 2 5 4t5 6 q23 6 41 25q8 4 18 18q-27 18 -53.5 32t-54.5 16v174q41 -2 78.5 -13.5t68.5 -27.5q0 33 -2 66.5t-4 56.5v6q3 51 3 100q0 25 -1 50q-2 73 -4 149q4 55 6 125v16q0 62 -14 115q-2 10 -5 20t-10 21q-10 25 -25.5 37t-37.5 20q-12 6 -25 6q-16 0 -22 -6h-23h-4h-4h-4 q-23 0 -35 -33q0 -117 1 -237.5t1 -231.5q-2 -20 -2 -38.5t-2 -36.5q-2 -4 -2 -6.5t-2 -4.5q-4 -6 4 -6q-2 -29 -2 -56.5t-2 -56.5q-2 -47 -4 -96z" />
<glyph unicode="r" horiz-adv-x="575" d="M5 276q1 20 3 39q2 16 2 30.5v31.5q0 20 1 39.5t3 42.5q0 20 1 40.5t1 43.5q0 16 -1 31.5t-3 31.5q-2 14 -2 27.5v30.5q-2 51 -2 101t2 99v123v62v43v10q2 18 2 36.5v35.5v16v57q1 30 1 60t-1 59v20.5t3 24.5t11.5 21.5t24.5 9.5h23q20 0 40.5 -1t43.5 -3h12q4 0 6 2h2 h12v-2h17q47 0 102.5 -16.5t108.5 -82.5q29 -41 52.5 -95t39.5 -118q2 -6 6 -21t4 -30q2 -11 3 -39v-13q0 -28 -3 -79q-4 -63 -27.5 -121.5t-54.5 -99.5q-10 -12 -20 -18q35 -6 61 -37l8 -17q4 -8 6.5 -15t6.5 -13q2 -20 4 -49t2 -31v-99q0 -41 2 -94l-4 -160q2 -49 4 -88 q0 -35 -1 -62.5t-5 -31.5q-8 -6 -30.5 -9t-33.5 1q-4 0 -16 -1t-25.5 -2t-24 -3t-12.5 -2q-3 -2 -7.5 -2t-10.5 2q-8 2 -14 4q0 25 -2 47q-2 18 -3 33.5t-1 17.5q-2 2 -2.5 13.5t-0.5 25.5t1.5 25.5t1.5 13.5v82l4 84l-7 182q0 41 -3 65.5t-5 28.5q0 4 -17.5 16.5 t-80.5 16.5q-2 0 -2 -2v-12q-6 -6 0 -10v-2q-2 -23 -1 -46.5t1 -46.5v-30.5v-58t-1 -71.5t-1 -75q0 -4 -1 -8t-1 -9q2 -6 2 -20v-55q0 -16 -1 -31.5t1 -34.5q2 -18 3 -37.5t1 -40.5q-2 -10 -2 -19t-2 -20q-2 -10 -2 -20h-42.5h-33.5h-32.5t-41.5 -2q-10 2 -20 2t-21 4 q-8 8 -8 12q-2 10 -2 29v20.5t2 20.5v79t-2 70q-1 15 -1 29v14zM209 823.5q0 -10.5 2 -24.5h2q27 8 39 20q16 13 20 17q25 31 46.5 68.5t21.5 94.5q0 31 -2 52.5t-8 38t-17.5 32t-29.5 33.5q-10 10 -24.5 22.5t-29.5 20.5h-4q-6 -2 -14 -2v-57v-205q0 -33 -1 -52.5t-1 -33.5 v-24.5z" />
<glyph unicode="s" horiz-adv-x="608" d="M6 1125q4 89 34 168t87 122q57 45 125 45t133 -49q29 -20 49.5 -54t34.5 -75t21.5 -85t11.5 -83q0 -43 -8 -74q-4 -6 -9.5 -11t-9.5 -11l-8 2l-2 -4q-6 -4 -12.5 -6t-16.5 -4q-14 -2 -29.5 -3.5t-31.5 -1.5h-15q-10 0 -15 2.5t-11 6.5q-8 2 -13.5 3t-11.5 1q-4 0 -8 2v4 h-4l-2 2q-2 4 -2 30.5t-2 57.5v8v21v4q0 29 -2 35q-2 2 -6 10q-4 4 -4 7t-3 5v4h-4q-12 6 -24 6h-6l-2 -6q-21 -33 -21 -97q0 -40 8 -93q4 -29 34 -79t79 -122q16 -20 28.5 -39.5t28.5 -36.5q29 -37 57 -72.5t48 -82.5q63 -129 63 -248q0 -84 -24.5 -150.5t-66.5 -112.5 t-94 -71t-106 -25q-10 0 -19 1t-19 4q-74 12 -136 92q-52 72 -72 171q-11 51 -10 101q0 46 9 90v4q8 23 14 43.5t16 40.5q12 6 25 6q14 0 35 -4q10 -2 16 -3t17 -1h2h6h4q10 -2 18 -3t17 -3q16 -8 39 -12q4 -6 0 -21v-4q-2 -10 -2.5 -19t-2.5 -20l-2 -32v-54v-10 q0 -12 1 -26.5t6 -24.5q0 -8 2 -12v-3q2 -18 8 -33.5t22 -23.5q10 -8 25 -8q18 0 31.5 10t21.5 27.5t10 36t-2 34.5q2 23 -6 48q-4 25 -11 49t-18 41q-16 29 -32.5 60.5t-38.5 57.5q-35 41 -75 96.5t-91 127.5q-40 61 -60 149q-16 73 -17 147q0 15 1 30z" />
<glyph unicode="t" horiz-adv-x="628" d="M6 1346q0 45 17 75q4 4 16 13l4 2q25 8 90 8q43 0 87 -3t67 -5q4 0 5 1t3 1q8 -2 22 -2q4 0 6.5 1t6.5 1q2 0 4 -1t4 -1q4 0 9 -1t9 -1h29q18 0 27 2h10h14h13h4q4 0 12 1t24 1t35 -1t33 -1h18h9h4l10 -2v-11v-26q2 -4 2 -9.5t2 -23.5q1 -11 1 -23v-12q-1 -19 -1 -37 q-2 -20 -2 -38.5t2 -36.5v-7l-6 -4q-14 -8 -42 -10t-67 -2h-35.5t-23.5 -2q-4 -2 -9 -2t-9 -2v-49v-58.5v-57.5v-44q4 -76 4 -146.5v-136.5q0 -78 -1 -159.5t-1 -165.5q0 -70 -1 -134.5t-1 -127.5v-43v-19v-13t-2 -14q-8 -16 -15 -22v-2q-8 -6 -17 -8t-18 -2q-8 0 -12 2h-55 h-4h-17h-16h-18q-4 2 -17 6h-2q-4 4 -5 7t-5 7q-6 12 -5 24.5t3 24.5v2q0 33 1 78t1 82q2 41 3 79t1 73v325q0 37 -1 73t-3 71q0 35 -1 69.5t-1 69.5v57v158h-2q-16 -2 -45 -2t-52 -2q-12 2 -26 2h-27q-4 2 -6 2t-6 2q-18 14 -22.5 37.5t-6.5 46.5q0 6 -2 10v35q-2 6 -2 11 t-2 10z" />
<glyph unicode="u" horiz-adv-x="702" d="M-4 1362v2q0 14 2 20q-2 0 -2 1t2 4v4v12v16q4 6 14 11q8 2 16.5 3t18.5 3h23q16 0 32.5 2t32.5 2q16 2 34.5 2h37.5q6 -35 6 -66v-12l-2 -47v-35q0 -20 -1 -40.5t-1 -43.5v-130t2 -130v-29v-510q0 -8 -1 -14t-1 -14v-58.5t14 -48.5q20 -43 62 -61q10 -4 26 -4h15h18 q6 0 18 4q0 2 3 4h2h4q20 16 26 41.5t9 54.5v621q0 10 -1.5 19t-3.5 20v2q0 55 1 111v38q0 37 -1 74q0 4 -1 9t-1 9v43v25q0 14 7 27v120q0 2 -3 4q4 4 5.5 8.5t5.5 8.5q34 0 72 1h26q25 0 51 -1q10 2 27 2q2 0 4 -2h6q4 -8 7 -15.5t7 -15.5v-94q2 0 2 -2q3 -56 3 -110v-27 q-1 -68 -5 -136v-26q-4 -78 -7 -155q-1 -21 -1 -42q0 -56 6 -110q0 -2 2 -2v-322v-20.5t2 -20.5v-31.5t-2 -31.5q0 -39 -10 -86q-6 -16 -11 -31.5t-9 -32.5q-16 -29 -37 -55q-23 -35 -55.5 -58.5t-71.5 -29.5q-31 -13 -60 -13q-14 0 -28 3q-7 -1 -14 -1h-8q-12 1 -25 3 q-37 4 -75 15t-71 28q-68 35 -92 95t-29 128q-4 16 -5 32.5t-5 32.5q-2 41 -3 78t-1 76q2 47 2 91t-6 91q9 162 9 323v32q-1 178 -13 358z" />
<glyph unicode="v" horiz-adv-x="649" d="M-57 1440l14 -2q4 2 8 2t6 -2q10 0 20.5 1t20.5 3h15h25.5t25.5 2h2q8 -2 15 -2h14q14 0 22 2h12l9 -2l4 -8q2 -8 3 -21.5t5 -30.5q6 -31 12 -61.5t10 -40.5q4 -23 8.5 -46.5t7.5 -45.5v2l-1 -2q6 -47 17 -92l22 -90q10 -53 16 -107.5t12 -110.5v-2q0 -2 2 -2 q4 -23 6.5 -37t2.5 -16q2 -8 6 -53t9 -95.5t10 -92.5l5 -41l3 27l7.5 70t7.5 91t7 90q4 29 8 56.5t8 56.5q2 20 5 39.5t5 42.5q0 8 5 20q2 16 4 32.5t4 33.5q4 35 7 67.5t7 67.5q6 66 13.5 137.5t17.5 136.5q2 10 14 19q2 -2 2 -4v-7q0 2 4 15q2 2 15 6q27 1 55 1h28 q42 -1 82 -3l13 -12l2 -2v-5q6 -16 6 -35q0 -14 -4 -32q-8 -38 -17 -70q-2 -10 -3 -28.5t-1 -22.5q-2 -2 -2 -6l-2 -17l-11 -71.5t-9 -50.5q-8 -35 -14.5 -72t-12.5 -76q-6 -47 -11 -93t-9 -93q-4 -35 -8.5 -68t-8.5 -67q-4 -27 -10 -79t-13 -117t-14.5 -135.5t-13.5 -133.5 q-10 -35 -17 -77t-26 -73q-10 -2 -29.5 -3t-42 -2t-43 -2t-32.5 -1q-43 0 -64 12h-6q-8 0 -13 4q-16 10 -20 25.5t-6 30.5q-2 6 -2 18q-4 20 -7 40t-7 42q-2 10 -3 20.5t-5 20.5q-4 29 -6.5 55.5t-6.5 55.5q-4 20 -5 39.5t-5 39.5q-16 72 -29.5 140.5t-23.5 138.5 q-8 39 -14.5 79t-10.5 79q-6 45 -12 89t-14 89q-2 10 -3.5 20.5t-3.5 20.5q-4 23 -7 44t-7 40q-4 10 -14 59t-21 107q-8 41 -14 72.5t-8 41.5z" />
<glyph unicode="w" horiz-adv-x="1116" d="M-41 1403.5q0 17.5 18 21.5q8 0 11 2q4 -2 5 -1t3 1q12 0 18 3l4 2q2 -2 5 -2h8q14 0 26.5 1t22.5 1h2h29h18h2h12h9l2 -9q2 -8 4 -22.5t6 -32.5q4 -29 10 -59.5t8 -40.5q6 -23 11.5 -45.5t9.5 -44.5h-2q4 -47 14 -92.5t18 -92.5q10 -53 16.5 -106t12.5 -107q0 -2 2 -4 q2 -23 5 -38t3 -19q2 -8 7 -51v-2l4 -4q0 -4 1 -6.5t1 -4.5q6 -20 11 -38.5t9 -34.5q2 2 2 10q4 31 8 62.5t9 62.5l2 2q4 29 7 57.5t7 56.5q2 18 4 39t4 43q4 16 4 21q4 16 6 31.5t4 31.5q4 35 7.5 69t7.5 66q4 59 10 127t16 132q4 14 9.5 25t19.5 20q4 2 5 2t5 2h2 q8 4 17.5 5t17.5 1h21h2h8h25q8 2 22 2q6 0 12 -1t11 -1l2 -2h16h2l8 -8t6 -11q2 -8 4.5 -20t6.5 -29q4 -31 9 -61.5t9 -40.5q6 -23 11 -45.5t10 -44.5h-2q4 -47 15 -92.5t21 -92.5q10 -53 15.5 -106t11.5 -107q0 -2 2 -4q2 -23 4 -37t2 -18q2 -6 3 -27.5t5 -50.5 q4 -20 6.5 -38.5t6.5 -37.5q0 -2 1 -3t1 -3q4 35 11 67t15 66q2 8 2 17.5t2 19.5q4 53 13.5 106.5t15.5 106.5q0 4 2 4q2 10 3 22.5t3 24.5q4 37 7.5 70t7.5 68q8 61 14 131.5t14 136.5q4 8 17 20v-2v-6q0 2 1 4t1 4q8 8 19 13.5t22 9.5q6 2 16 2q12 0 19 -2h4h6q16 0 22 2 h25q18 0 24 -2q2 0 2 -2h15h4q8 -4 12 -8v-4q0 -11 -2 -17q6 -17 6 -37q0 -14 -3 -30q-7 -38 -15 -68q-4 -10 -4 -28.5t-2 -22.5v-6l-4 -21q-4 -35 -9.5 -68.5t-9.5 -50.5q-12 -72 -24 -147q-8 -47 -13.5 -93t-9.5 -93q-4 -33 -7 -67t-7 -69q-4 -25 -9.5 -76t-12.5 -115.5 t-14 -135t-13 -133.5q-6 -35 -14.5 -77t-26.5 -73q-8 0 -26.5 -2t-40 -4t-42 -3t-33.5 -1q-20 0 -34.5 5t-26.5 9h-6q-4 0 -8 2q0 -4 -7 0q-25 12 -27.5 39t-6.5 51q-4 27 -9.5 51.5t-9.5 51.5v69q0 12 -1 23.5t-3 21.5t-2 17.5t-2 15.5q-4 29 -9 56.5t-9 56.5 q-10 53 -19.5 105.5t-17.5 105.5q-2 16 -4 31.5t-5 31.5q-4 -41 -10 -83t-10 -83q-4 -53 -8 -103t-15 -103q-6 -33 -11 -66t-11 -68q-2 -23 -3 -42t-3 -39q-10 -35 -17.5 -77t-23.5 -75q-8 0 -27.5 -2t-41 -3t-42 -2t-30.5 -1q-41 0 -62 14h-4q-8 0 -12 2q-16 12 -20.5 26.5 t-6.5 28.5q0 4 -1 9.5t-1 9.5q-4 20 -7 41.5t-7 42.5q-2 10 -3 18.5t-1 18.5q-4 29 -8.5 57.5t-8.5 54.5q-2 20 -3 40t-5 40q-14 70 -27.5 139.5t-23.5 137.5q-6 41 -11.5 80t-11.5 77q-10 94 -24 175q-6 25 -6 45q-6 47 -19 81q-2 10 -11 60.5t-20 105.5q-6 33 -12 62 q2 2 2 8q-6 20 -6 37.5z" />
<glyph unicode="x" horiz-adv-x="876" d="M-8 37q2 16 8 31.5t14 29.5q4 4 5 9.5t4 9.5q18 41 32.5 78.5t26.5 78.5q10 23 16 43.5t15 42.5q10 18 16 38t12 38q16 37 30.5 74t25.5 74q8 16 12 31.5t8 25.5q4 14 9 28.5t12 26.5v2q14 25 14 39q-2 2 -2 8q-6 29 -27 74q-4 14 -8 24.5t-8 20.5l-55 158q-10 29 -34 87 t-44 118q-16 35 -27.5 68.5t-21.5 56.5q-4 10 -6.5 18t-4.5 14l-6 17l-6 8h6q0 14 8 21q4 2 8.5 4t8.5 4q29 10 56.5 12t53.5 2q16 0 25 -2h10q4 0 7 1t5 1q8 0 18.5 -2t18.5 -6l9 -2v-6q6 -66 28.5 -131.5t48.5 -126.5q16 -39 32.5 -78t29.5 -78l12 18l2 7q0 4 4 8 q4 12 11.5 25.5t13.5 23.5l2 8q12 20 20.5 41t16.5 41q12 18 14 31v2v2q23 53 43.5 106.5t38.5 106.5l2 10l8 -2q39 0 64 -6q20 -4 24 -4q25 -4 51.5 -8.5t49.5 -20.5l6 -4l-2 -6l-4 -8v-4q4 -16 -6.5 -41t-18.5 -45q-4 -4 -5 -9.5t-3 -9.5q-20 -55 -38.5 -101t-37.5 -87 q-16 -33 -28.5 -67t-26.5 -68q-8 -23 -17.5 -43.5t-17.5 -40.5q-12 -29 -23.5 -63t-23.5 -64q12 -41 26.5 -84t30.5 -84q6 -29 16.5 -54.5t20.5 -52.5q6 -12 11 -26.5t10 -28.5q4 -10 7 -21.5t9 -21.5v-2q10 -25 20.5 -48.5t20.5 -50.5q12 -23 22.5 -48t22.5 -50 q4 -10 10.5 -20.5t14.5 -22.5q12 -23 25 -48.5t13 -53.5q0 -2 -1 -3t-1 -3q-12 -8 -18 -11q-4 -2 -5 -2t-5 -2q-41 -18 -84 -22h-11.5t-13.5 -2q-16 -2 -35.5 -4t-38.5 -2q-14 0 -22 2h-8l-2 6q-6 47 -21.5 90t-34.5 90q-4 8 -6 15.5t-6 17.5q-4 12 -9 24.5t-9 26.5 q-16 37 -30.5 78t-31.5 82l-2 4h2q-4 4 -5 8t-3 8q-2 0 -2 1t-2 1q-16 -51 -35.5 -101t-38.5 -99q-23 -59 -44 -119t-40 -119l-2 -8l-4 -2q-10 -4 -19.5 -4h-17.5h-20h-23q-25 0 -49.5 2t-48.5 6q-35 16 -47 45z" />
<glyph unicode="y" horiz-adv-x="718" d="M-11 1400q-2 6 -2 11q0 16 15 27q12 4 25 4q6 0 10 -1t8 -1h4q16 -2 29.5 -2h25.5h23h14q23 0 47 -11q41 -35 60.5 -78.5t32.5 -91.5l3 -6t1 -6q4 -12 8 -25.5t10 -29.5q4 -18 10 -37.5t15 -38.5q8 -31 17 -63.5t17 -63.5q0 -4 5 -8v2q10 41 18 79t16 77q4 14 7.5 29.5 t7.5 31.5q4 12 6 26.5t6 28.5q6 27 12 53.5t15 53.5q-2 0 -2 4q4 10 7 18.5t7 18.5q16 27 43 29t51 0l17.5 -3.5t17.5 -1.5l8 -4h21q10 -2 20 -3t23 -1l2 -2q2 0 2 -1t2 -1t2 -1t2 -1l8 -4l-2 -10q-2 -8 -7 -25.5t-11.5 -40t-12.5 -48.5t-12 -46q-4 -16 -6 -26.5t-4 -16.5 q-16 -63 -30.5 -126.5t-29.5 -129.5q-4 -25 -10 -48.5t-10 -47.5q-8 -29 -15.5 -59.5t-15.5 -61.5q-2 -12 -4 -24.5t-4 -26.5q-2 -31 -12 -66q-2 -10 -3 -19.5t-5 -19.5q-2 -2 -3 -6q-2 -4 -2 -8t-2 -8q2 -25 2 -50q0 -19 -1 -38q-3 -45 -7 -86v-21.5t-2 -19.5v-25v-12v-199 v-4v-4q0 -2 2 -2q-2 -23 -3 -43.5t-11 -36.5h-4q-10 -4 -19.5 -5t-17.5 -3h-8q-6 -2 -17 -2q-10 -2 -22 -3t-27 -1q-37 0 -57 16q-4 12 -8 24.5t-11 20.5q0 16 -1 29.5t-1 30.5v49v14v383q-4 16 -11 33.5t-13 34.5q-10 18 -18.5 36.5t-12.5 40.5q-6 23 -13 46.5t-16 46.5 q-10 29 -18 55t-14 55q-6 27 -25.5 87.5t-40.5 125.5q-23 61 -41 119.5t-29 93.5q-6 2 -6 12q0 2 -3 7.5t-5 9.5q-10 18 -17 42z" />
<glyph unicode="z" horiz-adv-x="704" d="M6 1278.5v28.5v10v18q2 23 3 45.5t7 44.5q2 4 7 9v6h489q2 -2 8 -2q14 -2 30.5 0t33.5 4q8 -2 16 -3t18 -5q16 -4 27 -9q0 -2 2 -2v-6q2 -8 2 -26v-68v-43t-2 -43q-2 -35 -16.5 -67.5t-30.5 -63.5l-8 -19q-4 -8 -7 -15t-7 -17l-111 -269q-4 -18 -12.5 -37.5t-18.5 -37.5 l-200 -490h26h17.5t17.5 4h4l8 -4q29 4 55.5 4h53.5h35h8h22q25 0 47.5 -1t47.5 -3h10h10q16 0 29 -6l14 -14l2 -13q8 -16 8 -35.5t-4 -35.5v-41q4 -29 -2 -53v-3l-6 -12q-4 -2 -4 -3t-2 -3q-16 -4 -27 -4q-4 0 -6 2h-211q-2 -2 -4 -2h-2l-4 2l-158 -2q-14 0 -28.5 -2 t-28.5 -4h-4q-6 0 -1 -1t-3 -1q-12 0 -23.5 1t-23.5 1q-8 2 -15.5 2t-17.5 2h-13.5t-13.5 2h-29l-4 4q-8 16 -8 27q-2 18 -1 36.5t3 36.5l2 15q0 23 1 44t1 44v2l166 418v6q4 10 8.5 19t8.5 20q2 4 4 9t4 9q8 20 19.5 50t17.5 53q2 4 2 10t4 10q6 23 16 43t21 41l10 18 l70 154l2 4q4 4 4 8t2 8l4 11q12 33 23.5 62.5t19.5 62.5h-2q-10 -2 -20.5 -2h-24.5h-31h-25h-2h-27.5t-27.5 -2h-55h-17q-8 4 -12 4q-6 -2 -18 -2q-6 2 -17 2q-2 0 -4 -2t-6 -2q-23 0 -46.5 2t-45.5 2q-23 4 -29 28q-4 14 -4 27.5z" />
<glyph unicode="{" horiz-adv-x="960" d="M-6 677l4 222q2 10 3 18.5t3 16.5q2 12 11.5 44t23.5 61.5t32.5 47t41.5 0.5q16 -12 25 -35.5t9 -58.5v-92t-2 -94q16 16 25 20v39q0 121 3 240t3 240q10 29 19.5 56.5t33.5 43.5q45 29 72 10h2q10 -16 15.5 -34.5t5.5 -47.5q0 -121 1 -240.5t-6 -240.5v-6q10 2 21.5 3 t24.5 3v84q0 117 -7.5 239.5t2.5 235.5q4 51 29 77.5t52.5 26.5t48 -25.5t16.5 -78.5q-6 -68 -3 -134.5t7 -134t5 -134t-5 -131.5q-4 -12 -4 -24.5v-23.5q10 -4 20.5 -10t18.5 -14q0 31 -1 63.5t-1 65.5q0 43 -6.5 98t-9.5 112.5t2.5 109t27.5 83.5q4 6 9 10.5t9 8.5 q16 8 28.5 7t25.5 -24q14 -20 21 -41.5t14 -44.5q4 -27 8 -53.5t8 -52.5q0 -70 4 -137.5t10 -132.5q4 -47 1 -97.5t-3 -97.5v-152q0 -6 1 -12t1 -14q2 2 6 2v6q0 43 2.5 94t11.5 97.5t28.5 82t52.5 45.5q44 13 71 -28q-4 -20 4.5 -44t3.5 -44q-6 -25 -14 -50.5t-8 -52.5 q-2 -10 -2 -32q0 -55 -2 -108.5t-2 -106.5q0 -74 -19.5 -139.5t-50.5 -119.5q-47 -86 -105.5 -128t-121.5 -46q-25 2 -46.5 7.5t-43.5 11.5q-4 10 -7 23.5t-8 23.5q2 18 2 35.5v34.5v2q2 98 3.5 191t1.5 190q0 16 1 31.5t1 31.5q23 -23 44 -47.5t46 -46.5q10 -12 28.5 -3 t34 26.5t22.5 38t-3 32.5h-2q-49 55 -105 111q-16 23 -39.5 42t-40.5 44q0 4 -6 4q-8 14 -24 26q-2 0 -4.5 2t-4.5 2q-4 0 -6 1t-6 -1h-2q-6 -4 -11 -8t-9 -8t-9.5 -7t-11.5 -9l-4 -4q-2 -4 -4 -5.5t-2 -3.5q-4 -4 -6 -8q-2 -2 -2 -4t-4 -4q-14 -16 -31 -29.5t-27 -29.5 q-29 -29 -53.5 -56.5t-50.5 -54.5h-2l-2 -4q-12 -10 -4 -30.5t23 -38t33.5 -27t31.5 3.5q25 25 49 51.5t51 54.5q-2 -43 -5 -83t-3 -76q0 -72 -1 -142.5t-3 -140.5q2 -2 2 -4t2 -2q-4 -12 -5 -23.5t-3 -23.5q-6 -29 -20.5 -46.5t-33.5 -31.5q-33 -4 -62.5 1t-57.5 23 q-4 6 -9.5 9.5t-11.5 7.5q-18 23 -35.5 47t-32.5 57q-23 33 -33 78t-20 86q-16 74 -12 154q-4 111 -2 222z" />
<glyph unicode="|" horiz-adv-x="1654" d="M17.5 457.5q-5.5 15.5 5 29t22.5 25.5t27.5 26.5t38 36t52.5 52t70 73.5q0 2 1.5 2t1.5 5q10 -6 20 -10.5t20 -8.5q20 -8 48 -10t63 -2q53 0 111.5 6t108.5 14.5t83 15.5t37 7l14 2l2 43q2 41 4.5 96t-1 113.5t-12.5 114t-29 96.5q-27 49 -58 76.5t-63 39.5 q16 29 27.5 49.5t17.5 28.5q31 39 81 81t132 63q43 10 90 11t95 -6t93 -24.5t82 -44.5q82 -59 122 -151.5t49 -195.5t-6 -206.5t-42 -183.5q-47 -133 -177 -233.5t-296 -159.5q-84 -29 -183.5 -29t-197.5 14.5t-186 38t-150 39.5q-59 18 -85.5 34.5t-32 32zM145 918 q2 27 14.5 53t32 47.5t46 35t57.5 13.5q10 0 16 -1t17 -3l26 -8l-14 24q-10 25 -10 53.5t16 57.5q16 35 47 58.5t64 29.5q25 6 47 6q117 0 174 -113q18 -37 27.5 -90t11.5 -110.5t0 -111.5t-4 -95v-19q-14 -4 -49 -10t-80 -13t-96.5 -13.5t-96.5 -6.5q-69 1 -106 13 q-45 14 -73 38.5t-43 52.5t-19.5 56.5t-4.5 55.5zM594 279q16 0 32.5 -1.5t32.5 -1.5h5v-280h-68zM731 -4v285q18 2 35.5 4t34.5 6v-295h-70zM1030 1233q4 -72 39 -102.5t70 -32.5h4q35 0 71.5 28.5t49.5 90.5q-1 16 -15 20q-16 4 -20 -14q-8 -47 -35 -70t-53 -20 q-33 2 -53.5 28.5t-24.5 73.5q0 16 -19 16q-6 -2 -11 -7t-3 -11zM1370 1266l139 -58l-106 -125q-2 49 -10.5 95.5t-22.5 87.5z" />
<glyph unicode="}" d="M8 750q-4 23 5.5 45t4.5 43q27 41 68 28q33 -12 53.5 -47t29.5 -82t12 -97t3 -93v-8h6q2 8 2.5 13t2.5 11v154q0 47 -4.5 97t-0.5 97q6 66 9.5 134.5t5.5 140.5q4 25 7 52.5t9 51.5q4 23 12.5 45.5t20.5 42.5q12 23 25.5 22t29.5 -5l8.5 -8.5t8.5 -12.5q23 -33 28.5 -84 t2.5 -108.5t-9 -112.5t-6 -98v-131q8 6 16.5 13t18.5 11v25.5t-2 21.5q-6 68 -5 134.5t5 134t6 135t-4 135.5q-4 53 17.5 78.5t49 25.5t53 -26.5t29.5 -77.5q10 -115 2 -237.5t-8 -239.5q0 -23 1 -43.5t1 -40.5q10 0 21.5 -1t21.5 -3v4q-6 123 -5 242.5t1 240.5q0 51 23 80 v2q14 10 32.5 6t38.5 -18q27 -16 35 -44t19 -57q0 -119 2 -239.5t2 -241.5v-18t4 -19q6 -4 12 -10t12 -10q-2 47 -2 94v94q0 68 35 92q23 16 41.5 -1t32.5 -46.5t23.5 -62.5t13.5 -45q2 -10 2 -17.5v-15.5q4 -113 6 -224.5t-2 -224.5q4 -84 -12 -151q-10 -41 -21.5 -87 t-32.5 -81q-14 -29 -32.5 -55.5t-38.5 -48.5q-4 -6 -17 -15q-29 -16 -59.5 -21t-61.5 -1q-43 23 -55 75q-4 12 -5 23.5t-5 21.5q4 4 4 7q0 72 -2 142.5t-2 141.5q0 37 -2 77t-2 83q25 -27 50.5 -53.5t49.5 -52.5q10 -12 28.5 -3t34 26.5t23.5 37.5t-2 33l-2 4 q-27 29 -53.5 55.5t-52.5 54.5q-14 16 -29.5 29.5t-32.5 30.5l-6 6q-2 2 -3 5t-3 5q0 2 -1 2t-1 2v2q-6 6 -6 7q-4 6 -9.5 10t-11.5 8q-4 4 -9 7t-11 7h-2h-15q-2 0 -3 -1t-5 -1q-6 -8 -12 -14t-10 -12q-4 -4 -7 -4q-14 -27 -38.5 -46.5t-40.5 -39.5q-27 -29 -53.5 -56.5 t-53.5 -56.5h-2q-10 -12 -3 -32.5t23.5 -39t35 -28t30.5 3.5q23 23 44.5 47t43.5 49q2 -16 2 -32.5v-31.5q0 -190 6 -381v-2v-73q-2 -12 -5 -22.5t-7 -20.5q-25 -10 -47.5 -15.5t-46.5 -7.5q-61 4 -120.5 46t-109.5 128q-31 55 -50 121t-19 139q0 53 -1 106.5t-1 108.5 q2 10 1 17.5t-3 17.5q0 27 -7.5 52.5t-15.5 50.5z" />
<glyph unicode="&#xa5;" horiz-adv-x="671" d="M16 1252v147v16q6 2 9 8q16 8 33.5 9.5t33.5 1.5q23 2 42.5 3t41.5 1q35 2 38 -22.5t5 -49.5q0 -2 2 -4q0 -55 1 -141t1 -176.5t1 -176.5t1 -141q0 -4 -1 -6t-1 -6q-8 -23 -33 -22t-43 1q-12 0 -32.5 -1t-40 2t-33.5 11.5t-16 28.5q-2 2 -2 10q0 57 -1.5 144.5 t-3.5 181.5t-2 181zM24 328.5q1 58.5 1 120.5v106q10 16 23 22.5t42 10.5q25 4 53.5 5t55.5 -3q18 -4 26 -24.5t9.5 -47t0 -52.5t-1.5 -40v-34.5t5 -39.5v-23.5t2 -21.5q2 -29 8 -63.5t28 -57.5q12 -10 21 -12q14 -4 25 6q18 27 18 68q4 33 3 65.5t-5 67.5q-2 12 -2 23.5 t-4 21.5q4 10 4 25q0 16 -2 29.5t-2 29.5v51q0 45 -1 88t-1 84q2 14 1 26.5t-3 26.5q0 2 2 5l-8 612q12 16 34.5 19t51.5 5h37.5t41.5 5q23 4 41 -2q2 -2 2 -5q0 -4 2 -8l13 -690q6 -66 5 -134.5t-1 -135.5q-2 -51 -1 -102.5t-5 -102.5q0 -35 -4 -67.5t-17 -67.5 q-18 -59 -63 -97t-100.5 -52.5t-115 -3.5t-104.5 52q-49 43 -73.5 93.5t-33.5 105.5t-8 113.5z" />
<glyph unicode="&#xa8;" horiz-adv-x="757" d="M18 1589q2 37 5 76q4 12 6 16q2 2 4 2q35 6 70.5 6.5t72.5 -3.5h2q4 -4 6 -9q0 -20 -2 -28v-7v-18q0 -16 -1 -31.5t1 -31.5q2 -2 2 -5v-17t-6 -15v-2q-6 -2 -14 -6q-10 -4 -22.5 -4.5t-22.5 -0.5h-21h-12h-21.5t-21.5 2h-23q-4 39 -2 76zM453 1524v26q2 4 2 9v16v32.5 t-2 32.5v5v17t6 15v2q8 4 12 4h2q10 4 22.5 4.5t22.5 0.5h21h12h41h24q4 -39 2 -77t-4 -77q-2 -4 -3 -7t-3 -7l-4 -4q-35 -4 -71.5 -4.5t-71.5 4.5h-2q-4 4 -6 8z" />
<glyph unicode="&#xa9;" horiz-adv-x="917" d="M12 104v154t1 174t3 174t4 154q4 82 -1 161.5t-5 159.5q0 68 7.5 126.5t-1.5 121.5q0 8 1.5 15.5t1.5 13.5q4 27 -3 53h3q23 -45 44 -89t37 -91q14 -35 28.5 -61.5l29 -53t29 -53.5t28.5 -62v-4h2q6 -14 10.5 -25t10.5 -26q4 -4 8 -12q10 -14 20.5 -27.5t20.5 -27.5 l10 72.5t12 89.5t13.5 89.5t13.5 67.5q14 51 23.5 104.5t17.5 106.5q6 37 13 74t14 73q8 -35 15 -65.5t13 -63.5q16 -74 30.5 -147.5t31.5 -146.5v-9v-6h2q4 -23 10 -78q4 -29 11 -57.5t11 -56.5q23 47 45.5 90t45.5 88q4 10 7 18t7 19q16 27 28.5 56.5t22.5 62.5q4 4 5 9 t5 9q16 43 31.5 86t32.5 86q4 -12 6 -20q16 -86 11 -160t-5 -160q0 -78 4 -157t2 -156q-2 -76 -4 -167t-3 -186.5t-2 -186.5t-1 -165q-2 -16 -8 -28.5t-27 -20.5q-31 -10 -65.5 -8t-69.5 -2q-6 0 -10 -4q-35 14 -77 9t-77 -5h-47t-51 -2h-51h-64q-18 2 -34.5 3t-32.5 5 q-14 0 -35 -2t-40.5 -1t-35.5 8t-25 26q-4 10 -5 17t-3 17zM113 401q8 -12 22.5 -17t28.5 -3q10 2 17 4t14 10q4 4 6 8q-2 43 -1 86t5 86q2 29 3 59t17 54q12 20 19.5 21.5t11.5 -8t6 -24.5t2 -30q4 -61 -1 -123.5t-21 -122.5q-16 -55 -51 -107t-70 -99q-8 -10 -6 -22.5 t10 -23t20.5 -15.5t24.5 1q16 6 39.5 7t48.5 1t48.5 -2t39.5 -2h4h2v2q8 20 2 52v13t-2 17h-2q-4 0 -7 -1t-7 -1q-10 -2 -44 -4t-52 2q41 61 71.5 127t36.5 143q2 35 6 78t2 85t-16 79t-47 62q-20 14 -43 13t-42.5 -12.5t-35.5 -27.5t-22 -33q-31 -78 -36 -163t-1 -169z M403 326q2 -18 1 -39t1.5 -41.5t8.5 -40t22 -31.5q29 -23 65 -32t66 14q33 25 49.5 63.5t22.5 83.5t6 91t-2 87q4 9 4 13q0 68 -2 141.5t-41 134.5q-10 16 -27.5 25.5t-38 12.5t-40 -2t-33.5 -20q-39 -35 -45 -85t-10 -99q-2 -59 -2 -121.5t-5 -122.5v-14q-2 -8 0 -18z M487 344q2 4 2 7t3 7q2 55 1 110.5t3 109.5q2 16 3 33.5t1 35.5q0 4 1 9.5t1 11.5q-6 57 43 20q12 -35 14 -70.5t2 -72.5q-6 -10 -6 -19q0 -63 -1 -123.5t-17 -121.5q0 -6 -4.5 -19.5t-10.5 -25t-12 -13.5t-12 15q-8 29 -7 54t-4 52z" />
<glyph unicode="&#xad;" horiz-adv-x="966" d="M90 887q4 0 6 1l6 3v2h4q25 -4 50.5 -3t52.5 1q63 2 125.5 3t126.5 1q88 2 178 -5t180 1q8 -4 25 -17q0 -20 1 -39.5t3 -37.5q2 -29 3 -57.5t3 -57.5v-2q0 -10 -10 -12q-4 0 -9.5 -1t-9.5 -1h-44.5t-45.5 -9q-47 6 -95 5.5t-97 -5.5q-53 10 -111.5 6t-112.5 -6 q-57 -4 -113 -2t-112 7q-4 49 0 102q2 31 1 61.5t-5 61.5z" />
<glyph unicode="&#xae;" horiz-adv-x="817" d="M8 51v150q2 16 3 28.5t1 18.5q4 98 5 195.5t-3 195.5q-2 25 -3 49.5t-3 46.5v162q4 27 7 52.5t3 51.5q0 25 -10 56v131q4 23 6 43t-4 43q0 27 1 51.5t-1 52.5q0 27 10.5 39.5t25.5 16.5t33.5 2t35.5 -2q35 -4 68.5 -4h66.5q68 0 135.5 2t136.5 2h96h31q37 -2 55.5 -15.5 t22.5 -40.5v-239v-74t-2 -72q0 -78 -2 -155.5t-2 -155.5q-2 -53 -2 -109.5t4 -111.5q-2 -37 0 -70h2q-4 -18 0 -35q0 -51 -1 -101t1 -101q0 -47 -8 -85t-60 -53h-104q-4 2 -10 2q-45 4 -87 2t-85 -2q-47 0 -92.5 2.5t-90.5 -4.5h-129q-31 6 -43 25q-4 4 -6 4q0 6 -2 6z M62.5 168q0.5 -21 0.5 -43q35 2 86.5 1t86.5 3h110q0 6 -1 11t-3 12q-2 16 -2 30.5v30.5h-2q-16 2 -47 2h-47q-8 109 -2 218.5t8 217.5q-2 10 -2 31q2 2 2 10v29h-2h-70q-14 -10 -33 -21q-4 -4 -5 -4t-3 -2l2 -2l-6 -3l-6 -3q-12 -8 -24.5 -15t-22.5 -16q-2 -2 -3 -2t-3 -2 l-4 -2q10 -20 20 -41.5t23 -42.5q2 2 3 2t3 2q10 4 17 10.5t18 10.5q-4 -96 -8.5 -190.5t1.5 -190.5h-16h-8h-2h-35q4 -2 12 -2h23q-10 0 -22.5 1t-16.5 1h-16q-4 -20 -3.5 -41zM72 758h20t21 -2q8 2 15 1t15 -1h23q45 4 80 4t82 -4q10 4 19 4h20h24q0 14 -1 26.5t-3 26.5v4 v25.5t-2 29.5v56q-6 49 -6 98v2q-14 0 -27.5 -1t-25.5 -1q-10 -2 -21.5 -4t-21.5 0q2 -41 5 -84t5 -84q-35 2 -57.5 2t-57.5 -4q25 49 52.5 96t50.5 94q20 35 35.5 70t31.5 70q14 25 27.5 48t19.5 48h2q4 16 6 27q4 6 6.5 14t6.5 12q-18 0 -36 1t-36 3q-4 2 -10 2h-6 q-41 -2 -79 -1t-77 1q-4 -4 -6 -4h-19.5t-17.5 4q-12 -2 -27 0v-21t-2 -22q0 -6 -1 -11t-1 -9v-26.5v-43v-43t-2 -26.5q25 2 48.5 3t45.5 -3v21t1.5 32.5t1.5 33v19.5h83q-18 -27 -34 -57q-16 -37 -34 -74t-38 -72q-23 -35 -36 -71.5t-32 -71.5q-6 -12 -13 -24.5t-13 -26.5 v-42t-4 -44zM276 389q2 -23 3.5 -41t1.5 -41q51 4 102 -2t100 -2v-4q2 2 9 2q-14 -12 -25.5 -28.5t-26.5 -32.5q-14 -16 -38.5 -40t-34.5 -42q23 -8 46 -18.5t48 -20.5q23 25 55.5 58.5t54.5 58.5q6 6 12.5 12t14.5 12q4 4 7 9t7 10q6 8 11.5 15t13.5 17l-4 -4l4 4 q4 7 16 19q2 2 3 4t3 4q-4 16 -5 31.5t-3 31.5q-12 0 -20 -1t-19 3v-2q-4 0 -6 1t-6 1q-37 0 -72.5 -2t-70.5 -6q4 2 6 4t6 2q20 10 44 23.5t50 21.5q0 2 4 3q8 4 17.5 8t19.5 8q14 6 22.5 13t20.5 11q-2 57 -1 115t1 115q-53 -8 -109.5 -6t-105.5 2q-35 2 -71.5 2h-71.5 q-4 0 -3 -1t-3 -1q2 -23 0 -49.5t-4 -49.5v-94q2 -2 2 -8v-8v-4q12 0 21 1t26 -1q10 0 23.5 1t25.5 1v14v20.5t-1 35t-1 35v20.5q41 -4 91 -2t91 2v-72q-4 -4 -16.5 -10t-16.5 -10q-4 -2 -9 -3.5t-9 -5.5q-20 -16 -43 -27.5t-43 -23.5q-20 -10 -37.5 -20.5t-36.5 -20.5 q-16 -12 -34.5 -24.5t-35.5 -22.5zM426 762q57 4 102 2t103 -2h14q-2 16 -1 33.5t3 35.5q2 2 2 11q-6 47 -2 97t-2 93q-6 66 -2 128.5t6 125.5q-2 14 -2 27.5t-2 23.5q-16 0 -33.5 -1t-33.5 -1h-35q-16 0 -31.5 -1t-32.5 -1q-4 -18 -16 -36.5t-21 -36.5q-4 -10 -6 -19.5 t-6 -17.5q4 -100 2 -199.5t-4 -198.5v-51q-2 -2 -2 -10v-2zM524 840v200.5t2 198.5q12 -2 12.5 -3t12.5 -1q-2 -49 2 -100.5t4 -102.5q2 -45 0 -92t-4 -96q-14 -2 -15 -3t-14 -1z" />
<glyph unicode="&#xb4;" horiz-adv-x="296" d="M6 1208q2 41 0 81t2 81q2 23 9.5 33t19.5 15t27.5 5h33.5q6 0 11.5 1t13.5 1q12 -2 26.5 -2t25.5 -4t18.5 -13t7.5 -28q-2 -14 -1 -26.5t3 -26.5v-2q0 -27 1 -53.5t1 -55.5q-6 -47 -22.5 -90t-63.5 -53l-8 8q-25 25 -56 49q23 10 39.5 26.5t16.5 45.5q0 8 -6.5 10 t-10.5 0q-2 0 -3 1t-5 1q-10 0 -16 -2h-15q-12 0 -24.5 1t-24.5 -3z" />
<glyph unicode="&#xc4;" horiz-adv-x="706" d="M2 23q4 20 7 40.5t5 40.5q14 72 22.5 141.5t18.5 141.5q10 86 21.5 172t21.5 174q8 84 12.5 166t14.5 166q4 10 5 21.5t3 21.5q2 16 3 29.5t3 29.5q6 39 11.5 78t9.5 78q2 14 5 29.5t6 28t6 19.5t3 3v6q20 16 53 16q29 2 57.5 1t57.5 1q74 2 103 -43q16 -154 45.5 -305 t48.5 -303q16 -123 39.5 -241.5t36.5 -241.5q6 -43 9 -86t13 -86q0 -20 4 -42t8 -40q4 -20 3 -34.5t-17 -22.5q-41 -2 -80 -4.5t-76 -8.5q-12 8 -16 15q-4 6 -6 10l-4 8q-4 16 -6 31.5t-7 32.5q-12 47 -15 95t-9 95q-23 -2 -45.5 -1t-40.5 -1h-51.5t-55.5 -2q-6 -45 -9 -90 t-7 -90q-6 -16 -6 -29q-2 -8 -4 -16.5t-6 -14.5q-2 -10 -13 -14q-31 0 -61.5 -2t-61.5 2q-10 2 -21 2t-24 2l-6 6l-6 6q0 2 -1 4t-1 5zM51 1589q2 37 4 76q4 12 6 16q2 2 5 2q35 6 70.5 6.5t72.5 -3.5h2q4 -4 6 -9q0 -20 -2 -28v-7v-18q0 -16 -1 -31.5t1 -31.5q2 -2 2 -5 v-17t-6 -15v-2q-6 -2 -14 -6q-10 -4 -22.5 -4.5t-22.5 -0.5h-21h-12h-21.5t-21.5 2h-23q-4 39 -2 76zM258 457h61q16 2 35 3t37 3l-12 74q-12 -2 -22.5 -2h-20.5q-18 0 -34.5 -1.5t-35.5 -3.5q-2 -20 -4 -37.5t-4 -35.5zM291 735q20 4 28 4h27v2q-12 102 -31 205 q-6 -53 -12 -105.5t-12 -105.5zM453 1524v26q2 4 2 9v16v32.5t-2 32.5v5v17t6 15v2q8 4 12 4h2q10 4 22.5 4.5t22.5 0.5h21h12h41h24q4 -39 2 -77t-4 -77q-2 -4 -3 -7t-3 -7l-4 -4q-35 -4 -71.5 -4.5t-71.5 4.5h-2q-4 4 -6 8z" />
<glyph unicode="&#xcb;" horiz-adv-x="577" d="M15.5 1374q-5.5 27 4.5 47t29 19.5t35 -0.5t39.5 -1t40.5 -1q4 2 13 1t13 -1q2 0 3.5 1t3.5 1v-2h75h38h49.5t50 1t43.5 3q2 0 4 -1t6 -1q8 -2 16 -6v-4q8 -10 9 -27t1 -27q2 -25 4.5 -53.5t0.5 -52.5q0 -16 -7 -29l-2 -2l-12 -18h-2q-10 -8 -33 -9h-25.5t-37 1t-36.5 1 h-26h-55h-41v-389h2v-4h43q25 0 49.5 1t48.5 1h20.5t32 -1t31 -3t17.5 -6q8 -10 6 -26.5t-2 -26.5q0 -23 4 -59.5t0 -59.5q0 -12 -10 -18q-2 -4 -15.5 -8.5t-29 -7.5t-28.5 -4t-19 -1q-23 0 -44.5 2t-43.5 4q-12 -2 -25.5 -2h-26.5v-14q0 -2 -1 -2t-1 -2v-6q0 -2 -1 -3 t-1 -4q2 -41 2 -79.5v-77.5h-2v-187h72q10 0 30.5 -1t43 -1h43t32.5 2q6 2 19 0h2q18 0 22.5 -12t6.5 -26v-5q2 -29 5 -50t7 -66v-31q0 -18 -12 -31h-2q-6 -2 -12.5 0t-12.5 0q-6 2 -11 1t-12 -1h-45.5h-57.5h-57.5h-45.5q-20 2 -45 2h-46q-27 -6 -63.5 -8t-52.5 8h-2 q-2 0 -2 2t-4 2v2q-8 12 -7 25q2 31 2 60.5t2 58.5q0 29 3.5 58.5t7.5 58.5q-2 18 -2 37.5t-2 37.5q0 94 -3.5 188.5t-3.5 188.5v438q2 35 2.5 69t4.5 65v8q0 10 -2 16q-4 20 -9.5 47zM18 1589q2 37 5 76q4 12 6 16q2 2 4 2q35 6 70.5 6.5t72.5 -3.5h2q4 -4 6 -9 q0 -20 -2 -28v-7v-18q0 -16 -1 -31.5t1 -31.5q2 -2 2 -5v-17t-6 -15v-2q-6 -2 -14 -6q-10 -4 -22.5 -4.5t-22.5 -0.5h-21h-12h-21.5t-21.5 2h-23q-4 39 -2 76zM322 1524v26q2 4 2 9v16v32.5t-2 32.5v5v17t6 15v2q8 4 12 4h2q10 4 22.5 4.5t22.5 0.5h21h12h41h24q4 -39 2 -77 t-4 -77q-2 -4 -3 -7t-3 -7l-4 -4q-35 -4 -71.5 -4.5t-71.5 4.5h-2q-4 4 -6 8z" />
<glyph unicode="&#xd6;" horiz-adv-x="757" d="M12 510l2 6v26.5t2 22.5q0 25 1 31t1 8q0 4 -1 10.5t-1 24.5v12l2 86v60.5t2 54.5l3 111q2 41 3 72.5t-1 78.5v2l2 19q6 45 16 90t28.5 84t47 69.5t71.5 51.5q80 39 168 38h27q0 -2 4 -2q6 -2 14.5 -4t14.5 -4q10 0 18 -4q16 -6 33.5 -14t34.5 -17q49 -33 76 -73 q41 -96 46 -203t11 -213v-545v-19.5t2 -19.5v-31.5t-2 -31.5q0 -23 -3 -45.5t-7 -44.5q-4 -27 -13 -41q-10 -20 -19 -40t-26 -36q-49 -72 -127 -88q-23 -8 -46 -11.5t-42 1.5h-23.5t-23.5 2q-39 4 -76.5 15t-72.5 28q-66 35 -89.5 96t-27.5 131q-14 63 -19.5 126.5 t-9.5 129.5zM51 1589q2 37 4 76q4 12 6 16q2 2 5 2q35 6 70.5 6.5t72.5 -3.5h2q4 -4 6 -9q0 -20 -2 -28v-7v-18q0 -16 -1 -31.5t1 -31.5q2 -2 2 -5v-17t-6 -15v-2q-6 -2 -14 -6q-10 -4 -22.5 -4.5t-22.5 -0.5h-21h-12h-21.5t-21.5 2h-23q-4 39 -2 76zM226 925.5 q3 -75.5 7 -151.5l-4 4q0 2 2 -8t0 -8q0 -2 2 -4v-8v-2q2 -37 2.5 -61.5t0.5 -43v-36v-42.5l-3 -47v-112q0 -8 -1 -14.5t-1 -14.5q-2 -29 -1 -57.5t14 -49.5q25 -45 63 -61q2 -2 3 -1t5 -1q33 -18 66 2h2q2 0 2 4q6 -4 10 0q29 29 29 74q0 10 1 18t1 19v323q10 49 4 98.5 t-2 96.5l8 90t4 92v56t-10 71q-4 23 -11 41t-24 35q-14 8 -33 8q-2 0 -2 1t-2 1q-33 -2 -55 -16.5t-36.5 -37t-22.5 -50t-11 -54.5q-10 -78 -7 -153.5zM453 1524v26q2 4 2 9v16v32.5t-2 32.5v5v17t6 15v2q8 4 12 4h2q10 4 22.5 4.5t22.5 0.5h21h12h41h24q4 -39 2 -77t-4 -77 q-2 -4 -3 -7t-3 -7l-4 -4q-35 -4 -71.5 -4.5t-71.5 4.5h-2q-4 4 -6 8z" />
<glyph unicode="&#xdc;" horiz-adv-x="839" d="M-4 1335v2q0 14 2 21q-4 0 0 4v4v12v17q4 6 14 10q8 2 16.5 3t18.5 3h23q16 0 31.5 2t31.5 2q18 2 36.5 2h37.5q6 -35 6 -65v-13l-2 -47v-35q0 -20 -1 -40.5t-1 -42.5v-129.5t2 -129.5v-28v-508q0 -8 -1 -14.5t-1 -14.5v-57.5t14 -46.5q18 -45 60 -60q10 -4 26 -4h15h18 q6 0 18 4q2 2 5 2h4q18 16 24 42t8 55v616q0 10 -1 19.5t-3 19.5v2q0 55 1 111.5t-1 109.5q0 4 -1 9.5t-1 9.5v43v24q0 14 6 27v121q0 2 -2 4q4 4 5.5 8t5.5 8q37 0 74.5 1t74.5 -1q10 2 27 2q2 0 4 -2h6q4 -8 7 -15t7 -16v-94q2 0 2 -2q4 -70 3 -136.5t-5 -133.5v-27 q-4 -78 -7 -153.5t5 -151.5q0 -2 2 -4v-319v-19.5t2 -19.5v-31.5t-2 -32.5q0 -39 -10 -84q-6 -16 -11 -31.5t-9 -31.5q-14 -29 -37 -58q-23 -35 -54.5 -57.5t-72.5 -28.5q-45 -20 -86 -10q-10 -2 -22.5 -1t-24.5 3q-37 4 -74 15.5t-72 27.5q-66 33 -90 94.5t-29 126.5 q-4 16 -5 32.5t-5 33.5q-2 39 -3 77t-1 76q2 47 2 90.5t-6 90.5q10 176 9 353t-13 355zM18 1589q2 37 5 76q4 12 6 16q2 2 4 2q35 6 70.5 6.5t72.5 -3.5h2q4 -4 6 -9q0 -20 -2 -28v-7v-18q0 -16 -1 -31.5t1 -31.5q2 -2 2 -5v-17t-6 -15v-2q-6 -2 -14 -6q-10 -4 -22.5 -4.5 t-22.5 -0.5h-21h-12h-21.5t-21.5 2h-23q-4 39 -2 76zM453 1524v26q2 4 2 9v16v32.5t-2 32.5v5v17t6 15v2q8 4 12 4h2q10 4 22.5 4.5t22.5 0.5h21h12h41h24q4 -39 2 -77t-4 -77q-2 -4 -3 -7t-3 -7l-4 -4q-35 -4 -71.5 -4.5t-71.5 4.5h-2q-4 4 -6 8z" />
<glyph unicode="&#xe4;" d="M12 99.5q8 39.5 17 68.5q2 10 4 18.5t2 12.5t2 6l4 18q4 37 12 70t13 53q6 35 12 72t12 78q6 47 12.5 93t10.5 93q4 35 8 68.5t8 68.5q2 27 9 83t15.5 126t15.5 144.5t13 140.5q-4 14 -4 29.5t2 31.5q2 4 2 15q0 8 6.5 26.5t30.5 24.5q4 0 23.5 2t44 3l49 2t37.5 1 q41 0 65 -12h4q8 0 13 -4q16 -10 21 -25.5t5 -30.5q2 -6 2 -10t2 -8q4 -23 7.5 -43.5t7.5 -40.5q2 -10 3 -20.5t3 -20.5q4 -29 7 -56.5t7 -54.5q2 -20 4 -40.5t6 -41.5q31 -137 56 -280q6 -41 11 -80t11 -80q6 -45 12.5 -90t14.5 -90q2 -10 3 -20.5t3 -20.5q4 -23 8 -44.5 t8 -41.5q4 -10 11.5 -59.5t17.5 -108.5q6 -31 11 -58.5t10 -43.5q-4 -20 -29 -29h-17.5t-17.5 -2h-2h-12h-27.5t-26.5 -2q-10 2 -16 2h-14q-12 0 -17 -2v2q-14 4 -21 14t-13 23q-4 12 -5 24q-6 29 -12 60.5t-10 42.5q-4 14 -6 42.5t-4 60.5t-4 61.5t-4 46.5q-2 4 -2.5 10 t-2.5 12q-8 0 -10 2h-4q-2 2 -4 2l-2 -2h-2q-8 0 -12 -2q-4 0 -9.5 -1t-11.5 -1q-8 0 -12 2h-12h-89l-4 -2h-2l-2 -8q-2 -6 -4 -27.5t-4 -44t-4 -43t-4 -26.5q-2 -16 -4 -37t-6 -45q-6 -70 -17 -119v-2q-8 -14 -24 -29h-11q-16 -8 -36 -8q-14 0 -23 2h-2h-8q-14 0 -25 -2 h-24q-16 0 -25 2h-2q-10 2 -18.5 9t-12.5 16v6q-10 29 -2 68.5zM51 1589q2 37 4 76q4 12 6 16q2 2 5 2q35 6 70.5 6.5t72.5 -3.5h2q4 -4 6 -9q0 -20 -2 -28v-7v-18q0 -16 -1 -31.5t1 -31.5q2 -2 2 -5v-17t-6 -15v-2q-6 -2 -14 -6q-10 -4 -22.5 -4.5t-22.5 -0.5h-21h-12 h-21.5t-21.5 2h-23q-4 39 -2 76zM307 606h16.5h32h24.5h21l-3 29t-7 62.5t-8 64.5t-4 35q-2 8 -6 39.5t-9.5 66.5t-10.5 63l-5 27l-5 -41q-5 -41 -11 -93t-10.5 -98t-4.5 -56q0 -4 -2 -20.5t-4 -33.5zM453 1524v26q2 4 2 9v16v32.5t-2 32.5v5v17t6 15v2q8 4 12 4h2 q10 4 22.5 4.5t22.5 0.5h21h12h41h24q4 -39 2 -77t-4 -77q-2 -4 -3 -7t-3 -7l-4 -4q-35 -4 -71.5 -4.5t-71.5 4.5h-2q-4 4 -6 8z" />
<glyph unicode="&#xff;" horiz-adv-x="1705" />
<glyph unicode="&#x2000;" horiz-adv-x="882" />
<glyph unicode="&#x2001;" horiz-adv-x="1765" />
<glyph unicode="&#x2002;" horiz-adv-x="882" />
<glyph unicode="&#x2003;" horiz-adv-x="1765" />
<glyph unicode="&#x2004;" horiz-adv-x="588" />
<glyph unicode="&#x2005;" horiz-adv-x="441" />
<glyph unicode="&#x2006;" horiz-adv-x="294" />
<glyph unicode="&#x2007;" horiz-adv-x="294" />
<glyph unicode="&#x2008;" horiz-adv-x="220" />
<glyph unicode="&#x2009;" horiz-adv-x="353" />
<glyph unicode="&#x200a;" horiz-adv-x="98" />
<glyph unicode="&#x2010;" horiz-adv-x="966" d="M90 887q4 0 6 1l6 3v2h4q25 -4 50.5 -3t52.5 1q63 2 125.5 3t126.5 1q88 2 178 -5t180 1q8 -4 25 -17q0 -20 1 -39.5t3 -37.5q2 -29 3 -57.5t3 -57.5v-2q0 -10 -10 -12q-4 0 -9.5 -1t-9.5 -1h-44.5t-45.5 -9q-47 6 -95 5.5t-97 -5.5q-53 10 -111.5 6t-112.5 -6 q-57 -4 -113 -2t-112 7q-4 49 0 102q2 31 1 61.5t-5 61.5z" />
<glyph unicode="&#x2011;" horiz-adv-x="966" d="M90 887q4 0 6 1l6 3v2h4q25 -4 50.5 -3t52.5 1q63 2 125.5 3t126.5 1q88 2 178 -5t180 1q8 -4 25 -17q0 -20 1 -39.5t3 -37.5q2 -29 3 -57.5t3 -57.5v-2q0 -10 -10 -12q-4 0 -9.5 -1t-9.5 -1h-44.5t-45.5 -9q-47 6 -95 5.5t-97 -5.5q-53 10 -111.5 6t-112.5 -6 q-57 -4 -113 -2t-112 7q-4 49 0 102q2 31 1 61.5t-5 61.5z" />
<glyph unicode="&#x2012;" horiz-adv-x="966" d="M90 887q4 0 6 1l6 3v2h4q25 -4 50.5 -3t52.5 1q63 2 125.5 3t126.5 1q88 2 178 -5t180 1q8 -4 25 -17q0 -20 1 -39.5t3 -37.5q2 -29 3 -57.5t3 -57.5v-2q0 -10 -10 -12q-4 0 -9.5 -1t-9.5 -1h-44.5t-45.5 -9q-47 6 -95 5.5t-97 -5.5q-53 10 -111.5 6t-112.5 -6 q-57 -4 -113 -2t-112 7q-4 49 0 102q2 31 1 61.5t-5 61.5z" />
<glyph unicode="&#x2013;" horiz-adv-x="1226" d="M90 887q5 0 8 1t8 3v2h5q34 -4 68 -3t70 1q85 2 168.5 3t169.5 1q118 2 238.5 -5t241.5 1q11 -4 34 -17q0 -20 1 -39.5t4 -37.5q3 -29 4 -57.5t4 -57.5v-2q0 -10 -13 -12q-6 0 -13.5 -1t-12.5 -1h-59.5t-60.5 -9q-63 6 -127.5 5.5t-130.5 -5.5q-71 10 -149.5 6t-150.5 -6 q-76 -4 -151.5 -2t-150.5 7q-5 49 0 102q3 31 1.5 61.5t-6.5 61.5z" />
<glyph unicode="&#x2014;" horiz-adv-x="2250" d="M90 887q11 0 16 1t16 3v2h11q67 -4 135.5 -3t140.5 1q169 2 336.5 3t339.5 1q235 2 476.5 -5t482.5 1q22 -4 67 -17q0 -20 3 -39.5t8 -37.5q5 -29 8 -57.5t8 -57.5v-2q0 -10 -27 -12q-11 0 -25.5 -1t-25.5 -1h-119t-122 -9q-126 6 -254.5 5.5t-260.5 -5.5 q-142 10 -298.5 6t-301.5 -6q-153 -4 -303 -2t-300 7q-11 49 0 102q5 31 2.5 61.5t-13.5 61.5z" />
<glyph unicode="&#x2018;" horiz-adv-x="425" d="M16 1278q2 4 2 12v52.5t-2 50.5q4 47 23.5 98t54.5 76q12 -4 25.5 -9.5t23.5 -11.5q4 -2 8.5 -4t8.5 -4q6 -6 14 -10q10 -10 -3 -28.5t-17 -29.5q-23 -23 -21 -57q0 -10 6 -13t13 1q2 0 10 -4q12 0 20 2q4 2 19 2h26q23 -6 31 -35q0 -39 1 -76t-1 -76v-32 q0 -18 -10 -25.5t-27 -9.5h-2q-6 0 -8 -2h-33q-27 0 -58.5 3t-60.5 -3q-12 2 -22 8q-8 4 -6 4q-4 27 -6 49q-2 18 -3.5 37t-5.5 35z" />
<glyph unicode="&#x2019;" horiz-adv-x="348" d="M16 1274q-2 49 2 98q2 27 12.5 40t25 18.5t34 5.5t39.5 2q8 0 14.5 1t16.5 1q14 -2 31.5 -2t32 -4t22.5 -15.5t8 -36.5q-2 -29 4 -65v-2v-64.5t2 -64.5q-4 -31 -10 -59.5t-17.5 -52t-31 -41t-47.5 -23.5q-2 4 -11 8q-29 33 -65 59q29 12 48 32.5t17 55.5q0 10 -6 13.5 t-12 -0.5q-2 0 -10 4q-12 0 -21 -2q-6 -2 -18 -2q-33 4 -58 -2q0 49 -2 98z" />
<glyph unicode="&#x201c;" horiz-adv-x="657" d="M4 1313q2 4 2 12v52.5t-2 49.5q4 47 23.5 98.5t54.5 76.5q12 -4 25.5 -9.5t23.5 -11.5l8 -4l8 -4q6 -6 15 -10q10 -10 -3.5 -28.5t-17.5 -29.5q-23 -23 -20 -57q0 -10 6 -13t12 1q2 0 11 -4q12 0 20 2q4 2 18 2h27q23 -6 31 -35q0 -39 1 -76t-1 -76v-32 q0 -18 -10.5 -25.5t-26.5 -9.5h-2q-6 0 -8 -2h-33q-27 0 -58.5 3t-60.5 -3q-12 2 -22 8q-8 4 -7 4q-4 27 -6 49q-2 18 -3 37t-5 35zM305 1427q4 31 10.5 60t17.5 52.5t30.5 40.5t48.5 24q2 -4 10 -9q29 -33 65 -59q-29 -12 -48 -32.5t-17 -55.5q0 -10 6 -13t12 1q2 0 11 -4 q12 0 20 2q6 2 18 2q33 -4 58 2q0 -49 2 -98.5t-2 -98.5q-2 -27 -12.5 -40t-24.5 -18t-33.5 -5t-40.5 -2q-8 0 -14 -1t-16 -1q-16 2 -33 2t-31 4t-22.5 15t-8.5 36q2 29 -4 65v2v65t-2 64z" />
<glyph unicode="&#x201d;" horiz-adv-x="702" d="M16 1274q-2 49 2 98q2 27 12.5 40t25 18.5t34 5.5t39.5 2q8 0 14.5 1t16.5 1q14 -2 31.5 -2t32 -4t22.5 -15.5t8 -36.5q-2 -29 4 -65v-2v-64.5t2 -64.5q-4 -31 -10 -59.5t-17.5 -52t-31 -41t-47.5 -23.5q-2 4 -11 8q-29 33 -65 59q29 12 48 32.5t17 55.5q0 10 -6 13.5 t-12 -0.5q-2 0 -10 4q-12 0 -21 -2q-6 -2 -18 -2q-33 4 -58 -2q0 49 -2 98zM318 1288q-1 37 1 76v33q0 18 10.5 25.5t26.5 9.5h2q6 0 9 2h32q27 0 58.5 -3.5t60.5 3.5q12 -4 23 -9q8 -4 6 -4q2 -29 6 -49q2 -18 3 -37t5 -35q-2 -4 -2 -12v-52.5t2 -49.5q-4 -47 -23.5 -98.5 t-54.5 -75.5q-12 4 -25.5 9t-23.5 11l-8 4l-8 4q-6 6 -15 11q-10 10 3.5 28.5t17.5 28.5q23 23 20 57q0 10 -6 13.5t-12 -0.5q-2 0 -10 4q-12 0 -21 -2q-4 -2 -18 -2h-27q-23 6 -31 34q0 39 -1 76z" />
<glyph unicode="&#x2022;" d="M21.5 1080.5q-11.5 117.5 15.5 254.5q8 47 31.5 85t54.5 62.5t65.5 33t65.5 -6.5q80 -39 133 -101t92 -159q41 96 94.5 158.5t133.5 101.5q31 14 65.5 6t65 -32.5t53.5 -62.5t33 -85q27 -137 15.5 -255.5t-45.5 -225t-83 -206t-101.5 -198t-98.5 -202t-72 -215.5 q-27 -20 -68 -25q-35 -4 -51 31q-27 113 -74 215t-98 200.5t-100.5 197t-82 205t-44 224zM164 1079q-4 -92 12.5 -179t46.5 -171q20 -74 53 -143q10 -20 20.5 -39t20.5 -37q14 -33 33 -62.5t37 -58.5q14 -20 26.5 -40.5t24.5 -43.5q4 -6 5 -12t6 -12q14 -27 26 -53.5 t23 -55.5q4 12 4 16q8 16 14 32t16 30q0 4 3 6q20 57 46.5 112.5t53.5 109.5t50.5 108.5t41.5 113.5q6 12 11 23.5t10 21.5q0 6 2 13.5t4 15.5q16 31 19 67t3 72v26.5t-2 31.5q-4 -23 -16 -43q-4 -6 -5 -14.5t-5 -16.5q-8 -16 -20.5 -42t-14.5 -36q2 33 0 63.5t-2 61.5 q-2 20 -2 41v41v27v-4q-23 -70 -57 -133.5t-56 -135.5q-2 23 -4 46.5t-6 45.5q-6 33 -18.5 64t-24.5 59q-4 6 -7.5 13.5t-7.5 13.5q-6 10 -11 18.5t-11 18.5q-6 -70 -3 -138.5t-5 -138.5q-16 29 -31.5 59.5t-26.5 63.5q-4 10 -6 18.5t-4 16.5q-4 14 -8 28.5t-6 28.5 q-6 0 -6 -6q-23 -90 -3.5 -180t42.5 -176q-66 78 -103 176t-27 211q-6 -14 -12 -25.5t-10 -23.5q0 -4 -1 -6t-1 -6q-6 -53 -2 -104.5t0 -104.5q-33 35 -53.5 84t-34.5 102q-16 35 -26.5 68.5t-14.5 72.5z" />
<glyph unicode="&#x202f;" horiz-adv-x="353" />
<glyph unicode="&#x205f;" horiz-adv-x="441" />
<glyph unicode="&#x20ac;" d="M-14 627q2 0 2 2q-4 4 8 8q6 2 18 2h43t43 8h6v2l3 80q-31 2 -60 3t-59 1q-4 43 0 90q2 27 2 52.5t-6 52.5q4 0 12 4v2q4 0 4 2q25 -6 49.5 -5t50.5 1h13v26q2 41 3 74t-3 80v4l2 17q6 45 16 89t28.5 82.5t46.5 70.5t71 50q45 20 87 31.5t83 11.5t80.5 -11t76.5 -32 q35 -18 56.5 -43.5t34 -54.5t17.5 -58.5t9 -60.5q2 -16 3 -31.5t5 -29.5q4 -31 -4 -53q0 -51 -37 -64q-29 -6 -53 -6h-19h-8h-12h-10q-20 0 -35 6q-25 12 -29 41t-6 57v18.5t-2 12.5l-2 8q-4 18 -10 39t-17 35q-23 6 -43 6q-35 0 -58.5 -16.5t-31.5 -44.5q-12 -53 -19 -97.5 t-11 -84.5v-33t-2 -23v-12h24q86 2 175 -3t175 1q6 -4 13.5 -7t13.5 -7q-2 -18 -1 -35t3 -33q2 -25 2 -49.5t4 -48.5v-2q0 -4 -8 -13h-21q-20 -2 -43.5 -2t-42.5 -6q-47 4 -94 4t-94 -2q-29 4 -58.5 5t-60.5 -1v-48t2 -46q47 -4 98.5 -1t98.5 5q55 2 110.5 1t108.5 -5v-88 v-52.5t4 -51.5q-4 -2 -5 -2t-5 -3l-2 -2h-4q-25 4 -48.5 3t-52.5 -3h-121.5t-121.5 -2q-29 -4 -56 0v-51q0 -16 1 -31.5t6 -31.5q4 -35 12 -60q20 -41 63 -59q12 -6 27 -6h6h6q2 0 2 2q43 -4 63.5 40t26.5 103q41 12 83 15.5t83 5.5q10 -6 21 -33q4 -94 -17.5 -168 t-68.5 -125q-49 -59 -146 -59l-32 -2h-2q-66 0 -125.5 20.5t-112.5 67.5q-10 8 -19.5 21t-19.5 30q-8 12 -10 14l-2 2v2q-27 78 -37 155t-17 155h-43t-43 -5q-6 4 -12 8.5t-10 8.5q0 16 -1 33.5t-3 33.5q-2 25 -4 49.5t-4 49.5z" />
<glyph unicode="&#x25fc;" horiz-adv-x="1454" d="M0 0v1454h1454v-1454h-1454z" />
</font>
</defs>
</svg>
