<?xml version="1.0" standalone="no"?>
<!DOCTYPE svg PUBLIC "-//W3C//DTD SVG 1.1//EN" "http://www.w3.org/Graphics/SVG/1.1/DTD/svg11.dtd" >
<svg xmlns="http://www.w3.org/2000/svg" xmlns:xlink="http://www.w3.org/1999/xlink" version="1.1">
<metadata></metadata>
<defs>
<font id="ornitons-regularregular" horiz-adv-x="1304" >
<font-face units-per-em="2048" ascent="1638" descent="-410" />
<missing-glyph horiz-adv-x="593" />
<glyph horiz-adv-x="0" />
<glyph horiz-adv-x="682" />
<glyph unicode=" " horiz-adv-x="593" d="M0 0z" />
<glyph unicode="!" horiz-adv-x="536" d="M121 127q0 61 42.5 103t102.5 42q62 0 105 -42t43 -103q0 -60 -43.5 -102.5t-104.5 -42.5q-60 0 -102.5 42.5t-42.5 102.5zM141 1477h260l-47 -1092h-166z" />
<glyph unicode="&#x22;" horiz-adv-x="776" d="M45 981q60 71 84 108.5t61 120.5q-124 24 -124 133q0 58 46 105t103 47q65 0 106 -46.5t41 -119.5q0 -67 -30 -135q-30 -67 -69.5 -120.5t-125.5 -145.5zM414 981q60 71 84.5 109.5t62.5 119.5q-123 24 -123 133q0 57 45.5 104.5t100.5 47.5q67 0 108 -46.5t41 -119.5 q0 -57 -31 -135q-33 -70 -71.5 -124t-120.5 -142z" />
<glyph unicode="#" horiz-adv-x="1294" d="M96 459l23 102h235l74 352h-235l20 103h238l90 430h102l-92 -430h215l90 430h100l-90 -430h236l-21 -103h-235l-76 -352h236l-21 -102h-235l-93 -430h-100l90 430h-213l-92 -430h-100l90 430h-236zM455 561h215l73 352h-213z" />
<glyph unicode="$" horiz-adv-x="1091" d="M39 162l113 182q80 -70 133 -104q51 -31 90 -44t112 -20v490q-109 30 -161 50t-99 50q-67 46 -105 124t-38 171q0 192 152 323q60 54 110 73.5t146 25.5v155h110v-151q112 -2 169 -16.5t167 -73.5l-66 -178q-63 35 -112 53q-60 23 -83 28t-75 5v-451q117 -29 169.5 -47.5 t98.5 -46.5q71 -43 111.5 -123t40.5 -178q0 -103 -43 -195.5t-123 -161.5q-57 -49 -108.5 -72.5t-151.5 -45.5v-177h-115v168q-157 19 -235.5 52t-206.5 135zM330 1083q0 -38 16.5 -75t42.5 -60q38 -33 100 -53v389q-159 -78 -159 -201zM598 197q176 60 176 233 q0 45 -16.5 87.5t-42.5 62.5q-13 13 -78 41q-4 1 -17 6t-22 8v-438z" />
<glyph unicode="%" horiz-adv-x="1599" d="M59 1116q0 154 109 262.5t264 108.5q154 0 262.5 -108.5t108.5 -262.5t-108.5 -262.5t-262.5 -108.5q-155 0 -264 108.5t-109 262.5zM203 0l1057 1477h135l-1055 -1477h-137zM215 1116q0 -100 63.5 -171t153.5 -71q89 0 153 71t64 171q0 101 -64 172.5t-153 71.5 q-91 0 -154 -71.5t-63 -172.5zM801 354q0 152 108 259.5t262 107.5q152 0 260.5 -107.5t108.5 -259.5t-108 -259t-261 -107q-154 0 -262 107t-108 259zM952 354q0 -102 63.5 -172.5t155.5 -70.5q90 0 155 71t65 172t-65 172.5t-155 71.5q-92 0 -155.5 -71t-63.5 -173z" />
<glyph unicode="&#x26;" horiz-adv-x="1435" d="M59 414q0 92 43.5 174t122.5 139q51 36 172 82q-76 67 -123 157.5t-47 170.5q0 152 124.5 255t310.5 103q183 0 302 -103.5t119 -263.5q0 -163 -143 -274q-44 -35 -89 -58.5t-132 -58.5q106 -126 161.5 -186.5t172.5 -179.5q70 61 100.5 96t83.5 113l139 -154 q-57 -75 -87.5 -108.5t-96.5 -90.5q77 -84 117 -122t121 -105h-310l-106 104q-81 -47 -107 -57q-72 -34 -160.5 -54t-166.5 -20q-143 0 -263 58t-189 159.5t-69 223.5zM293 436q0 -118 90 -199t221 -81q49 0 121 16q48 15 78 28.5t78 45.5l-377 422q-91 -40 -121 -64 q-90 -63 -90 -168zM455 1153q0 -55 31.5 -115.5t113.5 -163.5q83 34 126.5 58t74.5 53q73 67 73 164q0 83 -58 135.5t-150 52.5t-151.5 -52t-59.5 -132z" />
<glyph unicode="'" horiz-adv-x="407" d="M45 981q60 71 84 108.5t61 120.5q-124 24 -124 133q0 58 46 105t103 47q65 0 106 -46.5t41 -119.5q0 -67 -30 -135q-30 -67 -69.5 -120.5t-125.5 -145.5z" />
<glyph unicode="(" horiz-adv-x="606" d="M84 717q0 268 78 453t313 477l121 -136q-184 -241 -249.5 -397.5t-65.5 -353.5q0 -231 61.5 -387.5t253.5 -409.5l-121 -133q-228 283 -309.5 468t-81.5 419z" />
<glyph unicode=")" horiz-adv-x="606" d="M10 -37q185 245 251.5 402.5t66.5 353.5q0 228 -62.5 384.5t-255.5 409.5l117 134q230 -279 312.5 -465.5t82.5 -421.5q0 -270 -78.5 -455t-316.5 -475z" />
<glyph unicode="*" horiz-adv-x="724" d="M37 1016q0 37 30 61.5t76 24.5h19l45 -6h14q62 0 62 45q0 41 -62 41h-14l-45 -6h-19q-46 0 -76 24.5t-30 61.5q0 40 27 69t65 29q27 0 53 -17.5t41 -44.5l21 -45q9 -21 25 -35t30 -14q17 0 27 12.5t10 32.5q0 17 -21 54q-20 30 -24 38q-23 33 -23 68q0 40 26.5 63 t70.5 23q41 0 67.5 -24.5t26.5 -61.5q0 -4 -1 -9.5t-1 -8.5q-5 -22 -23 -50q-2 -4 -5.5 -9.5t-9 -14t-9.5 -14.5q-21 -33 -21 -56q0 -19 10 -31t27 -12q12 0 28.5 14t26.5 35l21 45q14 27 39.5 44.5t54.5 17.5q38 0 64 -29t26 -69q0 -37 -29.5 -61.5t-74.5 -24.5h-17l-47 6 h-14q-62 0 -62 -39q0 -47 62 -47h14l47 6h15q47 0 76.5 -24.5t29.5 -61.5q0 -40 -26 -68t-64 -28q-29 0 -54.5 17.5t-39.5 45.5l-21 43q-10 21 -26.5 35t-28.5 14q-37 0 -37 -43q0 -22 21 -55q19 -29 24 -41q25 -41 25 -66q0 -39 -28 -62.5t-73 -23.5q-40 0 -65 24t-25 62 q0 13 2 19q4 27 21 47q12 24 24 41q21 37 21 55q0 20 -10 31.5t-25 11.5t-31.5 -14t-25.5 -35l-21 -43q-15 -28 -41 -45.5t-53 -17.5q-38 0 -65 28t-27 68z" />
<glyph unicode="+" d="M197 653v191h360v356h193v-354h358v-193h-354v-358h-199v358h-358z" />
<glyph unicode="," horiz-adv-x="397" d="M33 -246q60 71 84.5 110t62.5 120q-125 24 -125 133q0 58 46 104.5t102 46.5q67 0 108 -46.5t41 -119.5q0 -60 -30 -135q-32 -68 -71.5 -122t-123.5 -144z" />
<glyph unicode="-" horiz-adv-x="616" d="M45 502v188h526v-188h-526z" />
<glyph unicode="." horiz-adv-x="380" d="M45 127q0 61 41.5 103t101.5 42q62 0 105 -42t43 -103q0 -60 -43.5 -102.5t-106.5 -42.5q-58 0 -99.5 42.5t-41.5 102.5z" />
<glyph unicode="/" horiz-adv-x="628" d="M55 0l363 1493l155 -16l-362 -1495z" />
<glyph unicode="0" d="M72 737q0 219 74.5 395.5t207 276.5t297.5 100q166 0 299 -100t208 -276.5t75 -395.5q0 -218 -75 -394.5t-208 -276t-299 -99.5q-123 0 -231 58.5t-184 160.5t-120 245t-44 306zM307 737q0 -248 96 -407.5t248 -159.5q151 0 247.5 159t96.5 408t-96.5 408.5t-245.5 159.5 q-153 0 -249.5 -159t-96.5 -409z" />
<glyph unicode="1" d="M420 1266l67 211h324v-1477h-240v1266h-151z" />
<glyph unicode="2" d="M76 0q234 229 340 340q180 192 276 315q80 99 120.5 161.5t61.5 123.5q27 76 27 141q0 99 -60.5 161.5t-156.5 62.5q-114 0 -182 -84q-26 -35 -38.5 -73.5t-21.5 -113.5h-231q14 129 39.5 197t85.5 131q132 135 348 135q199 0 325 -115.5t126 -298.5q0 -197 -168 -405 q-33 -43 -150 -178q-99 -112 -139.5 -155.5t-134.5 -137.5h602l-60 -207h-1009z" />
<glyph unicode="3" d="M137 471h230q5 -92 21 -139.5t58 -89.5q83 -86 209 -86q117 0 194 80t77 202q0 129 -87 205t-233 76q-10 0 -28.5 -1t-30.5 -1v168q99 0 166 24q68 29 106.5 86t38.5 127q0 92 -62 149.5t-161 57.5q-50 0 -107 -24q-52 -24 -80 -68t-45 -127h-223q13 104 37 158t80 108 q126 129 342 129q197 0 326 -104t129 -262q0 -72 -29.5 -137t-83.5 -109q-29 -24 -60 -40t-90 -36q74 -12 112.5 -27.5t82.5 -52.5q137 -116 137 -303q0 -198 -142.5 -331.5t-354.5 -133.5q-107 0 -208.5 36t-176.5 99q-74 63 -105.5 142.5t-38.5 224.5z" />
<glyph unicode="4" d="M88 365v186l637 926h281v-930h139v-185h-139v-362h-236v365h-682zM319 547h451v610q0 34 21 152q-6 -11 -14 -25.5t-12.5 -24t-8.5 -14.5q-10 -19 -19.5 -38l-14.5 -29t-7 -13z" />
<glyph unicode="5" d="M127 111l66 194q72 -49 114 -69q120 -72 260 -72q151 0 245.5 79.5t94.5 205.5q0 132 -102.5 210t-274.5 78q-43 0 -118 -10q-87 -19 -183 -43l99 793h753l-61 -205h-512l-47 -406q102 23 178 23q226 1 366 -119t140 -315q0 -211 -159 -349.5t-402 -138.5q-84 0 -197 29 q-70 19 -121.5 41.5t-138.5 73.5z" />
<glyph unicode="6" d="M92 494q0 182 135 374q145 194 273 332l260 277h299l-168 -170q-146 -152 -328 -359q136 25 191 25q113 0 214 -65.5t161.5 -175.5t60.5 -234q0 -145 -72 -265t-197 -188t-276 -68q-152 0 -279.5 69t-200.5 188t-73 260zM324 487q0 -128 93.5 -219.5t225.5 -91.5 t225 96.5t93 231.5q0 129 -94.5 219t-229.5 90q-130 0 -221.5 -96t-91.5 -230z" />
<glyph unicode="7" d="M117 1268l67 209h1033l-809 -1477h-273l684 1217q12 21 29 38.5t57 49.5q-66 -25 -83.5 -31t-35.5 -6h-669z" />
<glyph unicode="8" d="M135 430q0 101 49 191q40 73 88 110t150 72q-49 21 -98 49q-54 35 -87.5 105.5t-33.5 146.5q0 167 130 281t318 114q189 0 318 -114t129 -283q0 -88 -35 -154q-27 -53 -65 -82.5t-119 -62.5q82 -24 129 -53q70 -43 114.5 -131.5t44.5 -186.5q0 -195 -147.5 -326 t-368.5 -131q-144 0 -262.5 59.5t-186 164t-67.5 231.5zM373 444q0 -117 80.5 -198.5t197.5 -81.5q118 0 199.5 81.5t81.5 198.5q0 119 -80 200t-197 81q-121 0 -201.5 -80.5t-80.5 -200.5zM428 1098q0 -94 64 -159t159 -65q94 0 158.5 65t64.5 159q0 93 -65 158t-156 65 q-95 0 -160 -64.5t-65 -158.5z" />
<glyph unicode="9" d="M113 975q0 218 159 367t392 149q148 0 274 -68.5t199 -186.5t73 -257q0 -186 -139 -381q-63 -89 -264 -319l-254 -279h-307l166 168q165 170 331 360q-131 -32 -196 -32q-83 0 -163 39.5t-139.5 104.5t-95.5 153.5t-36 181.5zM344 961q0 -126 95 -216t227 -90 q131 0 223 94.5t92 229.5q0 129 -93 220t-226 91q-131 0 -224.5 -96.5t-93.5 -232.5z" />
<glyph unicode=":" horiz-adv-x="440" d="M74 907q0 60 43 103t104 43q60 0 102 -43t42 -103q0 -61 -42 -103t-102 -42q-62 0 -104.5 42t-42.5 103zM76 127q0 61 42.5 103t102.5 42t103 -42t43 -103q0 -60 -43.5 -102.5t-104.5 -42.5q-60 0 -101.5 42.5t-41.5 102.5z" />
<glyph unicode=";" horiz-adv-x="464" d="M74 -242q60 72 83.5 110t61.5 122q-121 21 -121 129q0 59 44.5 106t101.5 47q66 0 106.5 -47t40.5 -121q0 -70 -31 -133q-31 -67 -69.5 -121t-122.5 -145zM94 905q0 60 44 104t104 44t101.5 -44t41.5 -104t-41.5 -101.5t-101.5 -41.5t-104 41.5t-44 101.5z" />
<glyph unicode="&#x3c;" horiz-adv-x="636" d="M45 508l434 475l115 -113l-326 -366l324 -359l-121 -112z" />
<glyph unicode="=" d="M195 535v167h913v-167h-913zM197 795v168h911v-168h-911z" />
<glyph unicode="&#x3e;" horiz-adv-x="630" d="M45 147l322 361l-322 362l117 111l424 -473l-424 -473z" />
<glyph unicode="?" horiz-adv-x="800" d="M-16 1376q72 44 90 51q142 74 282 74q169 0 279 -101.5t110 -256.5q0 -74 -26 -139q-20 -61 -62 -113q-6 -11 -90 -111q-37 -46 -78 -102q-43 -58 -57 -90.5t-14 -77.5q0 -48 16 -129h-172q-20 110 -20 164q0 67 18.5 114t77.5 125q87 110 149 211q41 65 41 131 q0 89 -58 147t-146 58q-58 0 -99 -16q-47 -18 -84 -42t-94 -75zM199 127q0 61 42.5 103t102.5 42q62 0 103.5 -42t41.5 -103q0 -60 -43.5 -102.5t-105.5 -42.5q-57 0 -99 42.5t-42 102.5z" />
<glyph unicode="@" horiz-adv-x="1722" d="M119 788q15 234 145 412q94 128 226 206t278 95q168 19 313 -32.5t241 -153.5t139 -253t14 -323q-32 -190 -127.5 -307t-208.5 -133q-93 -13 -155 39.5t-54 132.5q-9 -33 -41 -74q-112 -130 -268 -61q-79 35 -122 128t-36 236q4 48 8 72q30 196 137 318q67 80 148 106.5 t148.5 -0.5t103.5 -96q2 -3 5 -10.5t5 -10.5l18 117l101 -2l-78 -440l-29 -179q-11 -76 4 -126q11 -37 44.5 -54t70.5 -4q28 9 53 29t64 65q81 98 106 275q22 152 -15.5 282t-119.5 215t-205 124t-264 18q-119 -17 -221.5 -82t-174 -162.5t-107 -228t-21.5 -271.5 q7 -64 20 -114q40 -157 137 -271t222 -165t272 -38.5t283 95.5q45 26 100 74q67 57 111 116l41 -73q-32 -40 -52 -60q-233 -245 -544 -248q-208 0 -377 105.5t-261 294t-77 417.5zM582 596q3 -75 26 -127q28 -62 94.5 -73t116.5 38q30 28 49.5 63.5t46.5 112.5q21 64 37 154 l4 20l15 86q8 71 2 121q-12 74 -69.5 108t-119.5 7q-54 -23 -91.5 -73t-71.5 -154q-16 -49 -27 -101q-15 -103 -12 -182z" />
<glyph unicode="A" horiz-adv-x="1251" d="M-12 0l510 1477h256l512 -1477h-265l-139 442h-473l-137 -442h-264zM434 621h387l-170 557q-17 59 -24 129q-4 -63 -25 -129z" />
<glyph unicode="B" horiz-adv-x="1183" d="M141 0v1477h467q190 0 305 -103.5t115 -275.5q0 -143 -102 -248q-33 -31 -61 -47t-83 -35q67 -14 102 -27t74 -41q150 -108 150 -288q0 -186 -124 -299t-325 -113h-518zM385 180h193q148 0 219 61t71 191q0 120 -74 182t-219 62h-190v-496zM385 840h170q119 0 186.5 62 t67.5 171q0 110 -64 170t-178 60h-182v-463z" />
<glyph unicode="C" horiz-adv-x="1359" d="M82 735q0 155 61 296.5t164.5 244.5t246 164t298.5 61q118 0 240 -39q57 -20 100.5 -44t120.5 -77l-105 -190q-13 11 -35 26t-28 21q-134 84 -289 84q-145 0 -267 -73t-192.5 -199.5t-70.5 -276.5q0 -147 72.5 -272t198 -198t273.5 -73q93 0 164 25q82 28 183 90l94 -186 q-103 -63 -115 -68q-156 -78 -344 -78q-158 0 -301 60t-245.5 161.5t-163 243t-60.5 297.5z" />
<glyph unicode="D" horiz-adv-x="1329" d="M141 0v1477h357q157 0 296 -57t238.5 -155t157 -235.5t57.5 -292.5q0 -152 -58 -288.5t-156.5 -235t-235 -156t-287.5 -57.5h-369zM385 209h90q144 0 263.5 69.5t188 192t68.5 270.5t-68.5 270.5t-189 192.5t-266.5 70h-86v-1065z" />
<glyph unicode="E" horiz-adv-x="1056" d="M141 0v1477h854l-51 -195h-559v-438h522v-191h-522v-458h614l-55 -195h-803z" />
<glyph unicode="F" horiz-adv-x="960" d="M141 0v1477h838l-53 -195h-541v-440h506l-49 -193h-457v-649h-244z" />
<glyph unicode="G" horiz-adv-x="1697" d="M82 731q0 209 104 386t283 280.5t389 103.5q140 0 279 -51q98 -37 162 -83t157 -148l-192 -123q-47 50 -84 82q-62 55 -147 85.5t-171 30.5q-107 0 -205 -45t-169.5 -120t-113.5 -179t-42 -217q0 -149 72 -276.5t195.5 -202t268.5 -74.5q192 0 332.5 130.5t175.5 342.5 h-526l2 174h778q0 -171 -19 -258t-79 -196q-104 -191 -281 -295.5t-395 -104.5q-158 0 -301 59.5t-247 160.5t-165 242t-61 296z" />
<glyph unicode="H" horiz-adv-x="1404" d="M141 0v1477h244v-615h635v615h244v-1477h-244v649h-635v-649h-244z" />
<glyph unicode="I" horiz-adv-x="524" d="M141 0v1477h244v-1477h-244z" />
<glyph unicode="J" horiz-adv-x="808" d="M-29 113l107 170q77 -60 120 -80.5t91 -20.5q32 0 65 13q42 21 57 56t15 120v1106h242v-1147q0 -103 -12.5 -149t-53.5 -95q-90 -113 -270 -113q-72 0 -142 21q-52 17 -97 41.5t-122 77.5z" />
<glyph unicode="K" horiz-adv-x="1110" d="M141 0v1477h244v-621l418 621h291l-510 -684l571 -793h-293l-477 711v-711h-244z" />
<glyph unicode="L" horiz-adv-x="980" d="M141 0v1477h244v-1280h614l-59 -197h-799z" />
<glyph unicode="M" horiz-adv-x="1812" d="M66 0l192 1477h240l387 -1127q11 -30 28 -143q5 90 23 143l385 1127h242l192 -1477h-237l-107 1018q-2 20 -2 78q0 49 2 104q-4 -16 -7.5 -31.5t-6.5 -30.5l-4 -20q-6 -50 -23 -100l-348 -1018h-223l-350 1018l-21 100l-16 82l2 -82l-2 -100l-107 -1018h-239z" />
<glyph unicode="N" horiz-adv-x="1572" d="M141 0v1477h277l712 -1078q40 -63 89 -192q-25 151 -25 190l-2 1080h238v-1477h-271l-721 1081q-20 29 -33.5 61.5t-46.5 125.5l13 -72l8 -113l2 -1083h-240z" />
<glyph unicode="O" horiz-adv-x="1710" d="M82 737q0 160 60 301.5t163.5 242.5t249 159.5t311.5 58.5q209 0 384.5 -100.5t277.5 -276t102 -385.5q0 -159 -60.5 -300t-163.5 -242t-247 -159.5t-305 -58.5t-304 58.5t-246 159.5t-162.5 242t-59.5 300zM324 737q0 -148 71.5 -274.5t193.5 -200.5t265 -74 q144 0 266.5 74t194 200.5t71.5 274.5q0 149 -71.5 275.5t-194.5 200t-268 73.5q-142 0 -264 -74t-193 -200.5t-71 -274.5z" />
<glyph unicode="P" horiz-adv-x="1124" d="M141 0v1477h488q224 0 351.5 -117.5t127.5 -323.5q0 -196 -116.5 -316t-305.5 -120h-301v-600h-244zM385 788h215q78 0 118 11.5t75 44.5q77 74 77 192q0 126 -79 193q-38 30 -78.5 41.5t-116.5 11.5h-211v-494z" />
<glyph unicode="Q" horiz-adv-x="1710" d="M82 737q0 159 60 300t162.5 242.5t245.5 160.5t304 59q214 0 392 -100t281 -273.5t103 -382.5q0 -186 -48 -299t-193 -270l178 -170l-146 -141l-215 196q-254 -84 -393 -84q-145 0 -280 61.5t-234 164.5t-158 243.5t-59 292.5zM324 737q0 -148 71.5 -274.5t194 -200.5 t266.5 -74t265.5 73.5t192 200t70.5 275.5q0 150 -71 276.5t-193.5 199.5t-267.5 73q-142 0 -264 -74t-193 -200.5t-71 -274.5z" />
<glyph unicode="R" horiz-adv-x="1134" d="M141 0v1477h445q112 0 185 -19.5t130 -64.5q66 -53 102.5 -132.5t36.5 -173.5q0 -102 -41 -189.5t-116 -141.5q-48 -36 -105.5 -51.5t-159.5 -18.5l521 -686h-295l-459 668v-668h-244zM385 817h170q117 0 188.5 68.5t71.5 177.5q0 107 -68.5 165t-193.5 58h-168v-469z " />
<glyph unicode="S" horiz-adv-x="1091" d="M39 162l113 182q90 -75 133 -104q106 -64 204 -64q123 0 202 72t79 184q0 53 -22 99t-60 71q-28 18 -65 29.5t-158 42.5q-98 25 -145.5 43.5t-92.5 48.5q-68 47 -105.5 125t-37.5 170q0 187 138.5 313.5t344.5 126.5q77 0 170 -22q60 -16 99 -31.5t102 -50.5l-66 -178 q-169 94 -294 94q-109 0 -181.5 -67.5t-72.5 -168.5q0 -41 20.5 -79.5t54.5 -63.5q35 -26 68.5 -38t165.5 -46q164 -46 237 -90q70 -41 111 -122t41 -179q0 -206 -150.5 -344t-375.5 -138q-91 0 -187 27q-70 22 -124 53.5t-146 104.5z" />
<glyph unicode="T" horiz-adv-x="880" d="M-16 1266l4 211h930l-62 -211h-305v-1266h-244v1266h-323z" />
<glyph unicode="U" horiz-adv-x="1392" d="M141 481v996h244v-985q0 -80 16.5 -129t57.5 -87q93 -90 239 -90q143 0 236 90q41 38 58.5 87.5t17.5 128.5v985h243v-996q0 -233 -149 -368.5t-406 -135.5q-259 0 -408 134.5t-149 369.5z" />
<glyph unicode="V" horiz-adv-x="1116" d="M-2 1477h248l291 -1104l14 -101l6 -92l8 92l15 101l290 1104h248l-444 -1477h-232z" />
<glyph unicode="W" horiz-adv-x="1796" d="M27 1477h239l215 -1039l11 -94l10 -108q15 168 22 206l258 1035h234l252 -1035l16 -96l10 -110q13 158 23 202l215 1039h237l-364 -1477h-229l-254 1047q-15 65 -25 225q-16 -184 -25 -225l-249 -1047h-234z" />
<glyph unicode="X" horiz-adv-x="1169" d="M-39 0l483 770l-452 707h272l283 -469q18 -27 25 -50.5t12 -68.5q8 46 15.5 69.5t23.5 49.5l282 469h273l-451 -707l483 -770h-282l-301 512q-19 30 -27 58t-16 83q-5 -53 -13 -81t-28 -60l-299 -512h-283z" />
<glyph unicode="Y" horiz-adv-x="1110" d="M-59 1477h282l301 -557q10 -17 14.5 -39t12.5 -90q5 81 29 131l311 555h276l-493 -826v-651h-242v651z" />
<glyph unicode="Z" horiz-adv-x="1189" d="M0 0l758 1225q20 36 82 82q-73 -33 -111 -33h-647l59 203h1039l-750 -1205l-37 -59l-43 -39q72 27 121 27h700l-63 -201h-1108z" />
<glyph unicode="[" horiz-adv-x="573" d="M156 -154v1784h385v-153h-166v-1479h166v-152h-385z" />
<glyph unicode="\" horiz-adv-x="657" d="M96 1475h156l260 -1475h-158z" />
<glyph unicode="]" horiz-adv-x="573" d="M33 -2h166v1479h-166v153h383v-1784h-383v152z" />
<glyph unicode="^" horiz-adv-x="462" d="M-115 1229l344 241l349 -241l-50 -107l-299 162l-295 -162z" />
<glyph unicode="_" horiz-adv-x="1005" d="M96 0h738v-61h-738v61z" />
<glyph unicode="`" horiz-adv-x="294" d="M-55 1380l137 95l303 -275l-104 -74z" />
<glyph unicode="a" horiz-adv-x="1239" d="M82 510q0 232 138 385.5t345 153.5q83 0 156 -27q62 -21 92 -41t70 -70v123h215v-1034h-215v125q-20 -36 -39 -51q-43 -47 -123 -76t-170 -29q-209 0 -339 150t-130 391zM315 516q0 -163 83 -261.5t220 -98.5q109 0 175 60t75 169q6 74 6 156q0 98 -6.5 140t-29.5 79 q-32 53 -94 85t-132 32q-132 0 -214.5 -100t-82.5 -261z" />
<glyph unicode="b" horiz-adv-x="1232" d="M141 0v1411l221 100v-581q74 69 144.5 98t167.5 29q210 0 343.5 -148.5t133.5 -382.5q0 -246 -134 -399.5t-349 -153.5q-101 0 -181 35q-45 19 -71.5 40.5t-59.5 66.5v-115h-215zM360 469q0 -74 7 -109.5t30 -76.5q34 -60 93 -92.5t133 -32.5q132 0 214.5 99.5 t82.5 260.5q0 166 -84 265.5t-224 99.5q-71 0 -132 -31.5t-87 -83.5q-25 -48 -28 -117q-2 -17 -5 -127v-55z" />
<glyph unicode="c" horiz-adv-x="1005" d="M82 512q0 113 43.5 215.5t117.5 176.5t176.5 117.5t215.5 43.5q82 0 147 -18t172 -70l-69 -176q-30 21 -54 28q-84 48 -176 48q-142 0 -243 -105.5t-101 -253.5q0 -149 106 -254.5t255 -105.5q52 0 97.5 13.5t115.5 49.5l67 -162q-108 -54 -173 -73t-148 -19 q-149 0 -275.5 73t-200 198.5t-73.5 273.5z" />
<glyph unicode="d" horiz-adv-x="1234" d="M82 518q0 235 134.5 387t344.5 152q82 0 164 -29q47 -19 76 -38.5t71 -59.5v481l222 100v-1511h-215v121q-19 -27 -37 -45q-46 -45 -126 -74t-161 -29q-204 0 -338.5 154.5t-134.5 390.5zM315 526q0 -164 83 -265t218 -101q72 0 132 33t92 90q21 40 27.5 77.5t6.5 114.5 v55l-4 129q-3 92 -80.5 158t-183.5 66q-131 0 -211 -98t-80 -259z" />
<glyph unicode="e" horiz-adv-x="1191" d="M82 514q0 113 42.5 214t115.5 173.5t174.5 115t214.5 42.5q211 0 364 -135q53 -46 83.5 -92t70.5 -138l-774 -397q24 -30 45 -51q106 -103 233 -103q60 0 137 31q43 21 73.5 49.5t82.5 93.5l154 -98q-37 -51 -80 -98q-70 -71 -172 -112.5t-211 -41.5q-153 0 -280 72 t-200 198t-73 277zM289 551q0 -42 14 -105l596 308q-37 51 -64.5 73t-78.5 41q-67 23 -123 23q-135 0 -239.5 -103.5t-104.5 -236.5z" />
<glyph unicode="f" horiz-adv-x="567" d="M20 850l41 184h99v137q0 164 77.5 249t225.5 85q73 0 170 -35l-51 -178q-45 27 -93 27q-57 0 -82.5 -41t-25.5 -135v-109h209l-43 -184h-164v-850h-223v850h-140z" />
<glyph unicode="g" horiz-adv-x="1228" d="M82 520q0 234 136 383.5t351 149.5q92 0 168 -33q39 -15 66.5 -33.5t70.5 -58.5v106h216v-1018q0 -116 -27.5 -183.5t-97.5 -125.5q-133 -115 -379 -115q-109 0 -195 21q-71 18 -122 41t-134 76l92 159q105 -72 164 -90q100 -35 193 -35q136 0 213 63.5t77 174.5v131 q-7 -11 -19 -26t-15 -19q-43 -48 -119.5 -76t-165.5 -28q-211 0 -342 149t-131 387zM311 524q0 -167 82 -267.5t217 -100.5q74 0 136.5 31t91.5 83q20 39 26 75.5t6 113.5q0 43 -2 63l-2 146q-3 94 -73.5 154.5t-176.5 60.5q-135 0 -220 -99.5t-85 -259.5z" />
<glyph unicode="h" horiz-adv-x="1232" d="M141 0v1411l221 98v-614q131 164 345 164q178 0 281.5 -92.5t103.5 -251.5v-715h-222v657q0 100 -60 156.5t-167 56.5q-123 0 -202 -66t-79 -167v-637h-221z" />
<glyph unicode="i" horiz-adv-x="471" d="M109 1286q0 57 38 96t93 39q57 0 96 -38t39 -93q0 -56 -38 -95.5t-93 -39.5q-56 0 -95.5 39t-39.5 92zM127 0v965l221 102v-1067h-221z" />
<glyph unicode="j" horiz-adv-x="471" d="M109 1286q0 57 37.5 96t91.5 39q56 0 95.5 -39t39.5 -96q0 -56 -37.5 -93.5t-93.5 -37.5q-55 0 -94 39t-39 92zM125 -371v1338l221 100v-1438h-221z" />
<glyph unicode="k" horiz-adv-x="1003" d="M141 0v1411l221 98v-864l347 389h266l-414 -448l498 -586h-289l-408 516v-516h-221z" />
<glyph unicode="l" horiz-adv-x="501" d="M141 0v1411l221 98v-1509h-221z" />
<glyph unicode="m" horiz-adv-x="1839" d="M141 0v967l217 100v-147q38 42 64.5 61.5t73.5 40.5q89 39 176 39q64 0 131 -23q54 -20 91 -49.5t89 -95.5q59 80 146 123t192 43q176 0 289 -107q46 -45 67 -104t21 -148v-700h-217v655q0 65 -10 96t-41 62q-61 61 -173 61q-229 0 -229 -223v-651h-217v643 q0 62 -11.5 97.5t-39.5 66.5q-67 67 -176 67q-107 0 -166.5 -58.5t-59.5 -164.5v-651h-217z" />
<glyph unicode="n" horiz-adv-x="1230" d="M141 0v967l213 102l2 -174q33 38 62 63q53 46 128 72.5t156 26.5q85 0 161 -28t130 -79q97 -84 97 -260v-690h-222v629q0 114 -45 164q-29 35 -80.5 55t-109.5 20q-118 0 -194.5 -75t-76.5 -191v-602h-221z" />
<glyph unicode="o" horiz-adv-x="1280" d="M82 512q0 112 44.5 214t119.5 175.5t179 117.5t218 44q150 0 278 -74.5t202.5 -201.5t74.5 -275q0 -112 -44 -214t-119 -175.5t-178.5 -117.5t-217.5 -44q-150 0 -278.5 74t-203.5 201t-75 276zM303 510q0 -155 95 -256.5t241 -101.5q145 0 242.5 102.5t97.5 257.5 q0 152 -97.5 255t-242.5 103q-144 0 -240 -103t-96 -257z" />
<glyph unicode="p" horiz-adv-x="1239" d="M141 -406v1440h215v-127q31 40 47 51q48 46 122.5 73.5t158.5 27.5q211 0 342 -150t131 -393q0 -236 -135 -388.5t-346 -152.5q-85 0 -178 35q-41 19 -68.5 39.5t-67.5 61.5v-422zM360 508q2 -123 8 -163.5t31 -80.5q30 -52 91.5 -82t132.5 -30q134 0 217.5 98.5 t83.5 257.5q0 163 -84 263.5t-219 100.5q-71 0 -131 -30.5t-89 -81.5q-28 -44 -34.5 -80t-6.5 -139v-33z" />
<glyph unicode="q" horiz-adv-x="1236" d="M82 508q0 240 135 395.5t346 155.5q83 0 174 -33q50 -21 78 -43t66 -72v123h215v-1345l-222 -95v517q-24 -27 -36 -39q-46 -42 -124 -68.5t-157 -26.5q-209 0 -342 149t-133 382zM315 504q0 -158 84.5 -255t221.5 -97q106 0 172.5 55t76.5 153q7 96 7 177q0 116 -7.5 153 t-40.5 82q-71 100 -211 100q-136 0 -219.5 -101t-83.5 -267z" />
<glyph unicode="r" horiz-adv-x="684" d="M141 0v967l215 102v-195q34 60 60 87t76 53q49 26 88.5 35.5t103.5 9.5q7 0 21 -1t22 -1l-41 -213q-20 2 -53 2q-83 0 -166 -60q-57 -43 -81 -98.5t-24 -142.5v-545h-221z" />
<glyph unicode="s" horiz-adv-x="905" d="M43 59l57 185q64 -48 101 -68q80 -41 184 -41q100 0 162.5 45.5t62.5 118.5q0 101 -137 137l-96 27q-305 79 -305 293q0 135 111 223t282 88q67 0 135 -12q57 -11 96 -25t103 -47l-56 -162q-59 32 -84 43q-93 43 -188 43q-75 0 -123.5 -38.5t-48.5 -98.5 q0 -44 37.5 -79.5t105.5 -57.5l99 -29q109 -32 184 -67q56 -32 87.5 -91t31.5 -131q0 -160 -117.5 -255t-316.5 -95q-70 0 -160 17q-60 13 -100.5 27.5t-106.5 49.5z" />
<glyph unicode="t" horiz-adv-x="552" d="M23 850l358 536v-352h205l-58 -184h-147v-850h-221v850h-137z" />
<glyph unicode="u" horiz-adv-x="1222" d="M141 356v678h221v-649q0 -231 248 -231t248 231v649h223v-678q0 -192 -119.5 -291.5t-351.5 -99.5q-230 0 -349.5 99.5t-119.5 291.5z" />
<glyph unicode="v" horiz-adv-x="1001" d="M-37 1034h246l258 -710q21 -55 33 -160q18 112 35 160l260 710h243l-417 -1034h-240z" />
<glyph unicode="w" horiz-adv-x="1579" d="M23 1034h231l174 -694q5 -31 10 -78q0 -10 8 -72q7 86 27 154l219 690h199l213 -690q17 -53 31 -154q6 46 6 72q3 57 10 78l172 694h233l-290 -1034h-244l-207 666q-15 45 -24 172l-11 -76l-18 -96l-221 -666h-226z" />
<glyph unicode="x" horiz-adv-x="1001" d="M-45 0l403 528l-385 506h271l215 -295q26 -37 41 -110q18 74 43 110l215 295h272l-387 -506l401 -528h-274l-227 311q-25 34 -43 115q-15 -80 -41 -115l-230 -311h-274z" />
<glyph unicode="y" horiz-adv-x="995" d="M-39 1034h240l266 -690q20 -54 29 -156q14 75 14 76q6 52 16 80l281 690h246l-596 -1405h-254l178 387z" />
<glyph unicode="z" horiz-adv-x="999" d="M-31 0l604 786q31 37 111 91q-100 -33 -143 -33h-453l64 190h854l-598 -784l-68 -62l-47 -36q46 22 73.5 29t67.5 7h506l-59 -188h-912z" />
<glyph unicode="{" horiz-adv-x="700" d="M96 737q56 3 92.5 43.5t36.5 104.5v676q0 70 42.5 107.5t123.5 37.5h160v-92h-25q-71 0 -94.5 -24t-23.5 -95v-594q0 -63 -41.5 -110.5t-104.5 -53.5q63 -6 104.5 -53.5t41.5 -110.5v-593q0 -71 23.5 -95t94.5 -24h25v-92h-160q-81 0 -123.5 37.5t-42.5 107.5v676 q0 64 -36.5 104t-92.5 43z" />
<glyph unicode="|" horiz-adv-x="376" d="M96 0v1475h156v-1475h-156z" />
<glyph unicode="}" horiz-adv-x="700" d="M96 -139h25q72 0 95.5 24t23.5 95v593q0 64 41.5 111t103.5 53q-62 6 -103.5 53t-41.5 111v594q0 71 -23.5 95t-95.5 24h-25v92h160q81 0 123.5 -37.5t42.5 -107.5v-676q0 -64 36.5 -104.5t92.5 -43.5q-56 -3 -92.5 -43t-36.5 -104v-676q0 -70 -42.5 -107.5t-123.5 -37.5 h-160v92z" />
<glyph unicode="~" horiz-adv-x="534" d="M-10 1583v162q93 29 157 29q53 0 105 -15l80 -16q75 -19 129 -19q60 0 96 9.5t92 38.5v-164q-119 -31 -178 -31q-54 0 -154 22q-126 27 -172 27q-38 0 -70 -9t-85 -34z" />
<glyph unicode="&#xa0;" horiz-adv-x="1024" d="M0 0z" />
<glyph unicode="&#xa1;" horiz-adv-x="536" d="M121 1348q0 61 43.5 104t105.5 43q60 0 102 -43t42 -104q0 -60 -42 -102t-102 -42q-62 0 -105.5 42t-43.5 102zM135 0l47 1092h166l45 -1092h-258z" />
<glyph unicode="&#xa2;" horiz-adv-x="1005" d="M82 512q0 108 42 210.5t118 180.5q63 64 119 94t165 58v125h121v-119q110 -9 161 -23t146 -61l-69 -176q-71 43 -112.5 55.5t-125.5 15.5v-708q86 0 123.5 9t114.5 48l67 -162q-100 -51 -151 -66t-162 -24v-112h-119v118q-97 26 -146.5 51.5t-109.5 79.5 q-89 79 -135.5 184t-46.5 222zM315 518q0 -105 50 -181.5t157 -133.5v635q-109 -66 -158 -141t-49 -179z" />
<glyph unicode="&#xa3;" horiz-adv-x="1009" d="M61 43l43 170q58 -18 97 -18q69 0 114 48t45 119q0 48 -12 97q-15 58 -76 209h-168v120h121q-4 11 -15.5 41.5t-16.5 44.5q-30 81 -41 131t-11 109q0 167 111 276t283 109q75 0 151 -24q55 -18 91.5 -37t94.5 -62l-57 -176q-63 56 -86 72q-83 57 -176 57 q-86 0 -141.5 -59t-55.5 -150q0 -55 21.5 -122.5t83.5 -211.5h327v-120h-288q7 -20 14.5 -47t9.5 -33q33 -118 33 -183q0 -55 -20 -108q-21 -48 -53.5 -75.5t-100.5 -55.5q105 -10 174 -10q61 0 92 2q98 6 161 22.5t171 63.5l-41 -207q-145 -43 -226.5 -55.5t-205.5 -12.5 q-131 0 -216 14.5t-231 61.5z" />
<glyph unicode="&#xa4;" horiz-adv-x="1013" d="M96 436l127 125q-58 79 -58.5 178.5t56.5 178.5l-123 118q23 34 64 72l127 -127q79 60 179 60.5t179 -58.5l125 127q35 -28 55 -53q1 -1 7 -8.5t8 -12.5l-127 -118q58 -80 57.5 -179.5t-59.5 -179.5l127 -127l-15 -16l-16 -15q-21 -22 -39 -34l-123 127 q-79 -60 -178.5 -60t-177.5 60l-129 -125q-37 27 -66 67zM264 737q0 -84 60 -143t145 -59q84 0 143 59q60 60 60 143.5t-60 143.5q-59 59 -143 59q-85 0 -145 -59t-60 -144z" />
<glyph unicode="&#xa5;" horiz-adv-x="1333" d="M53 1477h281l303 -557q16 -31 27 -129q5 83 28 131l312 555h276l-362 -609h311v-151h-406l-37 -66l-2 -47h443v-164h-443l2 -440h-241v442h-436v164h436v45l-35 60h-399v159h309z" />
<glyph unicode="&#xa7;" horiz-adv-x="1232" d="M66 541q0 112 67 200q31 42 65 67.5t101 57.5q-17 14 -51 52q-72 78 -72 202q0 163 131.5 270t331.5 107q117 0 223 -47q68 -30 125 -84q64 -62 89.5 -120t37.5 -169l-215 6q-11 66 -25 101t-45 67q-34 37 -87 59.5t-105 22.5q-89 0 -158 -60t-69 -138q0 -79 61 -140 q22 -22 38 -31t58 -24l377 -137q104 -37 162.5 -120t58.5 -194q0 -98 -53 -178q-31 -45 -64 -71t-100 -56q24 -24 56 -65q59 -75 59 -185q0 -164 -130 -271t-329 -107q-207 0 -346 112q-75 60 -102.5 124.5t-30.5 191.5l209 -7q3 -73 18.5 -111t57.5 -77q80 -74 192 -74 q97 0 160 56.5t63 144.5q0 142 -159 197l-381 131q-107 38 -163 114t-56 183zM297 582q0 -68 45.5 -121t124.5 -78l299 -94q72 6 105 25.5t55 66.5q18 45 18 80q0 64 -38.5 113.5t-108.5 72.5l-324 113q-62 0 -90.5 -13.5t-52.5 -52.5q-33 -47 -33 -112z" />
<glyph unicode="&#xa8;" horiz-adv-x="563" d="M-10 1237q0 50 31 84.5t77 34.5q48 0 81.5 -35t33.5 -86q0 -44 -32.5 -76.5t-78.5 -32.5t-78 33t-34 78zM350 1235q0 51 33.5 86t81.5 35q44 0 76 -35t32 -82q0 -46 -33 -79.5t-79 -33.5q-44 0 -76.5 32.5t-34.5 76.5z" />
<glyph unicode="&#xa9;" horiz-adv-x="1908" d="M119 739q0 152 58 293t165 248q147 146 343.5 198t393.5 0t344 -198q110 -110 167.5 -253t57.5 -287.5t-57.5 -287.5t-167.5 -253t-253 -167.5t-287.5 -57.5t-287.5 57.5t-253 167.5q-107 107 -165 247.5t-58 292.5zM221 739q0 -133 51.5 -257t145.5 -220 q126 -127 296 -172t340 0t296 172q128 130 173 303t-0.5 346t-172.5 303q-127 128 -297 173.5t-339.5 0t-295.5 -173.5q-94 -96 -145.5 -219t-51.5 -256zM413.5 707.5q-0.5 100.5 35.5 207.5q62 167 214.5 254t337.5 56q135 -25 238 -111l-61 -90q-78 69 -181 90 q-121 23 -227.5 -22.5t-169.5 -144.5t-61 -224q0 -39 6 -76q19 -95 80 -167.5t141.5 -107t177 -29t180.5 57.5q31 20 50 37l63 -88q-132 -111 -317 -117q-105 -3 -198.5 33t-159 100.5t-107 152.5t-42 188.5z" />
<glyph unicode="&#xaa;" horiz-adv-x="987" d="M102 1061q-18 97 8.5 185.5t82 147.5t133.5 86.5t159 10.5q123 -27 179 -125l10 -16l6 -15v140h135l2 -678h-137v149l-6 -16q-44 -95 -149.5 -132.5t-225.5 9.5q-77 31 -128.5 96.5t-68.5 157.5zM117 571v125h700v-125h-700zM236 1139q0 -26 6 -47q18 -99 94 -152 q59 -40 126 -39t124 41q74 54 92 148q9 49 0 98q-24 122 -127 170q-89 42 -178 2q-52 -23 -86.5 -69.5t-46.5 -108.5q-4 -28 -4 -43z" />
<glyph unicode="&#xab;" horiz-adv-x="987" d="M45 508l434 475l115 -113l-326 -366l324 -359l-121 -112zM391 508l434 475l119 -113l-328 -366l322 -359l-117 -112z" />
<glyph unicode="&#xac;" horiz-adv-x="1284" d="M96 737v156h996v-451h-129v295h-867z" />
<glyph unicode="&#xad;" horiz-adv-x="616" d="M45 502v188h526v-188h-526z" />
<glyph unicode="&#xae;" horiz-adv-x="1908" d="M119 739q0 152 58 293t165 248q147 146 343.5 198t393.5 0t344 -198q110 -110 167.5 -253t57.5 -287.5t-57.5 -287.5t-167.5 -253t-253 -167.5t-287.5 -57.5t-287.5 57.5t-253 167.5q-107 107 -165 247.5t-58 292.5zM221 739q0 -133 51.5 -257t145.5 -220 q126 -127 296 -172t340 0t296 172q128 130 173 303t-0.5 346t-172.5 303q-127 128 -297 173.5t-339.5 0t-295.5 -173.5q-94 -96 -145.5 -219t-51.5 -256zM643 268v961h225q81 0 128.5 -13t86.5 -45q68 -56 86 -147q23 -126 -36.5 -212t-176.5 -101q-5 0 -16 -1t-16 -1 l301 -441h-146l-313 473v-473h-123zM766 782h80q99 -1 151 43t54 127q2 82 -48 128t-145 46h-92v-344z" />
<glyph unicode="&#xaf;" horiz-adv-x="444" d="M-8 1151v141h465v-141h-465z" />
<glyph unicode="&#xb1;" horiz-adv-x="1216" d="M90 39v139h946v-139h-946zM90 539v139h404v250h139v-250h403v-139h-403v-250h-139v250h-404z" />
<glyph unicode="&#xb4;" horiz-adv-x="366" d="M45 1196l303 277l137 -99l-342 -250z" />
<glyph unicode="&#xb5;" horiz-adv-x="1275" d="M150 -285q0 5 0.5 19.5t1.5 43t2 56.5q4 132 4 182q0 117 -2 207q-4 180 -4 195v502h188v-607q0 -143 29 -194q25 -46 102 -49q119 0 195 163q74 161 77 420v267h189v-672q0 -92 18 -135q18 -40 60 -43q41 0 65 43q23 44 23 125v28h43q0 -10 2 -18v-27q0 -114 -49 -178 q-44 -58 -136 -61q-100 0 -155 88q-50 81 -53 264q-47 -182 -125 -266q-77 -83 -199 -86q-88 0 -150 53q-57 54 -81 158q0 -31 -2 -58q0 -136 65 -289q66 -160 66 -188q0 -41 -23 -64q-19 -19 -63 -22q-48 0 -68 35q-17 28 -20 108z" />
<glyph unicode="&#xb6;" horiz-adv-x="1318" d="M96 1075q0 165 116.5 282.5t279.5 117.5h632v-107h-632q-120 0 -205 -87t-82 -210q1 -121 85 -205t202 -84h141v496h112v-1278h-112v676h-141q-163 0 -279.5 117t-116.5 282zM881 0v1278h112v-1278h-112z" />
<glyph unicode="&#xb7;" horiz-adv-x="438" d="M74 608q0 60 41.5 104t101.5 44q61 0 104.5 -44t43.5 -104t-43 -101.5t-105 -41.5q-60 0 -101.5 41.5t-41.5 101.5z" />
<glyph unicode="&#xb8;" horiz-adv-x="305" d="M-10 -354l180 299l147 -29l-213 -291z" />
<glyph unicode="&#xba;" horiz-adv-x="987" d="M96 1141q0 40 8 73q17 84 66 150t117 101t149.5 41.5t163.5 -29.5q118 -48 177.5 -162.5t33.5 -247.5q-22 -108 -97.5 -185t-183.5 -100q-74 -12 -145 0q-109 23 -185 99.5t-98 185.5q-6 38 -6 74zM109 571v125h698v-125h-698zM233 1141q0 -22 3 -43q21 -125 129 -174 q101 -47 197.5 5.5t115.5 166.5q12 74 -13 138t-79 103q-50 35 -107.5 41.5t-113.5 -18.5q-108 -52 -129 -174q-3 -21 -3 -45z" />
<glyph unicode="&#xbb;" horiz-adv-x="980" d="M45 147l322 361l-322 362l117 111l424 -473l-424 -473zM391 870l119 111l426 -473l-424 -473l-119 112l324 361z" />
<glyph unicode="&#xbf;" horiz-adv-x="800" d="M55 340q0 70 27 141q28 72 61 113q20 20 93 111q13 16 39 50.5t36 47.5q45 61 58.5 93t13.5 79q0 46 -16 127h174q20 -126 20 -164q0 -66 -19 -112.5t-79 -125.5q-97 -127 -148 -213q-43 -74 -43 -133q0 -86 58 -143t145 -57q57 0 100 14q49 18 86.5 42t94.5 75l61 -181 q-23 -13 -52 -30t-36 -21q-145 -71 -285 -71q-169 0 -279 101.5t-110 256.5zM311 1358q0 60 44 101.5t106 41.5q59 0 100 -42t41 -103q0 -60 -41.5 -103t-101.5 -43q-61 0 -104.5 43t-43.5 105z" />
<glyph unicode="&#xc0;" horiz-adv-x="1251" d="M-12 0l510 1477h256l512 -1477h-265l-139 442h-473l-137 -442h-264zM422 1862l137 94l303 -275l-104 -73zM434 621h387l-170 557q-17 59 -24 129q-4 -63 -25 -129z" />
<glyph unicode="&#xc1;" horiz-adv-x="1251" d="M-12 0l510 1477h256l512 -1477h-265l-139 442h-473l-137 -442h-264zM434 621h387l-170 557q-17 59 -24 129q-4 -63 -25 -129zM487 1677l304 277l137 -99l-342 -249z" />
<glyph unicode="&#xc2;" horiz-adv-x="1251" d="M-12 0l510 1477h256l512 -1477h-265l-139 442h-473l-137 -442h-264zM279 1710l344 242l348 -242l-49 -106l-299 161l-295 -161zM434 621h387l-170 557q-17 59 -24 129q-4 -63 -25 -129z" />
<glyph unicode="&#xc3;" horiz-adv-x="1251" d="M-12 0l510 1477h256l512 -1477h-265l-139 442h-473l-137 -442h-264zM338 1628v141q79 25 137 25q51 0 92 -10q9 -1 70 -17q69 -14 113 -14q51 0 84 8t79 31v-141q-95 -29 -153 -29q-44 0 -137 18q-97 23 -146 23q-63 0 -139 -35zM434 621h387l-170 557q-17 59 -24 129 q-4 -63 -25 -129z" />
<glyph unicode="&#xc4;" horiz-adv-x="1251" d="M-12 0l510 1477h256l512 -1477h-265l-139 442h-473l-137 -442h-264zM285 1634q0 52 38.5 90.5t90.5 38.5q54 0 91.5 -38.5t37.5 -92.5q0 -53 -38 -89t-93 -36q-54 0 -90.5 36.5t-36.5 90.5zM434 621h387l-170 557q-17 59 -24 129q-4 -63 -25 -129zM713 1632 q0 54 37.5 92.5t91.5 38.5q53 0 92 -38.5t39 -90.5q0 -53 -38 -90t-91 -37q-54 0 -91.5 36t-39.5 89z" />
<glyph unicode="&#xc5;" horiz-adv-x="1251" d="M-12 0l510 1477h256l512 -1477h-265l-139 442h-473l-137 -442h-264zM428 1733q0 75 58 128.5t141 53.5t140.5 -53.5t57.5 -128.5q0 -74 -58 -126.5t-140 -52.5q-83 0 -141 52.5t-58 126.5zM434 621h387l-170 557q-17 59 -24 129q-4 -63 -25 -129zM541 1733 q0 -37 24.5 -65t59.5 -28q36 0 61 28t25 65q0 39 -25 66.5t-61 27.5q-35 0 -59.5 -27.5t-24.5 -66.5z" />
<glyph unicode="&#xc6;" horiz-adv-x="1841" d="M-12 0l839 1477h955l-53 -195h-562v-434h525v-193h-523v-458h613l-56 -197h-800v434h-437l-231 -434h-270zM580 616h346v646z" />
<glyph unicode="&#xc7;" horiz-adv-x="1359" d="M82 735q0 155 61 296.5t164.5 244.5t246 164t298.5 61q118 0 240 -39q57 -20 100.5 -44t120.5 -77l-105 -190q-13 11 -35 26t-28 21q-134 84 -289 84q-145 0 -267 -73t-192.5 -199.5t-70.5 -276.5q0 -147 72.5 -272t198 -198t273.5 -73q93 0 164 25q82 28 183 90l94 -186 q-103 -63 -115 -68q-156 -78 -344 -78q-158 0 -301 60t-245.5 161.5t-163 243t-60.5 297.5zM592 -350l166 295l166 -27l-203 -285z" />
<glyph unicode="&#xc8;" horiz-adv-x="1056" d="M141 0v1477h854l-51 -195h-559v-438h522v-191h-522v-458h614l-55 -195h-803zM326 1862l137 94l303 -275l-104 -73z" />
<glyph unicode="&#xc9;" horiz-adv-x="1056" d="M141 0v1477h854l-51 -195h-559v-438h522v-191h-522v-458h614l-55 -195h-803zM389 1677l303 277l137 -99l-342 -249z" />
<glyph unicode="&#xca;" horiz-adv-x="1056" d="M141 0v1477h854l-51 -195h-559v-438h522v-191h-522v-458h614l-55 -195h-803zM182 1710l344 242l348 -242l-49 -106l-299 161l-295 -161z" />
<glyph unicode="&#xcb;" horiz-adv-x="1056" d="M141 0v1477h854l-51 -195h-559v-438h522v-191h-522v-458h614l-55 -195h-803zM236 1718q0 50 31 84.5t77 34.5q48 0 81.5 -35t33.5 -86q0 -44 -32.5 -76t-78.5 -32t-78 32.5t-34 77.5zM596 1716q0 51 33.5 86t81.5 35q44 0 76 -35t32 -82q0 -46 -33 -79t-79 -33 q-44 0 -76.5 32t-34.5 76z" />
<glyph unicode="&#xcc;" horiz-adv-x="524" d="M59 1862l138 94l303 -275l-105 -73zM141 0v1477h244v-1477h-244z" />
<glyph unicode="&#xcd;" horiz-adv-x="524" d="M123 1677l303 277l137 -99l-342 -249zM141 0v1477h244v-1477h-244z" />
<glyph unicode="&#xce;" horiz-adv-x="524" d="M-84 1710l344 242l348 -242l-49 -106l-299 161l-295 -161zM141 0v1477h244v-1477h-244z" />
<glyph unicode="&#xcf;" horiz-adv-x="524" d="M-29 1718q0 50 31.5 84.5t77.5 34.5q48 0 81.5 -35t33.5 -86q0 -44 -32.5 -76t-78.5 -32t-78.5 32.5t-34.5 77.5zM141 0v1477h244v-1477h-244zM332 1716q0 51 33.5 86t80.5 35q44 0 76.5 -35t32.5 -82q0 -46 -33.5 -79t-79.5 -33q-44 0 -76 32t-34 76z" />
<glyph unicode="&#xd1;" horiz-adv-x="1572" d="M141 0v1477h277l712 -1078q40 -63 89 -192q-25 151 -25 190l-2 1080h238v-1477h-271l-721 1081q-20 29 -33.5 61.5t-46.5 125.5l13 -72l8 -113l2 -1083h-240zM498 1628v141q79 25 137 25q51 0 92 -10q9 -1 70 -17q69 -14 112 -14q51 0 84.5 8t79.5 31v-141 q-95 -29 -153 -29q-45 0 -138 18q-97 23 -145 23q-63 0 -139 -35z" />
<glyph unicode="&#xd2;" horiz-adv-x="1710" d="M82 737q0 160 60 301.5t163.5 242.5t249 159.5t311.5 58.5q209 0 384.5 -100.5t277.5 -276t102 -385.5q0 -159 -60.5 -300t-163.5 -242t-247 -159.5t-305 -58.5t-304 58.5t-246 159.5t-162.5 242t-59.5 300zM324 737q0 -148 71.5 -274.5t193.5 -200.5t265 -74 q144 0 266.5 74t194 200.5t71.5 274.5q0 149 -71.5 275.5t-194.5 200t-268 73.5q-142 0 -264 -74t-193 -200.5t-71 -274.5zM651 1862l137 94l304 -275l-105 -73z" />
<glyph unicode="&#xd3;" horiz-adv-x="1710" d="M82 737q0 160 60 301.5t163.5 242.5t249 159.5t311.5 58.5q209 0 384.5 -100.5t277.5 -276t102 -385.5q0 -159 -60.5 -300t-163.5 -242t-247 -159.5t-305 -58.5t-304 58.5t-246 159.5t-162.5 242t-59.5 300zM324 737q0 -148 71.5 -274.5t193.5 -200.5t265 -74 q144 0 266.5 74t194 200.5t71.5 274.5q0 149 -71.5 275.5t-194.5 200t-268 73.5q-142 0 -264 -74t-193 -200.5t-71 -274.5zM717 1677l303 277l137 -99l-342 -249z" />
<glyph unicode="&#xd4;" horiz-adv-x="1710" d="M82 737q0 160 60 301.5t163.5 242.5t249 159.5t311.5 58.5q209 0 384.5 -100.5t277.5 -276t102 -385.5q0 -159 -60.5 -300t-163.5 -242t-247 -159.5t-305 -58.5t-304 58.5t-246 159.5t-162.5 242t-59.5 300zM324 737q0 -148 71.5 -274.5t193.5 -200.5t265 -74 q144 0 266.5 74t194 200.5t71.5 274.5q0 149 -71.5 275.5t-194.5 200t-268 73.5q-142 0 -264 -74t-193 -200.5t-71 -274.5zM508 1710l344 242l348 -242l-49 -106l-299 161l-295 -161z" />
<glyph unicode="&#xd5;" horiz-adv-x="1710" d="M82 737q0 160 60 301.5t163.5 242.5t249 159.5t311.5 58.5q209 0 384.5 -100.5t277.5 -276t102 -385.5q0 -159 -60.5 -300t-163.5 -242t-247 -159.5t-305 -58.5t-304 58.5t-246 159.5t-162.5 242t-59.5 300zM324 737q0 -148 71.5 -274.5t193.5 -200.5t265 -74 q144 0 266.5 74t194 200.5t71.5 274.5q0 149 -71.5 275.5t-194.5 200t-268 73.5q-142 0 -264 -74t-193 -200.5t-71 -274.5zM567 1628v141q79 25 138 25q51 0 92 -10q7 -1 69 -17q69 -14 113 -14q51 0 84.5 8t79.5 31v-141q-95 -29 -154 -29q-44 0 -137 18q-97 23 -145 23 q-64 0 -140 -35z" />
<glyph unicode="&#xd6;" horiz-adv-x="1710" d="M82 737q0 160 60 301.5t163.5 242.5t249 159.5t311.5 58.5q209 0 384.5 -100.5t277.5 -276t102 -385.5q0 -159 -60.5 -300t-163.5 -242t-247 -159.5t-305 -58.5t-304 58.5t-246 159.5t-162.5 242t-59.5 300zM324 737q0 -148 71.5 -274.5t193.5 -200.5t265 -74 q144 0 266.5 74t194 200.5t71.5 274.5q0 149 -71.5 275.5t-194.5 200t-268 73.5q-142 0 -264 -74t-193 -200.5t-71 -274.5zM334 1638q0 54 37 91.5t90 37.5q55 0 93 -37.5t38 -91.5t-38 -91.5t-93 -37.5q-54 0 -90.5 37.5t-36.5 91.5zM1118 1638q0 54 38 91.5t93 37.5 q53 0 90 -37.5t37 -91.5t-37 -91.5t-90 -37.5q-54 0 -92.5 37.5t-38.5 91.5z" />
<glyph unicode="&#xd8;" horiz-adv-x="1720" d="M78 795q0 132 59 258t168 227q116 108 244 165.5t254 57.5q204 0 563 -196l207 211l65 -68l-200 -205q194 -353 194 -561q0 -131 -59.5 -258.5t-167.5 -228.5q-114 -107 -244.5 -165.5t-257.5 -58.5q-204 0 -547 174l-196 -202l-74 71l199 207q-97 167 -152 319.5 t-55 252.5zM328 774q0 -135 125 -391l749 770q-243 131 -371 131q-89 0 -180.5 -43.5t-169.5 -122.5q-74 -74 -113.5 -163t-39.5 -181zM524 317q233 -129 359 -129q187 0 354 170q152 155 152 342q0 140 -123 383z" />
<glyph unicode="&#xd9;" horiz-adv-x="1392" d="M141 481v996h244v-985q0 -80 16.5 -129t57.5 -87q93 -90 239 -90q143 0 236 90q41 38 58.5 87.5t17.5 128.5v985h243v-996q0 -233 -149 -368.5t-406 -135.5q-259 0 -408 134.5t-149 369.5zM494 1862l137 94l303 -275l-105 -73z" />
<glyph unicode="&#xda;" horiz-adv-x="1392" d="M141 481v996h244v-985q0 -80 16.5 -129t57.5 -87q93 -90 239 -90q143 0 236 90q41 38 58.5 87.5t17.5 128.5v985h243v-996q0 -233 -149 -368.5t-406 -135.5q-259 0 -408 134.5t-149 369.5zM557 1677l303 277l137 -99l-342 -249z" />
<glyph unicode="&#xdb;" horiz-adv-x="1392" d="M141 481v996h244v-985q0 -80 16.5 -129t57.5 -87q93 -90 239 -90q143 0 236 90q41 38 58.5 87.5t17.5 128.5v985h243v-996q0 -233 -149 -368.5t-406 -135.5q-259 0 -408 134.5t-149 369.5zM350 1710l344 242l348 -242l-49 -106l-299 161l-295 -161z" />
<glyph unicode="&#xdc;" horiz-adv-x="1392" d="M141 481v996h244v-985q0 -80 16.5 -129t57.5 -87q93 -90 239 -90q143 0 236 90q41 38 58.5 87.5t17.5 128.5v985h243v-996q0 -233 -149 -368.5t-406 -135.5q-259 0 -408 134.5t-149 369.5zM356 1628q0 53 37.5 90t91.5 37q51 0 88 -37.5t37 -89.5t-37 -88.5t-90 -36.5 q-54 0 -90.5 36t-36.5 89zM782 1628q0 52 37 89.5t90 37.5q54 0 91.5 -37t37.5 -90q0 -52 -37 -88.5t-90 -36.5t-90.5 36.5t-38.5 88.5z" />
<glyph unicode="&#xdf;" horiz-adv-x="1196" d="M141 0v1096q0 107 24 173t81 117q126 113 329 113q183 0 301.5 -98.5t118.5 -251.5q0 -113 -69.5 -198.5t-198.5 -129.5q73 -6 114 -17.5t87 -39.5q186 -117 186 -338q0 -189 -135.5 -321t-327.5 -132q-56 0 -176 27l29 158q78 -19 119 -19q110 0 189 86t79 207 q0 131 -90 207t-248 76q-10 0 -92 -4v180q154 0 238.5 62t84.5 175q0 87 -59.5 144t-149.5 57q-51 0 -94 -18q-41 -14 -73 -51q-27 -30 -36.5 -68t-9.5 -115v-1077h-221z" />
<glyph unicode="&#xe0;" horiz-adv-x="1239" d="M82 510q0 232 138 385.5t345 153.5q83 0 156 -27q62 -21 92 -41t70 -70v123h215v-1034h-215v125q-20 -36 -39 -51q-43 -47 -123 -76t-170 -29q-209 0 -339 150t-130 391zM315 516q0 -163 83 -261.5t220 -98.5q109 0 175 60t75 169q6 74 6 156q0 98 -6.5 140t-29.5 79 q-32 53 -94 85t-132 32q-132 0 -214.5 -100t-82.5 -261zM416 1380l137 95l303 -275l-104 -74z" />
<glyph unicode="&#xe1;" horiz-adv-x="1239" d="M82 510q0 232 138 385.5t345 153.5q83 0 156 -27q62 -21 92 -41t70 -70v123h215v-1034h-215v125q-20 -36 -39 -51q-43 -47 -123 -76t-170 -29q-209 0 -339 150t-130 391zM315 516q0 -163 83 -261.5t220 -98.5q109 0 175 60t75 169q6 74 6 156q0 98 -6.5 140t-29.5 79 q-32 53 -94 85t-132 32q-132 0 -214.5 -100t-82.5 -261zM481 1196l303 277l138 -99l-342 -250z" />
<glyph unicode="&#xe2;" horiz-adv-x="1239" d="M82 510q0 232 138 385.5t345 153.5q83 0 156 -27q62 -21 92 -41t70 -70v123h215v-1034h-215v125q-20 -36 -39 -51q-43 -47 -123 -76t-170 -29q-209 0 -339 150t-130 391zM272 1229l344 241l349 -241l-50 -107l-299 162l-294 -162zM315 516q0 -163 83 -261.5t220 -98.5 q109 0 175 60t75 169q6 74 6 156q0 98 -6.5 140t-29.5 79q-32 53 -94 85t-132 32q-132 0 -214.5 -100t-82.5 -261z" />
<glyph unicode="&#xe3;" horiz-adv-x="1239" d="M82 510q0 232 138 385.5t345 153.5q83 0 156 -27q62 -21 92 -41t70 -70v123h215v-1034h-215v125q-20 -36 -39 -51q-43 -47 -123 -76t-170 -29q-209 0 -339 150t-130 391zM315 516q0 -163 83 -261.5t220 -98.5q109 0 175 60t75 169q6 74 6 156q0 98 -6.5 140t-29.5 79 q-32 53 -94 85t-132 32q-132 0 -214.5 -100t-82.5 -261zM332 1147v141q79 25 137 25q51 0 92 -10q9 -1 70 -17q69 -14 112 -14q51 0 84.5 8t79.5 31v-142q-92 -28 -153 -28q-45 0 -138 18q-97 23 -145 23q-63 0 -139 -35z" />
<glyph unicode="&#xe4;" horiz-adv-x="1236" d="M82 510q0 232 138 385.5t345 153.5q83 0 156 -27q62 -21 92 -41t70 -70v123h215v-1034h-215v125q-20 -36 -39 -51q-43 -47 -123 -76t-170 -29q-209 0 -339 150t-130 391zM315 516q0 -163 83 -261.5t220 -98.5q109 0 175 60t75 169q6 74 6 156q0 98 -6.5 140t-29.5 79 q-32 53 -94 85t-132 32q-132 0 -214.5 -100t-82.5 -261zM346 1245q0 48 32 82.5t77 34.5q47 0 80.5 -35t33.5 -86q0 -44 -32 -75t-78 -31t-78.5 32t-34.5 78zM707 1241q0 51 33.5 86t80.5 35q44 0 76.5 -34.5t32.5 -80.5q0 -47 -33.5 -79.5t-79.5 -32.5q-44 0 -76.5 31 t-33.5 75z" />
<glyph unicode="&#xe5;" horiz-adv-x="1236" d="M82 510q0 232 138 385.5t345 153.5q83 0 156 -27q62 -21 92 -41t70 -70v123h215v-1034h-215v125q-20 -36 -39 -51q-43 -47 -123 -76t-170 -29q-209 0 -339 150t-130 391zM315 516q0 -163 83 -261.5t220 -98.5q109 0 175 60t75 169q6 74 6 156q0 98 -6.5 140t-29.5 79 q-32 53 -94 85t-132 32q-132 0 -214.5 -100t-82.5 -261zM465 1290q0 75 57.5 127.5t139.5 52.5q80 0 137 -52.5t57 -127.5q0 -72 -58 -125t-139 -53q-80 0 -137 52.5t-57 125.5zM569 1290q0 -40 26 -67t64 -27q37 0 64 27.5t27 66.5q0 40 -27 68t-64 28t-63.5 -28t-26.5 -68 z" />
<glyph unicode="&#xe6;" horiz-adv-x="1988" d="M82 518q0 230 138 384.5t345 154.5q92 0 164 -29t137 -92v98h178v-135q11 12 22.5 23t21.5 20.5t14 13.5q119 107 313 107q116 0 225 -47q98 -43 161.5 -110t142.5 -212l-785 -403q35 -40 58 -58q43 -40 102 -64t117 -24q72 0 145 37q49 24 79.5 51t70.5 84l153 -90 q-50 -71 -65 -90q-70 -78 -178.5 -124t-221.5 -46q-109 0 -193.5 36t-181.5 124v-127h-180v100q-29 -29 -39 -37q-47 -40 -125.5 -65t-152.5 -25q-201 0 -333 154.5t-132 390.5zM315 518q0 -160 83 -258t218 -98q110 0 176.5 58t75.5 161q6 85 6 184q0 93 -8 131t-35 76 q-35 52 -93.5 81.5t-127.5 29.5q-130 0 -212.5 -102t-82.5 -263zM1069 555q0 -45 14 -111l607 314q-35 49 -63.5 71t-78.5 41q-79 23 -127 23q-142 0 -247 -100.5t-105 -237.5z" />
<glyph unicode="&#xe7;" horiz-adv-x="1005" d="M82 512q0 113 43.5 215.5t117.5 176.5t176.5 117.5t215.5 43.5q82 0 147 -18t172 -70l-69 -176q-30 21 -54 28q-84 48 -176 48q-142 0 -243 -105.5t-101 -253.5q0 -149 106 -254.5t255 -105.5q52 0 97.5 13.5t115.5 49.5l67 -162q-108 -54 -173 -73t-148 -19 q-149 0 -275.5 73t-200 198.5t-73.5 273.5zM360 -354l183 299l145 -29l-213 -291z" />
<glyph unicode="&#xe8;" horiz-adv-x="1191" d="M82 514q0 113 42.5 214t115.5 173.5t174.5 115t214.5 42.5q211 0 364 -135q53 -46 83.5 -92t70.5 -138l-774 -397q24 -30 45 -51q106 -103 233 -103q60 0 137 31q43 21 73.5 49.5t82.5 93.5l154 -98q-37 -51 -80 -98q-70 -71 -172 -112.5t-211 -41.5q-153 0 -280 72 t-200 198t-73 277zM289 551q0 -42 14 -105l596 308q-37 51 -64.5 73t-78.5 41q-67 23 -123 23q-135 0 -239.5 -103.5t-104.5 -236.5zM393 1380l137 95l304 -275l-105 -74z" />
<glyph unicode="&#xe9;" horiz-adv-x="1191" d="M82 514q0 113 42.5 214t115.5 173.5t174.5 115t214.5 42.5q211 0 364 -135q53 -46 83.5 -92t70.5 -138l-774 -397q24 -30 45 -51q106 -103 233 -103q60 0 137 31q43 21 73.5 49.5t82.5 93.5l154 -98q-37 -51 -80 -98q-70 -71 -172 -112.5t-211 -41.5q-153 0 -280 72 t-200 198t-73 277zM289 551q0 -42 14 -105l596 308q-37 51 -64.5 73t-78.5 41q-67 23 -123 23q-135 0 -239.5 -103.5t-104.5 -236.5zM457 1196l303 277l137 -99l-342 -250z" />
<glyph unicode="&#xea;" horiz-adv-x="1191" d="M82 514q0 113 42.5 214t115.5 173.5t174.5 115t214.5 42.5q211 0 364 -135q53 -46 83.5 -92t70.5 -138l-774 -397q24 -30 45 -51q106 -103 233 -103q60 0 137 31q43 21 73.5 49.5t82.5 93.5l154 -98q-37 -51 -80 -98q-70 -71 -172 -112.5t-211 -41.5q-153 0 -280 72 t-200 198t-73 277zM250 1229l344 241l348 -241l-49 -107l-299 162l-295 -162zM289 551q0 -42 14 -105l596 308q-37 51 -64.5 73t-78.5 41q-67 23 -123 23q-135 0 -239.5 -103.5t-104.5 -236.5z" />
<glyph unicode="&#xeb;" horiz-adv-x="1191" d="M82 514q0 113 42.5 214t115.5 173.5t174.5 115t214.5 42.5q211 0 364 -135q53 -46 83.5 -92t70.5 -138l-774 -397q24 -30 45 -51q106 -103 233 -103q60 0 137 31q43 21 73.5 49.5t82.5 93.5l154 -98q-37 -51 -80 -98q-70 -71 -172 -112.5t-211 -41.5q-153 0 -280 72 t-200 198t-73 277zM289 551q0 -42 14 -105l596 308q-37 51 -64.5 73t-78.5 41q-67 23 -123 23q-135 0 -239.5 -103.5t-104.5 -236.5zM303 1237q0 50 31.5 84.5t77.5 34.5q47 0 80.5 -35t33.5 -86q0 -45 -32 -77t-78 -32t-78.5 33t-34.5 78zM664 1235q0 51 33.5 86t80.5 35 q44 0 76.5 -35t32.5 -82q0 -46 -33.5 -79.5t-79.5 -33.5q-44 0 -76 32t-34 77z" />
<glyph unicode="&#xec;" horiz-adv-x="507" d="M51 1380l137 95l304 -275l-105 -74zM141 0v965l226 102v-1067h-226z" />
<glyph unicode="&#xed;" horiz-adv-x="507" d="M115 1196l303 277l137 -99l-342 -250zM141 0v965l226 102v-1067h-226z" />
<glyph unicode="&#xee;" horiz-adv-x="507" d="M-92 1229l344 241l348 -241l-49 -107l-299 162l-295 -162zM141 0v965l226 102v-1067h-226z" />
<glyph unicode="&#xef;" horiz-adv-x="507" d="M-37 1237q0 50 31.5 84.5t77.5 34.5q47 0 80.5 -35t33.5 -86q0 -45 -32 -77t-78 -32t-78.5 33t-34.5 78zM141 0v965l226 102v-1067h-226zM324 1235q0 51 33.5 86t80.5 35q44 0 76.5 -35t32.5 -82q0 -46 -33.5 -79.5t-79.5 -33.5q-44 0 -76 32t-34 77z" />
<glyph unicode="&#xf1;" horiz-adv-x="1230" d="M141 0v967l213 102l2 -174q33 38 62 63q53 46 128 72.5t156 26.5q85 0 161 -28t130 -79q97 -84 97 -260v-690h-222v629q0 114 -45 164q-29 35 -80.5 55t-109.5 20q-118 0 -194.5 -75t-76.5 -191v-602h-221zM328 1147v141q79 25 137 25q51 0 92 -10q9 -1 70 -17 q69 -14 112 -14q51 0 84.5 8t79.5 31v-142q-92 -28 -153 -28q-45 0 -138 18q-97 23 -145 23q-63 0 -139 -35z" />
<glyph unicode="&#xf2;" horiz-adv-x="1280" d="M82 512q0 112 44.5 214t119.5 175.5t179 117.5t218 44q150 0 278 -74.5t202.5 -201.5t74.5 -275q0 -112 -44 -214t-119 -175.5t-178.5 -117.5t-217.5 -44q-150 0 -278.5 74t-203.5 201t-75 276zM303 510q0 -155 95 -256.5t241 -101.5q145 0 242.5 102.5t97.5 257.5 q0 152 -97.5 255t-242.5 103q-144 0 -240 -103t-96 -257zM436 1380l137 95l304 -275l-105 -74z" />
<glyph unicode="&#xf3;" horiz-adv-x="1280" d="M82 512q0 112 44.5 214t119.5 175.5t179 117.5t218 44q150 0 278 -74.5t202.5 -201.5t74.5 -275q0 -112 -44 -214t-119 -175.5t-178.5 -117.5t-217.5 -44q-150 0 -278.5 74t-203.5 201t-75 276zM303 510q0 -155 95 -256.5t241 -101.5q145 0 242.5 102.5t97.5 257.5 q0 152 -97.5 255t-242.5 103q-144 0 -240 -103t-96 -257zM502 1196l303 277l137 -99l-342 -250z" />
<glyph unicode="&#xf4;" horiz-adv-x="1280" d="M82 512q0 112 44.5 214t119.5 175.5t179 117.5t218 44q150 0 278 -74.5t202.5 -201.5t74.5 -275q0 -112 -44 -214t-119 -175.5t-178.5 -117.5t-217.5 -44q-150 0 -278.5 74t-203.5 201t-75 276zM293 1229l344 241l348 -241l-49 -107l-299 162l-295 -162zM303 510 q0 -155 95 -256.5t241 -101.5q145 0 242.5 102.5t97.5 257.5q0 152 -97.5 255t-242.5 103q-144 0 -240 -103t-96 -257z" />
<glyph unicode="&#xf5;" horiz-adv-x="1280" d="M82 512q0 112 44.5 214t119.5 175.5t179 117.5t218 44q150 0 278 -74.5t202.5 -201.5t74.5 -275q0 -112 -44 -214t-119 -175.5t-178.5 -117.5t-217.5 -44q-150 0 -278.5 74t-203.5 201t-75 276zM303 510q0 -155 95 -256.5t241 -101.5q145 0 242.5 102.5t97.5 257.5 q0 152 -97.5 255t-242.5 103q-144 0 -240 -103t-96 -257zM352 1147v141q79 25 137 25q52 0 93 -10q7 -1 69 -17q69 -14 113 -14q51 0 84.5 8t79.5 31v-142q-92 -28 -154 -28q-44 0 -137 18q-97 23 -145 23q-64 0 -140 -35z" />
<glyph unicode="&#xf6;" horiz-adv-x="1280" d="M82 512q0 112 44.5 214t119.5 175.5t179 117.5t218 44q150 0 278 -74.5t202.5 -201.5t74.5 -275q0 -112 -44 -214t-119 -175.5t-178.5 -117.5t-217.5 -44q-150 0 -278.5 74t-203.5 201t-75 276zM303 510q0 -155 95 -256.5t241 -101.5q145 0 242.5 102.5t97.5 257.5 q0 152 -97.5 255t-242.5 103q-144 0 -240 -103t-96 -257zM354 1249q0 49 32 84t77 35q47 0 81 -35t34 -84q0 -46 -33 -78t-78 -32t-78.5 31.5t-34.5 78.5zM715 1249q0 49 33.5 84t80.5 35q45 0 76 -34.5t31 -82.5q0 -46 -32 -79t-79 -33q-45 0 -77.5 31.5t-32.5 78.5z" />
<glyph unicode="&#xf7;" horiz-adv-x="1216" d="M88 414v139h948v-139h-948zM446 207q0 49 33 82q38 35 84 35q49 0 82 -33t33 -84q0 -50 -35 -82q-30 -35 -80 -35q-49 0 -84 35q-33 38 -33 82zM446 758q0 49 33 82q34 31 84 34q50 0 80 -34q35 -35 35 -82q0 -50 -35 -82q-30 -35 -80 -35q-49 0 -84 35q-33 33 -33 82z " />
<glyph unicode="&#xf8;" horiz-adv-x="1284" d="M80 549q0 94 43.5 185.5t122.5 164.5q86 80 180 123t182 43q138 0 391 -139l111 116l68 -55l-117 -121q143 -246 143 -395q0 -93 -43.5 -183.5t-122.5 -162.5q-89 -80 -183 -124t-181 -44q-133 0 -381 127l-113 -115l-63 64l108 108q-145 256 -145 408zM303 539 q0 -99 70 -248l479 500q-148 77 -231 77q-125 0 -221.5 -100t-96.5 -229zM432 223q136 -71 227 -71q123 0 222.5 102.5t99.5 228.5q0 92 -70 244z" />
<glyph unicode="&#xf9;" horiz-adv-x="1222" d="M141 356v678h221v-649q0 -231 248 -231t248 231v649h223v-678q0 -192 -119.5 -291.5t-351.5 -99.5q-230 0 -349.5 99.5t-119.5 291.5zM408 1380l137 95l303 -275l-105 -74z" />
<glyph unicode="&#xfa;" horiz-adv-x="1222" d="M141 356v678h221v-649q0 -231 248 -231t248 231v649h223v-678q0 -192 -119.5 -291.5t-351.5 -99.5q-230 0 -349.5 99.5t-119.5 291.5zM473 1196l303 277l137 -99l-342 -250z" />
<glyph unicode="&#xfb;" horiz-adv-x="1222" d="M141 356v678h221v-649q0 -231 248 -231t248 231v649h223v-678q0 -192 -119.5 -291.5t-351.5 -99.5q-230 0 -349.5 99.5t-119.5 291.5zM264 1229l344 241l348 -241l-49 -107l-299 162l-295 -162z" />
<glyph unicode="&#xfc;" horiz-adv-x="1228" d="M141 356v678h226v-649q0 -114 63 -172.5t186 -58.5q121 0 184.5 59t63.5 172v649h226v-678q0 -192 -121 -291.5t-353 -99.5q-234 0 -354.5 99.5t-120.5 291.5zM319 1245q0 48 32 82.5t77 34.5q48 0 81.5 -35t33.5 -86q0 -44 -32.5 -75t-78.5 -31t-78.5 32t-34.5 78z M680 1241q0 51 33.5 86t81.5 35q44 0 76 -34.5t32 -80.5q0 -47 -33 -79.5t-79 -32.5q-44 0 -77 31t-34 75z" />
<glyph unicode="&#xff;" horiz-adv-x="995" d="M-39 1034h240l266 -690q20 -54 29 -156q14 75 14 76q6 52 16 80l281 690h246l-596 -1405h-254l178 387zM205 1237q0 50 31 84.5t77 34.5q48 0 81.5 -35t33.5 -86q0 -44 -32.5 -76.5t-78.5 -32.5t-78 33t-34 78zM565 1235q0 51 33.5 86t81.5 35q44 0 76 -35t32 -82 q0 -46 -33 -79.5t-79 -33.5q-44 0 -76.5 32.5t-34.5 76.5z" />
<glyph unicode="&#x152;" horiz-adv-x="1939" d="M82 735q0 154 60 294t162.5 241t244 161t297.5 60q61 0 143 -10q70 -6 107 -6h16l74 2h692l-53 -197h-561v-432h522v-191h-520v-460h616l-55 -197h-631h-82q-43 0 -55 -2q-1 0 -8 -1l-24.5 -3.5t-35.5 -5.5q-54 -11 -127 -11q-164 0 -309 58.5t-249 159t-164 241 t-60 299.5zM326 729q0 -109 43.5 -209t117 -172t175 -115t212.5 -43q106 0 132 29q14 20 14 88v877q0 35 -3.5 46.5t-15.5 20.5q-45 29 -149 29q-145 0 -266 -73t-190.5 -200t-69.5 -278z" />
<glyph unicode="&#x153;" horiz-adv-x="2093" d="M82 512q0 152 74 278.5t203 199.5t284 73q112 0 213 -43q75 -31 121.5 -71.5t107.5 -129.5q37 52 59 76.5t54 52.5q136 111 330 111q124 0 246 -58q89 -43 146.5 -105t127.5 -194l-784 -405q33 -42 39 -47q44 -46 105.5 -72t127.5 -26q81 0 154 36q51 23 78.5 48.5 t64.5 82.5l160 -94q-19 -26 -66 -86q-70 -79 -177 -124.5t-224 -45.5q-121 0 -221 47q-76 33 -119 70t-101 121q-46 -65 -75 -94q-65 -68 -167.5 -108t-211.5 -40q-152 0 -278 72t-198.5 197.5t-72.5 277.5zM293 512q0 -151 98.5 -252.5t243.5 -101.5q151 0 246.5 99 t95.5 257q0 161 -91.5 257.5t-242.5 96.5q-152 0 -251 -101t-99 -255zM1176 553q0 -31 10 -109l616 318q-42 48 -71.5 70t-79.5 40q-79 23 -131 23q-137 0 -240.5 -103t-103.5 -239z" />
<glyph unicode="&#x178;" horiz-adv-x="1110" d="M-59 1477h282l301 -557q10 -17 14.5 -39t12.5 -90q5 81 29 131l311 555h276l-493 -826v-651h-242v651zM262 1718q0 50 31.5 84.5t77.5 34.5q47 0 80.5 -35t33.5 -86q0 -44 -32 -76t-78 -32q-47 0 -79 32.5t-34 77.5zM623 1716q0 51 33.5 86t80.5 35q44 0 76.5 -35 t32.5 -82q0 -46 -33.5 -79t-79.5 -33q-44 0 -76 32t-34 76z" />
<glyph unicode="&#x2c6;" horiz-adv-x="462" d="M-115 1229l344 241l349 -241l-50 -107l-299 162l-295 -162z" />
<glyph unicode="&#x2dc;" horiz-adv-x="346" d="M-115 1147v141q79 25 138 25q51 0 92 -10q7 -1 69 -17q69 -14 113 -14q51 0 84.5 8t79.5 31v-142q-92 -28 -154 -28q-44 0 -137 18q-97 23 -145 23q-64 0 -140 -35z" />
<glyph unicode="&#x2000;" horiz-adv-x="978" />
<glyph unicode="&#x2001;" horiz-adv-x="1956" />
<glyph unicode="&#x2002;" horiz-adv-x="978" />
<glyph unicode="&#x2003;" horiz-adv-x="1956" />
<glyph unicode="&#x2004;" horiz-adv-x="652" />
<glyph unicode="&#x2005;" horiz-adv-x="489" />
<glyph unicode="&#x2006;" horiz-adv-x="326" />
<glyph unicode="&#x2007;" horiz-adv-x="326" />
<glyph unicode="&#x2008;" horiz-adv-x="244" />
<glyph unicode="&#x2009;" horiz-adv-x="391" />
<glyph unicode="&#x200a;" horiz-adv-x="108" />
<glyph unicode="&#x2010;" horiz-adv-x="616" d="M45 502v188h526v-188h-526z" />
<glyph unicode="&#x2011;" horiz-adv-x="616" d="M45 502v188h526v-188h-526z" />
<glyph unicode="&#x2012;" horiz-adv-x="616" d="M45 502v188h526v-188h-526z" />
<glyph unicode="&#x2013;" d="M195 666v170h913v-170h-913z" />
<glyph unicode="&#x2014;" horiz-adv-x="2039" d="M61 678v151h1917v-151h-1917z" />
<glyph unicode="&#x2018;" horiz-adv-x="407" d="M45 1094q0 72 31 135q31 67 69.5 121t122.5 145l94 -53q-62 -74 -86 -112.5t-59 -119.5q121 -21 121 -133q0 -57 -44 -103t-101 -46q-66 0 -107 46t-41 120z" />
<glyph unicode="&#x2019;" horiz-adv-x="407" d="M45 981q60 71 84 108.5t61 120.5q-124 24 -124 133q0 58 46 105t103 47q65 0 106 -46.5t41 -119.5q0 -67 -30 -135q-30 -67 -69.5 -120.5t-125.5 -145.5z" />
<glyph unicode="&#x201a;" horiz-adv-x="397" d="M33 -246q60 71 84.5 110t62.5 120q-125 24 -125 133q0 58 46 104.5t102 46.5q67 0 108 -46.5t41 -119.5q0 -60 -30 -135q-32 -68 -71.5 -122t-123.5 -144z" />
<glyph unicode="&#x201c;" horiz-adv-x="776" d="M45 1094q0 72 31 135q31 67 69.5 121t122.5 145l94 -53q-62 -74 -86 -112.5t-59 -119.5q121 -21 121 -133q0 -57 -44 -103t-101 -46q-66 0 -107 46t-41 120zM414 1096q0 55 30 133q32 67 71.5 120.5t123.5 145.5l94 -53q-62 -74 -86 -112t-61 -120q123 -21 123 -133 q0 -57 -45 -103t-101 -46q-67 0 -108 46.5t-41 121.5z" />
<glyph unicode="&#x201d;" horiz-adv-x="776" d="M45 981q60 71 84 108.5t61 120.5q-124 24 -124 133q0 58 46 105t103 47q65 0 106 -46.5t41 -119.5q0 -67 -30 -135q-30 -67 -69.5 -120.5t-125.5 -145.5zM414 981q60 71 84.5 109.5t62.5 119.5q-123 24 -123 133q0 57 45.5 104.5t100.5 47.5q67 0 108 -46.5t41 -119.5 q0 -57 -31 -135q-33 -70 -71.5 -124t-120.5 -142z" />
<glyph unicode="&#x201e;" horiz-adv-x="765" d="M33 -246q60 71 84.5 110t62.5 120q-125 24 -125 133q0 58 46 104.5t102 46.5q67 0 108 -46.5t41 -119.5q0 -60 -30 -135q-32 -68 -71.5 -122t-123.5 -144zM403 -246q59 71 83 109.5t63 120.5q-121 24 -121 133q0 58 44.5 104.5t100.5 46.5q66 0 107 -47t41 -119 q0 -65 -31 -135q-31 -69 -69.5 -122.5t-122.5 -143.5z" />
<glyph unicode="&#x2022;" horiz-adv-x="438" d="M74 608q0 60 41.5 104t101.5 44q61 0 104.5 -44t43.5 -104t-43 -101.5t-105 -41.5q-60 0 -101.5 41.5t-41.5 101.5z" />
<glyph unicode="&#x2026;" horiz-adv-x="2039" d="M213 109q0 54 37.5 91.5t91.5 37.5t91.5 -37.5t37.5 -91.5t-37.5 -91.5t-91.5 -37.5t-91.5 37.5t-37.5 91.5zM895 109q0 54 37.5 91.5t91.5 37.5t91.5 -37.5t37.5 -91.5t-37.5 -91.5t-91.5 -37.5t-91.5 37.5t-37.5 91.5zM1577 109q0 54 37.5 91.5t91.5 37.5t91.5 -37.5 t37.5 -91.5t-37.5 -91.5t-91.5 -37.5t-91.5 37.5t-37.5 91.5z" />
<glyph unicode="&#x202f;" horiz-adv-x="391" />
<glyph unicode="&#x2039;" horiz-adv-x="636" d="M45 508l434 475l115 -113l-326 -366l324 -359l-121 -112z" />
<glyph unicode="&#x203a;" horiz-adv-x="630" d="M45 147l322 361l-322 362l117 111l424 -473l-424 -473z" />
<glyph unicode="&#x205f;" horiz-adv-x="489" />
<glyph unicode="&#x2122;" horiz-adv-x="1613" d="M96 1372v103h445v-103h-166v-635h-115v635h-164zM516 737l141 756h62l205 -467q29 -67 32 -129q3 68 33 129l205 467h61l142 -756h-115l-74 430l-4 23l-2 18q-3 39 2 72q-1 -2 -20 -72l-10 -26l-3 -11l-194 -450h-41l-195 450l-4 15l-8 24q-13 35 -20 70q5 -33 2 -72 l-2 -18l-4 -23l-74 -430h-115z" />
<glyph unicode="&#x25fc;" horiz-adv-x="1034" d="M0 0v1034h1034v-1034h-1034z" />
<glyph unicode="&#xfb01;" d="M262 496l254 252l-252 256l135 135l254 -258l252 254l135 -136l-249 -254l249 -249l-135 -136l-250 250l-254 -254z" />
<glyph unicode="&#xfb02;" horiz-adv-x="440" d="M-10 1266l65 211h324v-1477h-240v1266h-149z" />
</font>
</defs>
</svg>
