<?xml version="1.0" standalone="no"?>
<!DOCTYPE svg PUBLIC "-//W3C//DTD SVG 1.1//EN" "http://www.w3.org/Graphics/SVG/1.1/DTD/svg11.dtd" >
<svg xmlns="http://www.w3.org/2000/svg" xmlns:xlink="http://www.w3.org/1999/xlink" version="1.1">
<metadata></metadata>
<defs>
<font id="ornitons-lightregular" horiz-adv-x="1265" >
<font-face units-per-em="2048" ascent="1638" descent="-410" />
<missing-glyph horiz-adv-x="593" />
<glyph horiz-adv-x="0" />
<glyph horiz-adv-x="682" />
<glyph unicode=" " horiz-adv-x="593" d="M0 0z" />
<glyph unicode="!" horiz-adv-x="509" d="M129 111q0 53 36 90t87 37q54 0 91.5 -37t37.5 -90q0 -54 -37.5 -90.5t-91.5 -36.5q-51 0 -87 36.5t-36 90.5zM154 1477h208l-38 -1123h-129z" />
<glyph unicode="&#x22;" horiz-adv-x="710" d="M45 1014q59 72 81.5 110.5t57.5 122.5q-112 12 -112 113v8q4 54 40.5 89.5t86.5 35.5q59 0 95 -40t36 -107q0 -58 -31 -125q-33 -68 -68.5 -116.5t-111.5 -133.5zM383 1014q60 74 83.5 113t55.5 120q-112 12 -112 113v8q4 54 41 89.5t88 35.5q58 0 92.5 -39.5 t34.5 -107.5q0 -63 -29 -125q-32 -69 -68.5 -120t-109.5 -130z" />
<glyph unicode="#" horiz-adv-x="1294" d="M109 475l18 86h235l74 352h-235l18 86h236l92 439h86l-92 -439h227l92 439h86l-92 -439h236l-19 -86h-235l-76 -352h237l-18 -86h-236l-92 -438h-86l92 438h-227l-92 -438h-86l92 438h-235zM449 561h225l76 352h-228z" />
<glyph unicode="$" horiz-adv-x="1060" d="M43 164l104 139q78 -68 129 -100q44 -30 85 -42.5t118 -21.5v547q-114 33 -163.5 52t-90.5 48q-65 46 -102 123t-37 166q0 187 147 316q59 51 107.5 69.5t142.5 24.5v155h103l-2 -153q107 0 158.5 -13.5t158.5 -68.5l-57 -145q-50 28 -107 49q-81 25 -86 26q-32 4 -67 4 v-499q115 -31 164 -49t94 -46q69 -43 108 -121t39 -175q0 -100 -41 -190t-119 -157q-54 -48 -103 -70t-148 -44v-181h-107v170q-151 17 -227 50.5t-201 136.5zM281 1094q0 -162 200 -224v461q-91 -32 -145.5 -97t-54.5 -140zM580 154q106 29 160.5 97t54.5 169 q0 56 -21 107.5t-55 76.5q-18 16 -92 41l-47 14v-505z" />
<glyph unicode="%" horiz-adv-x="1601" d="M59 1116q0 154 109 262.5t264 108.5q154 0 262.5 -108.5t108.5 -262.5t-108.5 -262.5t-262.5 -108.5q-155 0 -264 108.5t-109 262.5zM195 1116q0 -104 69.5 -179t167.5 -75t167 74.5t69 179.5t-69 179.5t-167 74.5t-167.5 -74t-69.5 -180zM211 0l1057 1477h123 l-1055 -1477h-125zM801 354q0 152 108 259.5t262 107.5t261.5 -107.5t107.5 -259.5t-107.5 -259t-261.5 -107t-262 107t-108 259zM932 354q0 -105 70 -179.5t169 -74.5t169.5 74.5t70.5 179.5t-70.5 179.5t-169.5 74.5t-169 -74.5t-70 -179.5z" />
<glyph unicode="&#x26;" horiz-adv-x="1370" d="M59 410q0 96 44.5 179t125.5 138q54 37 162 76q-77 72 -124.5 166.5t-47.5 175.5q0 149 118.5 249.5t293.5 100.5q174 0 287.5 -101t113.5 -255q0 -169 -139 -275q-47 -36 -95.5 -62t-142.5 -63q99 -116 135 -157.5t93.5 -103.5t142.5 -148q67 61 96.5 96.5t79.5 114.5 l115 -131q-54 -72 -83.5 -105t-94.5 -90q68 -76 105.5 -112t115.5 -103h-256l-109 106q-62 -40 -106 -59q-72 -34 -159 -54t-161 -20q-215 0 -362.5 127t-147.5 310zM244 432q0 -130 98.5 -218.5t241.5 -88.5q55 0 133 16q50 13 83 29t91 53l-408 461q-96 -37 -137 -66 q-102 -74 -102 -186zM399 1159q0 -58 33 -121t125 -182q94 37 141 62t84 59q42 39 60 82q20 45 20 98q0 91 -64 148t-165 57q-103 0 -168.5 -56.5t-65.5 -146.5z" />
<glyph unicode="'" horiz-adv-x="372" d="M45 1014q59 72 81.5 110.5t57.5 122.5q-112 12 -112 113v8q4 54 40.5 89.5t86.5 35.5q59 0 95 -40t36 -107q0 -58 -31 -125q-33 -68 -68.5 -116.5t-111.5 -133.5z" />
<glyph unicode="(" horiz-adv-x="579" d="M86 717q0 263 76 445.5t305 471.5l100 -112q-184 -246 -249.5 -404t-65.5 -358q0 -235 61.5 -392.5t253.5 -412.5l-100 -113q-222 279 -301.5 461.5t-79.5 413.5z" />
<glyph unicode=")" horiz-adv-x="579" d="M12 -47q185 248 251.5 407.5t66.5 356.5q0 233 -62 390t-256 415l99 112q223 -280 303 -462t80 -412q0 -181 -33 -313.5t-112.5 -269.5t-237.5 -335z" />
<glyph unicode="*" horiz-adv-x="694" d="M37 1032q0 34 29 57t73 23h15l43 -4h10q65 0 65 45q0 47 -65 47q-2 0 -5.5 -1t-4.5 -1l-43 -2q-6 -2 -15 -2q-44 0 -73 22.5t-29 57.5t25 60.5t59 25.5q27 0 51 -14.5t37 -40.5l20 -41q10 -21 28 -36.5t32 -15.5t24.5 13.5t10.5 31.5q0 25 -21 58l-22 41q-19 34 -19 59 q0 35 24 56.5t64 21.5q36 0 60 -22.5t24 -55.5q0 -29 -20 -59l-25 -41q-16 -33 -16 -58q0 -19 10 -32t25 -13q14 0 31 15.5t26 36.5l22 41q12 25 36 40t50 15q35 0 58.5 -25t23.5 -61t-27.5 -58t-72.5 -22q-8 0 -12 2l-45 2q-1 0 -5 1t-6 1q-65 0 -65 -47q0 -45 65 -45h11 l45 4h12q45 0 72.5 -23t27.5 -57q0 -36 -23.5 -61t-58.5 -25q-26 0 -50 15.5t-36 42.5l-22 38q-9 20 -26 35t-31 15q-35 0 -35 -45q0 -25 16 -56l25 -39q20 -33 20 -59q0 -35 -24 -56.5t-64 -21.5q-37 0 -60.5 21.5t-23.5 56.5q0 15 19 59l22 39q21 33 21 58 q0 18 -10.5 30.5t-24.5 12.5t-32 -14.5t-28 -35.5l-20 -38q-31 -58 -88 -58q-34 0 -59 25.5t-25 60.5z" />
<glyph unicode="+" d="M190 659v156h367v363h158v-361h360v-158h-360v-364h-160v364h-365z" />
<glyph unicode="," horiz-adv-x="358" d="M31 -244q60 73 83.5 112.5t55.5 121.5q-113 12 -113 112v9q5 53 41.5 89t87.5 36q58 0 94.5 -41.5t36.5 -106.5q0 -56 -32 -125q-31 -69 -67 -119.5t-112 -132.5z" />
<glyph unicode="-" horiz-adv-x="604" d="M45 520v164h516v-164h-516z" />
<glyph unicode="." horiz-adv-x="344" d="M45 111q0 53 36 90t87 37q55 0 93 -37t38 -90q0 -54 -37.5 -90.5t-93.5 -36.5q-51 0 -87 36.5t-36 90.5z" />
<glyph unicode="/" horiz-adv-x="608" d="M57 0l363 1483l131 -6l-365 -1483z" />
<glyph unicode="0" d="M74 737q0 219 71.5 395t199.5 275.5t288 99.5q161 0 289.5 -99.5t201 -275.5t72.5 -395q0 -218 -72.5 -394t-201 -275t-289.5 -99q-120 0 -224 58t-177.5 159.5t-115.5 244.5t-42 306zM262 737q0 -176 47 -315t132 -217t192 -78t192.5 78t133 217t47.5 315t-47.5 315.5 t-133 217.5t-192.5 78t-192 -78t-132 -217.5t-47 -315.5z" />
<glyph unicode="1" d="M430 1307l53 170h279v-1477h-191v1307h-141z" />
<glyph unicode="2" d="M90 0q186 182 318 326q169 186 272 317q88 112 128.5 177t63.5 132q29 79 29 152q0 109 -64.5 175.5t-168.5 66.5q-59 0 -110 -23t-85 -66q-29 -37 -42.5 -77.5t-20.5 -118.5h-187q13 119 36.5 181.5t76.5 121.5q122 131 330 131q189 0 304 -108.5t115 -286.5 q0 -188 -163 -408q-26 -34 -83 -102.5t-73 -87.5q-127 -151 -305 -334h637l-51 -168h-957z" />
<glyph unicode="3" d="M147 459h181q5 -99 23 -152t65 -98q42 -42 101.5 -67t121.5 -25q127 0 210 88.5t83 222.5q0 142 -94 222.5t-260 80.5h-56v143q113 2 180 27q74 33 118 96t44 140q0 98 -69.5 161.5t-178.5 63.5q-64 0 -116 -27q-51 -25 -74 -59q-26 -30 -39 -61.5t-25 -92.5h-176 q12 98 34 149.5t73 102.5q125 131 328 131q186 0 307 -100.5t121 -255.5q0 -90 -39 -158q-28 -53 -76 -94q-31 -27 -64.5 -43.5t-97.5 -36.5q79 -12 121 -29t88 -55q137 -116 137 -303q0 -196 -136 -328.5t-335 -132.5q-101 0 -197 34.5t-167 96.5q-69 61 -98 138.5 t-38 220.5z" />
<glyph unicode="4" d="M98 377v149l641 951h224v-955h133v-145h-133v-377h-189v377h-676zM291 524h483v682q0 26 19 131q-6 -13 -16 -29.5t-11 -19.5q-34 -70 -37 -78z" />
<glyph unicode="5" d="M129 115l66 153q77 -53 104 -69q123 -74 256 -74q160 0 261.5 87.5t101.5 225.5q0 142 -108 227t-288 85q-58 0 -111.5 -9t-170.5 -39l92 775h704l-47 -168h-510l-53 -453q96 21 176 21q225 0 362.5 -119.5t137.5 -315.5q0 -204 -152.5 -338.5t-382.5 -134.5 q-95 0 -190 27q-68 18 -115.5 41t-132.5 78z" />
<glyph unicode="6" d="M100 481q0 186 140 381q57 77 139.5 178t142.5 166l254 271h234l-170 -174q-150 -153 -336 -373q120 28 207 28q113 0 212.5 -64.5t159.5 -173.5t60 -233q0 -141 -69 -257.5t-188 -183t-263 -66.5q-108 0 -205 39t-166.5 106t-110.5 159.5t-41 196.5zM276 473 q0 -137 102.5 -235.5t244.5 -98.5t242 104t100 251q0 138 -101.5 234.5t-247.5 96.5q-140 0 -240 -103t-100 -249z" />
<glyph unicode="7" d="M131 1309l55 168h981l-809 -1477h-217l703 1260q8 18 23.5 33.5t52.5 45.5q-80 -30 -105 -30h-684z" />
<glyph unicode="8" d="M143 430q0 102 47 188q40 76 90 115.5t156 77.5q-61 21 -106 53q-50 34 -81.5 104t-31.5 146q0 161 121.5 273t294.5 112q177 0 296.5 -111.5t119.5 -275.5q0 -87 -33 -154q-26 -55 -65 -85.5t-120 -61.5q74 -25 136 -57q69 -44 112 -133t43 -187q0 -195 -140 -326 t-349 -131q-207 0 -348.5 130.5t-141.5 322.5zM330 440q0 -129 88.5 -218t214.5 -89t214.5 89t88.5 216q0 128 -86 214.5t-213 86.5q-131 0 -219 -86t-88 -213zM391 1112q0 -103 69.5 -172.5t172.5 -69.5t172 69.5t69 172.5q0 100 -70 171t-169 71q-103 0 -173.5 -70.5 t-70.5 -171.5z" />
<glyph unicode="9" d="M125 985q0 212 151.5 357t372.5 145q140 0 260 -66.5t190 -180.5t70 -249q0 -181 -143 -385q-123 -163 -278 -332l-248 -274h-242l168 172q161 168 340 375q-130 -37 -215 -37q-109 0 -208 66t-158.5 176.5t-59.5 232.5zM301 973q0 -137 103 -233.5t249 -96.5 q140 0 239 102t99 246q0 140 -101 239t-243 99q-143 0 -244.5 -104.5t-101.5 -251.5z" />
<glyph unicode=":" horiz-adv-x="403" d="M74 924q0 52 37 88.5t90 36.5q54 0 91.5 -36.5t37.5 -88.5t-37 -89.5t-90 -37.5t-91 37.5t-38 89.5zM78 111q0 53 36 90t87 37q54 0 91.5 -37t37.5 -90q0 -54 -37.5 -90.5t-91.5 -36.5q-51 0 -87 36.5t-36 90.5z" />
<glyph unicode=";" horiz-adv-x="432" d="M74 -242q58 72 81 111t58 123q-113 12 -113 112v9q5 53 41.5 89t85.5 36q59 0 95 -41.5t36 -106.5q0 -64 -30 -125q-32 -69 -68 -118.5t-113 -131.5zM100 924q0 51 37 88t88 37q52 0 89.5 -37t37.5 -88q0 -52 -37 -88.5t-88 -36.5q-53 0 -90 36.5t-37 88.5z" />
<glyph unicode="&#x3c;" horiz-adv-x="604" d="M45 504l416 471l100 -96l-332 -375l328 -369l-100 -96z" />
<glyph unicode="=" d="M188 551v139h889v-139h-889zM190 786v138h887v-138h-887z" />
<glyph unicode="&#x3e;" horiz-adv-x="598" d="M45 137l326 367l-326 375l98 94l410 -469l-408 -461z" />
<glyph unicode="?" horiz-adv-x="763" d="M-16 1380q18 9 46.5 26t39.5 21q132 74 268 74q160 0 264.5 -98.5t104.5 -249.5q0 -66 -24.5 -135t-66.5 -121l-90 -115q-57 -74 -82 -110q-41 -60 -54 -93t-13 -77q0 -54 20 -152h-135q-29 129 -29 187q0 61 19 106t80 129q111 152 155 229q43 72 43 142q0 97 -62 159 t-157 62q-55 0 -96 -16q-46 -14 -84 -39t-96 -80zM199 111q0 53 36.5 90t88.5 37q53 0 91 -37.5t38 -89.5q0 -53 -38 -90t-91 -37t-89 36.5t-36 90.5z" />
<glyph unicode="@" horiz-adv-x="1708" d="M123 643q-17 154 20.5 298.5t124.5 262.5q94 128 224 205t272 92q164 18 305.5 -32.5t236.5 -152t137.5 -252t16.5 -323.5q-31 -195 -124.5 -312.5t-207.5 -133.5q-90 -13 -151.5 42t-52.5 136q-11 -41 -41 -74q-117 -132 -271 -61q-76 35 -117 127.5t-32 234.5 q4 48 8 74q20 129 72.5 228t124.5 153q102 72 193 55t138 -110q11 -21 11 -23l18 127l98 -2l-79 -446l-29 -185q-9 -77 6 -129q10 -38 46 -56.5t73 -4.5q30 11 56 32.5t65 69.5q76 90 102 277q21 157 -17.5 289.5t-121 218.5t-204.5 125t-263 18q-106 -16 -201 -70.5 t-164 -137t-114.5 -189t-52 -226.5t23.5 -249q27 -105 80 -192.5t122 -148.5t154.5 -98.5t175 -46t185.5 13t184 74.5q59 39 102 74q65 56 115 115l47 -54q-6 -7 -16.5 -19t-19.5 -22t-17 -18q-238 -244 -537 -244q-181 0 -334 83.5t-251 237t-119 349.5zM571 594 q6 -82 27 -129q29 -62 95.5 -73t119.5 38q30 28 49.5 64.5t44.5 107.5q25 72 41 164l4 22l13 84q12 79 2.5 123.5t-43.5 83.5q-30 33 -70 42.5t-84 -8.5t-80 -64q-42 -54 -80 -166q-16 -52 -24 -103q-18 -106 -15 -186z" />
<glyph unicode="A" horiz-adv-x="1208" d="M-6 0l508 1477h205l510 -1477h-211l-156 485h-492l-155 -485h-209zM399 629h414l-184 594q-20 74 -23 118q-8 -73 -24 -118z" />
<glyph unicode="B" horiz-adv-x="1148" d="M154 0v1477h421q185 0 297.5 -102.5t112.5 -272.5q0 -148 -104 -252q-33 -31 -61.5 -47.5t-86.5 -34.5q65 -10 101 -23.5t79 -42.5q152 -109 152 -290q0 -188 -123 -300t-332 -112h-456zM346 152h211q159 0 225 55q90 72 90 215q0 129 -80 196.5t-231 67.5h-215v-534z M346 829h189q126 0 199 68.5t73 187.5q0 114 -68.5 179t-189.5 65h-203v-500z" />
<glyph unicode="C" horiz-adv-x="1363" d="M84 733q0 155 61.5 296.5t165 244.5t246 164t297.5 61q120 0 238 -41q59 -21 102.5 -44.5t116.5 -74.5l-92 -145q-13 8 -35 23.5t-31 19.5q-136 92 -301 92q-117 0 -223 -47t-182.5 -127t-122 -191t-45.5 -233q0 -160 79 -296t215.5 -215t296.5 -79q79 0 172 27 q75 22 185 94l82 -141q-82 -56 -115 -70q-153 -78 -344 -78q-156 0 -297.5 60t-244 161.5t-163.5 242.5t-61 296z" />
<glyph unicode="D" horiz-adv-x="1290" d="M154 0v1477h301q157 0 296.5 -57t239 -155.5t157.5 -236t58 -291.5q0 -150 -58.5 -286.5t-157.5 -235.5t-236 -157t-287 -58h-313zM346 164h100q155 0 285 76t205.5 208.5t75.5 290.5q0 159 -75.5 291.5t-206.5 208.5t-288 76h-96v-1151z" />
<glyph unicode="E" horiz-adv-x="1032" d="M154 0v1477h809l-41 -158h-576v-492h539v-155h-539v-514h619l-43 -158h-768z" />
<glyph unicode="F" horiz-adv-x="927" d="M154 0v1477h792l-45 -158h-555v-494h510l-37 -157h-473v-668h-192z" />
<glyph unicode="G" horiz-adv-x="1693" d="M86 731q0 208 103.5 385t280.5 280t386 103q148 0 279 -49q89 -36 148 -78.5t149 -136.5l-140 -113q-68 72 -88 88q-69 60 -161.5 93.5t-186.5 33.5q-154 0 -286 -81t-209.5 -220.5t-77.5 -302.5q0 -159 78 -296t212 -217.5t291 -80.5q214 0 369 148.5t190 386.5h-575 v147h772q0 -168 -21 -259t-86 -204q-106 -183 -277.5 -283t-381.5 -100q-156 0 -298.5 59.5t-245 160.5t-163.5 241t-61 295z" />
<glyph unicode="H" horiz-adv-x="1376" d="M154 0v1477h192v-637h686v637h193v-1477h-193v674h-686v-674h-192z" />
<glyph unicode="I" horiz-adv-x="495" d="M154 0v1477h192v-1477h-192z" />
<glyph unicode="J" horiz-adv-x="763" d="M-29 100l88 140q83 -62 125.5 -82.5t91.5 -20.5q38 0 72 15q43 19 57.5 54.5t14.5 121.5v1149h190v-1172q0 -92 -11 -137.5t-46 -87.5q-40 -51 -107 -79t-147 -28q-60 0 -125 19q-47 12 -90.5 35t-112.5 73z" />
<glyph unicode="K" horiz-adv-x="1044" d="M154 0v1477h192v-629l436 629h230l-510 -680l588 -797h-240l-504 735v-735h-192z" />
<glyph unicode="L" horiz-adv-x="950" d="M154 0v1477h192v-1317h619l-43 -160h-768z" />
<glyph unicode="M" horiz-adv-x="1800" d="M84 0l186 1477h189l420 -1211q13 -36 28 -135q2 80 23 135l420 1211h188l186 -1477h-188l-115 1094q-4 40 -4 77q0 50 2 89l-16 -76l-21 -90l-378 -1094h-197l-381 1094q-10 25 -37 166q2 -33 2 -76q0 -72 -2 -90l-115 -1094h-190z" />
<glyph unicode="N" horiz-adv-x="1560" d="M154 0v1477h231l774 -1162q35 -47 80 -168l-12 86l-6 78l-2 1166h190v-1477h-227l-783 1171q-20 27 -33.5 59t-37.5 105q3 -48 6 -67q6 -68 6 -94l4 -1174h-190z" />
<glyph unicode="O" horiz-adv-x="1701" d="M86 737q0 159 59.5 300t162 242t245.5 159.5t305 58.5q209 0 383.5 -100.5t275.5 -275t101 -384.5q0 -157 -59.5 -298t-161.5 -242t-244 -160.5t-301 -59.5t-301.5 59.5t-244 160.5t-161 242t-59.5 298zM276 737q0 -120 46 -230t123.5 -189.5t184 -127t222.5 -47.5 q155 0 287 80t209 217t77 297q0 122 -45.5 232t-123 190t-184 127t-224.5 47q-153 0 -285 -80.5t-209.5 -218t-77.5 -297.5z" />
<glyph unicode="P" horiz-adv-x="1083" d="M154 0v1477h444q222 0 345.5 -111t123.5 -311q0 -192 -113.5 -308t-300.5 -116h-307v-631h-192zM346 784h236q84 0 127.5 13.5t83.5 50.5q81 78 81 207q0 131 -83 205q-42 34 -86 46.5t-127 12.5h-232v-535z" />
<glyph unicode="Q" horiz-adv-x="1701" d="M86 737q0 158 59.5 299t161 242t244 160t301.5 59h4q209 0 383 -99q176 -100 277.5 -273t101.5 -380q0 -187 -51 -303.5t-203 -277.5l184 -158l-110 -123l-219 187q-271 -95 -408 -95q-144 0 -278 62t-231.5 165t-156.5 243.5t-59 291.5zM276 737q0 -120 46 -230 t123.5 -189.5t184 -127t222.5 -47.5q117 0 222.5 47t182 126t121.5 189t45 232t-45.5 232t-122 190t-183 127t-224.5 47q-153 0 -285 -80.5t-209.5 -218t-77.5 -297.5z" />
<glyph unicode="R" horiz-adv-x="1085" d="M154 0v1477h399q103 0 171.5 -19t125.5 -63q141 -107 141 -297q0 -101 -44 -190t-118 -142q-54 -37 -114 -51t-174 -15l536 -700h-233l-498 707v-707h-192zM346 817h184q126 0 203.5 73.5t77.5 192.5q0 113 -74 175.5t-209 62.5h-182v-504z" />
<glyph unicode="S" horiz-adv-x="1060" d="M43 164l104 139q86 -72 129 -100q95 -64 207 -64q133 0 221.5 82t88.5 205q0 58 -24.5 108t-66.5 78q-30 23 -72.5 37t-158.5 41q-105 27 -154 46t-92 50q-66 47 -102.5 123.5t-36.5 165.5q0 181 133.5 303.5t329.5 122.5q81 0 160 -20q54 -12 90.5 -26.5t101.5 -49.5 l-57 -145q-161 88 -293 88q-120 0 -198.5 -74t-78.5 -187q0 -45 22 -88.5t60 -70.5q39 -30 75 -43.5t167 -46.5q168 -44 244 -93q69 -43 108 -121t39 -175q0 -200 -145 -334.5t-361 -134.5q-87 0 -180 26q-67 21 -121.5 53.5t-138.5 104.5z" />
<glyph unicode="T" horiz-adv-x="839" d="M-16 1313l4 164h884l-49 -164h-313v-1313h-193v1313h-333z" />
<glyph unicode="U" horiz-adv-x="1372" d="M154 467v1010h192v-1004q0 -87 17.5 -138.5t62.5 -92.5q107 -99 260 -99q152 0 262 99q45 42 63.5 93t18.5 138v1004h191v-1010q0 -227 -143 -357t-392 -130t-390.5 130t-141.5 357z" />
<glyph unicode="V" horiz-adv-x="1058" d="M6 1477h197l307 -1172l12 -92l6 -82l9 82l12 92l307 1172h197l-428 -1477h-191z" />
<glyph unicode="W" horiz-adv-x="1732" d="M35 1477h190l230 -1104l10 -94l8 -97q11 138 23 193l270 1102h199l270 -1102q13 -44 25 -193l8 97l12 94l227 1104h189l-346 -1477h-191l-274 1122q-14 64 -19 193q-14 -155 -22 -193l-271 -1122h-190z" />
<glyph unicode="X" horiz-adv-x="1116" d="M-35 0l479 766l-452 711h221l307 -510q27 -41 37 -109q10 68 37 109l309 510h219l-450 -711l477 -766h-225l-326 547q-31 53 -43 127q-3 -44 -10.5 -68t-28.5 -59l-326 -547h-225z" />
<glyph unicode="Y" horiz-adv-x="1058" d="M-59 1477h229l330 -598q14 -27 26 -123q2 73 29 125l338 596h223l-493 -824v-653h-191v653z" />
<glyph unicode="Z" horiz-adv-x="1140" d="M4 0l782 1268q10 21 22.5 33t41.5 34q5 4 8 6q-61 -26 -96 -26h-664l45 162h985l-778 -1252l-33 -55l-41 -35q74 27 115 27h727l-51 -162h-1063z" />
<glyph unicode="[" horiz-adv-x="544" d="M160 -143v1763h362v-125h-176v-1513h176v-125h-362z" />
<glyph unicode="\" horiz-adv-x="632" d="M109 1475h110l258 -1475h-110z" />
<glyph unicode="]" horiz-adv-x="544" d="M23 -18h176v1513h-176v125h362v-1763h-362v125z" />
<glyph unicode="^" horiz-adv-x="444" d="M-117 1217l340 233l340 -233l-45 -95l-295 162l-295 -162z" />
<glyph unicode="_" horiz-adv-x="1032" d="M109 0h737v-51h-737v51z" />
<glyph unicode="`" horiz-adv-x="276" d="M-53 1366l116 88l318 -260l-88 -70z" />
<glyph unicode="a" horiz-adv-x="1218" d="M86 510q0 153 62.5 275.5t174 192t250.5 69.5q76 0 156 -25q62 -20 93 -41.5t73 -73.5v127h170v-1034h-170v127q-31 -43 -41 -53q-43 -47 -123.5 -76t-169.5 -29q-213 0 -344 149.5t-131 391.5zM270 516q0 -181 92.5 -291t243.5 -110q123 0 195.5 66t79.5 186 q8 110 8 180q0 103 -7.5 149t-31.5 86q-35 60 -102.5 94.5t-147.5 34.5q-146 0 -238 -110t-92 -285z" />
<glyph unicode="b" horiz-adv-x="1208" d="M154 0v1438l172 69v-579q73 70 144 99.5t169 29.5q213 0 348 -148.5t135 -382.5q0 -247 -135 -400t-352 -153q-102 0 -182 35q-42 18 -67 39t-62 68v-115h-170zM324 440q0 -151 75.5 -236t208.5 -85q149 0 240.5 109t91.5 286q0 185 -92 295.5t-246 110.5 q-124 0 -197.5 -68.5t-76.5 -187.5l-2 -142q-2 -27 -2 -82z" />
<glyph unicode="c" horiz-adv-x="1001" d="M86 512q0 113 43 215t116.5 175.5t175.5 117t214 43.5q81 0 144 -17.5t169 -68.5l-63 -146q-27 16 -56 33q-88 45 -184 45q-157 0 -267 -115t-110 -278q0 -162 116 -278.5t278 -116.5q55 0 104 14.5t117 52.5l63 -131q-104 -52 -167.5 -70t-145.5 -18q-149 0 -275 72.5 t-199 197.5t-73 273z" />
<glyph unicode="d" horiz-adv-x="1210" d="M84 518q0 234 136 386.5t347 152.5q72 0 168 -29q47 -19 77 -39t73 -61v510l174 69v-1507h-170v125q-22 -32 -41 -47q-45 -49 -121.5 -77t-159.5 -28q-207 0 -345 156t-138 389zM270 526q0 -183 92 -294t242 -111q80 0 144.5 35.5t101.5 101.5q24 46 31.5 83.5t7.5 121.5 v67l-6 144q-3 101 -87.5 173.5t-201.5 72.5q-146 0 -235 -108t-89 -286z" />
<glyph unicode="e" horiz-adv-x="1191" d="M86 516q0 112 42.5 212.5t115.5 173t174.5 115t214.5 42.5q203 0 358 -133q53 -44 82 -86t66 -125l-813 -420q3 -3 21.5 -25t27.5 -30q54 -61 125.5 -94t148.5 -33q72 0 152 34q52 26 87.5 58.5t88.5 101.5l127 -82q-17 -22 -43.5 -54t-34.5 -42q-71 -75 -173 -117.5 t-214 -42.5q-153 0 -280 72t-200 198t-73 277zM254 545q0 -21 16 -119l660 336q-42 59 -74 85t-88 48q-77 25 -135 25q-149 0 -264 -113.5t-115 -261.5z" />
<glyph unicode="f" horiz-adv-x="526" d="M33 885l33 149h96v146q0 122 31 188q31 62 97 98.5t148 36.5q60 0 152 -33l-43 -147q-57 31 -98 31q-61 0 -87 -45.5t-26 -153.5v-121h209l-33 -149h-176v-885h-174v885h-129z" />
<glyph unicode="g" horiz-adv-x="1206" d="M84 518q0 234 139 384.5t355 150.5q89 0 170 -35q39 -13 66 -31.5t69 -58.5v106h172v-1038q0 -113 -24 -175t-87 -118q-129 -111 -358 -111q-98 0 -187 21q-63 15 -116 40.5t-138 80.5l78 133q105 -75 170 -96q95 -37 197 -37q136 0 214.5 67t78.5 183v143 q-7 -10 -33 -43q-44 -50 -120 -78.5t-165 -28.5q-214 0 -347.5 150.5t-133.5 390.5zM268 524q0 -186 90.5 -297.5t239.5 -111.5q83 0 152 36t98 93q22 42 28.5 75.5t6.5 106.5q0 16 -1 47t-1 47l-2 162q-3 105 -80 171.5t-197 66.5q-149 0 -241.5 -109.5t-92.5 -286.5z" />
<glyph unicode="h" horiz-adv-x="1220" d="M154 0v1438l172 69v-622q69 90 154 132t198 42q180 0 284.5 -93t104.5 -251v-715h-172v680q0 106 -69 167.5t-187 61.5q-135 0 -224 -72t-89 -182v-655h-172z" />
<glyph unicode="i" horiz-adv-x="442" d="M113 1282q0 46 32 79.5t76 33.5q46 0 79.5 -32.5t33.5 -76.5q0 -46 -31 -79t-76 -33q-47 0 -80.5 32t-33.5 76zM135 0v993l172 72v-1065h-172z" />
<glyph unicode="j" horiz-adv-x="440" d="M113 1284q0 46 32 78.5t76 32.5q46 0 79.5 -33.5t33.5 -79.5q0 -44 -32.5 -76t-76.5 -32q-46 0 -79 32t-33 78zM135 -371v1364l172 72v-1436h-172z" />
<glyph unicode="k" horiz-adv-x="950" d="M154 0v1438l172 69v-870l374 397h209l-424 -440l514 -594h-231l-442 545v-545h-172z" />
<glyph unicode="l" horiz-adv-x="479" d="M154 0v1438l172 69v-1507h-172z" />
<glyph unicode="m" horiz-adv-x="1835" d="M154 0v993l172 72v-143q38 41 63.5 59.5t71.5 38.5q90 41 178 41q66 0 133 -23q55 -20 92.5 -49t91.5 -94q122 162 342 162q179 0 291 -103q53 -46 75 -104t22 -150v-700h-175v672q0 70 -11 103.5t-46 68.5q-67 67 -194 67q-126 0 -191 -61.5t-65 -181.5v-668h-175v657 q0 69 -12 107.5t-45 73.5q-71 71 -194 71q-113 0 -191 -65q-33 -31 -47 -71.5t-14 -104.5v-668h-172z" />
<glyph unicode="n" horiz-adv-x="1218" d="M154 0v993l170 72v-180q27 33 63 69q54 47 130.5 75t156.5 28q182 0 286.5 -98t104.5 -267v-692h-172v645q0 66 -11.5 105.5t-39.5 70.5q-34 39 -92.5 62.5t-122.5 23.5q-104 0 -189 -63q-61 -46 -86.5 -98t-25.5 -130l2 -616h-174z" />
<glyph unicode="o" horiz-adv-x="1284" d="M86 512q0 148 74.5 274.5t203 200.5t279.5 74q150 0 278 -74t202.5 -200.5t74.5 -274.5t-74.5 -274.5t-202.5 -200.5t-278 -74q-151 0 -279.5 74t-203 200.5t-74.5 274.5zM264 510q0 -171 107.5 -284t267.5 -113q163 0 271 114t108 285q0 167 -107.5 281t-267.5 114 q-162 0 -270.5 -113.5t-108.5 -283.5z" />
<glyph unicode="p" horiz-adv-x="1216" d="M154 -401v1435h170v-129q24 34 49 53q46 46 120 73.5t158 27.5q214 0 346.5 -150t132.5 -391q0 -234 -137 -387.5t-350 -153.5q-82 0 -178 35q-42 18 -69.5 39t-69.5 64v-449zM326 510q2 -144 7.5 -185t31.5 -83q34 -57 101.5 -92t143.5 -35q151 0 243.5 109t92.5 286 q0 179 -93.5 291t-244.5 112q-78 0 -143.5 -34t-99.5 -91q-26 -48 -32.5 -84.5t-6.5 -146.5v-47z" />
<glyph unicode="q" horiz-adv-x="1212" d="M84 508q0 242 136 396.5t349 154.5q85 0 176 -33q52 -21 80 -43t66 -74v125h170v-1368l-172 -67v514l-39 -39q-45 -42 -124 -69.5t-159 -27.5q-212 0 -347.5 149t-135.5 382zM270 508q0 -177 94 -285t246 -108q116 0 190 63.5t83 169.5q8 84 8 207q0 128 -7 162.5 t-44 83.5q-78 110 -236 110q-150 0 -242 -111t-92 -292z" />
<glyph unicode="r" horiz-adv-x="636" d="M154 0v993l170 72v-197q31 60 56.5 88t74.5 56q51 27 95 37.5t122 13.5l-19 -168q-45 -3 -71 -6q-72 -12 -148 -68q-58 -47 -83 -104.5t-25 -143.5v-573h-172z" />
<glyph unicode="s" horiz-adv-x="880" d="M47 57l51 160q55 -43 97 -65q81 -43 186 -43q110 0 181 52t71 132q0 110 -144 151l-104 29q-309 84 -309 291q0 131 105 217t265 86q68 0 132 -12q55 -10 92 -24t102 -48l-51 -137q-52 30 -82 43q-93 43 -193 43q-83 0 -136.5 -43t-53.5 -109q0 -64 72 -112 q51 -28 82 -37q85 -28 102 -33q132 -41 188 -74q117 -65 117 -215q0 -155 -114.5 -248.5t-305.5 -93.5q-61 0 -153 15q-54 12 -92.5 26.5t-104.5 48.5z" />
<glyph unicode="t" horiz-adv-x="514" d="M33 885l305 481v-332h199l-45 -149h-154v-885h-174v885h-131z" />
<glyph unicode="u" horiz-adv-x="1208" d="M154 354v680h172v-663q0 -127 70.5 -191.5t207.5 -64.5q279 0 279 256v663h174v-680q0 -108 -28 -176.5t-91 -118.5q-117 -94 -334 -94q-208 0 -334 94q-61 44 -88.5 114.5t-27.5 180.5z" />
<glyph unicode="v" horiz-adv-x="962" d="M-33 1034h195l287 -764q19 -49 32 -149q15 101 33 149l287 764h194l-417 -1034h-193z" />
<glyph unicode="w" horiz-adv-x="1548" d="M35 1034h184l184 -745q4 -12 11 -76q0 -3 3 -27t5 -41q7 78 24 146l244 743h168l240 -743q21 -67 28 -146q3 44 9 68q3 59 8 76l186 745h184l-276 -1034h-205l-233 729q-15 48 -25 156q-2 -19 -6 -43l-4 -25q-6 -57 -16 -88l-248 -729h-189z" />
<glyph unicode="x" horiz-adv-x="946" d="M-45 0l405 528l-391 506h219l242 -323q27 -44 41 -107q21 72 45 107l242 323h219l-393 -506l405 -528h-219l-254 340q-30 46 -45 106q-12 -57 -41 -106l-256 -340h-219z" />
<glyph unicode="y" horiz-adv-x="944" d="M-43 1034h188l293 -741q18 -41 31 -154l12 76l19 78l309 741h192l-593 -1405h-199l168 377z" />
<glyph unicode="z" horiz-adv-x="962" d="M-35 0l643 823q30 36 107 88q-85 -28 -137 -28h-480l49 151h824l-637 -821q-13 -21 -66 -61q-4 -3 -47 -37q46 23 71.5 30t65.5 7h545l-47 -152h-891z" />
<glyph unicode="{" horiz-adv-x="661" d="M109 737q56 3 90 43t34 103v690q0 61 40 94t116 33h115v-64h-23q-74 0 -97.5 -25t-23.5 -102v-616q0 -63 -38 -106.5t-97 -49.5q59 -6 97 -49t38 -106v-617q0 -78 23 -102.5t98 -24.5h23v-63h-115q-76 0 -116 33t-40 94v690q0 97 -77 133q-16 8 -47 12z" />
<glyph unicode="|" horiz-adv-x="354" d="M109 0v1475h110v-1475h-110z" />
<glyph unicode="}" horiz-adv-x="661" d="M109 -162h22q74 0 97.5 25t23.5 102v617q0 63 37 106t96 49q-59 6 -96 49.5t-37 106.5v616q0 77 -23.5 102t-97.5 25h-22v64h114q76 0 115 -33t39 -94v-690q0 -62 35.5 -102.5t91.5 -43.5q-33 -4 -47 -12q-80 -36 -80 -133v-690q0 -61 -39 -94t-115 -33h-114v63z" />
<glyph unicode="~" horiz-adv-x="518" d="M-12 1583v141q91 29 151 29q51 0 107 -12q3 -1 14 -4t28 -7t36 -8q80 -18 122 -18q59 0 96.5 9.5t90.5 37.5v-145q-114 -31 -174 -31q-43 0 -152 20q-116 27 -166 27q-38 0 -69.5 -8t-83.5 -31z" />
<glyph unicode="&#xa0;" horiz-adv-x="1024" d="M0 0z" />
<glyph unicode="&#xa1;" horiz-adv-x="509" d="M129 1366q0 54 37 90.5t90 36.5t89 -36.5t36 -90.5q0 -52 -36.5 -89.5t-88.5 -37.5t-89.5 38t-37.5 89zM145 0l43 1120h129l39 -1120h-211z" />
<glyph unicode="&#xa2;" horiz-adv-x="1001" d="M86 512q0 106 40.5 207.5t115.5 179.5q65 67 122.5 97.5t170.5 56.5v127h100v-121q114 -7 166 -21t147 -61l-63 -146q-75 47 -118 59.5t-134 14.5l-2 -778q94 0 135 10t117 51l63 -131q-99 -51 -152 -66t-169 -22v-110h-105v118q-93 25 -142.5 50t-107.5 77 q-88 78 -136 184.5t-48 223.5zM270 518q0 -126 66.5 -221t187.5 -141v725q-254 -112 -254 -363z" />
<glyph unicode="&#xa3;" horiz-adv-x="964" d="M59 43l35 133q69 -16 103 -16q73 0 120.5 51t47.5 127q0 52 -15 108q-11 39 -82 236h-164v102h123q-54 148 -65 195q-21 103 -21 145q0 161 108 268t269 107q70 0 144 -24q51 -17 83 -36t84 -63l-47 -143q-65 57 -84 72q-78 59 -174 59q-90 0 -149.5 -63.5t-59.5 -159.5 q0 -59 22 -135t83 -224h325v-102h-288q10 -33 28 -88q41 -138 41 -219q0 -110 -67 -180q-29 -29 -111 -64q86 -14 160 -14q30 0 96 4q101 7 163.5 24t168.5 64l-31 -170q-146 -43 -227 -56.5t-199 -13.5q-122 0 -202.5 14.5t-217.5 61.5z" />
<glyph unicode="&#xa4;" horiz-adv-x="1011" d="M109 438l133 133q-57 72 -60 166q0 91 58 168l-131 125l14 17l12 16l15 14l16 15l133 -129q72 57 166 57q99 0 172 -55l129 129q9 -6 18 -15q25 -22 43 -49l-133 -125q54 -75 53.5 -168t-55.5 -168l133 -133l-14 -14l-12 -12l-19 -17l-16 -14l-129 133 q-73 -57 -167.5 -57t-168.5 57l-133 -131q-34 23 -57 57zM274 737q0 -79 56.5 -135.5t134.5 -56.5q80 0 137 57q56 56 56 135t-56 135q-58 58 -137 58q-78 0 -134.5 -57t-56.5 -136z" />
<glyph unicode="&#xa5;" horiz-adv-x="1282" d="M53 1477h230l327 -598q18 -29 27 -123q7 78 29 125l340 596h223l-375 -623h324v-139h-408l-35 -62l-2 -41h443v-151h-443l2 -461h-192v463h-434v153h434v37l-31 56h-401v145h321z" />
<glyph unicode="&#xa7;" horiz-adv-x="1185" d="M70 547q0 113 65 198q34 43 68.5 67.5t101.5 53.5q-10 8 -19.5 17.5t-19.5 20t-14 14.5q-76 90 -76 208q0 158 126.5 264.5t315.5 106.5q191 0 328 -131q59 -58 82 -112t35 -160l-180 2q-7 66 -22 103t-46 73q-37 39 -92.5 63.5t-110.5 24.5q-95 0 -168 -67.5t-73 -153.5 q0 -89 65 -154q24 -24 41.5 -33.5t63.5 -25.5l356 -125q104 -35 161.5 -116.5t57.5 -192.5q0 -93 -51 -175q-32 -47 -66.5 -72.5t-105.5 -54.5q14 -14 33 -35t26 -28q62 -81 62 -193q0 -162 -123 -268t-311 -106q-190 0 -326 112q-69 59 -95 120t-30 181l174 -4 q3 -76 18.5 -115t57.5 -79q85 -82 201 -82q103 0 171 64t68 159q0 158 -172 219l-358 117q-107 37 -163 112.5t-56 182.5zM258 578q0 -70 47.5 -126t126.5 -81l295 -90q81 3 119.5 23t64.5 73q23 48 23 92q0 69 -41.5 122.5t-112.5 76.5l-313 104h-14q-66 0 -98 -13.5 t-58 -53.5q-39 -58 -39 -127z" />
<glyph unicode="&#xa8;" horiz-adv-x="522" d="M-12 1227q0 43 28.5 73.5t69.5 30.5q43 0 73.5 -32t30.5 -76q0 -39 -29.5 -68t-70.5 -29q-42 0 -71 29.5t-31 71.5zM334 1223q0 44 30.5 76t73.5 32q40 0 69.5 -30.5t29.5 -73.5q0 -41 -30 -71t-73 -30q-40 0 -70 29t-30 68z" />
<glyph unicode="&#xa9;" horiz-adv-x="1908" d="M119 739q0 155 60.5 296.5t163 244t244 163t296.5 60.5t296.5 -60.5t244 -163t163 -244t60.5 -296.5t-60.5 -296.5t-163 -244t-244 -163t-296.5 -60.5t-296.5 60.5t-244 163t-163 244t-60.5 296.5zM209 739q0 -136 52 -262t147 -223q129 -130 302 -176t346 0t302 176 q130 132 176 308t0 352.5t-176 308.5q-129 131 -302 177.5t-346 0t-302 -177.5q-95 -97 -147 -223t-52 -261zM396.5 740.5q2.5 89.5 35.5 177.5q63 174 221 263.5t351 57.5q138 -24 245 -117l-53 -73q-87 77 -197 98q-117 22 -223.5 -15.5t-178.5 -124.5t-91 -204 q-17 -110 14 -208t103 -169q101 -100 244.5 -114.5t271.5 63.5q35 24 55 41l53 -74q-140 -119 -329 -125q-89 -2 -171.5 24t-146.5 73t-111.5 114.5t-71 145t-21 167z" />
<glyph unicode="&#xaa;" horiz-adv-x="983" d="M115 1073q-12 71 0 141q18 96 76 166t138.5 99t164.5 12q122 -26 182 -135l10 -19l6 -12v150h109v-662h-111v160q0 -11 -6 -17q-26 -65 -85.5 -107t-134 -50t-155.5 22q-77 32 -127 97t-67 155zM131 610v101h670v-101h-670zM221 1147q0 -17 4 -49q21 -106 103 -162 q61 -41 131.5 -41t130.5 43q78 58 98 156q16 87 -16 159q-9 21 -21 39q-40 63 -105.5 91t-134 13.5t-118.5 -67.5q-52 -55 -68 -137q-4 -28 -4 -45z" />
<glyph unicode="&#xab;" horiz-adv-x="925" d="M45 504l416 471l100 -96l-332 -375l328 -369l-100 -96zM362 504l420 471l99 -96l-330 -375l326 -369l-103 -96z" />
<glyph unicode="&#xac;" horiz-adv-x="1245" d="M109 737v111h933v-406h-98v295h-835z" />
<glyph unicode="&#xad;" horiz-adv-x="604" d="M45 520v164h516v-164h-516z" />
<glyph unicode="&#xae;" horiz-adv-x="1908" d="M119 739q0 155 60.5 296.5t163 244t244 163t296.5 60.5t296.5 -60.5t244 -163t163 -244t60.5 -296.5t-60.5 -296.5t-163 -244t-244 -163t-296.5 -60.5t-296.5 60.5t-244 163t-163 244t-60.5 296.5zM209 739q0 -136 52 -262t147 -223q129 -130 302 -176t346 0t302 176 q130 132 176 308t0 352.5t-176 308.5q-129 131 -302 177.5t-346 0t-302 -177.5q-95 -97 -147 -223t-52 -261zM655 254v989h209q84 0 131 -13t86 -46q69 -57 84 -148q23 -129 -40.5 -216t-186.5 -101q-12 -2 -37 -2l318 -463h-123l-336 500v-500h-105zM760 782h84 q108 0 164.5 48t58.5 137q2 90 -52 139t-155 49h-100v-373z" />
<glyph unicode="&#xaf;" horiz-adv-x="432" d="M-8 1151v129h452v-129h-452z" />
<glyph unicode="&#xb1;" horiz-adv-x="1216" d="M90 39v139h946v-139h-946zM90 539v139h404v250h139v-250h403v-139h-403v-250h-139v250h-404z" />
<glyph unicode="&#xb4;" horiz-adv-x="350" d="M33 1192l319 260l115 -90l-348 -238z" />
<glyph unicode="&#xb5;" horiz-adv-x="1275" d="M150 -285q0 5 0.5 19.5t1.5 43t2 56.5q4 132 4 182q0 117 -2 207q-4 180 -4 195v502h188v-607q0 -143 29 -194q25 -46 102 -49q119 0 195 163q74 161 77 420v267h189v-672q0 -92 18 -135q18 -40 60 -43q41 0 65 43q23 44 23 125v28h43q0 -10 2 -18v-27q0 -114 -49 -178 q-44 -58 -136 -61q-100 0 -155 88q-50 81 -53 264q-47 -182 -125 -266q-77 -83 -199 -86q-88 0 -150 53q-57 54 -81 158q0 -31 -2 -58q0 -136 65 -289q66 -160 66 -188q0 -41 -23 -64q-19 -19 -63 -22q-48 0 -68 35q-17 28 -20 108z" />
<glyph unicode="&#xb6;" horiz-adv-x="1302" d="M109 1092q0 160 110.5 271.5t267.5 111.5h609v-89h-609q-120 0 -204.5 -87.5t-83.5 -211.5q3 -121 87 -204.5t201 -83.5h148v506h90v-1305h-90v711h-148q-157 0 -267.5 111.5t-110.5 269.5zM868 0v1305h90v-1305h-90z" />
<glyph unicode="&#xb7;" horiz-adv-x="401" d="M74 610q0 52 37 89.5t88 37.5q54 0 91.5 -37t37.5 -90q0 -52 -37.5 -88.5t-91.5 -36.5q-51 0 -88 36.5t-37 88.5z" />
<glyph unicode="&#xb8;" horiz-adv-x="288" d="M-12 -346l186 293l127 -33l-217 -281z" />
<glyph unicode="&#xba;" horiz-adv-x="985" d="M109 1151q0 33 6 68q16 83 63.5 149t114 100t145.5 39.5t158 -30.5q79 -34 131.5 -101t69.5 -157q12 -69 0 -138q-20 -108 -93 -183t-178 -97q-70 -15 -141 0q-105 22 -177.5 97t-92.5 183q-6 35 -6 70zM121 610v101h670v-101h-670zM219 1151q0 -80 35 -139 q39 -67 107.5 -97t141.5 -15t124 71q49 55 61 131q15 105 -31 186q-39 67 -107 97.5t-140.5 15.5t-124.5 -72q-66 -72 -66 -178z" />
<glyph unicode="&#xbb;" horiz-adv-x="919" d="M45 137l326 367l-326 375l98 94l410 -469l-408 -461zM362 879l103 94l409 -469l-409 -461l-100 94l325 367z" />
<glyph unicode="&#xbf;" horiz-adv-x="763" d="M57 332q0 65 24 133.5t66 120.5l93 116q53 69 82 111q39 59 52 92.5t13 75.5q0 57 -20 154h135q28 -122 28 -187q0 -62 -19 -108t-79 -129q-84 -115 -156 -226q-43 -75 -43 -145q0 -95 62.5 -158t157.5 -63q46 0 96 16q46 15 84 40t96 79l51 -148q-71 -45 -82 -51 q-130 -71 -272 -71q-160 0 -264.5 98.5t-104.5 249.5zM311 1374q0 52 38 89.5t91 37.5q52 0 88.5 -37t36.5 -90q0 -52 -36.5 -88.5t-88.5 -36.5q-53 0 -91 36.5t-38 88.5z" />
<glyph unicode="&#xc0;" horiz-adv-x="1208" d="M-6 0l508 1477h205l510 -1477h-211l-156 485h-492l-155 -485h-209zM399 629h414l-184 594q-20 74 -23 118q-8 -73 -24 -118zM412 1849l116 88l318 -260l-88 -69z" />
<glyph unicode="&#xc1;" horiz-adv-x="1208" d="M-6 0l508 1477h205l510 -1477h-211l-156 485h-492l-155 -485h-209zM399 629h414l-184 594q-20 74 -23 118q-8 -73 -24 -118zM461 1675l319 260l115 -90l-348 -237z" />
<glyph unicode="&#xc2;" horiz-adv-x="1208" d="M-6 0l508 1477h205l510 -1477h-211l-156 485h-492l-155 -485h-209zM264 1700l340 233l340 -233l-45 -94l-295 161l-295 -161zM399 629h414l-184 594q-20 74 -23 118q-8 -73 -24 -118z" />
<glyph unicode="&#xc3;" horiz-adv-x="1208" d="M-6 0l508 1477h205l510 -1477h-211l-156 485h-492l-155 -485h-209zM324 1630v125q83 21 133 21q36 0 59 -3.5t98 -21.5q55 -14 109 -14t85.5 7.5t76.5 31.5v-125q-103 -29 -152 -29q-46 0 -131 18q-95 23 -143 23q-60 0 -135 -33zM399 629h414l-184 594q-20 74 -23 118 q-8 -73 -24 -118z" />
<glyph unicode="&#xc4;" horiz-adv-x="1208" d="M-6 0l508 1477h205l510 -1477h-211l-156 485h-492l-155 -485h-209zM295 1599q0 46 33.5 79.5t79.5 33.5q45 0 77.5 -33.5t32.5 -79.5q0 -47 -33 -79.5t-79 -32.5t-78.5 33t-32.5 79zM399 629h414l-184 594q-20 74 -23 118q-8 -73 -24 -118zM692 1599q0 46 34 79.5 t81 33.5q46 0 79.5 -33.5t33.5 -79.5q0 -45 -33 -78.5t-78 -33.5q-47 0 -81.5 32.5t-35.5 79.5z" />
<glyph unicode="&#xc5;" horiz-adv-x="1208" d="M-6 0l508 1477h205l510 -1477h-211l-156 485h-492l-155 -485h-209zM399 629h414l-184 594q-20 74 -23 118q-8 -73 -24 -118zM418 1729q0 74 55 126t133 52t133.5 -52.5t55.5 -125.5q0 -71 -55.5 -122t-133.5 -51t-133 51t-55 122zM516 1729q0 -38 25.5 -65.5t62.5 -27.5 q38 0 64 27t26 66q0 38 -25.5 66t-62.5 28q-38 0 -64 -27.5t-26 -66.5z" />
<glyph unicode="&#xc6;" horiz-adv-x="1798" d="M-6 0l844 1477h893l-43 -158h-578v-490h541v-153h-541v-516h621l-43 -160h-770v475h-449l-254 -475h-221zM549 625h369v675z" />
<glyph unicode="&#xc7;" horiz-adv-x="1363" d="M84 733q0 155 61.5 296.5t165 244.5t246 164t297.5 61q120 0 238 -41q59 -21 102.5 -44.5t116.5 -74.5l-92 -145q-13 8 -35 23.5t-31 19.5q-136 92 -301 92q-117 0 -223 -47t-182.5 -127t-122 -191t-45.5 -233q0 -160 79 -296t215.5 -215t296.5 -79q79 0 172 27 q75 22 185 94l82 -141q-82 -56 -115 -70q-153 -78 -344 -78q-156 0 -297.5 60t-244 161.5t-163.5 242.5t-61 296zM598 -344l182 291l131 -31l-209 -281z" />
<glyph unicode="&#xc8;" horiz-adv-x="1032" d="M154 0v1477h809l-41 -158h-576v-492h539v-155h-539v-514h619l-43 -158h-768zM324 1849l116 88l318 -260l-88 -69z" />
<glyph unicode="&#xc9;" horiz-adv-x="1032" d="M154 0v1477h809l-41 -158h-576v-492h539v-155h-539v-514h619l-43 -158h-768zM373 1675l319 260l115 -90l-348 -237z" />
<glyph unicode="&#xca;" horiz-adv-x="1032" d="M154 0v1477h809l-41 -158h-576v-492h539v-155h-539v-514h619l-43 -158h-768zM176 1700l340 233l340 -233l-45 -94l-295 161l-295 -161z" />
<glyph unicode="&#xcb;" horiz-adv-x="1032" d="M154 0v1477h809l-41 -158h-576v-492h539v-155h-539v-514h619l-43 -158h-768zM242 1710q0 43 28.5 74t69.5 31q43 0 73.5 -32.5t30.5 -76.5q0 -39 -29.5 -67.5t-70.5 -28.5q-42 0 -71 29t-31 71zM588 1706q0 44 30.5 76.5t73.5 32.5q40 0 69.5 -31t29.5 -74 q0 -41 -30 -70.5t-73 -29.5q-40 0 -70 28.5t-30 67.5z" />
<glyph unicode="&#xcc;" horiz-adv-x="495" d="M55 1849l117 88l317 -260l-88 -69zM154 0v1477h192v-1477h-192z" />
<glyph unicode="&#xcd;" horiz-adv-x="495" d="M104 1675l320 260l115 -90l-349 -237zM154 0v1477h192v-1477h-192z" />
<glyph unicode="&#xce;" horiz-adv-x="495" d="M-92 1700l340 233l340 -233l-45 -94l-295 161l-295 -161zM154 0v1477h192v-1477h-192z" />
<glyph unicode="&#xcf;" horiz-adv-x="495" d="M-25 1710q0 43 29 74t70 31q43 0 73.5 -32.5t30.5 -76.5q0 -39 -29.5 -67.5t-70.5 -28.5q-42 0 -71.5 29t-31.5 71zM154 0v1477h192v-1477h-192zM322 1706q0 44 30.5 76.5t73.5 32.5q40 0 69 -31t29 -74q0 -41 -29.5 -70.5t-72.5 -29.5q-40 0 -70 28.5t-30 67.5z" />
<glyph unicode="&#xd1;" horiz-adv-x="1560" d="M154 0v1477h231l774 -1162q35 -47 80 -168l-12 86l-6 78l-2 1166h190v-1477h-227l-783 1171q-20 27 -33.5 59t-37.5 105q3 -48 6 -67q6 -68 6 -94l4 -1174h-190zM500 1630v125q83 21 133 21q36 0 60 -3.5t98 -21.5q55 -14 108 -14q54 0 85.5 7.5t76.5 31.5v-125 q-103 -29 -152 -29q-46 0 -131 18q-95 23 -143 23q-60 0 -135 -33z" />
<glyph unicode="&#xd2;" horiz-adv-x="1701" d="M86 737q0 159 59.5 300t162 242t245.5 159.5t305 58.5q209 0 383.5 -100.5t275.5 -275t101 -384.5q0 -157 -59.5 -298t-161.5 -242t-244 -160.5t-301 -59.5t-301.5 59.5t-244 160.5t-161 242t-59.5 298zM276 737q0 -120 46 -230t123.5 -189.5t184 -127t222.5 -47.5 q155 0 287 80t209 217t77 297q0 122 -45.5 232t-123 190t-184 127t-224.5 47q-153 0 -285 -80.5t-209.5 -218t-77.5 -297.5zM659 1849l117 88l318 -260l-88 -69z" />
<glyph unicode="&#xd3;" horiz-adv-x="1701" d="M86 737q0 159 59.5 300t162 242t245.5 159.5t305 58.5q209 0 383.5 -100.5t275.5 -275t101 -384.5q0 -157 -59.5 -298t-161.5 -242t-244 -160.5t-301 -59.5t-301.5 59.5t-244 160.5t-161 242t-59.5 298zM276 737q0 -120 46 -230t123.5 -189.5t184 -127t222.5 -47.5 q155 0 287 80t209 217t77 297q0 122 -45.5 232t-123 190t-184 127t-224.5 47q-153 0 -285 -80.5t-209.5 -218t-77.5 -297.5zM709 1675l319 260l115 -90l-348 -237z" />
<glyph unicode="&#xd4;" horiz-adv-x="1701" d="M86 737q0 159 59.5 300t162 242t245.5 159.5t305 58.5q209 0 383.5 -100.5t275.5 -275t101 -384.5q0 -157 -59.5 -298t-161.5 -242t-244 -160.5t-301 -59.5t-301.5 59.5t-244 160.5t-161 242t-59.5 298zM276 737q0 -120 46 -230t123.5 -189.5t184 -127t222.5 -47.5 q155 0 287 80t209 217t77 297q0 122 -45.5 232t-123 190t-184 127t-224.5 47q-153 0 -285 -80.5t-209.5 -218t-77.5 -297.5zM512 1700l340 233l340 -233l-45 -94l-295 161l-295 -161z" />
<glyph unicode="&#xd5;" horiz-adv-x="1701" d="M86 737q0 159 59.5 300t162 242t245.5 159.5t305 58.5q209 0 383.5 -100.5t275.5 -275t101 -384.5q0 -157 -59.5 -298t-161.5 -242t-244 -160.5t-301 -59.5t-301.5 59.5t-244 160.5t-161 242t-59.5 298zM276 737q0 -120 46 -230t123.5 -189.5t184 -127t222.5 -47.5 q155 0 287 80t209 217t77 297q0 122 -45.5 232t-123 190t-184 127t-224.5 47q-153 0 -285 -80.5t-209.5 -218t-77.5 -297.5zM569 1630v125q83 21 133 21q36 0 60 -3.5t98 -21.5q55 -14 109 -14t85 7.5t76 31.5v-125q-103 -29 -151 -29q-46 0 -131 18q-95 23 -143 23 q-61 0 -136 -33z" />
<glyph unicode="&#xd6;" horiz-adv-x="1701" d="M86 737q0 159 59.5 300t162 242t245.5 159.5t305 58.5q209 0 383.5 -100.5t275.5 -275t101 -384.5q0 -157 -59.5 -298t-161.5 -242t-244 -160.5t-301 -59.5t-301.5 59.5t-244 160.5t-161 242t-59.5 298zM276 737q0 -120 46 -230t123.5 -189.5t184 -127t222.5 -47.5 q155 0 287 80t209 217t77 297q0 122 -45.5 232t-123 190t-184 127t-224.5 47q-153 0 -285 -80.5t-209.5 -218t-77.5 -297.5zM352 1604q0 45 33 77.5t78 32.5q47 0 79.5 -33t32.5 -79t-33 -78.5t-79 -32.5q-45 0 -78 33t-33 80zM1126 1602q0 46 33.5 79t79.5 33q47 0 79 -33 t32 -79q0 -47 -32 -79t-79 -32q-46 0 -79.5 32.5t-33.5 78.5z" />
<glyph unicode="&#xd8;" horiz-adv-x="1714" d="M82 795q0 129 59 255.5t166 227.5q116 107 243.5 165t250.5 58q206 0 555 -192l207 217l67 -70l-205 -209q195 -352 195 -563q0 -131 -58 -257.5t-165 -227.5q-114 -108 -243 -166t-255 -58q-199 0 -541 172l-196 -206l-72 67l203 213q-99 168 -155 320t-56 254zM281 780 q0 -161 137 -432l811 838q-256 143 -406 143q-195 0 -379 -178q-78 -80 -120.5 -176.5t-42.5 -194.5zM492 283q253 -142 391 -142q95 0 194 48.5t187 136.5q78 80 120.5 175.5t42.5 192.5q0 74 -36.5 186t-100.5 236z" />
<glyph unicode="&#xd9;" horiz-adv-x="1372" d="M154 467v1010h192v-1004q0 -87 17.5 -138.5t62.5 -92.5q107 -99 260 -99q152 0 262 99q45 42 63.5 93t18.5 138v1004h191v-1010q0 -227 -143 -357t-392 -130t-390.5 130t-141.5 357zM494 1849l116 88l318 -260l-88 -69z" />
<glyph unicode="&#xda;" horiz-adv-x="1372" d="M154 467v1010h192v-1004q0 -87 17.5 -138.5t62.5 -92.5q107 -99 260 -99q152 0 262 99q45 42 63.5 93t18.5 138v1004h191v-1010q0 -227 -143 -357t-392 -130t-390.5 130t-141.5 357zM543 1675l319 260l115 -90l-348 -237z" />
<glyph unicode="&#xdb;" horiz-adv-x="1372" d="M154 467v1010h192v-1004q0 -87 17.5 -138.5t62.5 -92.5q107 -99 260 -99q152 0 262 99q45 42 63.5 93t18.5 138v1004h191v-1010q0 -227 -143 -357t-392 -130t-390.5 130t-141.5 357zM346 1700l340 233l340 -233l-45 -94l-295 161l-295 -161z" />
<glyph unicode="&#xdc;" horiz-adv-x="1370" d="M154 467v1010h192v-1004q0 -87 17.5 -138.5t62.5 -92.5q107 -99 260 -99q152 0 262 99q45 42 63.5 93t18.5 138v1004h191v-1010q0 -227 -143 -357t-392 -130t-390.5 130t-141.5 357zM379 1593q0 47 32 81t78 34t78.5 -34t32.5 -81q0 -44 -33.5 -76t-79.5 -32 q-44 0 -76 32t-32 76zM774 1591q0 49 32.5 83t78.5 34q47 0 80.5 -34t33.5 -81q0 -44 -33.5 -76t-80.5 -32q-45 0 -78 31t-33 75z" />
<glyph unicode="&#xdf;" horiz-adv-x="1163" d="M154 0v1102q0 107 21.5 171.5t72.5 115.5q55 52 137 81t176 29q172 0 283.5 -97.5t111.5 -248.5q0 -78 -27.5 -135.5t-92.5 -114.5q-39 -31 -67 -46t-83 -34q72 -5 110.5 -15t82.5 -36q96 -52 146 -141.5t50 -204.5q0 -189 -130 -321t-316 -132q-63 0 -180 27l30 135 q73 -20 129 -20q120 0 204.5 90.5t84.5 222.5q0 141 -96.5 223t-263.5 82q-9 0 -103 -4v150q164 0 255 69.5t91 192.5q0 94 -64.5 156.5t-162.5 62.5q-53 0 -101 -20.5t-79 -55.5q-28 -29 -37.5 -67.5t-9.5 -118.5v-1098h-172z" />
<glyph unicode="&#xe0;" horiz-adv-x="1218" d="M86 510q0 153 62.5 275.5t174 192t250.5 69.5q76 0 156 -25q62 -20 93 -41.5t73 -73.5v127h170v-1034h-170v127q-31 -43 -41 -53q-43 -47 -123.5 -76t-169.5 -29q-213 0 -344 149.5t-131 391.5zM270 516q0 -181 92.5 -291t243.5 -110q123 0 195.5 66t79.5 186 q8 110 8 180q0 103 -7.5 149t-31.5 86q-35 60 -102.5 94.5t-147.5 34.5q-146 0 -238 -110t-92 -285zM418 1366l117 88l317 -260l-88 -70z" />
<glyph unicode="&#xe1;" horiz-adv-x="1218" d="M86 510q0 153 62.5 275.5t174 192t250.5 69.5q76 0 156 -25q62 -20 93 -41.5t73 -73.5v127h170v-1034h-170v127q-31 -43 -41 -53q-43 -47 -123.5 -76t-169.5 -29q-213 0 -344 149.5t-131 391.5zM270 516q0 -181 92.5 -291t243.5 -110q123 0 195.5 66t79.5 186 q8 110 8 180q0 103 -7.5 149t-31.5 86q-35 60 -102.5 94.5t-147.5 34.5q-146 0 -238 -110t-92 -285zM467 1192l319 260l115 -90l-348 -238z" />
<glyph unicode="&#xe2;" horiz-adv-x="1218" d="M86 510q0 153 62.5 275.5t174 192t250.5 69.5q76 0 156 -25q62 -20 93 -41.5t73 -73.5v127h170v-1034h-170v127q-31 -43 -41 -53q-43 -47 -123.5 -76t-169.5 -29q-213 0 -344 149.5t-131 391.5zM270 516q0 -181 92.5 -291t243.5 -110q123 0 195.5 66t79.5 186 q8 110 8 180q0 103 -7.5 149t-31.5 86q-35 60 -102.5 94.5t-147.5 34.5q-146 0 -238 -110t-92 -285zM270 1217l340 233l340 -233l-45 -95l-295 162l-295 -162z" />
<glyph unicode="&#xe3;" horiz-adv-x="1218" d="M86 510q0 153 62.5 275.5t174 192t250.5 69.5q76 0 156 -25q62 -20 93 -41.5t73 -73.5v127h170v-1034h-170v127q-31 -43 -41 -53q-43 -47 -123.5 -76t-169.5 -29q-213 0 -344 149.5t-131 391.5zM270 516q0 -181 92.5 -291t243.5 -110q123 0 195.5 66t79.5 186 q8 110 8 180q0 103 -7.5 149t-31.5 86q-35 60 -102.5 94.5t-147.5 34.5q-146 0 -238 -110t-92 -285zM328 1147v125q79 20 133 20q28 0 39.5 -1t38.5 -6t79 -17q59 -15 109 -15q54 0 85.5 7.5t76.5 31.5v-125q-100 -28 -152 -28q-46 0 -131 18q-95 23 -143 23q-60 0 -135 -33 z" />
<glyph unicode="&#xe4;" horiz-adv-x="1216" d="M86 510q0 153 62.5 275.5t174 192t250.5 69.5q74 0 154 -25q48 -14 79.5 -34t84.5 -66v112h172v-1034h-172v119q-30 -38 -41 -45q-47 -50 -123 -77.5t-164 -27.5q-215 0 -346 149.5t-131 391.5zM270 516q0 -181 92.5 -291t243.5 -110q83 0 148 34t94 93q23 43 32 111 t9 202q0 95 -8 140.5t-31 86.5q-32 57 -101.5 93t-148.5 36q-146 0 -238 -110t-92 -285zM354 1235q0 43 30 73.5t71 30.5q43 0 72.5 -32t29.5 -76q0 -39 -28.5 -66.5t-69.5 -27.5q-43 0 -73 28.5t-32 69.5zM702 1231q0 45 30.5 76.5t74.5 31.5q39 0 67.5 -31t28.5 -73 q0 -41 -29.5 -69.5t-72.5 -28.5q-40 0 -69.5 27.5t-29.5 66.5z" />
<glyph unicode="&#xe5;" horiz-adv-x="1216" d="M86 510q0 153 62.5 275.5t174 192t250.5 69.5q79 0 156 -25q49 -14 81 -34t85 -66v112h168v-1034h-168v119q-39 -44 -41 -45q-50 -50 -126.5 -77.5t-164.5 -27.5q-215 0 -346 149.5t-131 391.5zM270 516q0 -181 92.5 -291t243.5 -110q83 0 148 34t94 93q23 43 32 111 t9 202q0 95 -8 140.5t-31 86.5q-32 57 -101.5 93t-148.5 36q-146 0 -238 -110t-92 -285zM459 1282q0 73 55 124.5t133 51.5q75 0 129.5 -51t54.5 -123q0 -73 -54.5 -123.5t-131.5 -50.5q-78 0 -132 50t-54 122zM553 1284q0 -40 27 -67t65 -27q37 0 63.5 27.5t26.5 66.5 q0 38 -26.5 65t-63.5 27q-38 0 -65 -27t-27 -65z" />
<glyph unicode="&#xe6;" horiz-adv-x="1994" d="M86 518q0 229 140 383t349 154q94 0 173 -33q44 -14 69.5 -32t65.5 -60v104h155v-153q15 17 35 38.5t25 26.5q62 54 149 85.5t180 31.5q117 0 220 -47q95 -40 156.5 -101.5t140.5 -197.5l-824 -424q50 -58 62 -70q51 -50 120.5 -78t139.5 -28q81 0 164 39q58 28 91 57.5 t77 93.5l127 -71q-40 -63 -68 -95q-67 -78 -177 -125t-224 -47t-207 41q-58 27 -94.5 52.5t-92.5 80.5v-143h-157v106q-12 -15 -37 -40q-47 -40 -129.5 -66.5t-157.5 -26.5q-204 0 -337.5 154.5t-133.5 390.5zM270 516q0 -177 92 -286t240 -109q123 0 197 65t82 179 q8 126 8 206q0 100 -8.5 141.5t-36.5 84.5q-40 57 -105 90t-141 33q-144 0 -236 -114t-92 -290zM1047 549q0 -34 14 -127l670 346q-41 56 -72 81.5t-86 47.5q-80 25 -141 25q-157 0 -271 -110t-114 -263z" />
<glyph unicode="&#xe7;" horiz-adv-x="1001" d="M86 512q0 113 43 215t116.5 175.5t175.5 117t214 43.5q81 0 144 -17.5t169 -68.5l-63 -146q-27 16 -56 33q-88 45 -184 45q-157 0 -267 -115t-110 -278q0 -162 116 -278.5t278 -116.5q55 0 104 14.5t117 52.5l63 -131q-104 -52 -167.5 -70t-145.5 -18q-149 0 -275 72.5 t-199 197.5t-73 273zM373 -346l188 293l125 -33l-217 -281z" />
<glyph unicode="&#xe8;" horiz-adv-x="1191" d="M86 516q0 112 42.5 212.5t115.5 173t174.5 115t214.5 42.5q203 0 358 -133q53 -44 82 -86t66 -125l-813 -420q3 -3 21.5 -25t27.5 -30q54 -61 125.5 -94t148.5 -33q72 0 152 34q52 26 87.5 58.5t88.5 101.5l127 -82q-17 -22 -43.5 -54t-34.5 -42q-71 -75 -173 -117.5 t-214 -42.5q-153 0 -280 72t-200 198t-73 277zM254 545q0 -21 16 -119l660 336q-42 59 -74 85t-88 48q-77 25 -135 25q-149 0 -264 -113.5t-115 -261.5zM403 1366l117 88l318 -260l-88 -70z" />
<glyph unicode="&#xe9;" horiz-adv-x="1191" d="M86 516q0 112 42.5 212.5t115.5 173t174.5 115t214.5 42.5q203 0 358 -133q53 -44 82 -86t66 -125l-813 -420q3 -3 21.5 -25t27.5 -30q54 -61 125.5 -94t148.5 -33q72 0 152 34q52 26 87.5 58.5t88.5 101.5l127 -82q-17 -22 -43.5 -54t-34.5 -42q-71 -75 -173 -117.5 t-214 -42.5q-153 0 -280 72t-200 198t-73 277zM254 545q0 -21 16 -119l660 336q-42 59 -74 85t-88 48q-77 25 -135 25q-149 0 -264 -113.5t-115 -261.5zM453 1192l319 260l115 -90l-348 -238z" />
<glyph unicode="&#xea;" horiz-adv-x="1191" d="M86 516q0 112 42.5 212.5t115.5 173t174.5 115t214.5 42.5q203 0 358 -133q53 -44 82 -86t66 -125l-813 -420q3 -3 21.5 -25t27.5 -30q54 -61 125.5 -94t148.5 -33q72 0 152 34q52 26 87.5 58.5t88.5 101.5l127 -82q-17 -22 -43.5 -54t-34.5 -42q-71 -75 -173 -117.5 t-214 -42.5q-153 0 -280 72t-200 198t-73 277zM254 545q0 -21 16 -119l660 336q-42 59 -74 85t-88 48q-77 25 -135 25q-149 0 -264 -113.5t-115 -261.5zM256 1217l340 233l340 -233l-45 -95l-295 162l-295 -162z" />
<glyph unicode="&#xeb;" horiz-adv-x="1191" d="M86 516q0 112 42.5 212.5t115.5 173t174.5 115t214.5 42.5q203 0 358 -133q53 -44 82 -86t66 -125l-813 -420q3 -3 21.5 -25t27.5 -30q54 -61 125.5 -94t148.5 -33q72 0 152 34q52 26 87.5 58.5t88.5 101.5l127 -82q-17 -22 -43.5 -54t-34.5 -42q-71 -75 -173 -117.5 t-214 -42.5q-153 0 -280 72t-200 198t-73 277zM254 545q0 -21 16 -119l660 336q-42 59 -74 85t-88 48q-77 25 -135 25q-149 0 -264 -113.5t-115 -261.5zM322 1227q0 43 28.5 73.5t69.5 30.5q43 0 73.5 -32t30.5 -76q0 -39 -29.5 -68t-70.5 -29q-42 0 -71 29.5t-31 71.5z M668 1223q0 44 30.5 76t73.5 32q40 0 69 -30.5t29 -73.5q0 -41 -30 -71t-72 -30q-40 0 -70 29t-30 68z" />
<glyph unicode="&#xec;" horiz-adv-x="483" d="M49 1366l117 88l317 -260l-88 -70zM154 0v993l176 72v-1065h-176z" />
<glyph unicode="&#xed;" horiz-adv-x="483" d="M98 1192l320 260l114 -90l-348 -238zM154 0v993l176 72v-1065h-176z" />
<glyph unicode="&#xee;" horiz-adv-x="483" d="M-98 1217l340 233l340 -233l-45 -95l-295 162l-295 -162zM154 0v993l176 72v-1065h-176z" />
<glyph unicode="&#xef;" horiz-adv-x="483" d="M-31 1227q0 43 29 73.5t70 30.5q43 0 73.5 -32t30.5 -76q0 -39 -29.5 -68t-70.5 -29q-42 0 -71.5 29.5t-31.5 71.5zM154 0v993l176 72v-1065h-176zM315 1223q0 44 31 76t74 32q40 0 69 -30.5t29 -73.5q0 -41 -30 -71t-72 -30q-40 0 -70.5 29t-30.5 68z" />
<glyph unicode="&#xf1;" horiz-adv-x="1218" d="M154 0v993l170 72v-180q27 33 63 69q54 47 130.5 75t156.5 28q182 0 286.5 -98t104.5 -267v-692h-172v645q0 66 -11.5 105.5t-39.5 70.5q-34 39 -92.5 62.5t-122.5 23.5q-104 0 -189 -63q-61 -46 -86.5 -98t-25.5 -130l2 -616h-174zM328 1147v125q79 20 133 20 q28 0 39.5 -1t38.5 -6t79 -17q59 -15 109 -15q54 0 85.5 7.5t76.5 31.5v-125q-100 -28 -152 -28q-46 0 -131 18q-95 23 -143 23q-60 0 -135 -33z" />
<glyph unicode="&#xf2;" horiz-adv-x="1284" d="M86 512q0 148 74.5 274.5t203 200.5t279.5 74q150 0 278 -74t202.5 -200.5t74.5 -274.5t-74.5 -274.5t-202.5 -200.5t-278 -74q-151 0 -279.5 74t-203 200.5t-74.5 274.5zM264 510q0 -171 107.5 -284t267.5 -113q163 0 271 114t108 285q0 167 -107.5 281t-267.5 114 q-162 0 -270.5 -113.5t-108.5 -283.5zM451 1366l116 88l318 -260l-88 -70z" />
<glyph unicode="&#xf3;" horiz-adv-x="1284" d="M86 512q0 148 74.5 274.5t203 200.5t279.5 74q150 0 278 -74t202.5 -200.5t74.5 -274.5t-74.5 -274.5t-202.5 -200.5t-278 -74q-151 0 -279.5 74t-203 200.5t-74.5 274.5zM264 510q0 -171 107.5 -284t267.5 -113q163 0 271 114t108 285q0 167 -107.5 281t-267.5 114 q-162 0 -270.5 -113.5t-108.5 -283.5zM500 1192l319 260l115 -90l-348 -238z" />
<glyph unicode="&#xf4;" horiz-adv-x="1284" d="M86 512q0 148 74.5 274.5t203 200.5t279.5 74q150 0 278 -74t202.5 -200.5t74.5 -274.5t-74.5 -274.5t-202.5 -200.5t-278 -74q-151 0 -279.5 74t-203 200.5t-74.5 274.5zM264 510q0 -171 107.5 -284t267.5 -113q163 0 271 114t108 285q0 167 -107.5 281t-267.5 114 q-162 0 -270.5 -113.5t-108.5 -283.5zM303 1217l340 233l340 -233l-45 -95l-295 162l-295 -162z" />
<glyph unicode="&#xf5;" horiz-adv-x="1284" d="M86 512q0 148 74.5 274.5t203 200.5t279.5 74q150 0 278 -74t202.5 -200.5t74.5 -274.5t-74.5 -274.5t-202.5 -200.5t-278 -74q-151 0 -279.5 74t-203 200.5t-74.5 274.5zM264 510q0 -171 107.5 -284t267.5 -113q163 0 271 114t108 285q0 167 -107.5 281t-267.5 114 q-162 0 -270.5 -113.5t-108.5 -283.5zM360 1147v125q79 20 134 20q28 0 39.5 -1t38.5 -6t79 -17q59 -15 109 -15q54 0 85.5 7.5t76.5 31.5v-125q-100 -28 -152 -28q-46 0 -131 18q-95 23 -143 23q-61 0 -136 -33z" />
<glyph unicode="&#xf6;" horiz-adv-x="1284" d="M86 512q0 148 74.5 274.5t203 200.5t279.5 74q150 0 278 -74t202.5 -200.5t74.5 -274.5t-74.5 -274.5t-202.5 -200.5t-278 -74q-151 0 -279.5 74t-203 200.5t-74.5 274.5zM264 510q0 -171 107.5 -284t267.5 -113q163 0 271 114t108 285q0 167 -107.5 281t-267.5 114 q-162 0 -270.5 -113.5t-108.5 -283.5zM371 1237q0 46 28.5 77.5t69.5 31.5q43 0 73.5 -31.5t30.5 -77.5q0 -40 -30.5 -68t-71.5 -28q-40 0 -69.5 28t-30.5 68zM715 1237q0 45 31.5 77t74.5 32q40 0 69.5 -31.5t29.5 -75.5q0 -41 -30.5 -69.5t-72.5 -28.5q-41 0 -70.5 28 t-31.5 68z" />
<glyph unicode="&#xf7;" horiz-adv-x="1216" d="M88 414v139h948v-139h-948zM446 207q0 49 33 82q38 35 84 35q49 0 82 -33t33 -84q0 -50 -35 -82q-30 -35 -80 -35q-49 0 -84 35q-33 38 -33 82zM446 758q0 49 33 82q34 31 84 34q50 0 80 -34q35 -35 35 -82q0 -50 -35 -82q-30 -35 -80 -35q-49 0 -84 35q-33 33 -33 82z " />
<glyph unicode="&#xf8;" horiz-adv-x="1284" d="M82 549q0 93 43.5 183.5t122.5 164.5q180 166 360 166q138 0 383 -135l111 116l72 -55l-115 -123q143 -246 143 -395q0 -93 -43.5 -183.5t-122.5 -162.5q-87 -78 -181 -121t-181 -43q-135 0 -377 121l-107 -115l-69 66l112 106q-151 259 -151 410zM264 541q0 -99 80 -283 l533 561q-165 84 -259 84q-139 0 -246.5 -109.5t-107.5 -252.5zM408 193q160 -80 254 -80q90 0 174 53t135 138.5t51 176.5q0 98 -82 273z" />
<glyph unicode="&#xf9;" horiz-adv-x="1208" d="M154 354v680h172v-663q0 -127 70.5 -191.5t207.5 -64.5q279 0 279 256v663h174v-680q0 -108 -28 -176.5t-91 -118.5q-117 -94 -334 -94q-208 0 -334 94q-61 44 -88.5 114.5t-27.5 180.5zM412 1366l116 88l318 -260l-88 -70z" />
<glyph unicode="&#xfa;" horiz-adv-x="1208" d="M154 354v680h172v-663q0 -127 70.5 -191.5t207.5 -64.5q279 0 279 256v663h174v-680q0 -108 -28 -176.5t-91 -118.5q-117 -94 -334 -94q-208 0 -334 94q-61 44 -88.5 114.5t-27.5 180.5zM461 1192l319 260l115 -90l-348 -238z" />
<glyph unicode="&#xfb;" horiz-adv-x="1208" d="M154 354v680h172v-663q0 -127 70.5 -191.5t207.5 -64.5q279 0 279 256v663h174v-680q0 -108 -28 -176.5t-91 -118.5q-117 -94 -334 -94q-208 0 -334 94q-61 44 -88.5 114.5t-27.5 180.5zM264 1217l340 233l340 -233l-45 -95l-295 162l-295 -162z" />
<glyph unicode="&#xfc;" horiz-adv-x="1218" d="M154 354v680h176v-663q0 -127 71 -191.5t207 -64.5q138 0 209.5 64.5t71.5 191.5v663h178v-680q0 -108 -28 -176.5t-91 -118.5q-123 -94 -340 -94q-209 0 -338 94q-61 44 -88.5 114.5t-27.5 180.5zM330 1235q0 43 29.5 73.5t70.5 30.5q43 0 74 -32t31 -76q0 -38 -30 -66 t-71 -28q-43 0 -72.5 28.5t-31.5 69.5zM678 1231q0 44 30.5 76t73.5 32q40 0 68.5 -30.5t28.5 -73.5q0 -41 -29.5 -69.5t-73.5 -28.5q-39 0 -68.5 27.5t-29.5 66.5z" />
<glyph unicode="&#xff;" horiz-adv-x="944" d="M-43 1034h188l293 -741q18 -41 31 -154l12 76l19 78l309 741h192l-593 -1405h-199l168 377zM199 1227q0 43 28.5 73.5t69.5 30.5q43 0 73.5 -32t30.5 -76q0 -39 -29.5 -68t-70.5 -29q-42 0 -71 29.5t-31 71.5zM545 1223q0 44 30.5 76t73.5 32q40 0 69.5 -30.5t29.5 -73.5 q0 -41 -30 -71t-73 -30q-40 0 -70 29t-30 68z" />
<glyph unicode="&#x152;" horiz-adv-x="1906" d="M84 737q0 203 102 376.5t275.5 275.5t376.5 102q15 0 147 -10q79 -8 100 -8h25l72 4h653l-41 -160h-577v-481h538v-158h-538v-518h622l-43 -160h-610h-78h-10q-35 0 -45 -2q-15 0 -64 -8q-51 -10 -127 -10q-217 0 -395.5 99.5t-280.5 273t-102 384.5zM281 731 q0 -158 80 -293.5t217.5 -215t298.5 -79.5q102 0 131 29q14 16 14 92v969q0 39 -2.5 48t-15.5 19q-48 27 -152 27q-117 0 -222.5 -47t-182 -126.5t-121.5 -190t-45 -232.5z" />
<glyph unicode="&#x153;" horiz-adv-x="2127" d="M84 512q0 151 74 277.5t202.5 199t282.5 72.5q114 0 223 -47q79 -35 126 -78.5t110 -140.5q34 56 55 83t53 54q70 61 164 95t193 34q113 0 219 -45q96 -41 155 -101t134 -194l-822 -426q31 -43 39 -53q50 -56 123 -86.5t152 -30.5q93 0 174 37q56 27 89 56.5t73 90.5 l129 -73q-51 -77 -60 -89q-69 -81 -178.5 -128.5t-228.5 -47.5q-118 0 -228 49q-80 37 -126 78t-107 131q-17 -24 -43 -58t-33 -44q-68 -74 -175 -118t-220 -44q-152 0 -278 72t-198.5 197.5t-72.5 277.5zM254 494q8 -159 118 -267t265 -108q166 0 272.5 111t106.5 284 q0 177 -101.5 284t-271.5 107q-167 0 -278 -112.5t-111 -282.5v-16zM1178 549q0 -53 14 -127l674 348q-44 57 -77.5 83t-88.5 46q-80 25 -146 25q-151 0 -263.5 -112t-112.5 -263z" />
<glyph unicode="&#x178;" horiz-adv-x="1058" d="M-59 1477h229l330 -598q14 -27 26 -123q2 73 29 125l338 596h223l-493 -824v-653h-191v653zM256 1710q0 43 28.5 74t69.5 31q43 0 74 -32.5t31 -76.5q0 -38 -30 -67t-71 -29q-42 0 -71 29t-31 71zM602 1706q0 44 31 76.5t74 32.5q40 0 69 -31t29 -74q0 -41 -30 -70.5 t-73 -29.5q-40 0 -70 28.5t-30 67.5z" />
<glyph unicode="&#x2c6;" horiz-adv-x="444" d="M-117 1217l340 233l340 -233l-45 -95l-295 162l-295 -162z" />
<glyph unicode="&#x2dc;" horiz-adv-x="327" d="M-117 1147v125q79 20 133 20q28 0 39.5 -1t39.5 -6t79 -17q59 -15 109 -15q54 0 85 7.5t76 31.5v-125q-100 -28 -151 -28q-46 0 -131 18q-95 23 -144 23q-60 0 -135 -33z" />
<glyph unicode="&#x2000;" horiz-adv-x="968" />
<glyph unicode="&#x2001;" horiz-adv-x="1937" />
<glyph unicode="&#x2002;" horiz-adv-x="968" />
<glyph unicode="&#x2003;" horiz-adv-x="1937" />
<glyph unicode="&#x2004;" horiz-adv-x="645" />
<glyph unicode="&#x2005;" horiz-adv-x="484" />
<glyph unicode="&#x2006;" horiz-adv-x="322" />
<glyph unicode="&#x2007;" horiz-adv-x="322" />
<glyph unicode="&#x2008;" horiz-adv-x="242" />
<glyph unicode="&#x2009;" horiz-adv-x="387" />
<glyph unicode="&#x200a;" horiz-adv-x="107" />
<glyph unicode="&#x2010;" horiz-adv-x="604" d="M45 520v164h516v-164h-516z" />
<glyph unicode="&#x2011;" horiz-adv-x="604" d="M45 520v164h516v-164h-516z" />
<glyph unicode="&#x2012;" horiz-adv-x="604" d="M45 520v164h516v-164h-516z" />
<glyph unicode="&#x2013;" d="M188 668v141h889v-141h-889z" />
<glyph unicode="&#x2014;" horiz-adv-x="2039" d="M61 684v107h1917v-107h-1917z" />
<glyph unicode="&#x2018;" horiz-adv-x="372" d="M45 1116q0 63 29 125q32 68 68 118.5t110 133.5l76 -45q-59 -72 -82.5 -111t-57.5 -120q113 -15 113 -115v-8q-4 -54 -41 -88.5t-88 -34.5q-58 0 -92.5 39.5t-34.5 105.5z" />
<glyph unicode="&#x2019;" horiz-adv-x="372" d="M45 1014q59 72 81.5 110.5t57.5 122.5q-112 12 -112 113v8q4 54 40.5 89.5t86.5 35.5q59 0 95 -40t36 -107q0 -58 -31 -125q-33 -68 -68.5 -116.5t-111.5 -133.5z" />
<glyph unicode="&#x201a;" horiz-adv-x="358" d="M31 -244q60 73 83.5 112.5t55.5 121.5q-113 12 -113 112v9q5 53 41.5 89t87.5 36q58 0 94.5 -41.5t36.5 -106.5q0 -56 -32 -125q-31 -69 -67 -119.5t-112 -132.5z" />
<glyph unicode="&#x201c;" horiz-adv-x="710" d="M45 1116q0 63 29 125q32 68 68 118.5t110 133.5l76 -45q-59 -72 -82.5 -111t-57.5 -120q113 -15 113 -115v-8q-4 -54 -41 -88.5t-88 -34.5q-58 0 -92.5 39.5t-34.5 105.5zM381 1116q0 58 31 125q34 70 70 121t110 131l74 -45q-59 -72 -82.5 -111t-57.5 -120 q113 -15 113 -115v-8q-4 -54 -40.5 -88.5t-86.5 -34.5q-59 0 -95 39.5t-36 105.5z" />
<glyph unicode="&#x201d;" horiz-adv-x="710" d="M45 1014q59 72 81.5 110.5t57.5 122.5q-112 12 -112 113v8q4 54 40.5 89.5t86.5 35.5q59 0 95 -40t36 -107q0 -58 -31 -125q-33 -68 -68.5 -116.5t-111.5 -133.5zM383 1014q60 74 83.5 113t55.5 120q-112 12 -112 113v8q4 54 41 89.5t88 35.5q58 0 92.5 -39.5 t34.5 -107.5q0 -63 -29 -125q-32 -69 -68.5 -120t-109.5 -130z" />
<glyph unicode="&#x201e;" horiz-adv-x="698" d="M31 -244q60 73 83.5 112.5t55.5 121.5q-113 12 -113 112v9q5 53 41.5 89t87.5 36q58 0 94.5 -41.5t36.5 -106.5q0 -56 -32 -125q-31 -69 -67 -119.5t-112 -132.5zM371 -244q58 73 81.5 112.5t57.5 121.5q-113 12 -113 112v9q5 53 41.5 89t85.5 36q58 0 94.5 -41 t36.5 -107q0 -60 -30 -125q-33 -70 -69 -119.5t-112 -132.5z" />
<glyph unicode="&#x2022;" horiz-adv-x="401" d="M74 610q0 52 37 89.5t88 37.5q54 0 91.5 -37t37.5 -90q0 -52 -37.5 -88.5t-91.5 -36.5q-51 0 -88 36.5t-37 88.5z" />
<glyph unicode="&#x2026;" horiz-adv-x="2039" d="M258 82q0 41 29 70q29 28 69.5 28t69.5 -28q29 -29 29 -70.5t-29 -69.5q-29 -29 -69.5 -29t-69.5 29t-29 70zM940 82q0 41 29 70q29 28 69.5 28t69.5 -28q29 -29 29 -70.5t-29 -69.5q-29 -29 -69.5 -29t-69.5 29t-29 70zM1608 82q0 40 28.5 69t69.5 29t69.5 -29t28.5 -69 q0 -41 -28.5 -69.5t-69.5 -28.5t-69.5 28.5t-28.5 69.5z" />
<glyph unicode="&#x202f;" horiz-adv-x="387" />
<glyph unicode="&#x2039;" horiz-adv-x="604" d="M45 504l416 471l100 -96l-332 -375l328 -369l-100 -96z" />
<glyph unicode="&#x203a;" horiz-adv-x="598" d="M45 137l326 367l-326 375l98 94l410 -469l-408 -461z" />
<glyph unicode="&#x205f;" horiz-adv-x="484" />
<glyph unicode="&#x2122;" horiz-adv-x="1634" d="M109 1382v93h440v-93l-170 2v-647h-103v647zM524 737l148 762h33l229 -504l12 -30l4 -11q13 -33 13 -69q3 40 14 71l6 15l10 24l230 504h32l148 -762h-105l-77 445l-4 26l-3 9q-3 28 3 65l-9 -29l-10 -34l-8 -25l-4 -8l-211 -469h-23l-211 469l-6 12l-6 21q-11 32 -18 63 q5 -33 2 -65l-2 -9l-4 -26l-78 -445h-105z" />
<glyph unicode="&#x25fc;" horiz-adv-x="1034" d="M0 0v1034h1034v-1034h-1034z" />
<glyph unicode="&#xfb01;" d="M264 481l258 256l-256 258l109 109l260 -258l258 256l111 -111l-259 -256l256 -254l-108 -110l-256 254l-258 -260z" />
<glyph unicode="&#xfb02;" horiz-adv-x="380" d="M-12 1307l49 170h282v-1477h-190v1307h-141z" />
</font>
</defs>
</svg>
