<?xml version="1.0" standalone="no"?>
<!DOCTYPE svg PUBLIC "-//W3C//DTD SVG 1.1//EN" "http://www.w3.org/Graphics/SVG/1.1/DTD/svg11.dtd" >
<svg xmlns="http://www.w3.org/2000/svg" xmlns:xlink="http://www.w3.org/1999/xlink" version="1.1">
<metadata></metadata>
<defs>
<font id="ornitons-demiboldregular" horiz-adv-x="1392" >
<font-face units-per-em="2048" ascent="1638" descent="-410" />
<missing-glyph horiz-adv-x="593" />
<glyph horiz-adv-x="0" />
<glyph horiz-adv-x="682" />
<glyph unicode=" " horiz-adv-x="593" d="M0 0z" />
<glyph unicode="!" horiz-adv-x="600" d="M109 170q0 78 55.5 133t134.5 55q80 0 136.5 -55.5t56.5 -134.5t-57.5 -135t-137.5 -56q-78 0 -133 56.5t-55 136.5zM113 1477h374l-55 -1020h-258z" />
<glyph unicode="&#x22;" horiz-adv-x="937" d="M45 901q64 69 91 106t71 119q-41 12 -70 27q-34 20 -57 64t-23 88q0 79 56.5 136.5t134.5 57.5q84 0 140 -63.5t56 -157.5q0 -83 -34 -152q-34 -72 -81 -134.5t-145 -166.5zM494 901q65 70 92 107t69 118q-42 14 -69 27q-32 20 -55 63.5t-23 86.5q0 81 56 138.5t134 57.5 q84 0 140.5 -63.5t56.5 -157.5q0 -77 -37 -152q-32 -72 -78.5 -133t-148.5 -168z" />
<glyph unicode="#" horiz-adv-x="1292" d="M78 438l26 123h236l76 352h-238l27 123h235l90 424h123l-90 -424h197l90 424h123l-90 -424h235l-24 -123h-236l-76 -352h236l-27 -123h-235l-90 -424h-123l90 424h-197l-90 -424h-123l90 424h-235zM463 561h196l76 352h-198z" />
<glyph unicode="$" horiz-adv-x="1163" d="M31 154l127 286q90 -76 149 -110q55 -34 92 -44.5t109 -15.5v353q-111 23 -167 42.5t-105 51.5q-77 51 -118.5 130t-41.5 175q0 100 42.5 190.5t121.5 159.5q66 58 119 80t151 29v157h135v-153q133 -3 199.5 -20.5t187.5 -84.5l-88 -266q-86 52 -133 70 q-50 21 -79.5 27.5t-82.5 9.5v-326q130 -32 187 -51t104 -47q77 -46 119.5 -129t42.5 -187q0 -110 -47 -209.5t-133 -169.5q-61 -51 -117 -75t-166 -47v-175h-139v168q-165 19 -248 51t-221 130zM453 1049q0 -32 12 -53.5t45 -45.5l-2 219l-16 -22q-26 -35 -32.5 -51 t-6.5 -47zM643 303q37 22 60.5 62t23.5 84q0 39 -14.5 61t-69.5 65v-272z" />
<glyph unicode="%" horiz-adv-x="1595" d="M59 1118q0 153 109 261t264 108q152 0 260.5 -108.5t108.5 -260.5q0 -154 -108.5 -262t-260.5 -108q-155 0 -264 108t-109 262zM186 0l1059 1477h166l-1055 -1477h-170zM262 1118q0 -89 49.5 -152t120.5 -63q69 0 118.5 63.5t49.5 151.5t-49.5 151.5t-118.5 63.5 q-71 0 -120.5 -63t-49.5 -152zM801 354q0 151 107.5 259t260.5 108q152 0 259.5 -108t107.5 -259t-107.5 -257.5t-259.5 -106.5q-153 0 -260.5 106.5t-107.5 257.5zM999 354q0 -90 49 -153.5t121 -63.5q69 0 119.5 64t50.5 153t-50.5 153t-119.5 64q-72 0 -121 -63.5 t-49 -153.5z" />
<glyph unicode="&#x26;" horiz-adv-x="1591" d="M59 422q0 89 41.5 168.5t116.5 136.5q70 51 189 90q-69 62 -110.5 142.5t-41.5 154.5q0 164 138 273.5t345 109.5q204 0 336.5 -109.5t132.5 -277.5q0 -131 -78 -220.5t-254 -158.5q75 -90 115 -133.5t129 -132.5q77 62 112 98t93 113l199 -217q-64 -75 -98.5 -108 t-108.5 -87q96 -99 143.5 -143t143.5 -121h-445l-102 98q-82 -44 -97 -49q-79 -36 -173 -57t-177 -21q-151 0 -277.5 60t-199 163.5t-72.5 227.5zM410 449q0 -89 69.5 -151t169.5 -62q85 0 158 34q33 17 51 29l-293 330q-72 -36 -94 -54q-61 -52 -61 -126zM586 1130 q0 -42 27.5 -89.5t93.5 -120.5q101 44 143 86q55 52 55 122q0 66 -44.5 107t-115.5 41q-69 0 -114 -41t-45 -105z" />
<glyph unicode="'" horiz-adv-x="489" d="M45 901q64 69 91 106t71 119q-41 12 -70 27q-34 20 -57 64t-23 88q0 79 56.5 136.5t134.5 57.5q84 0 140 -63.5t56 -157.5q0 -83 -34 -152q-34 -72 -81 -134.5t-145 -166.5z" />
<glyph unicode="(" horiz-adv-x="673" d="M80 713q0 148 17.5 256t66.5 221t127 223.5t209 263.5l166 -184q-183 -236 -247.5 -388.5t-64.5 -346.5q0 -155 26.5 -266t91 -226t194.5 -284l-166 -185q-245 287 -332.5 478.5t-87.5 437.5z" />
<glyph unicode=")" horiz-adv-x="675" d="M6 -18q186 238 253 393t67 350q0 215 -64 369.5t-256 400.5l160 182q249 -283 339.5 -474.5t90.5 -438.5q0 -198 -36.5 -339t-126 -283t-267.5 -343z" />
<glyph unicode="*" horiz-adv-x="796" d="M33 979q0 42 36.5 73t86.5 31q16 0 26 -2l45 -12q10 -2 25 -2q57 0 57 37q0 41 -57 41q-15 0 -25 -2l-45 -13q-10 -2 -26 -2q-51 0 -87 31.5t-36 75.5q0 51 33 86t79 35q37 0 69.5 -23t43.5 -55l18 -47q22 -53 54 -53q15 0 23.5 12t8.5 31q0 23 -24 53q-59 71 -59 119 q0 52 33 79t94 27q50 0 81 -29.5t31 -76.5q0 -51 -59 -119q-27 -34 -27 -53q0 -43 35 -43q15 0 29.5 14.5t23.5 38.5l19 47q11 32 43 55t69 23q46 0 79.5 -35t33.5 -86q0 -43 -36 -75t-85 -32q-19 0 -27 2l-47 13q-8 2 -24 2q-58 0 -58 -37q0 -41 58 -41q16 0 24 2l47 12 q8 2 27 2q50 0 84.5 -31t34.5 -75q0 -51 -32.5 -86t-78.5 -35q-37 0 -69 23t-43 55l-19 47q-9 24 -23.5 38.5t-29.5 14.5t-25 -12t-10 -31t27 -53q59 -71 59 -119q0 -50 -33.5 -78t-93.5 -28q-51 0 -81.5 29.5t-30.5 76.5q0 52 59 119q24 30 24 53q0 43 -32 43t-54 -53 l-18 -47q-11 -32 -43.5 -55t-69.5 -23q-46 0 -79 35.5t-33 87.5z" />
<glyph unicode="+" d="M215 637v276h346v340h279v-340h338v-276h-338v-342h-283v342h-342z" />
<glyph unicode="," horiz-adv-x="483" d="M37 -250q66 70 92.5 107.5t69.5 119.5q-48 15 -68 27q-34 20 -57 63.5t-23 88.5q0 81 56 137.5t135 56.5q84 0 140 -63.5t56 -157.5q0 -81 -35 -152q-34 -71 -80 -132.5t-147 -168.5z" />
<glyph unicode="-" horiz-adv-x="638" d="M45 459v246h551v-246h-551z" />
<glyph unicode="." horiz-adv-x="471" d="M45 170q0 78 56.5 133t134.5 55q79 0 135.5 -55.5t56.5 -134.5t-57.5 -135t-137.5 -56q-78 0 -133 56.5t-55 136.5z" />
<glyph unicode="/" horiz-adv-x="679" d="M51 0l365 1513l213 -36l-363 -1514z" />
<glyph unicode="0" d="M66 737q0 218 82 395.5t225.5 278t320.5 100.5q134 0 251.5 -59t201 -161.5t132 -245.5t48.5 -306t-48.5 -307t-132 -246.5t-201 -161.5t-251.5 -59q-176 0 -320 100.5t-226 277.5t-82 394zM422 737q0 -202 76 -329t196 -127q123 0 200 127t77 329q0 203 -77 330 t-200 127q-120 0 -196 -127.5t-76 -329.5z" />
<glyph unicode="1" d="M393 1169l105 308h426v-1477h-355v1169h-176z" />
<glyph unicode="2" d="M35 0q223 198 407 379q189 192 289 309q91 111 129.5 186.5t38.5 145.5q0 78 -49 128t-125 50q-55 0 -96 -24q-46 -26 -68.5 -70t-34.5 -131h-350q17 149 50.5 229t109.5 154q155 143 389 143q150 0 271.5 -60t190 -166t68.5 -237q0 -99 -48 -210.5t-122 -188.5 l-141 -143l-113 -111l-92 -86h518l-83 -297h-1139z" />
<glyph unicode="3" d="M113 504h352q3 -72 16 -111.5t45 -73.5q65 -71 168 -71q94 0 154.5 62t60.5 159q0 99 -66.5 159t-176.5 60q-7 0 -27.5 -1t-32.5 -1v223q121 0 183.5 47.5t62.5 135.5q0 68 -47.5 112.5t-122.5 44.5t-119 -41.5t-63 -130.5h-334q17 122 46.5 185.5t96.5 121.5 q147 123 377 123q224 0 370 -110.5t146 -280.5q0 -146 -104 -233q-34 -30 -119 -66q136 -28 214.5 -126t78.5 -245q0 -204 -160 -340.5t-399 -136.5q-119 0 -235 38.5t-202 105.5q-86 68 -121.5 152t-41.5 239z" />
<glyph unicode="4" d="M70 336v270l616 871h424v-875h150v-266h-148v-336h-352v336h-690zM385 602h377v440q0 31 8 86q1 9 6.5 45.5t7.5 61.5q-29 -49 -53 -98q-10 -18 -20 -36.5t-16.5 -29.5t-8.5 -16z" />
<glyph unicode="5" d="M127 102l61 289q175 -92 267 -117q81 -18 139 -18q131 0 213 60.5t82 156.5q0 107 -89 168t-245 61q-40 0 -115 -10q-108 -16 -225 -49l107 834h860l-84 -295h-518l-35 -291q111 27 188 27q230 0 373 -121.5t143 -315.5q0 -221 -175.5 -367.5t-440.5 -146.5 q-103 0 -217 27q-84 22 -141 42t-148 66z" />
<glyph unicode="6" d="M78 524q0 181 125 365q39 56 111.5 143.5t131.5 153.5l271 291h457l-160 -164l-172 -174l-142 -150q91 15 146 15q122 0 227.5 -66t167.5 -177t62 -239q0 -153 -79 -278.5t-219 -197t-311 -71.5q-170 0 -311.5 72.5t-223 198.5t-81.5 278zM436 520q0 -103 75 -176.5 t181 -73.5q107 0 181.5 76t74.5 184q0 103 -76.5 176.5t-183.5 73.5q-104 0 -178 -76.5t-74 -183.5z" />
<glyph unicode="7" d="M84 1171l98 306h1155l-809 -1477h-411l643 1112q30 46 108 109q-73 -32 -100 -41t-49 -9h-635z" />
<glyph unicode="8" d="M115 428q0 104 55 197q39 64 84 96.5t139 66.5q-50 16 -88 39q-60 35 -96.5 107.5t-36.5 152.5q0 115 68.5 209.5t188.5 148.5t265 54q224 0 375.5 -118.5t151.5 -295.5q0 -87 -45 -163q-29 -51 -66 -78.5t-111 -55.5q80 -30 105 -45q77 -41 125.5 -128t48.5 -185 q0 -199 -165 -329t-419 -130q-165 0 -297.5 59t-207 163.5t-74.5 234.5zM471 461q0 -95 65 -160t158 -65q95 0 160.5 65t65.5 160q0 93 -65 158t-157 65q-95 0 -161 -64.5t-66 -158.5zM516 1065q0 -77 51.5 -129.5t126.5 -52.5q77 0 130 53t53 129q0 75 -54 127.5t-129 52.5 q-72 0 -125 -52.5t-53 -127.5z" />
<glyph unicode="9" d="M90 950q0 155 78.5 279.5t218 195t313.5 70.5q168 0 309 -72.5t222.5 -198.5t81.5 -276q0 -184 -127 -368q-41 -58 -82.5 -108t-157.5 -179l-262 -293h-465l160 160q204 207 313 325q-94 -20 -157 -20q-117 0 -220 66t-164 178.5t-61 240.5zM444 936q0 -102 76 -175 t182 -73q105 0 178.5 76t73.5 184q0 103 -74 176.5t-178 73.5q-106 0 -182 -77t-76 -185z" />
<glyph unicode=":" horiz-adv-x="534" d="M74 866q0 79 56 135t136 56q79 0 136 -56.5t57 -134.5q0 -79 -56.5 -135.5t-134.5 -56.5q-81 0 -137.5 56t-56.5 136zM76 170q0 78 56 133t134 55q80 0 136.5 -55.5t56.5 -134.5q0 -80 -56.5 -135.5t-138.5 -55.5q-78 0 -133 56.5t-55 136.5z" />
<glyph unicode=";" horiz-adv-x="546" d="M74 -240q66 72 93.5 111t68.5 117q-50 14 -68 24q-35 20 -57.5 63.5t-22.5 88.5q0 82 55.5 138t135.5 56q85 0 140.5 -62.5t55.5 -158.5q0 -74 -35 -149q-36 -73 -82.5 -134.5t-144.5 -164.5zM86 864q0 80 55.5 136.5t134.5 56.5q78 0 134.5 -57t56.5 -136 q0 -78 -56.5 -134t-134.5 -56q-79 0 -134.5 56t-55.5 134z" />
<glyph unicode="&#x3c;" horiz-adv-x="718" d="M45 510l471 498l160 -158l-322 -340l320 -338l-162 -156z" />
<glyph unicode="=" d="M213 492v239h967v-239h-967zM215 821v238h963v-238h-963z" />
<glyph unicode="&#x3e;" horiz-adv-x="710" d="M45 850l158 156l463 -494l-465 -492l-154 154l313 338z" />
<glyph unicode="?" horiz-adv-x="892" d="M-16 1376q80 44 102 54q159 75 315 75q193 0 317 -108t124 -277q0 -60 -27 -139q-22 -56 -44 -87t-105 -120q-11 -11 -36 -39t-34 -37q-44 -54 -59 -87.5t-15 -80.5q0 -42 4 -73h-262q-8 60 -8 106q0 48 10 82q6 40 24.5 73.5t65.5 90.5q101 123 132.5 177t31.5 106 q0 67 -48.5 113t-119.5 46q-50 0 -102 -18q-47 -18 -83 -40t-93 -69zM199 170q0 78 55.5 133t134.5 55q80 0 135.5 -55.5t55.5 -134.5t-56.5 -135t-136.5 -56q-78 0 -133 56.5t-55 136.5z" />
<glyph unicode="@" horiz-adv-x="1744" d="M121 637q-25 252 73 451t300 317q137 77 280 94q115 14 222 -4.5t192 -65t154.5 -117t108.5 -160.5t53.5 -195t-9.5 -220q-30 -156 -107.5 -265t-177.5 -150q-70 -27 -128 -18.5t-97 45.5t-45 89v29q-15 -37 -41 -70q-111 -133 -268 -65q-81 35 -126.5 129t-39.5 237 q4 44 8 72q20 124 75 222.5t130 152.5q70 49 143.5 55.5t128.5 -27t78 -94.5l16 105h105l-74 -430l-26 -170q-13 -82 2 -127q9 -33 40.5 -49t65.5 -5q26 9 49.5 27.5t61.5 61.5q38 42 68.5 112.5t45.5 153.5q24 146 -12.5 272.5t-118.5 210.5t-205 123t-264 18 q-160 -23 -284.5 -123.5t-188.5 -260.5t-47 -345q9 -113 57 -219q67 -145 183 -236t250 -115.5t282 20t275 159.5q49 44 108 121l31 -102q-16 -23 -49 -60q-234 -249 -555 -252q-287 0 -489.5 186.5t-233.5 481.5zM594 598q8 -179 125 -195q64 -9 110.5 37t94.5 176 q21 66 34 144l9 37l10 69q10 61 6 117q-7 72 -64 106.5t-122 6.5q-54 -21 -91.5 -71.5t-72.5 -152.5q-16 -47 -25 -98q-17 -97 -14 -176z" />
<glyph unicode="A" horiz-adv-x="1355" d="M-33 0l518 1477h385l516 -1477h-399l-98 336h-424l-98 -336h-400zM518 596h320l-131 473q-20 75 -27 152q-7 -61 -29 -152z" />
<glyph unicode="B" horiz-adv-x="1267" d="M113 0v1477h575q201 0 319.5 -103t118.5 -280q0 -148 -90 -244q-27 -29 -54.5 -45t-82.5 -37q67 -16 101 -30t71 -44q133 -106 133 -282q0 -180 -120.5 -296t-307.5 -116h-663zM483 252h142q121 0 175 47.5t54 153.5q0 100 -57.5 147t-184.5 47h-129v-395zM483 862h121 q100 0 153.5 48t53.5 139q0 188 -203 188h-125v-375z" />
<glyph unicode="C" horiz-adv-x="1343" d="M72 737q0 158 61.5 300.5t165.5 245.5t248.5 163.5t304.5 60.5q119 0 240 -41q54 -18 98 -40.5t125 -71.5l-131 -301q-15 9 -38 25t-26 18q-119 75 -254 75q-180 0 -305 -126t-125 -308q0 -180 126 -305t308 -125q72 0 146 23q77 25 174 88l123 -303q-70 -44 -111 -64 q-163 -80 -350 -80q-161 0 -305.5 59.5t-248.5 161.5t-165 244t-61 301z" />
<glyph unicode="D" horiz-adv-x="1415" d="M113 0v1477h495q208 0 376 -96.5t262.5 -266t94.5 -377.5q0 -207 -95 -376t-262.5 -265t-373.5 -96h-497zM483 317h62q181 0 296 119.5t115 308.5q0 185 -116.5 307t-294.5 122h-62v-857z" />
<glyph unicode="E" horiz-adv-x="1116" d="M113 0v1477h962l-76 -285h-516v-309h475v-277h-475v-321h594l-82 -285h-882z" />
<glyph unicode="F" horiz-adv-x="1040" d="M113 0v1477h950l-78 -285h-502v-311h490l-74 -279h-416v-602h-370z" />
<glyph unicode="G" horiz-adv-x="1714" d="M74 729q0 159 62 302t167 246.5t251.5 164.5t309.5 61q139 0 281 -49q117 -41 188.5 -96t175.5 -182l-311 -150q-59 63 -78 76q-48 40 -117 65t-135 25q-173 0 -296 -135t-123 -324q0 -191 125 -326t303 -135q143 0 247 90.5t138 243.5h-406l2 238h789q2 -31 2 -94 q0 -165 -59.5 -309.5t-163 -247.5t-249 -162.5t-311.5 -59.5q-164 0 -311 59t-252.5 160t-167 241.5t-61.5 297.5z" />
<glyph unicode="H" horiz-adv-x="1476" d="M113 0v1477h370v-559h510v559h371v-1477h-371v592h-510v-592h-370z" />
<glyph unicode="I" horiz-adv-x="595" d="M113 0v1477h370v-1477h-370z" />
<glyph unicode="J" horiz-adv-x="919" d="M-29 152l154 237q67 -58 105.5 -79t78.5 -21q33 0 64 14q37 17 50 51.5t13 118.5v1004h371v-1084q0 -130 -15 -180.5t-71 -112.5q-113 -129 -307 -129q-92 0 -178 29q-68 22 -122.5 53t-142.5 99z" />
<glyph unicode="K" horiz-adv-x="1265" d="M113 0v1477h370v-598l379 598h430l-506 -701l531 -776h-434l-400 653v-653h-370z" />
<glyph unicode="L" horiz-adv-x="1054" d="M113 0v1477h370v-1186h592l-82 -291h-880z" />
<glyph unicode="M" horiz-adv-x="1849" d="M25 0l211 1477h364l299 -920q19 -61 29 -168q8 121 24 168l301 920h365l211 -1477h-361l-79 831q-5 31 -5 89q0 44 5 139q-4 -25 -11.5 -58.5t-9.5 -42.5q-13 -81 -27 -122l-270 -836h-289l-272 836q-11 27 -27 122q-1 10 -3.5 24.5t-7 37.5t-7.5 39q4 -88 4 -148 q0 -40 -4 -80l-80 -831h-360z" />
<glyph unicode="N" horiz-adv-x="1595" d="M113 0v1477h385l563 -875q22 -35 38.5 -74.5t67.5 -175.5q-36 164 -39 250l-6 875h361v-1477h-383l-561 862q-27 36 -41.5 71t-59.5 175q29 -170 29 -244l6 -864h-360z" />
<glyph unicode="O" horiz-adv-x="1726" d="M74 737q0 163 61 305.5t167 243.5t255.5 159t321.5 58q161 0 305 -59.5t247 -161.5t163.5 -244t60.5 -301q0 -214 -103.5 -389t-285 -275t-402.5 -100q-223 0 -404 100t-283.5 275t-102.5 389zM436 737q0 -182 125 -309t303 -127q177 0 300.5 127t123.5 309 q0 183 -124 311t-302 128q-177 0 -301.5 -128t-124.5 -311z" />
<glyph unicode="P" horiz-adv-x="1224" d="M113 0v1477h587q233 0 369.5 -132t136.5 -356q0 -209 -121 -336t-321 -127h-281v-526h-370zM483 793h162q211 0 211 198q0 110 -63 162q-30 23 -60.5 31t-95.5 8h-154v-399z" />
<glyph unicode="Q" horiz-adv-x="1726" d="M74 737q0 215 102.5 390.5t283.5 275.5t404 100q221 0 402.5 -100t285 -275.5t103.5 -390.5q0 -178 -41.5 -283t-169.5 -253l172 -199l-232 -192l-206 227q-230 -66 -359 -66q-199 0 -371 104t-273 280.5t-101 381.5zM436 737q0 -182 125 -309t303 -127 q177 0 300.5 126.5t123.5 309.5t-123.5 311t-300.5 128q-178 0 -303 -128t-125 -311z" />
<glyph unicode="R" horiz-adv-x="1253" d="M113 0v1477h555q128 0 211.5 -21.5t142.5 -69.5q64 -49 100.5 -137.5t36.5 -189.5q0 -212 -143 -328q-45 -38 -89.5 -54.5t-125.5 -23.5l479 -653h-436l-361 578v-578h-370zM483 815h133q94 0 150.5 54.5t56.5 146.5t-55 139t-158 47h-127v-387z" />
<glyph unicode="S" horiz-adv-x="1163" d="M31 154l127 286q85 -73 149 -110q112 -62 201 -62q93 0 153 50.5t60 127.5q0 62 -36.5 99t-119.5 57l-112 29q-143 38 -217 86q-77 50 -118.5 129t-41.5 176q0 204 152 340.5t380 136.5q98 0 199 -26q66 -18 109.5 -35.5t115.5 -57.5l-88 -266q-85 52 -133 70 q-98 39 -168 39q-88 0 -143.5 -47t-55.5 -121q0 -30 15.5 -58t40.5 -43q37 -25 96 -43q99 -26 121 -32q149 -40 223 -82q77 -46 119.5 -129t42.5 -187q0 -218 -163 -363t-409 -145q-107 0 -206 29q-79 22 -137.5 52t-155.5 100z" />
<glyph unicode="T" horiz-adv-x="983" d="M-20 1157l10 320h1040l-96 -320h-277v-1157h-368v1157h-309z" />
<glyph unicode="U" horiz-adv-x="1443" d="M113 516v961h370v-936q0 -70 12 -109.5t44 -69.5q33 -33 81.5 -52t100.5 -19q110 0 184 71q32 31 44 69.5t12 109.5v936h370v-961q0 -250 -164 -395.5t-446 -145.5q-281 0 -444.5 145.5t-163.5 395.5z" />
<glyph unicode="V" horiz-adv-x="1255" d="M-27 1477h375l254 -940l16 -119l11 -121l8 121l16 119l254 940h375l-489 -1477h-330z" />
<glyph unicode="W" horiz-adv-x="1949" d="M4 1477h354l187 -875l16 -106l10 -138l11 138l16 108l217 873h322l217 -873q6 -34 12 -108q4 -62 14 -138q13 182 25 244l188 875h355l-404 -1477h-336l-200 870q-12 47 -18 99t-15 200q-15 -217 -31 -299l-203 -870h-331z" />
<glyph unicode="X" horiz-adv-x="1304" d="M-53 0l495 780l-452 697h401l221 -375q32 -51 39 -148q10 102 39 148l221 375h404l-453 -697l496 -780h-424l-236 422q-20 35 -30 73t-17 111q-6 -73 -15.5 -110.5t-29.5 -73.5l-235 -422h-424z" />
<glyph unicode="Y" horiz-adv-x="1232" d="M-59 1477h407l242 -459q10 -20 16 -70q7 -55 10 -71q7 101 27 143l246 457h401l-493 -832v-645h-363v645z" />
<glyph unicode="Z" horiz-adv-x="1306" d="M-8 0l694 1120q27 40 100 99q-90 -45 -135 -45h-604l86 303h1176l-682 -1096q-26 -42 -43 -60.5t-56 -50.5q92 31 136 31h636l-94 -301h-1214z" />
<glyph unicode="[" horiz-adv-x="645" d="M145 -172v1821h441v-209h-144v-1403h144v-209h-441z" />
<glyph unicode="\" horiz-adv-x="686" d="M78 1475h221l258 -1475h-221z" />
<glyph unicode="]" horiz-adv-x="643" d="M55 37h144v1403h-144v209h441v-1821h-441v209z" />
<glyph unicode="^" horiz-adv-x="501" d="M-111 1260l363 258l360 -258l-57 -136l-303 154l-303 -154z" />
<glyph unicode="_" horiz-adv-x="964" d="M78 0h737v-74h-737v74z" />
<glyph unicode="`" horiz-adv-x="339" d="M-61 1411l188 113l266 -312l-141 -86z" />
<glyph unicode="a" horiz-adv-x="1294" d="M74 510q0 235 133.5 390t337.5 155q73 0 162 -27q54 -20 81 -39.5t70 -66.5v112h324v-1034h-324v115q-14 -20 -39 -45q-46 -46 -123 -72.5t-166 -26.5q-205 0 -330.5 148.5t-125.5 390.5zM420 518q0 -121 62 -194.5t163 -73.5q53 0 97.5 23.5t66.5 62.5q33 67 33 194 q0 75 -6.5 111t-26.5 66q-26 40 -70.5 63t-95.5 23q-100 0 -161.5 -76t-61.5 -199z" />
<glyph unicode="b" horiz-adv-x="1290" d="M113 0v1343l340 177v-586q75 69 143 97t160 28q204 0 334.5 -149t130.5 -384q0 -246 -130.5 -399.5t-340.5 -153.5q-87 0 -175 31q-53 20 -79 40t-62 67v-111h-321zM449 510q0 -65 7.5 -99t28.5 -67q55 -92 166 -92q98 0 158.5 75t60.5 197q0 124 -61.5 198.5 t-165.5 74.5q-54 0 -98 -23t-66 -63q-15 -29 -21 -67t-9 -118v-16z" />
<glyph unicode="c" horiz-adv-x="1013" d="M74 514q0 153 74 280.5t203 201t284 73.5q87 0 156.5 -18t183.5 -72l-86 -254q-114 68 -209 68q-108 0 -184 -79t-76 -192q0 -117 79 -195.5t195 -78.5q45 0 84.5 11t110.5 44l82 -233q-119 -62 -190.5 -83.5t-157.5 -21.5q-112 0 -214 43t-175.5 116.5t-116.5 175.5 t-43 214z" />
<glyph unicode="d" horiz-adv-x="1292" d="M74 520q0 236 130.5 387.5t334.5 151.5q75 0 159 -31q43 -17 71.5 -36t72.5 -60v409l338 179v-1520h-322v115q-14 -20 -37 -43q-43 -42 -126.5 -71.5t-159.5 -29.5q-203 0 -332 154t-129 395zM420 528q0 -124 62.5 -200t164.5 -76q197 0 197 256q0 94 -8 136t-33 73 q-58 80 -164 80q-98 0 -158.5 -74t-60.5 -195z" />
<glyph unicode="e" horiz-adv-x="1189" d="M74 508q0 153 72 280.5t198 201t279 73.5q104 0 201 -37.5t171 -105.5q56 -52 92 -109t80 -166l-680 -348q51 -45 88.5 -62.5t81.5 -17.5q60 0 107 28t94 93l225 -137q-20 -24 -49.5 -56.5t-34.5 -38.5q-69 -66 -170.5 -104.5t-205.5 -38.5q-113 0 -215 42.5t-175 114.5 t-116 173.5t-43 214.5zM371 567q0 -22 10 -63l446 227q-62 92 -192 92q-102 0 -183 -78.5t-81 -177.5z" />
<glyph unicode="f" horiz-adv-x="661" d="M-12 768l67 266h101v119q0 165 98 261.5t264 96.5q87 0 221 -38l-71 -256q-43 24 -86 24q-87 0 -90 -125v-82h210l-69 -266h-139v-768h-338v768h-168z" />
<glyph unicode="g" horiz-adv-x="1284" d="M72 526q0 233 133 381t342 148q80 0 162 -29q43 -17 71 -36t70 -60v104h321v-973q0 -120 -34.5 -197.5t-116.5 -142.5q-157 -127 -436 -127q-114 0 -209 21q-75 14 -127.5 34t-136.5 68l129 228q82 -56 145 -78q95 -29 188 -29q130 0 203.5 55t73.5 152v100 q-34 -44 -59.5 -65t-65.5 -41q-95 -37 -190 -37q-207 0 -335 145.5t-128 378.5zM418 510q6 -118 66 -188t155 -70q54 0 99.5 23t68.5 61q18 34 25.5 70.5t7.5 101.5q0 156 -33 209q-25 35 -70 57.5t-92 22.5q-100 0 -163.5 -76.5t-63.5 -196.5v-14z" />
<glyph unicode="h" horiz-adv-x="1263" d="M113 0v1341l340 172v-595q47 56 75 73q107 72 244 72q163 0 272 -92q57 -47 81 -106.5t24 -151.5v-713h-336v604q0 82 -42 125t-122 43q-91 0 -143.5 -48t-52.5 -130v-594h-340z" />
<glyph unicode="i" horiz-adv-x="544" d="M92 1298q0 77 55.5 133t133.5 56t133 -55t55 -132q0 -76 -54.5 -131t-131.5 -55t-133.5 54t-57.5 130zM104 0v897l336 176v-1073h-336z" />
<glyph unicode="j" horiz-adv-x="542" d="M92 1292q0 81 53 138t127 57q81 0 138 -56.5t57 -136.5q0 -74 -54 -127t-130 -53q-75 0 -130.5 52t-60.5 126zM102 -371v1272l338 172v-1444h-338z" />
<glyph unicode="k" horiz-adv-x="1134" d="M113 0v1341l340 177v-859l276 375h399l-389 -461l463 -573h-430l-319 449v-449h-340z" />
<glyph unicode="l" horiz-adv-x="565" d="M113 0v1343l340 177v-1520h-340z" />
<glyph unicode="m" horiz-adv-x="1849" d="M113 0v901l329 174v-157q37 45 64.5 66t73.5 42q82 37 161 37q69 0 133 -27q53 -20 88.5 -51t84.5 -100q124 176 335 176q164 0 259.5 -96.5t95.5 -262.5v-702h-332v618q0 53 -6.5 77t-28.5 46q-42 45 -117 45q-166 0 -166 -174v-612h-327v606q0 180 -160 180 q-75 0 -116.5 -46.5t-41.5 -129.5v-610h-329z" />
<glyph unicode="n" horiz-adv-x="1261" d="M113 901l321 174v-164q9 10 21 24t20 22.5t14 13.5q49 42 123 66t154 24q178 0 291 -107q49 -47 70.5 -109t21.5 -157v-688h-338v594q0 178 -166 178q-86 0 -139 -57.5t-53 -147.5l2 -567h-340z" />
<glyph unicode="o" horiz-adv-x="1271" d="M74 512q0 150 75.5 278t205 202.5t282.5 74.5q114 0 218 -44t179.5 -118.5t120.5 -177.5t45 -215q0 -150 -76 -278.5t-206 -203.5t-283 -75q-114 0 -218 44.5t-179 119.5t-119.5 178t-44.5 215zM393 512q0 -118 68 -193t174 -75q105 0 174.5 76t69.5 192q0 115 -70 191.5 t-174 76.5t-173 -76.5t-69 -191.5z" />
<glyph unicode="p" horiz-adv-x="1294" d="M113 -414v1448h321v-123q34 39 47 50q50 44 125.5 70t155.5 26q206 0 333.5 -150.5t127.5 -394.5q0 -236 -132.5 -388.5t-336.5 -152.5q-100 0 -174 35q-40 19 -65.5 38t-61.5 58v-360zM449 500q0 -81 7 -116.5t29 -68.5q25 -38 69 -60t97 -22q100 0 160.5 73.5 t60.5 193.5q0 123 -61.5 198.5t-161.5 75.5q-52 0 -95.5 -22t-68.5 -60q-23 -33 -29.5 -66.5t-6.5 -111.5v-14z" />
<glyph unicode="q" horiz-adv-x="1292" d="M72 508q0 238 133.5 394.5t337.5 156.5q81 0 172 -33q49 -20 77 -41t66 -67v116h322v-1292l-338 -156v516q-22 -25 -35 -41q-47 -40 -121 -64t-149 -24q-204 0 -334.5 149.5t-130.5 385.5zM422 498q0 -119 61.5 -192t161.5 -73q107 0 156 68q26 35 35.5 80t9.5 133 q0 86 -8 120.5t-35 67.5q-54 72 -156 72q-101 0 -163 -76t-62 -200z" />
<glyph unicode="r" horiz-adv-x="800" d="M113 0v899l321 176v-180q37 52 65.5 76.5t78.5 48.5q78 37 149 37q49 0 129 -15l-88 -323q-55 24 -92 24q-76 0 -129 -38q-51 -37 -72.5 -90t-21.5 -142v-473h-340z" />
<glyph unicode="s" horiz-adv-x="962" d="M27 63l79 246q68 -47 107.5 -67.5t85.5 -30.5q46 -14 94 -14q74 0 119 32t45 86q0 38 -26.5 61t-92.5 40q-19 5 -40 10t-30 7t-12 3q-6 1 -86 27q-211 79 -211 268q0 151 123.5 244.5t321.5 93.5q78 0 155 -12q97 -20 209 -74l-75 -223q-113 61 -168 78q-47 12 -95 12 q-57 0 -93 -27.5t-36 -72.5q0 -36 31.5 -64t93.5 -43l86 -22q75 -19 168 -60q59 -34 94 -97.5t35 -139.5q0 -166 -124 -264.5t-336 -98.5q-87 0 -181 16q-67 14 -114 30.5t-127 55.5z" />
<glyph unicode="t" horiz-adv-x="651" d="M-8 768l495 672v-406h220l-89 -266h-131v-768h-340v768h-155z" />
<glyph unicode="u" horiz-adv-x="1251" d="M113 367v667h340v-606q0 -180 172 -180q176 0 176 180v606h338v-667q0 -192 -133.5 -297t-378.5 -105t-379.5 105t-134.5 297z" />
<glyph unicode="v" horiz-adv-x="1093" d="M-47 1034h366l193 -577q23 -71 33 -191q12 104 35 191l192 577h367l-418 -1034h-350z" />
<glyph unicode="w" horiz-adv-x="1654" d="M-4 1034h342l143 -563l15 -92l8 -82q13 120 31 174l165 563h263l155 -563q20 -62 33 -174q3 51 6 82q11 81 14 92l144 563h344l-326 -1034h-329l-152 516q-10 57 -14 111q-1 7 -5 39t-6 55l-10 -94l-18 -111l-162 -516h-313z" />
<glyph unicode="x" horiz-adv-x="1136" d="M-45 0l399 530l-372 504h395l149 -223q25 -37 43 -123q12 79 39 123l152 223h393l-371 -504l398 -530h-408l-164 240q-26 47 -39 131q-17 -94 -43 -131l-164 -240h-407z" />
<glyph unicode="y" horiz-adv-x="1124" d="M-35 1034h367l203 -569q15 -47 28 -162l12 78l19 88l207 565h375l-601 -1405h-380l194 404z" />
<glyph unicode="z" horiz-adv-x="1085" d="M-25 0l514 692q26 35 121 105q-119 -47 -157 -47h-390l95 284h929l-505 -690q-14 -21 -35.5 -40.5t-83.5 -65.5q104 43 153 43h418l-90 -281h-969z" />
<glyph unicode="{" horiz-adv-x="749" d="M78 737q20 0 49 11q84 38 84 137v657q0 82 47.5 128t134.5 46h223v-133h-26q-67 0 -92 -23.5t-25 -86.5v-558q0 -54 -29 -97.5t-79 -65.5q-26 -12 -56 -15q32 -3 56 -14q50 -22 79 -66t29 -98v-557q0 -63 25 -87t92 -24h26v-133h-223q-87 0 -134.5 46t-47.5 128v658 q0 63 -38 104t-95 43z" />
<glyph unicode="|" horiz-adv-x="407" d="M78 0v1475h221v-1475h-221z" />
<glyph unicode="}" horiz-adv-x="749" d="M78 -109h24q67 0 92 24t25 87v557q0 54 30 98t81 66q21 10 53 14q-30 3 -53 15q-51 22 -81 65.5t-30 97.5v558q0 63 -25 86.5t-92 23.5h-24v133h221q87 0 135.5 -46t48.5 -128v-657q0 -64 37.5 -105t95.5 -43q-24 0 -51 -10q-82 -37 -82 -137v-658q0 -82 -48.5 -128 t-135.5 -46h-221v133z" />
<glyph unicode="~" horiz-adv-x="573" d="M-6 1583v209q98 33 170 33q47 0 104 -13l84 -18q81 -20 142 -20q60 0 96.5 9t93.5 38v-209q-112 -33 -180 -33q-53 0 -168 27q-107 26 -174 26q-40 0 -75 -10.5t-93 -38.5z" />
<glyph unicode="&#xa0;" horiz-adv-x="1024" d="M0 0z" />
<glyph unicode="&#xa1;" horiz-adv-x="600" d="M109 1307q0 80 56.5 136t137.5 56q78 0 133.5 -56.5t55.5 -135.5q0 -78 -56.5 -134.5t-134.5 -56.5q-79 0 -135.5 56.5t-56.5 134.5zM113 0l53 1020h260l61 -1020h-374z" />
<glyph unicode="&#xa2;" horiz-adv-x="1013" d="M74 514q0 111 43.5 216t122.5 181q60 60 115 89.5t161 60.5v119h162v-115q98 -9 147 -23.5t150 -62.5l-86 -254q-63 37 -99.5 50t-107.5 20v-541h27q48 0 73 6t72 29l35 14l82 -233q-99 -54 -147.5 -71t-147.5 -30v-112h-162v116q-101 26 -153.5 53.5t-114.5 86.5 q-172 166 -172 401zM422 518q0 -58 20 -102t72 -97v410q-4 -7 -10.5 -15t-7.5 -9q-39 -45 -48.5 -64t-17.5 -61q-8 -46 -8 -62z" />
<glyph unicode="&#xa3;" horiz-adv-x="1118" d="M66 43l61 256q63 -18 88 -18q58 0 96.5 42t38.5 105q0 37 -13 81t-48 126h-185v164h113l-27 65q-32 71 -42.5 118.5t-10.5 111.5q0 181 121.5 294t316.5 113q83 0 168 -24q60 -15 107 -36t127 -69l-84 -250q-62 47 -99 69.5t-77 35.5q-56 18 -94 18q-73 0 -119.5 -47 t-46.5 -121q0 -47 20.5 -102.5t83.5 -177.5h334v-164h-289q25 -98 25 -158q0 -57 -27 -113q-22 -40 -49.5 -63t-85.5 -47q125 -12 209 -12q14 0 40 1t40 1q95 4 160.5 21.5t171.5 64.5l-60 -297q-153 -40 -236.5 -52t-211.5 -12q-150 0 -249 14.5t-267 61.5z" />
<glyph unicode="&#xa4;" horiz-adv-x="1011" d="M78 432l119 117q-60 88 -60 192.5t60 192.5l-117 113q32 43 76 81l120 -120q87 63 193 64t193 -62l118 120q53 -37 78 -86l-115 -110q36 -52 48 -92q23 -77 9 -154.5t-61 -142.5l119 -117l-16 -20l-19 -19q-29 -29 -45 -41l-116 119q-86 -65 -192 -65t-191 65l-125 -119 l-19 21l-18 18l-21 23zM250 737q0 -91 64.5 -156t156.5 -65q90 0 156 66q65 64 65 155t-65 156t-156 65q-92 0 -156.5 -65t-64.5 -156z" />
<glyph unicode="&#xa5;" horiz-adv-x="1456" d="M53 1477h408l239 -459q10 -16 17 -70q1 -6 5.5 -30t6.5 -41q7 101 27 143l243 457h404l-340 -576h287v-182h-396l-45 -74l-2 -63h443v-191h-443l2 -391h-364v391h-436v191h436v63l-43 70h-391v188h286z" />
<glyph unicode="&#xa7;" horiz-adv-x="1347" d="M61 524q0 113 66 205q28 42 59 70t93 67q-7 8 -21.5 23t-19.5 22q-66 82 -66 193q0 180 143.5 287.5t382.5 107.5q128 0 246 -47q81 -36 146 -90q75 -66 105 -131t42 -191l-301 15q-10 58 -24.5 89t-41.5 58q-33 30 -82.5 50t-95.5 20q-74 0 -131 -44t-57 -102 q0 -55 49 -104q19 -15 31 -21.5t45 -19.5l428 -168q105 -41 165 -128t60 -196q0 -100 -57 -188q-25 -41 -53 -67.5t-87 -63.5q8 -12 23 -32t20 -29q50 -73 50 -170q0 -175 -143 -287.5t-367 -112.5q-90 0 -213 29q-105 30 -187 88q-88 62 -121 136t-36 220l299 -12 q2 -70 16 -106t55 -68q76 -64 183 -64q79 0 129.5 42t50.5 108q0 52 -31 88t-96 61l-438 162q-106 38 -162 116t-56 185zM389 594q0 -60 41 -107t119 -73l313 -109q54 15 78.5 45.5t24.5 85.5q0 111 -121 158l-348 135q-39 -3 -56 -14t-32 -41q-19 -34 -19 -80z" />
<glyph unicode="&#xa8;" horiz-adv-x="655" d="M-6 1268q0 62 39 105.5t96 43.5q56 0 96.5 -45t40.5 -106q0 -56 -39.5 -97t-95.5 -41q-57 0 -97 41.5t-40 98.5zM389 1266q0 62 41 106.5t98 44.5q55 0 94.5 -43.5t39.5 -105.5q0 -58 -40 -99t-98 -41q-54 0 -93.5 41t-41.5 97z" />
<glyph unicode="&#xa9;" horiz-adv-x="1908" d="M119 739q0 152 58 292t165 247q110 110 253 167.5t287.5 57.5t287.5 -57.5t253 -167.5q107 -108 165.5 -247.5t58.5 -291.5q0 -156 -60.5 -298t-163 -244.5t-244 -163t-296.5 -60.5t-296.5 60.5t-244 163t-163 244.5t-60.5 298zM240 739q0 -130 49.5 -250.5t140.5 -214.5 q123 -124 288 -168t330 0t287 168q125 127 169.5 295.5t0 337t-169.5 295.5q-122 124 -287 168t-330 0t-288 -168q-91 -94 -140.5 -214t-49.5 -249zM437.5 710q-0.5 97 35.5 201q59 158 204.5 240t321.5 53q125 -21 226 -102l-76 -109q-68 56 -154 74q-144 29 -260.5 -52 t-138.5 -224q-25 -147 54 -261t218 -137q128 -19 238 47q28 20 41 33l76 -111q-126 -102 -299 -108q-100 -3 -190 31.5t-153 96.5t-103 146.5t-40.5 181.5z" />
<glyph unicode="&#xaa;" horiz-adv-x="989" d="M86 1204q21 106 86 180q66 76 158.5 101.5t178.5 -3t136 -100.5l10 -16l9 -16v125h172l2 -701h-176v133l-7 -14q-36 -74 -121 -111.5t-188 -17.5q-138 28 -215 152t-45 288zM98 518v158h740v-158h-740zM256 1126q0 -15 4 -43q12 -68 55.5 -113t108.5 -57q43 -6 80 2 q62 12 104 56.5t54 111.5q9 44 0 88q-12 66 -54 111t-102 59q-88 19 -158.5 -30t-87.5 -142q-4 -28 -4 -43z" />
<glyph unicode="&#xab;" horiz-adv-x="1136" d="M45 510l471 498l160 -158l-322 -340l320 -338l-162 -156zM463 510l471 498l158 -158l-320 -340l318 -338l-160 -156z" />
<glyph unicode="&#xac;" horiz-adv-x="1337" d="M78 737v221h1081v-516h-172v295h-909z" />
<glyph unicode="&#xad;" horiz-adv-x="638" d="M45 459v246h551v-246h-551z" />
<glyph unicode="&#xae;" horiz-adv-x="1908" d="M119 739q0 152 58 292t165 247q110 110 253 167.5t287.5 57.5t287.5 -57.5t253 -167.5q107 -108 165.5 -247.5t58.5 -291.5q0 -156 -60.5 -298t-163 -244.5t-244 -163t-296.5 -60.5t-296.5 60.5t-244 163t-163 244.5t-60.5 298zM240 739q0 -130 49.5 -250.5t140.5 -214.5 q123 -124 288 -168t330 0t287 168q125 127 169.5 295.5t0 337t-169.5 295.5q-122 124 -287 168t-330 0t-288 -168q-91 -94 -140.5 -214t-49.5 -249zM627 287v919h247q82 0 127 -11.5t84 -41.5q71 -56 89 -145q23 -120 -31 -203.5t-160 -104.5q-10 -2 -27 -2l275 -411h-174 l-283 438v-438h-147zM774 780h76q84 0 130 39.5t48 110.5q3 74 -41.5 114.5t-128.5 40.5h-84v-305z" />
<glyph unicode="&#xaf;" horiz-adv-x="479" d="M-4 1153v178h489v-178h-489z" />
<glyph unicode="&#xb1;" horiz-adv-x="1216" d="M90 39v139h946v-139h-946zM90 539v139h404v250h139v-250h403v-139h-403v-250h-139v250h-404z" />
<glyph unicode="&#xb4;" horiz-adv-x="411" d="M70 1208l268 314l186 -117l-313 -283z" />
<glyph unicode="&#xb5;" horiz-adv-x="1275" d="M150 -285q0 5 0.5 19.5t1.5 43t2 56.5q4 132 4 182q0 117 -2 207q-4 180 -4 195v502h188v-607q0 -143 29 -194q25 -46 102 -49q119 0 195 163q74 161 77 420v267h189v-672q0 -92 18 -135q18 -40 60 -43q41 0 65 43q23 44 23 125v28h43q0 -10 2 -18v-27q0 -114 -49 -178 q-44 -58 -136 -61q-100 0 -155 88q-50 81 -53 264q-47 -182 -125 -266q-77 -83 -199 -86q-88 0 -150 53q-57 54 -81 158q0 -31 -2 -58q0 -136 65 -289q66 -160 66 -188q0 -41 -23 -64q-19 -19 -63 -22q-48 0 -68 35q-17 28 -20 108z" />
<glyph unicode="&#xb6;" horiz-adv-x="1341" d="M78 1051q0 116 56.5 213.5t153 154t210.5 56.5h665v-134h-667q-119 0 -203.5 -85.5t-83.5 -206.5q3 -120 86.5 -203.5t200.5 -83.5h133v477h141v-1239h-141v629h-133q-172 0 -295 124t-123 298zM899 0v1239h141v-1239h-141z" />
<glyph unicode="&#xb7;" horiz-adv-x="530" d="M74 606q0 78 56 134.5t134 56.5q79 0 136 -56.5t57 -134.5q0 -80 -56.5 -136t-138.5 -56q-78 0 -133 56t-55 136z" />
<glyph unicode="&#xb8;" horiz-adv-x="350" d="M-6 -375l164 316l198 -25l-202 -305z" />
<glyph unicode="&#xba;" horiz-adv-x="989" d="M78 1128q0 42 8 78q32 155 159 238.5t287 52.5q158 -31 244.5 -160t52.5 -288q-26 -131 -129.5 -214t-242.5 -83q-161 0 -270 108.5t-109 267.5zM90 518v158h737v-158h-737zM252 1128q0 -27 4 -41q10 -67 53 -112.5t107 -59.5q86 -19 157 31t86 139q17 93 -29 165 t-130 89q-61 14 -125 -12q-101 -46 -119 -158q-4 -14 -4 -41z" />
<glyph unicode="&#xbb;" horiz-adv-x="1128" d="M45 850l158 156l463 -494l-465 -492l-154 154l313 338zM463 174l317 338l-317 338l158 156l464 -494l-464 -492z" />
<glyph unicode="&#xbf;" horiz-adv-x="892" d="M51 360q0 74 27 142q22 59 44.5 90.5t102.5 114.5q62 67 72 79q44 51 59 84.5t15 81.5q0 43 -6 76h264q6 -70 6 -108q0 -46 -8 -82q-6 -41 -25 -75.5t-65 -88.5q-100 -122 -132 -177t-32 -106q0 -68 48 -113t120 -45q50 0 102 17q45 15 80 36.5t96 71.5l88 -254 q-37 -21 -100 -53q-157 -74 -315 -74q-193 0 -317 108t-124 275zM311 1313q0 79 57.5 135.5t135.5 56.5t133 -56t55 -136t-55.5 -135.5t-134.5 -55.5q-78 0 -134.5 56.5t-56.5 134.5z" />
<glyph unicode="&#xc0;" horiz-adv-x="1355" d="M-33 0l518 1477h385l516 -1477h-399l-98 336h-424l-98 -336h-400zM446 1886l189 113l266 -311l-141 -86zM518 596h320l-131 473q-20 75 -27 152q-7 -61 -29 -152z" />
<glyph unicode="&#xc1;" horiz-adv-x="1355" d="M-33 0l518 1477h385l516 -1477h-399l-98 336h-424l-98 -336h-400zM518 596h320l-131 473q-20 75 -27 152q-7 -61 -29 -152zM541 1683l268 314l186 -117l-313 -283z" />
<glyph unicode="&#xc2;" horiz-adv-x="1355" d="M-33 0l518 1477h385l516 -1477h-399l-98 336h-424l-98 -336h-400zM315 1735l363 258l360 -258l-57 -136l-303 154l-303 -154zM518 596h320l-131 473q-20 75 -27 152q-7 -61 -29 -152z" />
<glyph unicode="&#xc3;" horiz-adv-x="1355" d="M-33 0l518 1477h385l516 -1477h-399l-98 336h-424l-98 -336h-400zM373 1622v184q84 31 149 31q46 0 92 -12l76 -17q65 -16 123 -16q55 0 87 7.5t81 33.5v-186q-106 -29 -158 -29q-41 0 -147 24q-118 23 -156 23q-61 0 -147 -43zM518 596h320l-131 473q-20 75 -27 152 q-7 -61 -29 -152z" />
<glyph unicode="&#xc4;" horiz-adv-x="1355" d="M-33 0l518 1477h385l516 -1477h-399l-98 336h-424l-98 -336h-400zM262 1718q0 70 50 120t120 50q69 0 119.5 -50t50.5 -120q0 -67 -50.5 -115.5t-121.5 -48.5q-70 0 -119 48t-49 116zM518 596h320l-131 473q-20 75 -27 152q-7 -61 -29 -152zM760 1718q0 70 50.5 120 t119.5 50t119.5 -50t50.5 -120q0 -68 -49 -116t-119 -48q-71 0 -121.5 48.5t-50.5 115.5z" />
<glyph unicode="&#xc5;" horiz-adv-x="1355" d="M-33 0l518 1477h385l516 -1477h-399l-98 336h-424l-98 -336h-400zM449 1743q0 81 66.5 137.5t160.5 56.5q91 0 157 -56.5t66 -135.5t-66.5 -136t-158.5 -57q-93 0 -159 56.5t-66 134.5zM518 596h320l-131 473q-20 75 -27 152q-7 -61 -29 -152zM596 1745q0 -40 23 -68 t55 -28q31 0 53.5 28t22.5 66q0 39 -22.5 66.5t-53.5 27.5q-32 0 -55 -27t-23 -65z" />
<glyph unicode="&#xc6;" horiz-adv-x="1943" d="M-33 0l840 1477h1100l-78 -285h-518v-307h475v-275h-475v-319h598l-82 -291h-881v332h-407l-168 -332h-404zM655 592h289v579z" />
<glyph unicode="&#xc7;" horiz-adv-x="1343" d="M72 737q0 158 61.5 300.5t165.5 245.5t248.5 163.5t304.5 60.5q119 0 240 -41q54 -18 98 -40.5t125 -71.5l-131 -301q-15 9 -38 25t-26 18q-119 75 -254 75q-180 0 -305 -126t-125 -308q0 -180 126 -305t308 -125q72 0 146 23q77 25 174 88l123 -303q-70 -44 -111 -64 q-163 -80 -350 -80q-161 0 -305.5 59.5t-248.5 161.5t-165 244t-61 301zM575 -365l132 306l239 -17l-176 -299z" />
<glyph unicode="&#xc8;" horiz-adv-x="1116" d="M113 0v1477h962l-76 -285h-516v-309h475v-277h-475v-321h594l-82 -285h-882zM326 1886l188 113l266 -311l-141 -86z" />
<glyph unicode="&#xc9;" horiz-adv-x="1116" d="M113 0v1477h962l-76 -285h-516v-309h475v-277h-475v-321h594l-82 -285h-882zM422 1683l268 314l187 -117l-314 -283z" />
<glyph unicode="&#xca;" horiz-adv-x="1116" d="M113 0v1477h962l-76 -285h-516v-309h475v-277h-475v-321h594l-82 -285h-882zM197 1735l362 258l361 -258l-58 -136l-303 154l-303 -154z" />
<glyph unicode="&#xcb;" horiz-adv-x="1116" d="M113 0v1477h962l-76 -285h-516v-309h475v-277h-475v-321h594l-82 -285h-882zM223 1743q0 62 39 105.5t96 43.5q56 0 97 -45t41 -106q0 -56 -39.5 -96.5t-96.5 -40.5t-97 41t-40 98zM618 1741q0 61 41.5 106t98.5 45q55 0 94 -43.5t39 -105.5q0 -58 -39.5 -98.5 t-97.5 -40.5q-54 0 -94 40.5t-42 96.5z" />
<glyph unicode="&#xcc;" horiz-adv-x="595" d="M66 1886l188 113l266 -311l-141 -86zM113 0v1477h370v-1477h-370z" />
<glyph unicode="&#xcd;" horiz-adv-x="595" d="M113 0v1477h370v-1477h-370zM162 1683l268 314l186 -117l-313 -283z" />
<glyph unicode="&#xce;" horiz-adv-x="595" d="M-63 1735l362 258l360 -258l-57 -136l-303 154l-303 -154zM113 0v1477h370v-1477h-370z" />
<glyph unicode="&#xcf;" horiz-adv-x="595" d="M-35 1743q0 62 39 105.5t96 43.5q56 0 97 -45t41 -106q0 -56 -39.5 -96.5t-96.5 -40.5t-97 41t-40 98zM113 0v1477h370v-1477h-370zM360 1741q0 61 41.5 106t98.5 45q55 0 94 -43.5t39 -105.5q0 -58 -39.5 -98.5t-97.5 -40.5q-54 0 -94 40.5t-42 96.5z" />
<glyph unicode="&#xd1;" horiz-adv-x="1595" d="M113 0v1477h385l563 -875q22 -35 38.5 -74.5t67.5 -175.5q-36 164 -39 250l-6 875h361v-1477h-383l-561 862q-27 36 -41.5 71t-59.5 175q29 -170 29 -244l6 -864h-360zM494 1622v184q84 31 149 31q45 0 92 -12l76 -17q65 -16 123 -16q55 0 87 7.5t81 33.5v-186 q-106 -29 -158 -29q-41 0 -147 24q-118 23 -156 23q-61 0 -147 -43z" />
<glyph unicode="&#xd2;" horiz-adv-x="1726" d="M74 737q0 163 61 305.5t167 243.5t255.5 159t321.5 58q161 0 305 -59.5t247 -161.5t163.5 -244t60.5 -301q0 -214 -103.5 -389t-285 -275t-402.5 -100q-223 0 -404 100t-283.5 275t-102.5 389zM436 737q0 -182 125 -309t303 -127q177 0 300.5 127t123.5 309 q0 183 -124 311t-302 128q-177 0 -301.5 -128t-124.5 -311zM631 1886l188 113l266 -311l-141 -86z" />
<glyph unicode="&#xd3;" horiz-adv-x="1726" d="M74 737q0 163 61 305.5t167 243.5t255.5 159t321.5 58q161 0 305 -59.5t247 -161.5t163.5 -244t60.5 -301q0 -214 -103.5 -389t-285 -275t-402.5 -100q-223 0 -404 100t-283.5 275t-102.5 389zM436 737q0 -182 125 -309t303 -127q177 0 300.5 127t123.5 309 q0 183 -124 311t-302 128q-177 0 -301.5 -128t-124.5 -311zM727 1683l268 314l187 -117l-314 -283z" />
<glyph unicode="&#xd4;" horiz-adv-x="1726" d="M74 737q0 163 61 305.5t167 243.5t255.5 159t321.5 58q161 0 305 -59.5t247 -161.5t163.5 -244t60.5 -301q0 -214 -103.5 -389t-285 -275t-402.5 -100q-223 0 -404 100t-283.5 275t-102.5 389zM436 737q0 -182 125 -309t303 -127q177 0 300.5 127t123.5 309 q0 183 -124 311t-302 128q-177 0 -301.5 -128t-124.5 -311zM502 1735l362 258l361 -258l-58 -136l-303 154l-303 -154z" />
<glyph unicode="&#xd5;" horiz-adv-x="1726" d="M74 737q0 163 61 305.5t167 243.5t255.5 159t321.5 58q161 0 305 -59.5t247 -161.5t163.5 -244t60.5 -301q0 -214 -103.5 -389t-285 -275t-402.5 -100q-223 0 -404 100t-283.5 275t-102.5 389zM436 737q0 -182 125 -309t303 -127q177 0 300.5 127t123.5 309 q0 183 -124 311t-302 128q-177 0 -301.5 -128t-124.5 -311zM559 1622v184q84 31 150 31q45 0 92 -12l76 -17q65 -16 122 -16q55 0 87 7.5t81 33.5v-186q-106 -29 -157 -29q-42 0 -148 24q-118 23 -155 23q-62 0 -148 -43z" />
<glyph unicode="&#xd6;" horiz-adv-x="1726" d="M74 737q0 163 61 305.5t167 243.5t255.5 159t321.5 58q161 0 305 -59.5t247 -161.5t163.5 -244t60.5 -301q0 -214 -103.5 -389t-285 -275t-402.5 -100q-223 0 -404 100t-283.5 275t-102.5 389zM289 1726q0 70 48.5 119t119.5 49t121.5 -49t50.5 -119q0 -69 -50.5 -118 t-121.5 -49q-70 0 -119 49t-49 118zM436 737q0 -182 125 -309t303 -127q177 0 300.5 127t123.5 309q0 183 -124 311t-302 128q-177 0 -301.5 -128t-124.5 -311zM1098 1726q0 70 51 119t123 49q69 0 118.5 -49t49.5 -119q0 -69 -49.5 -118t-118.5 -49q-72 0 -123 49t-51 118z " />
<glyph unicode="&#xd8;" horiz-adv-x="1730" d="M70 795q0 133 60 260t169 229q118 108 249 165.5t261 57.5q218 0 588 -200l192 192l72 -69l-193 -191q191 -352 191 -555q0 -132 -61 -261t-171 -230q-116 -108 -247.5 -166t-261.5 -58q-213 0 -570 183l-201 -199l-71 76l198 196q-96 166 -150 317.5t-54 252.5zM442 764 q0 -104 93 -295l606 604q-183 98 -291 98q-70 0 -144.5 -35t-140.5 -98q-123 -123 -123 -274zM606 397q177 -98 283 -98q71 0 146 36t139 101q116 119 116 273q0 102 -84 290z" />
<glyph unicode="&#xd9;" horiz-adv-x="1443" d="M113 516v961h370v-936q0 -70 12 -109.5t44 -69.5q33 -33 81.5 -52t100.5 -19q110 0 184 71q32 31 44 69.5t12 109.5v936h370v-961q0 -250 -164 -395.5t-446 -145.5q-281 0 -444.5 145.5t-163.5 395.5zM489 1886l189 113l266 -311l-141 -86z" />
<glyph unicode="&#xda;" horiz-adv-x="1443" d="M113 516v961h370v-936q0 -70 12 -109.5t44 -69.5q33 -33 81.5 -52t100.5 -19q110 0 184 71q32 31 44 69.5t12 109.5v936h370v-961q0 -250 -164 -395.5t-446 -145.5q-281 0 -444.5 145.5t-163.5 395.5zM586 1683l268 314l186 -117l-313 -283z" />
<glyph unicode="&#xdb;" horiz-adv-x="1443" d="M113 516v961h370v-936q0 -70 12 -109.5t44 -69.5q33 -33 81.5 -52t100.5 -19q110 0 184 71q32 31 44 69.5t12 109.5v936h370v-961q0 -250 -164 -395.5t-446 -145.5q-281 0 -444.5 145.5t-163.5 395.5zM360 1735l363 258l360 -258l-57 -136l-303 154l-303 -154z" />
<glyph unicode="&#xdc;" horiz-adv-x="1441" d="M113 516v961h370v-936q0 -70 12 -109.5t44 -69.5q33 -33 81.5 -52t100.5 -19q110 0 184 71q32 31 44 69.5t12 109.5v936h370v-961q0 -250 -164 -395.5t-446 -145.5q-281 0 -444.5 145.5t-163.5 395.5zM303 1712q0 69 49.5 118.5t118.5 49.5q70 0 119 -50t49 -120 q0 -69 -49 -116.5t-121 -47.5q-68 0 -117 48.5t-49 117.5zM801 1710q0 69 50 119.5t120 50.5q69 0 118.5 -49.5t49.5 -118.5t-49 -117.5t-117 -48.5q-72 0 -122 47.5t-50 116.5z" />
<glyph unicode="&#xdf;" horiz-adv-x="1275" d="M113 0v1081q0 108 29 178t98 125q149 117 376 117q207 0 340.5 -101.5t133.5 -258.5q0 -71 -27 -126t-88 -110q-36 -31 -65.5 -47t-90.5 -39q84 -9 129.5 -25.5t98.5 -56.5q159 -120 159 -315q0 -186 -145 -317.5t-352 -131.5q-55 0 -166 25l28 215q58 -10 84 -10 q91 0 157.5 69.5t66.5 165.5q0 109 -76 169.5t-211 60.5q-31 0 -66 -2v247q126 0 196.5 49.5t70.5 137.5q0 64 -48 109.5t-116 45.5q-43 0 -78 -14q-57 -23 -77.5 -66.5t-20.5 -140.5v-1034h-340z" />
<glyph unicode="&#xe0;" horiz-adv-x="1294" d="M74 510q0 235 133.5 390t337.5 155q73 0 162 -27q54 -20 81 -39.5t70 -66.5v112h324v-1034h-324v115q-14 -20 -39 -45q-46 -46 -123 -72.5t-166 -26.5q-205 0 -330.5 148.5t-125.5 390.5zM416 1411l188 113l266 -312l-141 -86zM420 518q0 -121 62 -194.5t163 -73.5 q53 0 97.5 23.5t66.5 62.5q33 67 33 194q0 75 -6.5 111t-26.5 66q-26 40 -70.5 63t-95.5 23q-100 0 -161.5 -76t-61.5 -199z" />
<glyph unicode="&#xe1;" horiz-adv-x="1294" d="M74 510q0 235 133.5 390t337.5 155q73 0 162 -27q54 -20 81 -39.5t70 -66.5v112h324v-1034h-324v115q-14 -20 -39 -45q-46 -46 -123 -72.5t-166 -26.5q-205 0 -330.5 148.5t-125.5 390.5zM420 518q0 -121 62 -194.5t163 -73.5q53 0 97.5 23.5t66.5 62.5q33 67 33 194 q0 75 -6.5 111t-26.5 66q-26 40 -70.5 63t-95.5 23q-100 0 -161.5 -76t-61.5 -199zM510 1208l268 314l187 -117l-314 -283z" />
<glyph unicode="&#xe2;" horiz-adv-x="1294" d="M74 510q0 235 133.5 390t337.5 155q73 0 162 -27q54 -20 81 -39.5t70 -66.5v112h324v-1034h-324v115q-14 -20 -39 -45q-46 -46 -123 -72.5t-166 -26.5q-205 0 -330.5 148.5t-125.5 390.5zM285 1260l362 258l361 -258l-58 -136l-303 154l-303 -154zM420 518 q0 -121 62 -194.5t163 -73.5q53 0 97.5 23.5t66.5 62.5q33 67 33 194q0 75 -6.5 111t-26.5 66q-26 40 -70.5 63t-95.5 23q-100 0 -161.5 -76t-61.5 -199z" />
<glyph unicode="&#xe3;" horiz-adv-x="1294" d="M74 510q0 235 133.5 390t337.5 155q73 0 162 -27q54 -20 81 -39.5t70 -66.5v112h324v-1034h-324v115q-14 -20 -39 -45q-46 -46 -123 -72.5t-166 -26.5q-205 0 -330.5 148.5t-125.5 390.5zM342 1147v184q84 31 150 31q46 0 92 -12l75 -17q65 -16 123 -16q55 0 87 7.5 t81 33.5v-187q-102 -28 -157 -28q-42 0 -148 24q-118 23 -156 23q-61 0 -147 -43zM420 518q0 -121 62 -194.5t163 -73.5q53 0 97.5 23.5t66.5 62.5q33 67 33 194q0 75 -6.5 111t-26.5 66q-26 40 -70.5 63t-95.5 23q-100 0 -161.5 -76t-61.5 -199z" />
<glyph unicode="&#xe4;" horiz-adv-x="1292" d="M74 510q0 235 133.5 390t337.5 155q73 0 162 -27q54 -20 81 -39.5t70 -66.5v112h324v-1034h-324v115q-14 -20 -39 -45q-46 -46 -123 -72.5t-166 -26.5q-205 0 -330.5 148.5t-125.5 390.5zM324 1274q0 62 39 104.5t96 42.5t97 -43.5t40 -105.5q0 -57 -39 -97t-96 -40 t-97 40.5t-40 98.5zM420 518q0 -121 62 -194.5t163 -73.5q53 0 97.5 23.5t66.5 62.5q33 67 33 194q0 75 -6.5 111t-26.5 66q-26 40 -70.5 63t-95.5 23q-100 0 -161.5 -76t-61.5 -199zM719 1272q0 61 41 105t98 44q56 0 94.5 -43t38.5 -104q0 -59 -39.5 -99t-97.5 -40 q-54 0 -94 40t-41 97z" />
<glyph unicode="&#xe5;" horiz-adv-x="1292" d="M74 510q0 235 133.5 390t337.5 155q73 0 162 -27q54 -20 81 -39.5t70 -66.5v112h324v-1034h-324v115q-14 -20 -39 -45q-46 -46 -123 -72.5t-166 -26.5q-205 0 -330.5 148.5t-125.5 390.5zM420 518q0 -121 62 -194.5t163 -73.5q53 0 97.5 23.5t66.5 62.5q33 67 33 194 q0 75 -6.5 111t-26.5 66q-26 40 -70.5 63t-95.5 23q-100 0 -161.5 -76t-61.5 -199zM485 1309q0 80 62 135t153 55q89 0 151 -55t62 -135q0 -78 -62.5 -133.5t-150.5 -55.5q-90 0 -152.5 55.5t-62.5 133.5zM610 1309q0 -40 26.5 -69.5t61.5 -29.5t61.5 29.5t26.5 69.5 q0 41 -26.5 70.5t-61.5 29.5t-61.5 -29.5t-26.5 -70.5z" />
<glyph unicode="&#xe6;" horiz-adv-x="1968" d="M72 518q0 235 132.5 389t336.5 154q83 0 147.5 -25t132.5 -82v80h242v-96q43 39 49 43q99 86 272 86q127 0 236 -53q104 -47 173 -127.5t153 -249.5l-691 -346q50 -40 85.5 -56t76.5 -16q63 0 113.5 29t97.5 92l219 -129q-49 -66 -67 -84q-70 -75 -176.5 -118.5 t-219.5 -43.5q-96 0 -160.5 25t-160.5 98v-88h-244v84q-121 -109 -297 -109q-195 0 -322.5 153.5t-127.5 389.5zM420 522q0 -120 62.5 -193t164.5 -73q81 0 131 44.5t58 121.5q6 64 6 133q0 71 -6.5 102t-28.5 60q-28 38 -71.5 60t-92.5 22q-98 0 -160.5 -77t-62.5 -200z M1124 569q0 -25 15 -69l452 229q-65 92 -194 92q-107 0 -190 -76t-83 -176z" />
<glyph unicode="&#xe7;" horiz-adv-x="1013" d="M74 514q0 153 74 280.5t203 201t284 73.5q87 0 156.5 -18t183.5 -72l-86 -254q-114 68 -209 68q-108 0 -184 -79t-76 -192q0 -117 79 -195.5t195 -78.5q45 0 84.5 11t110.5 44l82 -233q-119 -62 -190.5 -83.5t-157.5 -21.5q-112 0 -214 43t-175.5 116.5t-116.5 175.5 t-43 214zM334 -375l164 316l200 -25l-204 -305z" />
<glyph unicode="&#xe8;" horiz-adv-x="1189" d="M74 508q0 153 72 280.5t198 201t279 73.5q104 0 201 -37.5t171 -105.5q56 -52 92 -109t80 -166l-680 -348q51 -45 88.5 -62.5t81.5 -17.5q60 0 107 28t94 93l225 -137q-20 -24 -49.5 -56.5t-34.5 -38.5q-69 -66 -170.5 -104.5t-205.5 -38.5q-113 0 -215 42.5t-175 114.5 t-116 173.5t-43 214.5zM362 1411l189 113l266 -312l-141 -86zM371 567q0 -22 10 -63l446 227q-62 92 -192 92q-102 0 -183 -78.5t-81 -177.5z" />
<glyph unicode="&#xe9;" horiz-adv-x="1189" d="M74 508q0 153 72 280.5t198 201t279 73.5q104 0 201 -37.5t171 -105.5q56 -52 92 -109t80 -166l-680 -348q51 -45 88.5 -62.5t81.5 -17.5q60 0 107 28t94 93l225 -137q-20 -24 -49.5 -56.5t-34.5 -38.5q-69 -66 -170.5 -104.5t-205.5 -38.5q-113 0 -215 42.5t-175 114.5 t-116 173.5t-43 214.5zM371 567q0 -22 10 -63l446 227q-62 92 -192 92q-102 0 -183 -78.5t-81 -177.5zM459 1208l268 314l186 -117l-313 -283z" />
<glyph unicode="&#xea;" horiz-adv-x="1189" d="M74 508q0 153 72 280.5t198 201t279 73.5q104 0 201 -37.5t171 -105.5q56 -52 92 -109t80 -166l-680 -348q51 -45 88.5 -62.5t81.5 -17.5q60 0 107 28t94 93l225 -137q-20 -24 -49.5 -56.5t-34.5 -38.5q-69 -66 -170.5 -104.5t-205.5 -38.5q-113 0 -215 42.5t-175 114.5 t-116 173.5t-43 214.5zM233 1260l363 258l360 -258l-57 -136l-303 154l-303 -154zM371 567q0 -22 10 -63l446 227q-62 92 -192 92q-102 0 -183 -78.5t-81 -177.5z" />
<glyph unicode="&#xeb;" horiz-adv-x="1189" d="M74 508q0 153 72 280.5t198 201t279 73.5q104 0 201 -37.5t171 -105.5q56 -52 92 -109t80 -166l-680 -348q51 -45 88.5 -62.5t81.5 -17.5q60 0 107 28t94 93l225 -137q-20 -24 -49.5 -56.5t-34.5 -38.5q-69 -66 -170.5 -104.5t-205.5 -38.5q-113 0 -215 42.5t-175 114.5 t-116 173.5t-43 214.5zM260 1268q0 62 39 105.5t96 43.5q56 0 96.5 -45t40.5 -106q0 -56 -39.5 -97t-95.5 -41q-57 0 -97 41.5t-40 98.5zM371 567q0 -22 10 -63l446 227q-62 92 -192 92q-102 0 -183 -78.5t-81 -177.5zM655 1266q0 61 41.5 106t98.5 45q55 0 94 -43.5 t39 -105.5q0 -58 -39.5 -99t-97.5 -41q-54 0 -94 41t-42 97z" />
<glyph unicode="&#xec;" horiz-adv-x="567" d="M51 1411l189 113l266 -312l-141 -86zM113 0v897l342 176v-1073h-342z" />
<glyph unicode="&#xed;" horiz-adv-x="567" d="M113 0v897l342 176v-1073h-342zM147 1208l269 314l186 -117l-313 -283z" />
<glyph unicode="&#xee;" horiz-adv-x="567" d="M-78 1260l363 258l360 -258l-57 -136l-303 154l-303 -154zM113 0v897l342 176v-1073h-342z" />
<glyph unicode="&#xef;" horiz-adv-x="567" d="M-49 1268q0 62 39 105.5t96 43.5q56 0 96.5 -45t40.5 -106q0 -56 -39.5 -97t-95.5 -41q-57 0 -97 41.5t-40 98.5zM113 0v897l342 176v-1073h-342zM346 1266q0 62 41 106.5t98 44.5q55 0 94 -43.5t39 -105.5q0 -58 -39.5 -99t-97.5 -41q-54 0 -93.5 41t-41.5 97z" />
<glyph unicode="&#xf1;" horiz-adv-x="1261" d="M113 901l321 174v-164q9 10 21 24t20 22.5t14 13.5q49 42 123 66t154 24q178 0 291 -107q49 -47 70.5 -109t21.5 -157v-688h-338v594q0 178 -166 178q-86 0 -139 -57.5t-53 -147.5l2 -567h-340zM326 1147v184q84 31 149 31q45 0 92 -12l76 -17q65 -16 123 -16 q55 0 87 7.5t81 33.5v-187q-102 -28 -158 -28q-41 0 -147 24q-118 23 -156 23q-61 0 -147 -43z" />
<glyph unicode="&#xf2;" horiz-adv-x="1271" d="M74 512q0 150 75.5 278t205 202.5t282.5 74.5q114 0 218 -44t179.5 -118.5t120.5 -177.5t45 -215q0 -150 -76 -278.5t-206 -203.5t-283 -75q-114 0 -218 44.5t-179 119.5t-119.5 178t-44.5 215zM393 512q0 -118 68 -193t174 -75q105 0 174.5 76t69.5 192q0 115 -70 191.5 t-174 76.5t-173 -76.5t-69 -191.5zM403 1411l189 113l266 -312l-141 -86z" />
<glyph unicode="&#xf3;" horiz-adv-x="1271" d="M74 512q0 150 75.5 278t205 202.5t282.5 74.5q114 0 218 -44t179.5 -118.5t120.5 -177.5t45 -215q0 -150 -76 -278.5t-206 -203.5t-283 -75q-114 0 -218 44.5t-179 119.5t-119.5 178t-44.5 215zM393 512q0 -118 68 -193t174 -75q105 0 174.5 76t69.5 192q0 115 -70 191.5 t-174 76.5t-173 -76.5t-69 -191.5zM500 1208l268 314l186 -117l-313 -283z" />
<glyph unicode="&#xf4;" horiz-adv-x="1271" d="M74 512q0 150 75.5 278t205 202.5t282.5 74.5q114 0 218 -44t179.5 -118.5t120.5 -177.5t45 -215q0 -150 -76 -278.5t-206 -203.5t-283 -75q-114 0 -218 44.5t-179 119.5t-119.5 178t-44.5 215zM274 1260l363 258l360 -258l-57 -136l-303 154l-303 -154zM393 512 q0 -118 68 -193t174 -75q105 0 174.5 76t69.5 192q0 115 -70 191.5t-174 76.5t-173 -76.5t-69 -191.5z" />
<glyph unicode="&#xf5;" horiz-adv-x="1271" d="M74 512q0 150 75.5 278t205 202.5t282.5 74.5q114 0 218 -44t179.5 -118.5t120.5 -177.5t45 -215q0 -150 -76 -278.5t-206 -203.5t-283 -75q-114 0 -218 44.5t-179 119.5t-119.5 178t-44.5 215zM332 1147v184q84 31 149 31q45 0 92 -12l76 -17q65 -16 123 -16 q55 0 87 7.5t81 33.5v-187q-102 -28 -158 -28q-41 0 -147 24q-118 23 -156 23q-61 0 -147 -43zM393 512q0 -118 68 -193t174 -75q105 0 174.5 76t69.5 192q0 115 -70 191.5t-174 76.5t-173 -76.5t-69 -191.5z" />
<glyph unicode="&#xf6;" horiz-adv-x="1271" d="M74 512q0 150 75.5 278t205 202.5t282.5 74.5q114 0 218 -44t179.5 -118.5t120.5 -177.5t45 -215q0 -150 -76 -278.5t-206 -203.5t-283 -75q-114 0 -218 44.5t-179 119.5t-119.5 178t-44.5 215zM315 1276q0 61 39 104t95 43q57 0 97 -43.5t40 -105.5q0 -57 -39 -97 t-94 -40q-57 0 -97.5 40.5t-40.5 98.5zM393 512q0 -118 68 -193t174 -75q105 0 174.5 76t69.5 192q0 115 -70 191.5t-174 76.5t-173 -76.5t-69 -191.5zM711 1274q0 62 40.5 105.5t98.5 43.5q56 0 94.5 -43t38.5 -104q0 -59 -39.5 -99t-97.5 -40q-55 0 -94 40t-41 97z" />
<glyph unicode="&#xf7;" horiz-adv-x="1216" d="M88 414v139h948v-139h-948zM446 207q0 49 33 82q38 35 84 35q49 0 82 -33t33 -84q0 -50 -35 -82q-30 -35 -80 -35q-49 0 -84 35q-33 38 -33 82zM446 758q0 49 33 82q34 31 84 34q50 0 80 -34q35 -35 35 -82q0 -50 -35 -82q-30 -35 -80 -35q-49 0 -84 35q-33 33 -33 82z " />
<glyph unicode="&#xf8;" horiz-adv-x="1280" d="M72 549q0 96 43.5 187.5t124.5 164.5q87 81 182.5 124.5t183.5 43.5q144 0 406 -145l114 116l60 -53l-117 -121q139 -250 139 -395q0 -93 -43.5 -185t-124.5 -165q-183 -168 -366 -168q-144 0 -400 139l-116 -117l-58 62l115 108q-143 247 -143 404zM393 537 q0 -59 45 -172l353 360q-110 55 -166 55q-92 0 -162 -73.5t-70 -169.5zM489 299q101 -55 164 -55q88 0 159 75t71 170q0 68 -43 166z" />
<glyph unicode="&#xf9;" horiz-adv-x="1251" d="M113 367v667h340v-606q0 -180 172 -180q176 0 176 180v606h338v-667q0 -192 -133.5 -297t-378.5 -105t-379.5 105t-134.5 297zM393 1411l189 113l266 -312l-141 -86z" />
<glyph unicode="&#xfa;" horiz-adv-x="1251" d="M113 367v667h340v-606q0 -180 172 -180q176 0 176 180v606h338v-667q0 -192 -133.5 -297t-378.5 -105t-379.5 105t-134.5 297zM489 1208l269 314l186 -117l-313 -283z" />
<glyph unicode="&#xfb;" horiz-adv-x="1251" d="M113 367v667h340v-606q0 -180 172 -180q176 0 176 180v606h338v-667q0 -192 -133.5 -297t-378.5 -105t-379.5 105t-134.5 297zM264 1260l363 258l360 -258l-57 -136l-303 154l-303 -154z" />
<glyph unicode="&#xfc;" horiz-adv-x="1255" d="M113 367v667h342v-606q0 -180 172 -180q176 0 176 180v606h340v-667q0 -192 -134 -297t-380 -105t-381 105t-135 297zM293 1274q0 62 39 104.5t96 42.5q56 0 96.5 -44t40.5 -105q0 -57 -39.5 -97t-95.5 -40q-57 0 -97 40.5t-40 98.5zM688 1272q0 62 40.5 105.5t98.5 43.5 q56 0 95 -43t39 -104q0 -59 -40 -99t-98 -40q-55 0 -94 40t-41 97z" />
<glyph unicode="&#xff;" horiz-adv-x="1124" d="M-35 1034h367l203 -569q15 -47 28 -162l12 78l19 88l207 565h375l-601 -1405h-380l194 404zM227 1268q0 62 39 105.5t96 43.5q56 0 97 -45t41 -106q0 -56 -39.5 -97t-95.5 -41q-57 0 -97.5 41.5t-40.5 98.5zM623 1266q0 62 41 106.5t98 44.5q55 0 94 -43.5t39 -105.5 q0 -58 -39.5 -99t-97.5 -41q-54 0 -93.5 41t-41.5 97z" />
<glyph unicode="&#x152;" horiz-adv-x="2019" d="M72 729q0 343 264 574q114 100 244 146t297 46q69 0 118 -8l70 -8q32 -4 57 -4l76 2h778l-73 -291h-517v-303h478v-273h-478v-319h596l-79 -291h-691h-82q-27 0 -57 -6l-74 -12q-55 -9 -127 -9q-228 0 -411 97.5t-286 270.5t-103 388zM438 727q0 -179 124.5 -301.5 t305.5 -122.5q44 0 82.5 9.5t50.5 21.5q15 22 15 82v651q0 32 -4.5 45.5t-16.5 24.5q-44 28 -139 28q-179 0 -298.5 -124.5t-119.5 -313.5z" />
<glyph unicode="&#x153;" horiz-adv-x="2004" d="M74 514q0 152 75 279.5t206 201.5t288 74q105 0 193 -33q63 -23 104.5 -55t99.5 -104q74 74 127 108q110 74 263 74q172 0 311 -92q75 -50 126.5 -116.5t117.5 -199.5l-691 -350q84 -84 162 -84q53 0 113 31q38 20 56.5 37.5t43.5 54.5l225 -133q-45 -57 -75 -90 q-72 -71 -175.5 -111.5t-213.5 -40.5q-112 0 -203 39q-63 25 -99.5 53.5t-87.5 94.5q-44 -53 -69 -74q-65 -57 -155 -87t-189 -30q-152 0 -279 73t-200.5 200t-73.5 280zM387 514q0 -115 70 -190.5t176 -75.5q107 0 174 74t67 194t-65 193t-172 73t-178.5 -76.5 t-71.5 -191.5zM1171 563q0 -14 7 -61l467 233q-89 86 -207 86q-105 0 -186 -78t-81 -180z" />
<glyph unicode="&#x178;" horiz-adv-x="1232" d="M-59 1477h407l242 -459q10 -20 16 -70q7 -55 10 -71q7 101 27 143l246 457h401l-493 -832v-645h-363v645zM283 1743q0 62 39 105.5t96 43.5q56 0 96.5 -45t40.5 -106q0 -56 -39.5 -96.5t-95.5 -40.5q-57 0 -97 41t-40 98zM678 1741q0 62 41 106.5t98 44.5q55 0 94 -43.5 t39 -105.5q0 -58 -39.5 -98.5t-97.5 -40.5q-54 0 -93.5 40.5t-41.5 96.5z" />
<glyph unicode="&#x2c6;" horiz-adv-x="501" d="M-111 1260l363 258l360 -258l-57 -136l-303 154l-303 -154z" />
<glyph unicode="&#x2dc;" horiz-adv-x="387" d="M-111 1147v184q84 31 150 31q45 0 92 -12l76 -17q65 -16 123 -16q55 0 87 7.5t81 33.5v-187q-102 -28 -158 -28q-41 0 -147 24q-118 23 -156 23q-62 0 -148 -43z" />
<glyph unicode="&#x2000;" horiz-adv-x="999" />
<glyph unicode="&#x2001;" horiz-adv-x="1999" />
<glyph unicode="&#x2002;" horiz-adv-x="999" />
<glyph unicode="&#x2003;" horiz-adv-x="1999" />
<glyph unicode="&#x2004;" horiz-adv-x="666" />
<glyph unicode="&#x2005;" horiz-adv-x="499" />
<glyph unicode="&#x2006;" horiz-adv-x="333" />
<glyph unicode="&#x2007;" horiz-adv-x="333" />
<glyph unicode="&#x2008;" horiz-adv-x="249" />
<glyph unicode="&#x2009;" horiz-adv-x="399" />
<glyph unicode="&#x200a;" horiz-adv-x="111" />
<glyph unicode="&#x2010;" horiz-adv-x="638" d="M45 459v246h551v-246h-551z" />
<glyph unicode="&#x2011;" horiz-adv-x="638" d="M45 459v246h551v-246h-551z" />
<glyph unicode="&#x2012;" horiz-adv-x="638" d="M45 459v246h551v-246h-551z" />
<glyph unicode="&#x2013;" d="M213 659v240h967v-240h-967z" />
<glyph unicode="&#x2014;" horiz-adv-x="2039" d="M61 608v244h1917v-244h-1917z" />
<glyph unicode="&#x2018;" horiz-adv-x="489" d="M43 1047q0 76 35 151q36 74 83 136.5t144 164.5l139 -74q-67 -73 -94 -110.5t-67 -114.5q42 -11 67 -26q35 -20 57.5 -63.5t22.5 -88.5q0 -82 -55.5 -139.5t-134.5 -57.5q-84 0 -140.5 64t-56.5 158z" />
<glyph unicode="&#x2019;" horiz-adv-x="489" d="M45 901q64 69 91 106t71 119q-41 12 -70 27q-34 20 -57 64t-23 88q0 79 56.5 136.5t134.5 57.5q84 0 140 -63.5t56 -157.5q0 -83 -34 -152q-34 -72 -81 -134.5t-145 -166.5z" />
<glyph unicode="&#x201a;" horiz-adv-x="483" d="M37 -250q66 70 92.5 107.5t69.5 119.5q-48 15 -68 27q-34 20 -57 63.5t-23 88.5q0 81 56 137.5t135 56.5q84 0 140 -63.5t56 -157.5q0 -81 -35 -152q-34 -71 -80 -132.5t-147 -168.5z" />
<glyph unicode="&#x201c;" horiz-adv-x="937" d="M43 1047q0 76 35 151q36 74 83 136.5t144 164.5l139 -74q-67 -73 -94 -110.5t-67 -114.5q42 -11 67 -26q35 -20 57.5 -63.5t22.5 -88.5q0 -82 -55.5 -139.5t-134.5 -57.5q-84 0 -140.5 64t-56.5 158zM492 1047q0 79 34 151q36 74 83.5 136.5t146.5 164.5l139 -74 q-67 -71 -94.5 -108.5t-69.5 -116.5q47 -12 68 -26q35 -22 57.5 -65t22.5 -87q0 -82 -56 -139.5t-135 -57.5q-84 0 -140 64t-56 158z" />
<glyph unicode="&#x201d;" horiz-adv-x="937" d="M45 901q64 69 91 106t71 119q-41 12 -70 27q-34 20 -57 64t-23 88q0 79 56.5 136.5t134.5 57.5q84 0 140 -63.5t56 -157.5q0 -83 -34 -152q-34 -72 -81 -134.5t-145 -166.5zM494 901q65 70 92 107t69 118q-42 14 -69 27q-32 20 -55 63.5t-23 86.5q0 81 56 138.5t134 57.5 q84 0 140.5 -63.5t56.5 -157.5q0 -77 -37 -152q-32 -72 -78.5 -133t-148.5 -168z" />
<glyph unicode="&#x201e;" horiz-adv-x="931" d="M37 -250q66 70 92.5 107.5t69.5 119.5q-48 15 -68 27q-34 20 -57 63.5t-23 88.5q0 81 56 137.5t135 56.5q84 0 140 -63.5t56 -157.5q0 -81 -35 -152q-34 -71 -80 -132.5t-147 -168.5zM487 -250q66 73 93 110t69 117q-42 14 -69 27q-33 21 -56.5 64t-23.5 86 q0 81 56 138.5t134 57.5q85 0 142 -63.5t57 -157.5q0 -77 -37 -152q-32 -73 -79 -135t-148 -166z" />
<glyph unicode="&#x2022;" horiz-adv-x="530" d="M74 606q0 78 56 134.5t134 56.5q79 0 136 -56.5t57 -134.5q0 -80 -56.5 -136t-138.5 -56q-78 0 -133 56t-55 136z" />
<glyph unicode="&#x2026;" horiz-adv-x="2039" d="M197 147q0 73 51 121q50 51 120.5 51t120.5 -51q51 -50 51 -121t-51 -120q-49 -51 -120 -51t-121 51q-51 48 -51 120zM879 147q0 72 49 121q51 51 121.5 51t121.5 -51q51 -50 51 -121t-51 -120q-51 -51 -121.5 -51t-121.5 51q-49 49 -49 120zM1534 147q0 71 50 121.5 t122 50.5q70 0 121 -50.5t51 -121.5t-51 -121.5t-121 -50.5q-72 0 -122 50.5t-50 121.5z" />
<glyph unicode="&#x202f;" horiz-adv-x="399" />
<glyph unicode="&#x2039;" horiz-adv-x="718" d="M45 510l471 498l160 -158l-322 -340l320 -338l-162 -156z" />
<glyph unicode="&#x203a;" horiz-adv-x="710" d="M45 850l158 156l463 -494l-465 -492l-154 154l313 338z" />
<glyph unicode="&#x205f;" horiz-adv-x="499" />
<glyph unicode="&#x2122;" horiz-adv-x="1583" d="M78 1356v119h448v-121l-157 2v-619h-136v619h-155zM502 737l131 748h104l170 -416q34 -80 37 -154q1 7 2 21.5t2 21.5q8 48 33 111l170 416h104l131 -748h-131l-67 412l-2 22l-2 25q-3 42 0 84q-3 -17 -23 -84l-10 -33l-4 -12l-170 -422h-64l-172 422l-4 14l-10 31 q-9 29 -22 84q5 -36 2 -84l-2 -27l-5 -20l-67 -412h-131z" />
<glyph unicode="&#x25fc;" horiz-adv-x="1034" d="M0 0v1034h1034v-1034h-1034z" />
<glyph unicode="&#xfb01;" d="M256 1018l199 194l243 -241l240 237l199 -196l-242 -240l242 -237l-199 -199l-238 239l-241 -241l-201 201l242 239z" />
<glyph unicode="&#xfb02;" horiz-adv-x="589" d="M-6 1169l100 308h428v-1477h-354v1169h-174z" />
</font>
</defs>
</svg>
